%TF.GenerationSoftware,KiCad,Pcbnew,(5.1.8-0-10_14)*%
%TF.CreationDate,2021-02-10T22:24:42+01:00*%
%TF.ProjectId,ethersweep,65746865-7273-4776-9565-702e6b696361,rev?*%
%TF.SameCoordinates,Original*%
%TF.FileFunction,Soldermask,Top*%
%TF.FilePolarity,Negative*%
%FSLAX46Y46*%
G04 Gerber Fmt 4.6, Leading zero omitted, Abs format (unit mm)*
G04 Created by KiCad (PCBNEW (5.1.8-0-10_14)) date 2021-02-10 22:24:42*
%MOMM*%
%LPD*%
G01*
G04 APERTURE LIST*
%TA.AperFunction,Profile*%
%ADD10C,0.150000*%
%TD*%
%ADD11C,0.010000*%
%ADD12C,1.802000*%
%ADD13C,6.502000*%
%ADD14C,0.902000*%
%ADD15O,1.802000X1.802000*%
%ADD16O,1.802000X2.102000*%
%ADD17C,1.500000*%
%ADD18C,1.632000*%
%ADD19C,2.547000*%
%ADD20C,3.352000*%
%ADD21C,1.542000*%
%ADD22C,6.102000*%
%ADD23C,0.100000*%
G04 APERTURE END LIST*
D10*
X163500000Y-98000000D02*
G75*
G02*
X160500000Y-98000000I-1500000J0D01*
G01*
X160500000Y-91000000D02*
G75*
G02*
X163500000Y-91000000I1500000J0D01*
G01*
X163500000Y-98000000D02*
X163500000Y-91000000D01*
X160500000Y-91000000D02*
X160500000Y-98000000D01*
X160500000Y-102400000D02*
G75*
G02*
X163500000Y-102400000I1500000J0D01*
G01*
X160500000Y-102400000D02*
X160500000Y-109500000D01*
X163500000Y-109500000D02*
X163500000Y-102400000D01*
X163500000Y-109500000D02*
G75*
G02*
X160500000Y-109500000I-1500000J0D01*
G01*
X163500000Y-87250000D02*
G75*
G03*
X163500000Y-87250000I-1500000J0D01*
G01*
X163500000Y-113250000D02*
G75*
G03*
X163500000Y-113250000I-1500000J0D01*
G01*
X160500000Y-84500000D02*
X160500000Y-85000000D01*
X163500000Y-84500000D02*
X163500000Y-85000000D01*
X160500000Y-115500000D02*
X163500000Y-115500000D01*
X163500000Y-85000000D02*
X160500000Y-85000000D01*
X149500000Y-89000000D02*
G75*
G03*
X149500000Y-89000000I-1500000J0D01*
G01*
X129500000Y-90000000D02*
X129500000Y-81000000D01*
X126000000Y-81000000D02*
X129500000Y-81000000D01*
X126000000Y-81000000D02*
G75*
G03*
X122500000Y-84500000I0J-3500000D01*
G01*
X146500000Y-81000000D02*
X157000000Y-81000000D01*
X143500000Y-90000000D02*
X129500000Y-90000000D01*
X146500000Y-87000000D02*
X143500000Y-90000000D01*
X146500000Y-81000000D02*
X146500000Y-87000000D01*
X180500000Y-81000000D02*
X167000000Y-81000000D01*
X184500000Y-81000000D02*
X198000000Y-81000000D01*
X184500000Y-81000000D02*
G75*
G02*
X180500000Y-81000000I-2000000J500000D01*
G01*
X163500000Y-84500000D02*
G75*
G02*
X167000000Y-81000000I3500000J0D01*
G01*
X201500000Y-115500000D02*
G75*
G02*
X198000000Y-119000000I-3500000J0D01*
G01*
X167000000Y-119000000D02*
G75*
G02*
X163500000Y-115500000I0J3500000D01*
G01*
X167000000Y-119000000D02*
X198000000Y-119000000D01*
X198000000Y-81000000D02*
G75*
G02*
X201500000Y-84500000I0J-3500000D01*
G01*
X201500000Y-115500000D02*
X201500000Y-84500000D01*
X122500000Y-115500000D02*
X122500000Y-84500000D01*
X160500000Y-84500000D02*
G75*
G03*
X157000000Y-81000000I-3500000J0D01*
G01*
X157000000Y-119000000D02*
G75*
G03*
X160500000Y-115500000I0J3500000D01*
G01*
X122500000Y-115500000D02*
G75*
G03*
X126000000Y-119000000I3500000J0D01*
G01*
X157000000Y-119000000D02*
X126000000Y-119000000D01*
D11*
G36*
X193730000Y-90300000D02*
G01*
X193730000Y-92700000D01*
X187270000Y-92700000D01*
X187270000Y-90300000D01*
X193730000Y-90300000D01*
G37*
X193730000Y-90300000D02*
X193730000Y-92700000D01*
X187270000Y-92700000D01*
X187270000Y-90300000D01*
X193730000Y-90300000D01*
G36*
X194945000Y-87830000D02*
G01*
X194945000Y-89570000D01*
X194505000Y-89570000D01*
X194505000Y-87830000D01*
X194945000Y-87830000D01*
G37*
X194945000Y-87830000D02*
X194945000Y-89570000D01*
X194505000Y-89570000D01*
X194505000Y-87830000D01*
X194945000Y-87830000D01*
G36*
X194945000Y-93430000D02*
G01*
X194945000Y-95170000D01*
X194505000Y-95170000D01*
X194505000Y-93430000D01*
X194945000Y-93430000D01*
G37*
X194945000Y-93430000D02*
X194945000Y-95170000D01*
X194505000Y-95170000D01*
X194505000Y-93430000D01*
X194945000Y-93430000D01*
G36*
X194295000Y-87830000D02*
G01*
X194295000Y-89570000D01*
X193855000Y-89570000D01*
X193855000Y-87830000D01*
X194295000Y-87830000D01*
G37*
X194295000Y-87830000D02*
X194295000Y-89570000D01*
X193855000Y-89570000D01*
X193855000Y-87830000D01*
X194295000Y-87830000D01*
G36*
X194295000Y-93430000D02*
G01*
X194295000Y-95170000D01*
X193855000Y-95170000D01*
X193855000Y-93430000D01*
X194295000Y-93430000D01*
G37*
X194295000Y-93430000D02*
X194295000Y-95170000D01*
X193855000Y-95170000D01*
X193855000Y-93430000D01*
X194295000Y-93430000D01*
G36*
X193645000Y-87830000D02*
G01*
X193645000Y-89570000D01*
X193205000Y-89570000D01*
X193205000Y-87830000D01*
X193645000Y-87830000D01*
G37*
X193645000Y-87830000D02*
X193645000Y-89570000D01*
X193205000Y-89570000D01*
X193205000Y-87830000D01*
X193645000Y-87830000D01*
G36*
X193645000Y-93430000D02*
G01*
X193645000Y-95170000D01*
X193205000Y-95170000D01*
X193205000Y-93430000D01*
X193645000Y-93430000D01*
G37*
X193645000Y-93430000D02*
X193645000Y-95170000D01*
X193205000Y-95170000D01*
X193205000Y-93430000D01*
X193645000Y-93430000D01*
G36*
X192995000Y-87830000D02*
G01*
X192995000Y-89570000D01*
X192555000Y-89570000D01*
X192555000Y-87830000D01*
X192995000Y-87830000D01*
G37*
X192995000Y-87830000D02*
X192995000Y-89570000D01*
X192555000Y-89570000D01*
X192555000Y-87830000D01*
X192995000Y-87830000D01*
G36*
X192995000Y-93430000D02*
G01*
X192995000Y-95170000D01*
X192555000Y-95170000D01*
X192555000Y-93430000D01*
X192995000Y-93430000D01*
G37*
X192995000Y-93430000D02*
X192995000Y-95170000D01*
X192555000Y-95170000D01*
X192555000Y-93430000D01*
X192995000Y-93430000D01*
G36*
X192345000Y-87830000D02*
G01*
X192345000Y-89570000D01*
X191905000Y-89570000D01*
X191905000Y-87830000D01*
X192345000Y-87830000D01*
G37*
X192345000Y-87830000D02*
X192345000Y-89570000D01*
X191905000Y-89570000D01*
X191905000Y-87830000D01*
X192345000Y-87830000D01*
G36*
X192345000Y-93430000D02*
G01*
X192345000Y-95170000D01*
X191905000Y-95170000D01*
X191905000Y-93430000D01*
X192345000Y-93430000D01*
G37*
X192345000Y-93430000D02*
X192345000Y-95170000D01*
X191905000Y-95170000D01*
X191905000Y-93430000D01*
X192345000Y-93430000D01*
G36*
X191695000Y-87830000D02*
G01*
X191695000Y-89570000D01*
X191255000Y-89570000D01*
X191255000Y-87830000D01*
X191695000Y-87830000D01*
G37*
X191695000Y-87830000D02*
X191695000Y-89570000D01*
X191255000Y-89570000D01*
X191255000Y-87830000D01*
X191695000Y-87830000D01*
G36*
X191695000Y-93430000D02*
G01*
X191695000Y-95170000D01*
X191255000Y-95170000D01*
X191255000Y-93430000D01*
X191695000Y-93430000D01*
G37*
X191695000Y-93430000D02*
X191695000Y-95170000D01*
X191255000Y-95170000D01*
X191255000Y-93430000D01*
X191695000Y-93430000D01*
G36*
X191045000Y-87830000D02*
G01*
X191045000Y-89570000D01*
X190605000Y-89570000D01*
X190605000Y-87830000D01*
X191045000Y-87830000D01*
G37*
X191045000Y-87830000D02*
X191045000Y-89570000D01*
X190605000Y-89570000D01*
X190605000Y-87830000D01*
X191045000Y-87830000D01*
G36*
X191045000Y-93430000D02*
G01*
X191045000Y-95170000D01*
X190605000Y-95170000D01*
X190605000Y-93430000D01*
X191045000Y-93430000D01*
G37*
X191045000Y-93430000D02*
X191045000Y-95170000D01*
X190605000Y-95170000D01*
X190605000Y-93430000D01*
X191045000Y-93430000D01*
G36*
X190395000Y-87830000D02*
G01*
X190395000Y-89570000D01*
X189955000Y-89570000D01*
X189955000Y-87830000D01*
X190395000Y-87830000D01*
G37*
X190395000Y-87830000D02*
X190395000Y-89570000D01*
X189955000Y-89570000D01*
X189955000Y-87830000D01*
X190395000Y-87830000D01*
G36*
X189745000Y-87830000D02*
G01*
X189745000Y-89570000D01*
X189305000Y-89570000D01*
X189305000Y-87830000D01*
X189745000Y-87830000D01*
G37*
X189745000Y-87830000D02*
X189745000Y-89570000D01*
X189305000Y-89570000D01*
X189305000Y-87830000D01*
X189745000Y-87830000D01*
G36*
X189095000Y-87830000D02*
G01*
X189095000Y-89570000D01*
X188655000Y-89570000D01*
X188655000Y-87830000D01*
X189095000Y-87830000D01*
G37*
X189095000Y-87830000D02*
X189095000Y-89570000D01*
X188655000Y-89570000D01*
X188655000Y-87830000D01*
X189095000Y-87830000D01*
G36*
X188445000Y-87830000D02*
G01*
X188445000Y-89570000D01*
X188005000Y-89570000D01*
X188005000Y-87830000D01*
X188445000Y-87830000D01*
G37*
X188445000Y-87830000D02*
X188445000Y-89570000D01*
X188005000Y-89570000D01*
X188005000Y-87830000D01*
X188445000Y-87830000D01*
G36*
X187795000Y-87830000D02*
G01*
X187795000Y-89570000D01*
X187355000Y-89570000D01*
X187355000Y-87830000D01*
X187795000Y-87830000D01*
G37*
X187795000Y-87830000D02*
X187795000Y-89570000D01*
X187355000Y-89570000D01*
X187355000Y-87830000D01*
X187795000Y-87830000D01*
G36*
X187145000Y-87830000D02*
G01*
X187145000Y-89570000D01*
X186705000Y-89570000D01*
X186705000Y-87830000D01*
X187145000Y-87830000D01*
G37*
X187145000Y-87830000D02*
X187145000Y-89570000D01*
X186705000Y-89570000D01*
X186705000Y-87830000D01*
X187145000Y-87830000D01*
G36*
X186495000Y-87830000D02*
G01*
X186495000Y-89570000D01*
X186055000Y-89570000D01*
X186055000Y-87830000D01*
X186495000Y-87830000D01*
G37*
X186495000Y-87830000D02*
X186495000Y-89570000D01*
X186055000Y-89570000D01*
X186055000Y-87830000D01*
X186495000Y-87830000D01*
G36*
X190395000Y-93430000D02*
G01*
X190395000Y-95170000D01*
X189955000Y-95170000D01*
X189955000Y-93430000D01*
X190395000Y-93430000D01*
G37*
X190395000Y-93430000D02*
X190395000Y-95170000D01*
X189955000Y-95170000D01*
X189955000Y-93430000D01*
X190395000Y-93430000D01*
G36*
X189745000Y-93430000D02*
G01*
X189745000Y-95170000D01*
X189305000Y-95170000D01*
X189305000Y-93430000D01*
X189745000Y-93430000D01*
G37*
X189745000Y-93430000D02*
X189745000Y-95170000D01*
X189305000Y-95170000D01*
X189305000Y-93430000D01*
X189745000Y-93430000D01*
G36*
X189095000Y-93430000D02*
G01*
X189095000Y-95170000D01*
X188655000Y-95170000D01*
X188655000Y-93430000D01*
X189095000Y-93430000D01*
G37*
X189095000Y-93430000D02*
X189095000Y-95170000D01*
X188655000Y-95170000D01*
X188655000Y-93430000D01*
X189095000Y-93430000D01*
G36*
X188445000Y-93430000D02*
G01*
X188445000Y-95170000D01*
X188005000Y-95170000D01*
X188005000Y-93430000D01*
X188445000Y-93430000D01*
G37*
X188445000Y-93430000D02*
X188445000Y-95170000D01*
X188005000Y-95170000D01*
X188005000Y-93430000D01*
X188445000Y-93430000D01*
G36*
X187795000Y-93430000D02*
G01*
X187795000Y-95170000D01*
X187355000Y-95170000D01*
X187355000Y-93430000D01*
X187795000Y-93430000D01*
G37*
X187795000Y-93430000D02*
X187795000Y-95170000D01*
X187355000Y-95170000D01*
X187355000Y-93430000D01*
X187795000Y-93430000D01*
G36*
X187145000Y-93430000D02*
G01*
X187145000Y-95170000D01*
X186705000Y-95170000D01*
X186705000Y-93430000D01*
X187145000Y-93430000D01*
G37*
X187145000Y-93430000D02*
X187145000Y-95170000D01*
X186705000Y-95170000D01*
X186705000Y-93430000D01*
X187145000Y-93430000D01*
G36*
X186495000Y-93430000D02*
G01*
X186495000Y-95170000D01*
X186055000Y-95170000D01*
X186055000Y-93430000D01*
X186495000Y-93430000D01*
G37*
X186495000Y-93430000D02*
X186495000Y-95170000D01*
X186055000Y-95170000D01*
X186055000Y-93430000D01*
X186495000Y-93430000D01*
D10*
X163500000Y-98000000D02*
G75*
G02*
X160500000Y-98000000I-1500000J0D01*
G01*
X160500000Y-91000000D02*
G75*
G02*
X163500000Y-91000000I1500000J0D01*
G01*
X163500000Y-98000000D02*
X163500000Y-91000000D01*
X160500000Y-91000000D02*
X160500000Y-98000000D01*
X160500000Y-102400000D02*
G75*
G02*
X163500000Y-102400000I1500000J0D01*
G01*
X160500000Y-102400000D02*
X160500000Y-109500000D01*
X163500000Y-109500000D02*
X163500000Y-102400000D01*
X163500000Y-109500000D02*
G75*
G02*
X160500000Y-109500000I-1500000J0D01*
G01*
X163500000Y-87250000D02*
G75*
G03*
X163500000Y-87250000I-1500000J0D01*
G01*
X163500000Y-113250000D02*
G75*
G03*
X163500000Y-113250000I-1500000J0D01*
G01*
X160500000Y-84500000D02*
X160500000Y-85000000D01*
X163500000Y-84500000D02*
X163500000Y-85000000D01*
X160500000Y-115500000D02*
X163500000Y-115500000D01*
X163500000Y-85000000D02*
X160500000Y-85000000D01*
X149500000Y-89000000D02*
G75*
G03*
X149500000Y-89000000I-1500000J0D01*
G01*
X129500000Y-90000000D02*
X129500000Y-81000000D01*
X126000000Y-81000000D02*
X129500000Y-81000000D01*
X126000000Y-81000000D02*
G75*
G03*
X122500000Y-84500000I0J-3500000D01*
G01*
X146500000Y-81000000D02*
X157000000Y-81000000D01*
X143500000Y-90000000D02*
X129500000Y-90000000D01*
X146500000Y-87000000D02*
X143500000Y-90000000D01*
X146500000Y-81000000D02*
X146500000Y-87000000D01*
X180500000Y-81000000D02*
X167000000Y-81000000D01*
X184500000Y-81000000D02*
X198000000Y-81000000D01*
X184500000Y-81000000D02*
G75*
G02*
X180500000Y-81000000I-2000000J500000D01*
G01*
X163500000Y-84500000D02*
G75*
G02*
X167000000Y-81000000I3500000J0D01*
G01*
X201500000Y-115500000D02*
G75*
G02*
X198000000Y-119000000I-3500000J0D01*
G01*
X167000000Y-119000000D02*
G75*
G02*
X163500000Y-115500000I0J3500000D01*
G01*
X167000000Y-119000000D02*
X198000000Y-119000000D01*
X198000000Y-81000000D02*
G75*
G02*
X201500000Y-84500000I0J-3500000D01*
G01*
X201500000Y-115500000D02*
X201500000Y-84500000D01*
X122500000Y-115500000D02*
X122500000Y-84500000D01*
X160500000Y-84500000D02*
G75*
G03*
X157000000Y-81000000I-3500000J0D01*
G01*
X157000000Y-119000000D02*
G75*
G03*
X160500000Y-115500000I0J3500000D01*
G01*
X122500000Y-115500000D02*
G75*
G03*
X126000000Y-119000000I3500000J0D01*
G01*
X157000000Y-119000000D02*
X126000000Y-119000000D01*
D11*
G36*
X193730000Y-90300000D02*
G01*
X193730000Y-92700000D01*
X187270000Y-92700000D01*
X187270000Y-90300000D01*
X193730000Y-90300000D01*
G37*
X193730000Y-90300000D02*
X193730000Y-92700000D01*
X187270000Y-92700000D01*
X187270000Y-90300000D01*
X193730000Y-90300000D01*
G36*
X194945000Y-87830000D02*
G01*
X194945000Y-89570000D01*
X194505000Y-89570000D01*
X194505000Y-87830000D01*
X194945000Y-87830000D01*
G37*
X194945000Y-87830000D02*
X194945000Y-89570000D01*
X194505000Y-89570000D01*
X194505000Y-87830000D01*
X194945000Y-87830000D01*
G36*
X194945000Y-93430000D02*
G01*
X194945000Y-95170000D01*
X194505000Y-95170000D01*
X194505000Y-93430000D01*
X194945000Y-93430000D01*
G37*
X194945000Y-93430000D02*
X194945000Y-95170000D01*
X194505000Y-95170000D01*
X194505000Y-93430000D01*
X194945000Y-93430000D01*
G36*
X194295000Y-87830000D02*
G01*
X194295000Y-89570000D01*
X193855000Y-89570000D01*
X193855000Y-87830000D01*
X194295000Y-87830000D01*
G37*
X194295000Y-87830000D02*
X194295000Y-89570000D01*
X193855000Y-89570000D01*
X193855000Y-87830000D01*
X194295000Y-87830000D01*
G36*
X194295000Y-93430000D02*
G01*
X194295000Y-95170000D01*
X193855000Y-95170000D01*
X193855000Y-93430000D01*
X194295000Y-93430000D01*
G37*
X194295000Y-93430000D02*
X194295000Y-95170000D01*
X193855000Y-95170000D01*
X193855000Y-93430000D01*
X194295000Y-93430000D01*
G36*
X193645000Y-87830000D02*
G01*
X193645000Y-89570000D01*
X193205000Y-89570000D01*
X193205000Y-87830000D01*
X193645000Y-87830000D01*
G37*
X193645000Y-87830000D02*
X193645000Y-89570000D01*
X193205000Y-89570000D01*
X193205000Y-87830000D01*
X193645000Y-87830000D01*
G36*
X193645000Y-93430000D02*
G01*
X193645000Y-95170000D01*
X193205000Y-95170000D01*
X193205000Y-93430000D01*
X193645000Y-93430000D01*
G37*
X193645000Y-93430000D02*
X193645000Y-95170000D01*
X193205000Y-95170000D01*
X193205000Y-93430000D01*
X193645000Y-93430000D01*
G36*
X192995000Y-87830000D02*
G01*
X192995000Y-89570000D01*
X192555000Y-89570000D01*
X192555000Y-87830000D01*
X192995000Y-87830000D01*
G37*
X192995000Y-87830000D02*
X192995000Y-89570000D01*
X192555000Y-89570000D01*
X192555000Y-87830000D01*
X192995000Y-87830000D01*
G36*
X192995000Y-93430000D02*
G01*
X192995000Y-95170000D01*
X192555000Y-95170000D01*
X192555000Y-93430000D01*
X192995000Y-93430000D01*
G37*
X192995000Y-93430000D02*
X192995000Y-95170000D01*
X192555000Y-95170000D01*
X192555000Y-93430000D01*
X192995000Y-93430000D01*
G36*
X192345000Y-87830000D02*
G01*
X192345000Y-89570000D01*
X191905000Y-89570000D01*
X191905000Y-87830000D01*
X192345000Y-87830000D01*
G37*
X192345000Y-87830000D02*
X192345000Y-89570000D01*
X191905000Y-89570000D01*
X191905000Y-87830000D01*
X192345000Y-87830000D01*
G36*
X192345000Y-93430000D02*
G01*
X192345000Y-95170000D01*
X191905000Y-95170000D01*
X191905000Y-93430000D01*
X192345000Y-93430000D01*
G37*
X192345000Y-93430000D02*
X192345000Y-95170000D01*
X191905000Y-95170000D01*
X191905000Y-93430000D01*
X192345000Y-93430000D01*
G36*
X191695000Y-87830000D02*
G01*
X191695000Y-89570000D01*
X191255000Y-89570000D01*
X191255000Y-87830000D01*
X191695000Y-87830000D01*
G37*
X191695000Y-87830000D02*
X191695000Y-89570000D01*
X191255000Y-89570000D01*
X191255000Y-87830000D01*
X191695000Y-87830000D01*
G36*
X191695000Y-93430000D02*
G01*
X191695000Y-95170000D01*
X191255000Y-95170000D01*
X191255000Y-93430000D01*
X191695000Y-93430000D01*
G37*
X191695000Y-93430000D02*
X191695000Y-95170000D01*
X191255000Y-95170000D01*
X191255000Y-93430000D01*
X191695000Y-93430000D01*
G36*
X191045000Y-87830000D02*
G01*
X191045000Y-89570000D01*
X190605000Y-89570000D01*
X190605000Y-87830000D01*
X191045000Y-87830000D01*
G37*
X191045000Y-87830000D02*
X191045000Y-89570000D01*
X190605000Y-89570000D01*
X190605000Y-87830000D01*
X191045000Y-87830000D01*
G36*
X191045000Y-93430000D02*
G01*
X191045000Y-95170000D01*
X190605000Y-95170000D01*
X190605000Y-93430000D01*
X191045000Y-93430000D01*
G37*
X191045000Y-93430000D02*
X191045000Y-95170000D01*
X190605000Y-95170000D01*
X190605000Y-93430000D01*
X191045000Y-93430000D01*
G36*
X190395000Y-87830000D02*
G01*
X190395000Y-89570000D01*
X189955000Y-89570000D01*
X189955000Y-87830000D01*
X190395000Y-87830000D01*
G37*
X190395000Y-87830000D02*
X190395000Y-89570000D01*
X189955000Y-89570000D01*
X189955000Y-87830000D01*
X190395000Y-87830000D01*
G36*
X189745000Y-87830000D02*
G01*
X189745000Y-89570000D01*
X189305000Y-89570000D01*
X189305000Y-87830000D01*
X189745000Y-87830000D01*
G37*
X189745000Y-87830000D02*
X189745000Y-89570000D01*
X189305000Y-89570000D01*
X189305000Y-87830000D01*
X189745000Y-87830000D01*
G36*
X189095000Y-87830000D02*
G01*
X189095000Y-89570000D01*
X188655000Y-89570000D01*
X188655000Y-87830000D01*
X189095000Y-87830000D01*
G37*
X189095000Y-87830000D02*
X189095000Y-89570000D01*
X188655000Y-89570000D01*
X188655000Y-87830000D01*
X189095000Y-87830000D01*
G36*
X188445000Y-87830000D02*
G01*
X188445000Y-89570000D01*
X188005000Y-89570000D01*
X188005000Y-87830000D01*
X188445000Y-87830000D01*
G37*
X188445000Y-87830000D02*
X188445000Y-89570000D01*
X188005000Y-89570000D01*
X188005000Y-87830000D01*
X188445000Y-87830000D01*
G36*
X187795000Y-87830000D02*
G01*
X187795000Y-89570000D01*
X187355000Y-89570000D01*
X187355000Y-87830000D01*
X187795000Y-87830000D01*
G37*
X187795000Y-87830000D02*
X187795000Y-89570000D01*
X187355000Y-89570000D01*
X187355000Y-87830000D01*
X187795000Y-87830000D01*
G36*
X187145000Y-87830000D02*
G01*
X187145000Y-89570000D01*
X186705000Y-89570000D01*
X186705000Y-87830000D01*
X187145000Y-87830000D01*
G37*
X187145000Y-87830000D02*
X187145000Y-89570000D01*
X186705000Y-89570000D01*
X186705000Y-87830000D01*
X187145000Y-87830000D01*
G36*
X186495000Y-87830000D02*
G01*
X186495000Y-89570000D01*
X186055000Y-89570000D01*
X186055000Y-87830000D01*
X186495000Y-87830000D01*
G37*
X186495000Y-87830000D02*
X186495000Y-89570000D01*
X186055000Y-89570000D01*
X186055000Y-87830000D01*
X186495000Y-87830000D01*
G36*
X190395000Y-93430000D02*
G01*
X190395000Y-95170000D01*
X189955000Y-95170000D01*
X189955000Y-93430000D01*
X190395000Y-93430000D01*
G37*
X190395000Y-93430000D02*
X190395000Y-95170000D01*
X189955000Y-95170000D01*
X189955000Y-93430000D01*
X190395000Y-93430000D01*
G36*
X189745000Y-93430000D02*
G01*
X189745000Y-95170000D01*
X189305000Y-95170000D01*
X189305000Y-93430000D01*
X189745000Y-93430000D01*
G37*
X189745000Y-93430000D02*
X189745000Y-95170000D01*
X189305000Y-95170000D01*
X189305000Y-93430000D01*
X189745000Y-93430000D01*
G36*
X189095000Y-93430000D02*
G01*
X189095000Y-95170000D01*
X188655000Y-95170000D01*
X188655000Y-93430000D01*
X189095000Y-93430000D01*
G37*
X189095000Y-93430000D02*
X189095000Y-95170000D01*
X188655000Y-95170000D01*
X188655000Y-93430000D01*
X189095000Y-93430000D01*
G36*
X188445000Y-93430000D02*
G01*
X188445000Y-95170000D01*
X188005000Y-95170000D01*
X188005000Y-93430000D01*
X188445000Y-93430000D01*
G37*
X188445000Y-93430000D02*
X188445000Y-95170000D01*
X188005000Y-95170000D01*
X188005000Y-93430000D01*
X188445000Y-93430000D01*
G36*
X187795000Y-93430000D02*
G01*
X187795000Y-95170000D01*
X187355000Y-95170000D01*
X187355000Y-93430000D01*
X187795000Y-93430000D01*
G37*
X187795000Y-93430000D02*
X187795000Y-95170000D01*
X187355000Y-95170000D01*
X187355000Y-93430000D01*
X187795000Y-93430000D01*
G36*
X187145000Y-93430000D02*
G01*
X187145000Y-95170000D01*
X186705000Y-95170000D01*
X186705000Y-93430000D01*
X187145000Y-93430000D01*
G37*
X187145000Y-93430000D02*
X187145000Y-95170000D01*
X186705000Y-95170000D01*
X186705000Y-93430000D01*
X187145000Y-93430000D01*
G36*
X186495000Y-93430000D02*
G01*
X186495000Y-95170000D01*
X186055000Y-95170000D01*
X186055000Y-93430000D01*
X186495000Y-93430000D01*
G37*
X186495000Y-93430000D02*
X186495000Y-95170000D01*
X186055000Y-95170000D01*
X186055000Y-93430000D01*
X186495000Y-93430000D01*
G36*
G01*
X148099000Y-113136000D02*
X148099000Y-111864000D01*
G75*
G02*
X148364000Y-111599000I265000J0D01*
G01*
X149636000Y-111599000D01*
G75*
G02*
X149901000Y-111864000I0J-265000D01*
G01*
X149901000Y-113136000D01*
G75*
G02*
X149636000Y-113401000I-265000J0D01*
G01*
X148364000Y-113401000D01*
G75*
G02*
X148099000Y-113136000I0J265000D01*
G01*
G37*
D12*
X149000000Y-115040000D03*
X149000000Y-117580000D03*
X151540000Y-112500000D03*
X151540000Y-115040000D03*
X151540000Y-117580000D03*
G36*
G01*
X175901000Y-86864000D02*
X175901000Y-88136000D01*
G75*
G02*
X175636000Y-88401000I-265000J0D01*
G01*
X174364000Y-88401000D01*
G75*
G02*
X174099000Y-88136000I0J265000D01*
G01*
X174099000Y-86864000D01*
G75*
G02*
X174364000Y-86599000I265000J0D01*
G01*
X175636000Y-86599000D01*
G75*
G02*
X175901000Y-86864000I0J-265000D01*
G01*
G37*
X175000000Y-84960000D03*
X175000000Y-82420000D03*
X172460000Y-87500000D03*
X172460000Y-84960000D03*
X172460000Y-82420000D03*
D13*
X167000000Y-115500000D03*
D14*
X169400000Y-115500000D03*
X168697056Y-117197056D03*
X167000000Y-117900000D03*
X165302944Y-117197056D03*
X164600000Y-115500000D03*
X165302944Y-113802944D03*
X167000000Y-113100000D03*
X168697056Y-113802944D03*
X199697056Y-113777945D03*
X198000000Y-113075001D03*
X196302944Y-113777945D03*
X195600000Y-115475001D03*
X196302944Y-117172057D03*
X198000000Y-117875001D03*
X199697056Y-117172057D03*
X200400000Y-115475001D03*
D13*
X198000000Y-115475001D03*
X198000000Y-84500000D03*
D14*
X200400000Y-84500000D03*
X199697056Y-86197056D03*
X198000000Y-86900000D03*
X196302944Y-86197056D03*
X195600000Y-84500000D03*
X196302944Y-82802944D03*
X198000000Y-82100000D03*
X199697056Y-82802944D03*
X168697056Y-82802944D03*
X167000000Y-82100000D03*
X165302944Y-82802944D03*
X164600000Y-84500000D03*
X165302944Y-86197056D03*
X167000000Y-86900000D03*
X168697056Y-86197056D03*
X169400000Y-84500000D03*
D13*
X167000000Y-84500000D03*
G36*
G01*
X174649000Y-93500500D02*
X174649000Y-92499500D01*
G75*
G02*
X174924500Y-92224000I275500J0D01*
G01*
X175475500Y-92224000D01*
G75*
G02*
X175751000Y-92499500I0J-275500D01*
G01*
X175751000Y-93500500D01*
G75*
G02*
X175475500Y-93776000I-275500J0D01*
G01*
X174924500Y-93776000D01*
G75*
G02*
X174649000Y-93500500I0J275500D01*
G01*
G37*
G36*
G01*
X172749000Y-93500500D02*
X172749000Y-92499500D01*
G75*
G02*
X173024500Y-92224000I275500J0D01*
G01*
X173575500Y-92224000D01*
G75*
G02*
X173851000Y-92499500I0J-275500D01*
G01*
X173851000Y-93500500D01*
G75*
G02*
X173575500Y-93776000I-275500J0D01*
G01*
X173024500Y-93776000D01*
G75*
G02*
X172749000Y-93500500I0J275500D01*
G01*
G37*
G36*
G01*
X129001000Y-92999500D02*
X129001000Y-94000500D01*
G75*
G02*
X128725500Y-94276000I-275500J0D01*
G01*
X128174500Y-94276000D01*
G75*
G02*
X127899000Y-94000500I0J275500D01*
G01*
X127899000Y-92999500D01*
G75*
G02*
X128174500Y-92724000I275500J0D01*
G01*
X128725500Y-92724000D01*
G75*
G02*
X129001000Y-92999500I0J-275500D01*
G01*
G37*
G36*
G01*
X127101000Y-92999500D02*
X127101000Y-94000500D01*
G75*
G02*
X126825500Y-94276000I-275500J0D01*
G01*
X126274500Y-94276000D01*
G75*
G02*
X125999000Y-94000500I0J275500D01*
G01*
X125999000Y-92999500D01*
G75*
G02*
X126274500Y-92724000I275500J0D01*
G01*
X126825500Y-92724000D01*
G75*
G02*
X127101000Y-92999500I0J-275500D01*
G01*
G37*
G36*
G01*
X136195500Y-94811000D02*
X135804500Y-94811000D01*
G75*
G02*
X135639000Y-94645500I0J165500D01*
G01*
X135639000Y-94314500D01*
G75*
G02*
X135804500Y-94149000I165500J0D01*
G01*
X136195500Y-94149000D01*
G75*
G02*
X136361000Y-94314500I0J-165500D01*
G01*
X136361000Y-94645500D01*
G75*
G02*
X136195500Y-94811000I-165500J0D01*
G01*
G37*
G36*
G01*
X136195500Y-93851000D02*
X135804500Y-93851000D01*
G75*
G02*
X135639000Y-93685500I0J165500D01*
G01*
X135639000Y-93354500D01*
G75*
G02*
X135804500Y-93189000I165500J0D01*
G01*
X136195500Y-93189000D01*
G75*
G02*
X136361000Y-93354500I0J-165500D01*
G01*
X136361000Y-93685500D01*
G75*
G02*
X136195500Y-93851000I-165500J0D01*
G01*
G37*
G36*
G01*
X130195500Y-93851000D02*
X129804500Y-93851000D01*
G75*
G02*
X129639000Y-93685500I0J165500D01*
G01*
X129639000Y-93354500D01*
G75*
G02*
X129804500Y-93189000I165500J0D01*
G01*
X130195500Y-93189000D01*
G75*
G02*
X130361000Y-93354500I0J-165500D01*
G01*
X130361000Y-93685500D01*
G75*
G02*
X130195500Y-93851000I-165500J0D01*
G01*
G37*
G36*
G01*
X130195500Y-94811000D02*
X129804500Y-94811000D01*
G75*
G02*
X129639000Y-94645500I0J165500D01*
G01*
X129639000Y-94314500D01*
G75*
G02*
X129804500Y-94149000I165500J0D01*
G01*
X130195500Y-94149000D01*
G75*
G02*
X130361000Y-94314500I0J-165500D01*
G01*
X130361000Y-94645500D01*
G75*
G02*
X130195500Y-94811000I-165500J0D01*
G01*
G37*
G36*
G01*
X190001000Y-99999500D02*
X190001000Y-101000500D01*
G75*
G02*
X189725500Y-101276000I-275500J0D01*
G01*
X189174500Y-101276000D01*
G75*
G02*
X188899000Y-101000500I0J275500D01*
G01*
X188899000Y-99999500D01*
G75*
G02*
X189174500Y-99724000I275500J0D01*
G01*
X189725500Y-99724000D01*
G75*
G02*
X190001000Y-99999500I0J-275500D01*
G01*
G37*
G36*
G01*
X188101000Y-99999500D02*
X188101000Y-101000500D01*
G75*
G02*
X187825500Y-101276000I-275500J0D01*
G01*
X187274500Y-101276000D01*
G75*
G02*
X186999000Y-101000500I0J275500D01*
G01*
X186999000Y-99999500D01*
G75*
G02*
X187274500Y-99724000I275500J0D01*
G01*
X187825500Y-99724000D01*
G75*
G02*
X188101000Y-99999500I0J-275500D01*
G01*
G37*
G36*
G01*
X127101000Y-95499500D02*
X127101000Y-96500500D01*
G75*
G02*
X126825500Y-96776000I-275500J0D01*
G01*
X126274500Y-96776000D01*
G75*
G02*
X125999000Y-96500500I0J275500D01*
G01*
X125999000Y-95499500D01*
G75*
G02*
X126274500Y-95224000I275500J0D01*
G01*
X126825500Y-95224000D01*
G75*
G02*
X127101000Y-95499500I0J-275500D01*
G01*
G37*
G36*
G01*
X129001000Y-95499500D02*
X129001000Y-96500500D01*
G75*
G02*
X128725500Y-96776000I-275500J0D01*
G01*
X128174500Y-96776000D01*
G75*
G02*
X127899000Y-96500500I0J275500D01*
G01*
X127899000Y-95499500D01*
G75*
G02*
X128174500Y-95224000I275500J0D01*
G01*
X128725500Y-95224000D01*
G75*
G02*
X129001000Y-95499500I0J-275500D01*
G01*
G37*
G36*
G01*
X167995500Y-107351000D02*
X167604500Y-107351000D01*
G75*
G02*
X167439000Y-107185500I0J165500D01*
G01*
X167439000Y-106854500D01*
G75*
G02*
X167604500Y-106689000I165500J0D01*
G01*
X167995500Y-106689000D01*
G75*
G02*
X168161000Y-106854500I0J-165500D01*
G01*
X168161000Y-107185500D01*
G75*
G02*
X167995500Y-107351000I-165500J0D01*
G01*
G37*
G36*
G01*
X167995500Y-108311000D02*
X167604500Y-108311000D01*
G75*
G02*
X167439000Y-108145500I0J165500D01*
G01*
X167439000Y-107814500D01*
G75*
G02*
X167604500Y-107649000I165500J0D01*
G01*
X167995500Y-107649000D01*
G75*
G02*
X168161000Y-107814500I0J-165500D01*
G01*
X168161000Y-108145500D01*
G75*
G02*
X167995500Y-108311000I-165500J0D01*
G01*
G37*
G36*
G01*
X188551000Y-107999500D02*
X188551000Y-109000500D01*
G75*
G02*
X188275500Y-109276000I-275500J0D01*
G01*
X187724500Y-109276000D01*
G75*
G02*
X187449000Y-109000500I0J275500D01*
G01*
X187449000Y-107999500D01*
G75*
G02*
X187724500Y-107724000I275500J0D01*
G01*
X188275500Y-107724000D01*
G75*
G02*
X188551000Y-107999500I0J-275500D01*
G01*
G37*
G36*
G01*
X190451000Y-107999500D02*
X190451000Y-109000500D01*
G75*
G02*
X190175500Y-109276000I-275500J0D01*
G01*
X189624500Y-109276000D01*
G75*
G02*
X189349000Y-109000500I0J275500D01*
G01*
X189349000Y-107999500D01*
G75*
G02*
X189624500Y-107724000I275500J0D01*
G01*
X190175500Y-107724000D01*
G75*
G02*
X190451000Y-107999500I0J-275500D01*
G01*
G37*
G36*
G01*
X175204500Y-106689000D02*
X175595500Y-106689000D01*
G75*
G02*
X175761000Y-106854500I0J-165500D01*
G01*
X175761000Y-107185500D01*
G75*
G02*
X175595500Y-107351000I-165500J0D01*
G01*
X175204500Y-107351000D01*
G75*
G02*
X175039000Y-107185500I0J165500D01*
G01*
X175039000Y-106854500D01*
G75*
G02*
X175204500Y-106689000I165500J0D01*
G01*
G37*
G36*
G01*
X175204500Y-107649000D02*
X175595500Y-107649000D01*
G75*
G02*
X175761000Y-107814500I0J-165500D01*
G01*
X175761000Y-108145500D01*
G75*
G02*
X175595500Y-108311000I-165500J0D01*
G01*
X175204500Y-108311000D01*
G75*
G02*
X175039000Y-108145500I0J165500D01*
G01*
X175039000Y-107814500D01*
G75*
G02*
X175204500Y-107649000I165500J0D01*
G01*
G37*
G36*
G01*
X177999000Y-105500500D02*
X177999000Y-104499500D01*
G75*
G02*
X178274500Y-104224000I275500J0D01*
G01*
X178825500Y-104224000D01*
G75*
G02*
X179101000Y-104499500I0J-275500D01*
G01*
X179101000Y-105500500D01*
G75*
G02*
X178825500Y-105776000I-275500J0D01*
G01*
X178274500Y-105776000D01*
G75*
G02*
X177999000Y-105500500I0J275500D01*
G01*
G37*
G36*
G01*
X179899000Y-105500500D02*
X179899000Y-104499500D01*
G75*
G02*
X180174500Y-104224000I275500J0D01*
G01*
X180725500Y-104224000D01*
G75*
G02*
X181001000Y-104499500I0J-275500D01*
G01*
X181001000Y-105500500D01*
G75*
G02*
X180725500Y-105776000I-275500J0D01*
G01*
X180174500Y-105776000D01*
G75*
G02*
X179899000Y-105500500I0J275500D01*
G01*
G37*
G36*
G01*
X128499500Y-107899000D02*
X129500500Y-107899000D01*
G75*
G02*
X129776000Y-108174500I0J-275500D01*
G01*
X129776000Y-108725500D01*
G75*
G02*
X129500500Y-109001000I-275500J0D01*
G01*
X128499500Y-109001000D01*
G75*
G02*
X128224000Y-108725500I0J275500D01*
G01*
X128224000Y-108174500D01*
G75*
G02*
X128499500Y-107899000I275500J0D01*
G01*
G37*
G36*
G01*
X128499500Y-105999000D02*
X129500500Y-105999000D01*
G75*
G02*
X129776000Y-106274500I0J-275500D01*
G01*
X129776000Y-106825500D01*
G75*
G02*
X129500500Y-107101000I-275500J0D01*
G01*
X128499500Y-107101000D01*
G75*
G02*
X128224000Y-106825500I0J275500D01*
G01*
X128224000Y-106274500D01*
G75*
G02*
X128499500Y-105999000I275500J0D01*
G01*
G37*
G36*
G01*
X142399000Y-93000500D02*
X142399000Y-91999500D01*
G75*
G02*
X142674500Y-91724000I275500J0D01*
G01*
X143225500Y-91724000D01*
G75*
G02*
X143501000Y-91999500I0J-275500D01*
G01*
X143501000Y-93000500D01*
G75*
G02*
X143225500Y-93276000I-275500J0D01*
G01*
X142674500Y-93276000D01*
G75*
G02*
X142399000Y-93000500I0J275500D01*
G01*
G37*
G36*
G01*
X140499000Y-93000500D02*
X140499000Y-91999500D01*
G75*
G02*
X140774500Y-91724000I275500J0D01*
G01*
X141325500Y-91724000D01*
G75*
G02*
X141601000Y-91999500I0J-275500D01*
G01*
X141601000Y-93000500D01*
G75*
G02*
X141325500Y-93276000I-275500J0D01*
G01*
X140774500Y-93276000D01*
G75*
G02*
X140499000Y-93000500I0J275500D01*
G01*
G37*
G36*
G01*
X135001000Y-107999500D02*
X135001000Y-109000500D01*
G75*
G02*
X134725500Y-109276000I-275500J0D01*
G01*
X134174500Y-109276000D01*
G75*
G02*
X133899000Y-109000500I0J275500D01*
G01*
X133899000Y-107999500D01*
G75*
G02*
X134174500Y-107724000I275500J0D01*
G01*
X134725500Y-107724000D01*
G75*
G02*
X135001000Y-107999500I0J-275500D01*
G01*
G37*
G36*
G01*
X133101000Y-107999500D02*
X133101000Y-109000500D01*
G75*
G02*
X132825500Y-109276000I-275500J0D01*
G01*
X132274500Y-109276000D01*
G75*
G02*
X131999000Y-109000500I0J275500D01*
G01*
X131999000Y-107999500D01*
G75*
G02*
X132274500Y-107724000I275500J0D01*
G01*
X132825500Y-107724000D01*
G75*
G02*
X133101000Y-107999500I0J-275500D01*
G01*
G37*
G36*
G01*
X148899000Y-103000500D02*
X148899000Y-101999500D01*
G75*
G02*
X149174500Y-101724000I275500J0D01*
G01*
X149725500Y-101724000D01*
G75*
G02*
X150001000Y-101999500I0J-275500D01*
G01*
X150001000Y-103000500D01*
G75*
G02*
X149725500Y-103276000I-275500J0D01*
G01*
X149174500Y-103276000D01*
G75*
G02*
X148899000Y-103000500I0J275500D01*
G01*
G37*
G36*
G01*
X146999000Y-103000500D02*
X146999000Y-101999500D01*
G75*
G02*
X147274500Y-101724000I275500J0D01*
G01*
X147825500Y-101724000D01*
G75*
G02*
X148101000Y-101999500I0J-275500D01*
G01*
X148101000Y-103000500D01*
G75*
G02*
X147825500Y-103276000I-275500J0D01*
G01*
X147274500Y-103276000D01*
G75*
G02*
X146999000Y-103000500I0J275500D01*
G01*
G37*
G36*
G01*
X146999000Y-100855501D02*
X146999000Y-99854501D01*
G75*
G02*
X147274500Y-99579001I275500J0D01*
G01*
X147825500Y-99579001D01*
G75*
G02*
X148101000Y-99854501I0J-275500D01*
G01*
X148101000Y-100855501D01*
G75*
G02*
X147825500Y-101131001I-275500J0D01*
G01*
X147274500Y-101131001D01*
G75*
G02*
X146999000Y-100855501I0J275500D01*
G01*
G37*
G36*
G01*
X148899000Y-100855501D02*
X148899000Y-99854501D01*
G75*
G02*
X149174500Y-99579001I275500J0D01*
G01*
X149725500Y-99579001D01*
G75*
G02*
X150001000Y-99854501I0J-275500D01*
G01*
X150001000Y-100855501D01*
G75*
G02*
X149725500Y-101131001I-275500J0D01*
G01*
X149174500Y-101131001D01*
G75*
G02*
X148899000Y-100855501I0J275500D01*
G01*
G37*
G36*
G01*
X198000500Y-91501000D02*
X196999500Y-91501000D01*
G75*
G02*
X196724000Y-91225500I0J275500D01*
G01*
X196724000Y-90674500D01*
G75*
G02*
X196999500Y-90399000I275500J0D01*
G01*
X198000500Y-90399000D01*
G75*
G02*
X198276000Y-90674500I0J-275500D01*
G01*
X198276000Y-91225500D01*
G75*
G02*
X198000500Y-91501000I-275500J0D01*
G01*
G37*
G36*
G01*
X198000500Y-89601000D02*
X196999500Y-89601000D01*
G75*
G02*
X196724000Y-89325500I0J275500D01*
G01*
X196724000Y-88774500D01*
G75*
G02*
X196999500Y-88499000I275500J0D01*
G01*
X198000500Y-88499000D01*
G75*
G02*
X198276000Y-88774500I0J-275500D01*
G01*
X198276000Y-89325500D01*
G75*
G02*
X198000500Y-89601000I-275500J0D01*
G01*
G37*
G36*
G01*
X194000500Y-84501000D02*
X192999500Y-84501000D01*
G75*
G02*
X192724000Y-84225500I0J275500D01*
G01*
X192724000Y-83674500D01*
G75*
G02*
X192999500Y-83399000I275500J0D01*
G01*
X194000500Y-83399000D01*
G75*
G02*
X194276000Y-83674500I0J-275500D01*
G01*
X194276000Y-84225500D01*
G75*
G02*
X194000500Y-84501000I-275500J0D01*
G01*
G37*
G36*
G01*
X194000500Y-82601000D02*
X192999500Y-82601000D01*
G75*
G02*
X192724000Y-82325500I0J275500D01*
G01*
X192724000Y-81774500D01*
G75*
G02*
X192999500Y-81499000I275500J0D01*
G01*
X194000500Y-81499000D01*
G75*
G02*
X194276000Y-81774500I0J-275500D01*
G01*
X194276000Y-82325500D01*
G75*
G02*
X194000500Y-82601000I-275500J0D01*
G01*
G37*
G36*
G01*
X190949000Y-101540800D02*
X190949000Y-99459200D01*
G75*
G02*
X191209200Y-99199000I260200J0D01*
G01*
X194290800Y-99199000D01*
G75*
G02*
X194551000Y-99459200I0J-260200D01*
G01*
X194551000Y-101540800D01*
G75*
G02*
X194290800Y-101801000I-260200J0D01*
G01*
X191209200Y-101801000D01*
G75*
G02*
X190949000Y-101540800I0J260200D01*
G01*
G37*
G36*
G01*
X197449000Y-101540800D02*
X197449000Y-99459200D01*
G75*
G02*
X197709200Y-99199000I260200J0D01*
G01*
X200790800Y-99199000D01*
G75*
G02*
X201051000Y-99459200I0J-260200D01*
G01*
X201051000Y-101540800D01*
G75*
G02*
X200790800Y-101801000I-260200J0D01*
G01*
X197709200Y-101801000D01*
G75*
G02*
X197449000Y-101540800I0J260200D01*
G01*
G37*
G36*
G01*
X184500500Y-91601000D02*
X183499500Y-91601000D01*
G75*
G02*
X183224000Y-91325500I0J275500D01*
G01*
X183224000Y-90774500D01*
G75*
G02*
X183499500Y-90499000I275500J0D01*
G01*
X184500500Y-90499000D01*
G75*
G02*
X184776000Y-90774500I0J-275500D01*
G01*
X184776000Y-91325500D01*
G75*
G02*
X184500500Y-91601000I-275500J0D01*
G01*
G37*
G36*
G01*
X184500500Y-93501000D02*
X183499500Y-93501000D01*
G75*
G02*
X183224000Y-93225500I0J275500D01*
G01*
X183224000Y-92674500D01*
G75*
G02*
X183499500Y-92399000I275500J0D01*
G01*
X184500500Y-92399000D01*
G75*
G02*
X184776000Y-92674500I0J-275500D01*
G01*
X184776000Y-93225500D01*
G75*
G02*
X184500500Y-93501000I-275500J0D01*
G01*
G37*
G36*
G01*
X198899000Y-95500500D02*
X198899000Y-94499500D01*
G75*
G02*
X199174500Y-94224000I275500J0D01*
G01*
X199725500Y-94224000D01*
G75*
G02*
X200001000Y-94499500I0J-275500D01*
G01*
X200001000Y-95500500D01*
G75*
G02*
X199725500Y-95776000I-275500J0D01*
G01*
X199174500Y-95776000D01*
G75*
G02*
X198899000Y-95500500I0J275500D01*
G01*
G37*
G36*
G01*
X196999000Y-95500500D02*
X196999000Y-94499500D01*
G75*
G02*
X197274500Y-94224000I275500J0D01*
G01*
X197825500Y-94224000D01*
G75*
G02*
X198101000Y-94499500I0J-275500D01*
G01*
X198101000Y-95500500D01*
G75*
G02*
X197825500Y-95776000I-275500J0D01*
G01*
X197274500Y-95776000D01*
G75*
G02*
X196999000Y-95500500I0J275500D01*
G01*
G37*
G36*
G01*
X196999000Y-93500500D02*
X196999000Y-92499500D01*
G75*
G02*
X197274500Y-92224000I275500J0D01*
G01*
X197825500Y-92224000D01*
G75*
G02*
X198101000Y-92499500I0J-275500D01*
G01*
X198101000Y-93500500D01*
G75*
G02*
X197825500Y-93776000I-275500J0D01*
G01*
X197274500Y-93776000D01*
G75*
G02*
X196999000Y-93500500I0J275500D01*
G01*
G37*
G36*
G01*
X198899000Y-93500500D02*
X198899000Y-92499500D01*
G75*
G02*
X199174500Y-92224000I275500J0D01*
G01*
X199725500Y-92224000D01*
G75*
G02*
X200001000Y-92499500I0J-275500D01*
G01*
X200001000Y-93500500D01*
G75*
G02*
X199725500Y-93776000I-275500J0D01*
G01*
X199174500Y-93776000D01*
G75*
G02*
X198899000Y-93500500I0J275500D01*
G01*
G37*
G36*
G01*
X147518250Y-82024000D02*
X148481750Y-82024000D01*
G75*
G02*
X148751000Y-82293250I0J-269250D01*
G01*
X148751000Y-82831750D01*
G75*
G02*
X148481750Y-83101000I-269250J0D01*
G01*
X147518250Y-83101000D01*
G75*
G02*
X147249000Y-82831750I0J269250D01*
G01*
X147249000Y-82293250D01*
G75*
G02*
X147518250Y-82024000I269250J0D01*
G01*
G37*
G36*
G01*
X147518250Y-83899000D02*
X148481750Y-83899000D01*
G75*
G02*
X148751000Y-84168250I0J-269250D01*
G01*
X148751000Y-84706750D01*
G75*
G02*
X148481750Y-84976000I-269250J0D01*
G01*
X147518250Y-84976000D01*
G75*
G02*
X147249000Y-84706750I0J269250D01*
G01*
X147249000Y-84168250D01*
G75*
G02*
X147518250Y-83899000I269250J0D01*
G01*
G37*
G36*
G01*
X124901000Y-102950000D02*
X124901000Y-104650000D01*
G75*
G02*
X124850000Y-104701000I-51000J0D01*
G01*
X123150000Y-104701000D01*
G75*
G02*
X123099000Y-104650000I0J51000D01*
G01*
X123099000Y-102950000D01*
G75*
G02*
X123150000Y-102899000I51000J0D01*
G01*
X124850000Y-102899000D01*
G75*
G02*
X124901000Y-102950000I0J-51000D01*
G01*
G37*
D15*
X124000000Y-101260000D03*
X124000000Y-98720000D03*
X124000000Y-96180000D03*
G36*
G01*
X132099000Y-114786000D02*
X132099000Y-113214000D01*
G75*
G02*
X132364000Y-112949000I265000J0D01*
G01*
X133636000Y-112949000D01*
G75*
G02*
X133901000Y-113214000I0J-265000D01*
G01*
X133901000Y-114786000D01*
G75*
G02*
X133636000Y-115051000I-265000J0D01*
G01*
X132364000Y-115051000D01*
G75*
G02*
X132099000Y-114786000I0J265000D01*
G01*
G37*
D16*
X135500000Y-114000000D03*
X143500000Y-114000000D03*
G36*
G01*
X140099000Y-114786000D02*
X140099000Y-113214000D01*
G75*
G02*
X140364000Y-112949000I265000J0D01*
G01*
X141636000Y-112949000D01*
G75*
G02*
X141901000Y-113214000I0J-265000D01*
G01*
X141901000Y-114786000D01*
G75*
G02*
X141636000Y-115051000I-265000J0D01*
G01*
X140364000Y-115051000D01*
G75*
G02*
X140099000Y-114786000I0J265000D01*
G01*
G37*
G36*
G01*
X145849000Y-96300000D02*
X144451000Y-96300000D01*
G75*
G02*
X144400000Y-96249000I0J51000D01*
G01*
X144400000Y-94851000D01*
G75*
G02*
X144451000Y-94800000I51000J0D01*
G01*
X145849000Y-94800000D01*
G75*
G02*
X145900000Y-94851000I0J-51000D01*
G01*
X145900000Y-96249000D01*
G75*
G02*
X145849000Y-96300000I-51000J0D01*
G01*
G37*
D17*
X142610000Y-96820000D03*
X145150000Y-98090000D03*
X142610000Y-99360000D03*
X145150000Y-100630000D03*
X142610000Y-101900000D03*
X145150000Y-103170000D03*
X142610000Y-104440000D03*
D18*
X156400000Y-93375000D03*
X156400000Y-95915000D03*
X156400000Y-106625000D03*
X156400000Y-104085000D03*
D19*
X148450000Y-92255000D03*
X148450000Y-107745000D03*
D20*
X151500000Y-105715000D03*
X151500000Y-94285000D03*
G36*
G01*
X176849000Y-85230000D02*
X176849000Y-84230000D01*
G75*
G02*
X176900000Y-84179000I51000J0D01*
G01*
X180050000Y-84179000D01*
G75*
G02*
X180101000Y-84230000I0J-51000D01*
G01*
X180101000Y-85230000D01*
G75*
G02*
X180050000Y-85281000I-51000J0D01*
G01*
X176900000Y-85281000D01*
G75*
G02*
X176849000Y-85230000I0J51000D01*
G01*
G37*
G36*
G01*
X181899000Y-85230000D02*
X181899000Y-84230000D01*
G75*
G02*
X181950000Y-84179000I51000J0D01*
G01*
X185100000Y-84179000D01*
G75*
G02*
X185151000Y-84230000I0J-51000D01*
G01*
X185151000Y-85230000D01*
G75*
G02*
X185100000Y-85281000I-51000J0D01*
G01*
X181950000Y-85281000D01*
G75*
G02*
X181899000Y-85230000I0J51000D01*
G01*
G37*
G36*
G01*
X176849000Y-87770000D02*
X176849000Y-86770000D01*
G75*
G02*
X176900000Y-86719000I51000J0D01*
G01*
X180050000Y-86719000D01*
G75*
G02*
X180101000Y-86770000I0J-51000D01*
G01*
X180101000Y-87770000D01*
G75*
G02*
X180050000Y-87821000I-51000J0D01*
G01*
X176900000Y-87821000D01*
G75*
G02*
X176849000Y-87770000I0J51000D01*
G01*
G37*
G36*
G01*
X181899000Y-87770000D02*
X181899000Y-86770000D01*
G75*
G02*
X181950000Y-86719000I51000J0D01*
G01*
X185100000Y-86719000D01*
G75*
G02*
X185151000Y-86770000I0J-51000D01*
G01*
X185151000Y-87770000D01*
G75*
G02*
X185100000Y-87821000I-51000J0D01*
G01*
X181950000Y-87821000D01*
G75*
G02*
X181899000Y-87770000I0J51000D01*
G01*
G37*
G36*
G01*
X139300500Y-107126000D02*
X138699500Y-107126000D01*
G75*
G02*
X138474000Y-106900500I0J225500D01*
G01*
X138474000Y-106449500D01*
G75*
G02*
X138699500Y-106224000I225500J0D01*
G01*
X139300500Y-106224000D01*
G75*
G02*
X139526000Y-106449500I0J-225500D01*
G01*
X139526000Y-106900500D01*
G75*
G02*
X139300500Y-107126000I-225500J0D01*
G01*
G37*
G36*
G01*
X139300500Y-108776000D02*
X138699500Y-108776000D01*
G75*
G02*
X138474000Y-108550500I0J225500D01*
G01*
X138474000Y-108099500D01*
G75*
G02*
X138699500Y-107874000I225500J0D01*
G01*
X139300500Y-107874000D01*
G75*
G02*
X139526000Y-108099500I0J-225500D01*
G01*
X139526000Y-108550500D01*
G75*
G02*
X139300500Y-108776000I-225500J0D01*
G01*
G37*
G36*
G01*
X152626000Y-102199500D02*
X152626000Y-102800500D01*
G75*
G02*
X152400500Y-103026000I-225500J0D01*
G01*
X151949500Y-103026000D01*
G75*
G02*
X151724000Y-102800500I0J225500D01*
G01*
X151724000Y-102199500D01*
G75*
G02*
X151949500Y-101974000I225500J0D01*
G01*
X152400500Y-101974000D01*
G75*
G02*
X152626000Y-102199500I0J-225500D01*
G01*
G37*
G36*
G01*
X154276000Y-102199500D02*
X154276000Y-102800500D01*
G75*
G02*
X154050500Y-103026000I-225500J0D01*
G01*
X153599500Y-103026000D01*
G75*
G02*
X153374000Y-102800500I0J225500D01*
G01*
X153374000Y-102199500D01*
G75*
G02*
X153599500Y-101974000I225500J0D01*
G01*
X154050500Y-101974000D01*
G75*
G02*
X154276000Y-102199500I0J-225500D01*
G01*
G37*
G36*
G01*
X154276000Y-100199500D02*
X154276000Y-100800500D01*
G75*
G02*
X154050500Y-101026000I-225500J0D01*
G01*
X153599500Y-101026000D01*
G75*
G02*
X153374000Y-100800500I0J225500D01*
G01*
X153374000Y-100199500D01*
G75*
G02*
X153599500Y-99974000I225500J0D01*
G01*
X154050500Y-99974000D01*
G75*
G02*
X154276000Y-100199500I0J-225500D01*
G01*
G37*
G36*
G01*
X152626000Y-100199500D02*
X152626000Y-100800500D01*
G75*
G02*
X152400500Y-101026000I-225500J0D01*
G01*
X151949500Y-101026000D01*
G75*
G02*
X151724000Y-100800500I0J225500D01*
G01*
X151724000Y-100199500D01*
G75*
G02*
X151949500Y-99974000I225500J0D01*
G01*
X152400500Y-99974000D01*
G75*
G02*
X152626000Y-100199500I0J-225500D01*
G01*
G37*
G36*
G01*
X139199500Y-93874000D02*
X139800500Y-93874000D01*
G75*
G02*
X140026000Y-94099500I0J-225500D01*
G01*
X140026000Y-94550500D01*
G75*
G02*
X139800500Y-94776000I-225500J0D01*
G01*
X139199500Y-94776000D01*
G75*
G02*
X138974000Y-94550500I0J225500D01*
G01*
X138974000Y-94099500D01*
G75*
G02*
X139199500Y-93874000I225500J0D01*
G01*
G37*
G36*
G01*
X139199500Y-92224000D02*
X139800500Y-92224000D01*
G75*
G02*
X140026000Y-92449500I0J-225500D01*
G01*
X140026000Y-92900500D01*
G75*
G02*
X139800500Y-93126000I-225500J0D01*
G01*
X139199500Y-93126000D01*
G75*
G02*
X138974000Y-92900500I0J225500D01*
G01*
X138974000Y-92449500D01*
G75*
G02*
X139199500Y-92224000I225500J0D01*
G01*
G37*
G36*
G01*
X137699500Y-92224000D02*
X138300500Y-92224000D01*
G75*
G02*
X138526000Y-92449500I0J-225500D01*
G01*
X138526000Y-92900500D01*
G75*
G02*
X138300500Y-93126000I-225500J0D01*
G01*
X137699500Y-93126000D01*
G75*
G02*
X137474000Y-92900500I0J225500D01*
G01*
X137474000Y-92449500D01*
G75*
G02*
X137699500Y-92224000I225500J0D01*
G01*
G37*
G36*
G01*
X137699500Y-93874000D02*
X138300500Y-93874000D01*
G75*
G02*
X138526000Y-94099500I0J-225500D01*
G01*
X138526000Y-94550500D01*
G75*
G02*
X138300500Y-94776000I-225500J0D01*
G01*
X137699500Y-94776000D01*
G75*
G02*
X137474000Y-94550500I0J225500D01*
G01*
X137474000Y-94099500D01*
G75*
G02*
X137699500Y-93874000I225500J0D01*
G01*
G37*
G36*
G01*
X136300500Y-107126000D02*
X135699500Y-107126000D01*
G75*
G02*
X135474000Y-106900500I0J225500D01*
G01*
X135474000Y-106449500D01*
G75*
G02*
X135699500Y-106224000I225500J0D01*
G01*
X136300500Y-106224000D01*
G75*
G02*
X136526000Y-106449500I0J-225500D01*
G01*
X136526000Y-106900500D01*
G75*
G02*
X136300500Y-107126000I-225500J0D01*
G01*
G37*
G36*
G01*
X136300500Y-108776000D02*
X135699500Y-108776000D01*
G75*
G02*
X135474000Y-108550500I0J225500D01*
G01*
X135474000Y-108099500D01*
G75*
G02*
X135699500Y-107874000I225500J0D01*
G01*
X136300500Y-107874000D01*
G75*
G02*
X136526000Y-108099500I0J-225500D01*
G01*
X136526000Y-108550500D01*
G75*
G02*
X136300500Y-108776000I-225500J0D01*
G01*
G37*
G36*
G01*
X137800500Y-108776000D02*
X137199500Y-108776000D01*
G75*
G02*
X136974000Y-108550500I0J225500D01*
G01*
X136974000Y-108099500D01*
G75*
G02*
X137199500Y-107874000I225500J0D01*
G01*
X137800500Y-107874000D01*
G75*
G02*
X138026000Y-108099500I0J-225500D01*
G01*
X138026000Y-108550500D01*
G75*
G02*
X137800500Y-108776000I-225500J0D01*
G01*
G37*
G36*
G01*
X137800500Y-107126000D02*
X137199500Y-107126000D01*
G75*
G02*
X136974000Y-106900500I0J225500D01*
G01*
X136974000Y-106449500D01*
G75*
G02*
X137199500Y-106224000I225500J0D01*
G01*
X137800500Y-106224000D01*
G75*
G02*
X138026000Y-106449500I0J-225500D01*
G01*
X138026000Y-106900500D01*
G75*
G02*
X137800500Y-107126000I-225500J0D01*
G01*
G37*
G36*
G01*
X191653336Y-82651000D02*
X190346664Y-82651000D01*
G75*
G02*
X190074000Y-82378336I0J272664D01*
G01*
X190074000Y-81696664D01*
G75*
G02*
X190346664Y-81424000I272664J0D01*
G01*
X191653336Y-81424000D01*
G75*
G02*
X191926000Y-81696664I0J-272664D01*
G01*
X191926000Y-82378336D01*
G75*
G02*
X191653336Y-82651000I-272664J0D01*
G01*
G37*
G36*
G01*
X191653336Y-85576000D02*
X190346664Y-85576000D01*
G75*
G02*
X190074000Y-85303336I0J272664D01*
G01*
X190074000Y-84621664D01*
G75*
G02*
X190346664Y-84349000I272664J0D01*
G01*
X191653336Y-84349000D01*
G75*
G02*
X191926000Y-84621664I0J-272664D01*
G01*
X191926000Y-85303336D01*
G75*
G02*
X191653336Y-85576000I-272664J0D01*
G01*
G37*
G36*
G01*
X188153336Y-85576000D02*
X186846664Y-85576000D01*
G75*
G02*
X186574000Y-85303336I0J272664D01*
G01*
X186574000Y-84621664D01*
G75*
G02*
X186846664Y-84349000I272664J0D01*
G01*
X188153336Y-84349000D01*
G75*
G02*
X188426000Y-84621664I0J-272664D01*
G01*
X188426000Y-85303336D01*
G75*
G02*
X188153336Y-85576000I-272664J0D01*
G01*
G37*
G36*
G01*
X188153336Y-82651000D02*
X186846664Y-82651000D01*
G75*
G02*
X186574000Y-82378336I0J272664D01*
G01*
X186574000Y-81696664D01*
G75*
G02*
X186846664Y-81424000I272664J0D01*
G01*
X188153336Y-81424000D01*
G75*
G02*
X188426000Y-81696664I0J-272664D01*
G01*
X188426000Y-82378336D01*
G75*
G02*
X188153336Y-82651000I-272664J0D01*
G01*
G37*
G36*
G01*
X149276000Y-86199500D02*
X149276000Y-86800500D01*
G75*
G02*
X149050500Y-87026000I-225500J0D01*
G01*
X148599500Y-87026000D01*
G75*
G02*
X148374000Y-86800500I0J225500D01*
G01*
X148374000Y-86199500D01*
G75*
G02*
X148599500Y-85974000I225500J0D01*
G01*
X149050500Y-85974000D01*
G75*
G02*
X149276000Y-86199500I0J-225500D01*
G01*
G37*
G36*
G01*
X147626000Y-86199500D02*
X147626000Y-86800500D01*
G75*
G02*
X147400500Y-87026000I-225500J0D01*
G01*
X146949500Y-87026000D01*
G75*
G02*
X146724000Y-86800500I0J225500D01*
G01*
X146724000Y-86199500D01*
G75*
G02*
X146949500Y-85974000I225500J0D01*
G01*
X147400500Y-85974000D01*
G75*
G02*
X147626000Y-86199500I0J-225500D01*
G01*
G37*
D21*
X175000000Y-112000000D03*
X175000000Y-114540000D03*
X175000000Y-117080000D03*
G36*
G01*
X152325500Y-82851000D02*
X150674500Y-82851000D01*
G75*
G02*
X150449000Y-82625500I0J225500D01*
G01*
X150449000Y-82174500D01*
G75*
G02*
X150674500Y-81949000I225500J0D01*
G01*
X152325500Y-81949000D01*
G75*
G02*
X152551000Y-82174500I0J-225500D01*
G01*
X152551000Y-82625500D01*
G75*
G02*
X152325500Y-82851000I-225500J0D01*
G01*
G37*
G36*
G01*
X152325500Y-87051000D02*
X150674500Y-87051000D01*
G75*
G02*
X150449000Y-86825500I0J225500D01*
G01*
X150449000Y-86374500D01*
G75*
G02*
X150674500Y-86149000I225500J0D01*
G01*
X152325500Y-86149000D01*
G75*
G02*
X152551000Y-86374500I0J-225500D01*
G01*
X152551000Y-86825500D01*
G75*
G02*
X152325500Y-87051000I-225500J0D01*
G01*
G37*
G36*
G01*
X130500000Y-105026000D02*
X130050000Y-105026000D01*
G75*
G02*
X129999000Y-104975000I0J51000D01*
G01*
X129999000Y-103225000D01*
G75*
G02*
X130050000Y-103174000I51000J0D01*
G01*
X130500000Y-103174000D01*
G75*
G02*
X130551000Y-103225000I0J-51000D01*
G01*
X130551000Y-104975000D01*
G75*
G02*
X130500000Y-105026000I-51000J0D01*
G01*
G37*
G36*
G01*
X131150000Y-105026000D02*
X130700000Y-105026000D01*
G75*
G02*
X130649000Y-104975000I0J51000D01*
G01*
X130649000Y-103225000D01*
G75*
G02*
X130700000Y-103174000I51000J0D01*
G01*
X131150000Y-103174000D01*
G75*
G02*
X131201000Y-103225000I0J-51000D01*
G01*
X131201000Y-104975000D01*
G75*
G02*
X131150000Y-105026000I-51000J0D01*
G01*
G37*
G36*
G01*
X131800000Y-105026000D02*
X131350000Y-105026000D01*
G75*
G02*
X131299000Y-104975000I0J51000D01*
G01*
X131299000Y-103225000D01*
G75*
G02*
X131350000Y-103174000I51000J0D01*
G01*
X131800000Y-103174000D01*
G75*
G02*
X131851000Y-103225000I0J-51000D01*
G01*
X131851000Y-104975000D01*
G75*
G02*
X131800000Y-105026000I-51000J0D01*
G01*
G37*
G36*
G01*
X132450000Y-105026000D02*
X132000000Y-105026000D01*
G75*
G02*
X131949000Y-104975000I0J51000D01*
G01*
X131949000Y-103225000D01*
G75*
G02*
X132000000Y-103174000I51000J0D01*
G01*
X132450000Y-103174000D01*
G75*
G02*
X132501000Y-103225000I0J-51000D01*
G01*
X132501000Y-104975000D01*
G75*
G02*
X132450000Y-105026000I-51000J0D01*
G01*
G37*
G36*
G01*
X133100000Y-105026000D02*
X132650000Y-105026000D01*
G75*
G02*
X132599000Y-104975000I0J51000D01*
G01*
X132599000Y-103225000D01*
G75*
G02*
X132650000Y-103174000I51000J0D01*
G01*
X133100000Y-103174000D01*
G75*
G02*
X133151000Y-103225000I0J-51000D01*
G01*
X133151000Y-104975000D01*
G75*
G02*
X133100000Y-105026000I-51000J0D01*
G01*
G37*
G36*
G01*
X133750000Y-105026000D02*
X133300000Y-105026000D01*
G75*
G02*
X133249000Y-104975000I0J51000D01*
G01*
X133249000Y-103225000D01*
G75*
G02*
X133300000Y-103174000I51000J0D01*
G01*
X133750000Y-103174000D01*
G75*
G02*
X133801000Y-103225000I0J-51000D01*
G01*
X133801000Y-104975000D01*
G75*
G02*
X133750000Y-105026000I-51000J0D01*
G01*
G37*
G36*
G01*
X134400000Y-105026000D02*
X133950000Y-105026000D01*
G75*
G02*
X133899000Y-104975000I0J51000D01*
G01*
X133899000Y-103225000D01*
G75*
G02*
X133950000Y-103174000I51000J0D01*
G01*
X134400000Y-103174000D01*
G75*
G02*
X134451000Y-103225000I0J-51000D01*
G01*
X134451000Y-104975000D01*
G75*
G02*
X134400000Y-105026000I-51000J0D01*
G01*
G37*
G36*
G01*
X135050000Y-105026000D02*
X134600000Y-105026000D01*
G75*
G02*
X134549000Y-104975000I0J51000D01*
G01*
X134549000Y-103225000D01*
G75*
G02*
X134600000Y-103174000I51000J0D01*
G01*
X135050000Y-103174000D01*
G75*
G02*
X135101000Y-103225000I0J-51000D01*
G01*
X135101000Y-104975000D01*
G75*
G02*
X135050000Y-105026000I-51000J0D01*
G01*
G37*
G36*
G01*
X135700000Y-105026000D02*
X135250000Y-105026000D01*
G75*
G02*
X135199000Y-104975000I0J51000D01*
G01*
X135199000Y-103225000D01*
G75*
G02*
X135250000Y-103174000I51000J0D01*
G01*
X135700000Y-103174000D01*
G75*
G02*
X135751000Y-103225000I0J-51000D01*
G01*
X135751000Y-104975000D01*
G75*
G02*
X135700000Y-105026000I-51000J0D01*
G01*
G37*
G36*
G01*
X136350000Y-105026000D02*
X135900000Y-105026000D01*
G75*
G02*
X135849000Y-104975000I0J51000D01*
G01*
X135849000Y-103225000D01*
G75*
G02*
X135900000Y-103174000I51000J0D01*
G01*
X136350000Y-103174000D01*
G75*
G02*
X136401000Y-103225000I0J-51000D01*
G01*
X136401000Y-104975000D01*
G75*
G02*
X136350000Y-105026000I-51000J0D01*
G01*
G37*
G36*
G01*
X137000000Y-105026000D02*
X136550000Y-105026000D01*
G75*
G02*
X136499000Y-104975000I0J51000D01*
G01*
X136499000Y-103225000D01*
G75*
G02*
X136550000Y-103174000I51000J0D01*
G01*
X137000000Y-103174000D01*
G75*
G02*
X137051000Y-103225000I0J-51000D01*
G01*
X137051000Y-104975000D01*
G75*
G02*
X137000000Y-105026000I-51000J0D01*
G01*
G37*
G36*
G01*
X137650000Y-105026000D02*
X137200000Y-105026000D01*
G75*
G02*
X137149000Y-104975000I0J51000D01*
G01*
X137149000Y-103225000D01*
G75*
G02*
X137200000Y-103174000I51000J0D01*
G01*
X137650000Y-103174000D01*
G75*
G02*
X137701000Y-103225000I0J-51000D01*
G01*
X137701000Y-104975000D01*
G75*
G02*
X137650000Y-105026000I-51000J0D01*
G01*
G37*
G36*
G01*
X138300000Y-105026000D02*
X137850000Y-105026000D01*
G75*
G02*
X137799000Y-104975000I0J51000D01*
G01*
X137799000Y-103225000D01*
G75*
G02*
X137850000Y-103174000I51000J0D01*
G01*
X138300000Y-103174000D01*
G75*
G02*
X138351000Y-103225000I0J-51000D01*
G01*
X138351000Y-104975000D01*
G75*
G02*
X138300000Y-105026000I-51000J0D01*
G01*
G37*
G36*
G01*
X138950000Y-105026000D02*
X138500000Y-105026000D01*
G75*
G02*
X138449000Y-104975000I0J51000D01*
G01*
X138449000Y-103225000D01*
G75*
G02*
X138500000Y-103174000I51000J0D01*
G01*
X138950000Y-103174000D01*
G75*
G02*
X139001000Y-103225000I0J-51000D01*
G01*
X139001000Y-104975000D01*
G75*
G02*
X138950000Y-105026000I-51000J0D01*
G01*
G37*
G36*
G01*
X138950000Y-97826000D02*
X138500000Y-97826000D01*
G75*
G02*
X138449000Y-97775000I0J51000D01*
G01*
X138449000Y-96025000D01*
G75*
G02*
X138500000Y-95974000I51000J0D01*
G01*
X138950000Y-95974000D01*
G75*
G02*
X139001000Y-96025000I0J-51000D01*
G01*
X139001000Y-97775000D01*
G75*
G02*
X138950000Y-97826000I-51000J0D01*
G01*
G37*
G36*
G01*
X138300000Y-97826000D02*
X137850000Y-97826000D01*
G75*
G02*
X137799000Y-97775000I0J51000D01*
G01*
X137799000Y-96025000D01*
G75*
G02*
X137850000Y-95974000I51000J0D01*
G01*
X138300000Y-95974000D01*
G75*
G02*
X138351000Y-96025000I0J-51000D01*
G01*
X138351000Y-97775000D01*
G75*
G02*
X138300000Y-97826000I-51000J0D01*
G01*
G37*
G36*
G01*
X137650000Y-97826000D02*
X137200000Y-97826000D01*
G75*
G02*
X137149000Y-97775000I0J51000D01*
G01*
X137149000Y-96025000D01*
G75*
G02*
X137200000Y-95974000I51000J0D01*
G01*
X137650000Y-95974000D01*
G75*
G02*
X137701000Y-96025000I0J-51000D01*
G01*
X137701000Y-97775000D01*
G75*
G02*
X137650000Y-97826000I-51000J0D01*
G01*
G37*
G36*
G01*
X137000000Y-97826000D02*
X136550000Y-97826000D01*
G75*
G02*
X136499000Y-97775000I0J51000D01*
G01*
X136499000Y-96025000D01*
G75*
G02*
X136550000Y-95974000I51000J0D01*
G01*
X137000000Y-95974000D01*
G75*
G02*
X137051000Y-96025000I0J-51000D01*
G01*
X137051000Y-97775000D01*
G75*
G02*
X137000000Y-97826000I-51000J0D01*
G01*
G37*
G36*
G01*
X136350000Y-97826000D02*
X135900000Y-97826000D01*
G75*
G02*
X135849000Y-97775000I0J51000D01*
G01*
X135849000Y-96025000D01*
G75*
G02*
X135900000Y-95974000I51000J0D01*
G01*
X136350000Y-95974000D01*
G75*
G02*
X136401000Y-96025000I0J-51000D01*
G01*
X136401000Y-97775000D01*
G75*
G02*
X136350000Y-97826000I-51000J0D01*
G01*
G37*
G36*
G01*
X135700000Y-97826000D02*
X135250000Y-97826000D01*
G75*
G02*
X135199000Y-97775000I0J51000D01*
G01*
X135199000Y-96025000D01*
G75*
G02*
X135250000Y-95974000I51000J0D01*
G01*
X135700000Y-95974000D01*
G75*
G02*
X135751000Y-96025000I0J-51000D01*
G01*
X135751000Y-97775000D01*
G75*
G02*
X135700000Y-97826000I-51000J0D01*
G01*
G37*
G36*
G01*
X135050000Y-97826000D02*
X134600000Y-97826000D01*
G75*
G02*
X134549000Y-97775000I0J51000D01*
G01*
X134549000Y-96025000D01*
G75*
G02*
X134600000Y-95974000I51000J0D01*
G01*
X135050000Y-95974000D01*
G75*
G02*
X135101000Y-96025000I0J-51000D01*
G01*
X135101000Y-97775000D01*
G75*
G02*
X135050000Y-97826000I-51000J0D01*
G01*
G37*
G36*
G01*
X134400000Y-97826000D02*
X133950000Y-97826000D01*
G75*
G02*
X133899000Y-97775000I0J51000D01*
G01*
X133899000Y-96025000D01*
G75*
G02*
X133950000Y-95974000I51000J0D01*
G01*
X134400000Y-95974000D01*
G75*
G02*
X134451000Y-96025000I0J-51000D01*
G01*
X134451000Y-97775000D01*
G75*
G02*
X134400000Y-97826000I-51000J0D01*
G01*
G37*
G36*
G01*
X133750000Y-97826000D02*
X133300000Y-97826000D01*
G75*
G02*
X133249000Y-97775000I0J51000D01*
G01*
X133249000Y-96025000D01*
G75*
G02*
X133300000Y-95974000I51000J0D01*
G01*
X133750000Y-95974000D01*
G75*
G02*
X133801000Y-96025000I0J-51000D01*
G01*
X133801000Y-97775000D01*
G75*
G02*
X133750000Y-97826000I-51000J0D01*
G01*
G37*
G36*
G01*
X133100000Y-97826000D02*
X132650000Y-97826000D01*
G75*
G02*
X132599000Y-97775000I0J51000D01*
G01*
X132599000Y-96025000D01*
G75*
G02*
X132650000Y-95974000I51000J0D01*
G01*
X133100000Y-95974000D01*
G75*
G02*
X133151000Y-96025000I0J-51000D01*
G01*
X133151000Y-97775000D01*
G75*
G02*
X133100000Y-97826000I-51000J0D01*
G01*
G37*
G36*
G01*
X132450000Y-97826000D02*
X132000000Y-97826000D01*
G75*
G02*
X131949000Y-97775000I0J51000D01*
G01*
X131949000Y-96025000D01*
G75*
G02*
X132000000Y-95974000I51000J0D01*
G01*
X132450000Y-95974000D01*
G75*
G02*
X132501000Y-96025000I0J-51000D01*
G01*
X132501000Y-97775000D01*
G75*
G02*
X132450000Y-97826000I-51000J0D01*
G01*
G37*
G36*
G01*
X131800000Y-97826000D02*
X131350000Y-97826000D01*
G75*
G02*
X131299000Y-97775000I0J51000D01*
G01*
X131299000Y-96025000D01*
G75*
G02*
X131350000Y-95974000I51000J0D01*
G01*
X131800000Y-95974000D01*
G75*
G02*
X131851000Y-96025000I0J-51000D01*
G01*
X131851000Y-97775000D01*
G75*
G02*
X131800000Y-97826000I-51000J0D01*
G01*
G37*
G36*
G01*
X131150000Y-97826000D02*
X130700000Y-97826000D01*
G75*
G02*
X130649000Y-97775000I0J51000D01*
G01*
X130649000Y-96025000D01*
G75*
G02*
X130700000Y-95974000I51000J0D01*
G01*
X131150000Y-95974000D01*
G75*
G02*
X131201000Y-96025000I0J-51000D01*
G01*
X131201000Y-97775000D01*
G75*
G02*
X131150000Y-97826000I-51000J0D01*
G01*
G37*
G36*
G01*
X130500000Y-97826000D02*
X130050000Y-97826000D01*
G75*
G02*
X129999000Y-97775000I0J51000D01*
G01*
X129999000Y-96025000D01*
G75*
G02*
X130050000Y-95974000I51000J0D01*
G01*
X130500000Y-95974000D01*
G75*
G02*
X130551000Y-96025000I0J-51000D01*
G01*
X130551000Y-97775000D01*
G75*
G02*
X130500000Y-97826000I-51000J0D01*
G01*
G37*
G36*
G01*
X168975000Y-104601000D02*
X168425000Y-104601000D01*
G75*
G02*
X168374000Y-104550000I0J51000D01*
G01*
X168374000Y-102950000D01*
G75*
G02*
X168425000Y-102899000I51000J0D01*
G01*
X168975000Y-102899000D01*
G75*
G02*
X169026000Y-102950000I0J-51000D01*
G01*
X169026000Y-104550000D01*
G75*
G02*
X168975000Y-104601000I-51000J0D01*
G01*
G37*
G36*
G01*
X169775000Y-104601000D02*
X169225000Y-104601000D01*
G75*
G02*
X169174000Y-104550000I0J51000D01*
G01*
X169174000Y-102950000D01*
G75*
G02*
X169225000Y-102899000I51000J0D01*
G01*
X169775000Y-102899000D01*
G75*
G02*
X169826000Y-102950000I0J-51000D01*
G01*
X169826000Y-104550000D01*
G75*
G02*
X169775000Y-104601000I-51000J0D01*
G01*
G37*
G36*
G01*
X170575000Y-104601000D02*
X170025000Y-104601000D01*
G75*
G02*
X169974000Y-104550000I0J51000D01*
G01*
X169974000Y-102950000D01*
G75*
G02*
X170025000Y-102899000I51000J0D01*
G01*
X170575000Y-102899000D01*
G75*
G02*
X170626000Y-102950000I0J-51000D01*
G01*
X170626000Y-104550000D01*
G75*
G02*
X170575000Y-104601000I-51000J0D01*
G01*
G37*
G36*
G01*
X171375000Y-104601000D02*
X170825000Y-104601000D01*
G75*
G02*
X170774000Y-104550000I0J51000D01*
G01*
X170774000Y-102950000D01*
G75*
G02*
X170825000Y-102899000I51000J0D01*
G01*
X171375000Y-102899000D01*
G75*
G02*
X171426000Y-102950000I0J-51000D01*
G01*
X171426000Y-104550000D01*
G75*
G02*
X171375000Y-104601000I-51000J0D01*
G01*
G37*
G36*
G01*
X172175000Y-104601000D02*
X171625000Y-104601000D01*
G75*
G02*
X171574000Y-104550000I0J51000D01*
G01*
X171574000Y-102950000D01*
G75*
G02*
X171625000Y-102899000I51000J0D01*
G01*
X172175000Y-102899000D01*
G75*
G02*
X172226000Y-102950000I0J-51000D01*
G01*
X172226000Y-104550000D01*
G75*
G02*
X172175000Y-104601000I-51000J0D01*
G01*
G37*
G36*
G01*
X172975000Y-104601000D02*
X172425000Y-104601000D01*
G75*
G02*
X172374000Y-104550000I0J51000D01*
G01*
X172374000Y-102950000D01*
G75*
G02*
X172425000Y-102899000I51000J0D01*
G01*
X172975000Y-102899000D01*
G75*
G02*
X173026000Y-102950000I0J-51000D01*
G01*
X173026000Y-104550000D01*
G75*
G02*
X172975000Y-104601000I-51000J0D01*
G01*
G37*
G36*
G01*
X173775000Y-104601000D02*
X173225000Y-104601000D01*
G75*
G02*
X173174000Y-104550000I0J51000D01*
G01*
X173174000Y-102950000D01*
G75*
G02*
X173225000Y-102899000I51000J0D01*
G01*
X173775000Y-102899000D01*
G75*
G02*
X173826000Y-102950000I0J-51000D01*
G01*
X173826000Y-104550000D01*
G75*
G02*
X173775000Y-104601000I-51000J0D01*
G01*
G37*
G36*
G01*
X174575000Y-104601000D02*
X174025000Y-104601000D01*
G75*
G02*
X173974000Y-104550000I0J51000D01*
G01*
X173974000Y-102950000D01*
G75*
G02*
X174025000Y-102899000I51000J0D01*
G01*
X174575000Y-102899000D01*
G75*
G02*
X174626000Y-102950000I0J-51000D01*
G01*
X174626000Y-104550000D01*
G75*
G02*
X174575000Y-104601000I-51000J0D01*
G01*
G37*
G36*
G01*
X176601000Y-102025000D02*
X176601000Y-102575000D01*
G75*
G02*
X176550000Y-102626000I-51000J0D01*
G01*
X174950000Y-102626000D01*
G75*
G02*
X174899000Y-102575000I0J51000D01*
G01*
X174899000Y-102025000D01*
G75*
G02*
X174950000Y-101974000I51000J0D01*
G01*
X176550000Y-101974000D01*
G75*
G02*
X176601000Y-102025000I0J-51000D01*
G01*
G37*
G36*
G01*
X176601000Y-101225000D02*
X176601000Y-101775000D01*
G75*
G02*
X176550000Y-101826000I-51000J0D01*
G01*
X174950000Y-101826000D01*
G75*
G02*
X174899000Y-101775000I0J51000D01*
G01*
X174899000Y-101225000D01*
G75*
G02*
X174950000Y-101174000I51000J0D01*
G01*
X176550000Y-101174000D01*
G75*
G02*
X176601000Y-101225000I0J-51000D01*
G01*
G37*
G36*
G01*
X176601000Y-100425000D02*
X176601000Y-100975000D01*
G75*
G02*
X176550000Y-101026000I-51000J0D01*
G01*
X174950000Y-101026000D01*
G75*
G02*
X174899000Y-100975000I0J51000D01*
G01*
X174899000Y-100425000D01*
G75*
G02*
X174950000Y-100374000I51000J0D01*
G01*
X176550000Y-100374000D01*
G75*
G02*
X176601000Y-100425000I0J-51000D01*
G01*
G37*
G36*
G01*
X176601000Y-99625000D02*
X176601000Y-100175000D01*
G75*
G02*
X176550000Y-100226000I-51000J0D01*
G01*
X174950000Y-100226000D01*
G75*
G02*
X174899000Y-100175000I0J51000D01*
G01*
X174899000Y-99625000D01*
G75*
G02*
X174950000Y-99574000I51000J0D01*
G01*
X176550000Y-99574000D01*
G75*
G02*
X176601000Y-99625000I0J-51000D01*
G01*
G37*
G36*
G01*
X176601000Y-98825000D02*
X176601000Y-99375000D01*
G75*
G02*
X176550000Y-99426000I-51000J0D01*
G01*
X174950000Y-99426000D01*
G75*
G02*
X174899000Y-99375000I0J51000D01*
G01*
X174899000Y-98825000D01*
G75*
G02*
X174950000Y-98774000I51000J0D01*
G01*
X176550000Y-98774000D01*
G75*
G02*
X176601000Y-98825000I0J-51000D01*
G01*
G37*
G36*
G01*
X176601000Y-98025000D02*
X176601000Y-98575000D01*
G75*
G02*
X176550000Y-98626000I-51000J0D01*
G01*
X174950000Y-98626000D01*
G75*
G02*
X174899000Y-98575000I0J51000D01*
G01*
X174899000Y-98025000D01*
G75*
G02*
X174950000Y-97974000I51000J0D01*
G01*
X176550000Y-97974000D01*
G75*
G02*
X176601000Y-98025000I0J-51000D01*
G01*
G37*
G36*
G01*
X176601000Y-97225000D02*
X176601000Y-97775000D01*
G75*
G02*
X176550000Y-97826000I-51000J0D01*
G01*
X174950000Y-97826000D01*
G75*
G02*
X174899000Y-97775000I0J51000D01*
G01*
X174899000Y-97225000D01*
G75*
G02*
X174950000Y-97174000I51000J0D01*
G01*
X176550000Y-97174000D01*
G75*
G02*
X176601000Y-97225000I0J-51000D01*
G01*
G37*
G36*
G01*
X176601000Y-96425000D02*
X176601000Y-96975000D01*
G75*
G02*
X176550000Y-97026000I-51000J0D01*
G01*
X174950000Y-97026000D01*
G75*
G02*
X174899000Y-96975000I0J51000D01*
G01*
X174899000Y-96425000D01*
G75*
G02*
X174950000Y-96374000I51000J0D01*
G01*
X176550000Y-96374000D01*
G75*
G02*
X176601000Y-96425000I0J-51000D01*
G01*
G37*
G36*
G01*
X174575000Y-96101000D02*
X174025000Y-96101000D01*
G75*
G02*
X173974000Y-96050000I0J51000D01*
G01*
X173974000Y-94450000D01*
G75*
G02*
X174025000Y-94399000I51000J0D01*
G01*
X174575000Y-94399000D01*
G75*
G02*
X174626000Y-94450000I0J-51000D01*
G01*
X174626000Y-96050000D01*
G75*
G02*
X174575000Y-96101000I-51000J0D01*
G01*
G37*
G36*
G01*
X173775000Y-96101000D02*
X173225000Y-96101000D01*
G75*
G02*
X173174000Y-96050000I0J51000D01*
G01*
X173174000Y-94450000D01*
G75*
G02*
X173225000Y-94399000I51000J0D01*
G01*
X173775000Y-94399000D01*
G75*
G02*
X173826000Y-94450000I0J-51000D01*
G01*
X173826000Y-96050000D01*
G75*
G02*
X173775000Y-96101000I-51000J0D01*
G01*
G37*
G36*
G01*
X172975000Y-96101000D02*
X172425000Y-96101000D01*
G75*
G02*
X172374000Y-96050000I0J51000D01*
G01*
X172374000Y-94450000D01*
G75*
G02*
X172425000Y-94399000I51000J0D01*
G01*
X172975000Y-94399000D01*
G75*
G02*
X173026000Y-94450000I0J-51000D01*
G01*
X173026000Y-96050000D01*
G75*
G02*
X172975000Y-96101000I-51000J0D01*
G01*
G37*
G36*
G01*
X172175000Y-96101000D02*
X171625000Y-96101000D01*
G75*
G02*
X171574000Y-96050000I0J51000D01*
G01*
X171574000Y-94450000D01*
G75*
G02*
X171625000Y-94399000I51000J0D01*
G01*
X172175000Y-94399000D01*
G75*
G02*
X172226000Y-94450000I0J-51000D01*
G01*
X172226000Y-96050000D01*
G75*
G02*
X172175000Y-96101000I-51000J0D01*
G01*
G37*
G36*
G01*
X171375000Y-96101000D02*
X170825000Y-96101000D01*
G75*
G02*
X170774000Y-96050000I0J51000D01*
G01*
X170774000Y-94450000D01*
G75*
G02*
X170825000Y-94399000I51000J0D01*
G01*
X171375000Y-94399000D01*
G75*
G02*
X171426000Y-94450000I0J-51000D01*
G01*
X171426000Y-96050000D01*
G75*
G02*
X171375000Y-96101000I-51000J0D01*
G01*
G37*
G36*
G01*
X170575000Y-96101000D02*
X170025000Y-96101000D01*
G75*
G02*
X169974000Y-96050000I0J51000D01*
G01*
X169974000Y-94450000D01*
G75*
G02*
X170025000Y-94399000I51000J0D01*
G01*
X170575000Y-94399000D01*
G75*
G02*
X170626000Y-94450000I0J-51000D01*
G01*
X170626000Y-96050000D01*
G75*
G02*
X170575000Y-96101000I-51000J0D01*
G01*
G37*
G36*
G01*
X169775000Y-96101000D02*
X169225000Y-96101000D01*
G75*
G02*
X169174000Y-96050000I0J51000D01*
G01*
X169174000Y-94450000D01*
G75*
G02*
X169225000Y-94399000I51000J0D01*
G01*
X169775000Y-94399000D01*
G75*
G02*
X169826000Y-94450000I0J-51000D01*
G01*
X169826000Y-96050000D01*
G75*
G02*
X169775000Y-96101000I-51000J0D01*
G01*
G37*
G36*
G01*
X168975000Y-96101000D02*
X168425000Y-96101000D01*
G75*
G02*
X168374000Y-96050000I0J51000D01*
G01*
X168374000Y-94450000D01*
G75*
G02*
X168425000Y-94399000I51000J0D01*
G01*
X168975000Y-94399000D01*
G75*
G02*
X169026000Y-94450000I0J-51000D01*
G01*
X169026000Y-96050000D01*
G75*
G02*
X168975000Y-96101000I-51000J0D01*
G01*
G37*
G36*
G01*
X168101000Y-96425000D02*
X168101000Y-96975000D01*
G75*
G02*
X168050000Y-97026000I-51000J0D01*
G01*
X166450000Y-97026000D01*
G75*
G02*
X166399000Y-96975000I0J51000D01*
G01*
X166399000Y-96425000D01*
G75*
G02*
X166450000Y-96374000I51000J0D01*
G01*
X168050000Y-96374000D01*
G75*
G02*
X168101000Y-96425000I0J-51000D01*
G01*
G37*
G36*
G01*
X168101000Y-97225000D02*
X168101000Y-97775000D01*
G75*
G02*
X168050000Y-97826000I-51000J0D01*
G01*
X166450000Y-97826000D01*
G75*
G02*
X166399000Y-97775000I0J51000D01*
G01*
X166399000Y-97225000D01*
G75*
G02*
X166450000Y-97174000I51000J0D01*
G01*
X168050000Y-97174000D01*
G75*
G02*
X168101000Y-97225000I0J-51000D01*
G01*
G37*
G36*
G01*
X168101000Y-98025000D02*
X168101000Y-98575000D01*
G75*
G02*
X168050000Y-98626000I-51000J0D01*
G01*
X166450000Y-98626000D01*
G75*
G02*
X166399000Y-98575000I0J51000D01*
G01*
X166399000Y-98025000D01*
G75*
G02*
X166450000Y-97974000I51000J0D01*
G01*
X168050000Y-97974000D01*
G75*
G02*
X168101000Y-98025000I0J-51000D01*
G01*
G37*
G36*
G01*
X168101000Y-98825000D02*
X168101000Y-99375000D01*
G75*
G02*
X168050000Y-99426000I-51000J0D01*
G01*
X166450000Y-99426000D01*
G75*
G02*
X166399000Y-99375000I0J51000D01*
G01*
X166399000Y-98825000D01*
G75*
G02*
X166450000Y-98774000I51000J0D01*
G01*
X168050000Y-98774000D01*
G75*
G02*
X168101000Y-98825000I0J-51000D01*
G01*
G37*
G36*
G01*
X168101000Y-99625000D02*
X168101000Y-100175000D01*
G75*
G02*
X168050000Y-100226000I-51000J0D01*
G01*
X166450000Y-100226000D01*
G75*
G02*
X166399000Y-100175000I0J51000D01*
G01*
X166399000Y-99625000D01*
G75*
G02*
X166450000Y-99574000I51000J0D01*
G01*
X168050000Y-99574000D01*
G75*
G02*
X168101000Y-99625000I0J-51000D01*
G01*
G37*
G36*
G01*
X168101000Y-100425000D02*
X168101000Y-100975000D01*
G75*
G02*
X168050000Y-101026000I-51000J0D01*
G01*
X166450000Y-101026000D01*
G75*
G02*
X166399000Y-100975000I0J51000D01*
G01*
X166399000Y-100425000D01*
G75*
G02*
X166450000Y-100374000I51000J0D01*
G01*
X168050000Y-100374000D01*
G75*
G02*
X168101000Y-100425000I0J-51000D01*
G01*
G37*
G36*
G01*
X168101000Y-101225000D02*
X168101000Y-101775000D01*
G75*
G02*
X168050000Y-101826000I-51000J0D01*
G01*
X166450000Y-101826000D01*
G75*
G02*
X166399000Y-101775000I0J51000D01*
G01*
X166399000Y-101225000D01*
G75*
G02*
X166450000Y-101174000I51000J0D01*
G01*
X168050000Y-101174000D01*
G75*
G02*
X168101000Y-101225000I0J-51000D01*
G01*
G37*
G36*
G01*
X168101000Y-102025000D02*
X168101000Y-102575000D01*
G75*
G02*
X168050000Y-102626000I-51000J0D01*
G01*
X166450000Y-102626000D01*
G75*
G02*
X166399000Y-102575000I0J51000D01*
G01*
X166399000Y-102025000D01*
G75*
G02*
X166450000Y-101974000I51000J0D01*
G01*
X168050000Y-101974000D01*
G75*
G02*
X168101000Y-102025000I0J-51000D01*
G01*
G37*
G36*
G01*
X194401000Y-106600000D02*
X194401000Y-110400000D01*
G75*
G02*
X194350000Y-110451000I-51000J0D01*
G01*
X192350000Y-110451000D01*
G75*
G02*
X192299000Y-110400000I0J51000D01*
G01*
X192299000Y-106600000D01*
G75*
G02*
X192350000Y-106549000I51000J0D01*
G01*
X194350000Y-106549000D01*
G75*
G02*
X194401000Y-106600000I0J-51000D01*
G01*
G37*
G36*
G01*
X200701000Y-107750000D02*
X200701000Y-109250000D01*
G75*
G02*
X200650000Y-109301000I-51000J0D01*
G01*
X198650000Y-109301000D01*
G75*
G02*
X198599000Y-109250000I0J51000D01*
G01*
X198599000Y-107750000D01*
G75*
G02*
X198650000Y-107699000I51000J0D01*
G01*
X200650000Y-107699000D01*
G75*
G02*
X200701000Y-107750000I0J-51000D01*
G01*
G37*
G36*
G01*
X200701000Y-105450000D02*
X200701000Y-106950000D01*
G75*
G02*
X200650000Y-107001000I-51000J0D01*
G01*
X198650000Y-107001000D01*
G75*
G02*
X198599000Y-106950000I0J51000D01*
G01*
X198599000Y-105450000D01*
G75*
G02*
X198650000Y-105399000I51000J0D01*
G01*
X200650000Y-105399000D01*
G75*
G02*
X200701000Y-105450000I0J-51000D01*
G01*
G37*
G36*
G01*
X200701000Y-110050000D02*
X200701000Y-111550000D01*
G75*
G02*
X200650000Y-111601000I-51000J0D01*
G01*
X198650000Y-111601000D01*
G75*
G02*
X198599000Y-111550000I0J51000D01*
G01*
X198599000Y-110050000D01*
G75*
G02*
X198650000Y-109999000I51000J0D01*
G01*
X200650000Y-109999000D01*
G75*
G02*
X200701000Y-110050000I0J-51000D01*
G01*
G37*
G36*
G01*
X131149000Y-94950001D02*
X131149000Y-93749999D01*
G75*
G02*
X131199999Y-93699000I50999J0D01*
G01*
X132600001Y-93699000D01*
G75*
G02*
X132651000Y-93749999I0J-50999D01*
G01*
X132651000Y-94950001D01*
G75*
G02*
X132600001Y-95001000I-50999J0D01*
G01*
X131199999Y-95001000D01*
G75*
G02*
X131149000Y-94950001I0J50999D01*
G01*
G37*
G36*
G01*
X133349000Y-94950001D02*
X133349000Y-93749999D01*
G75*
G02*
X133399999Y-93699000I50999J0D01*
G01*
X134800001Y-93699000D01*
G75*
G02*
X134851000Y-93749999I0J-50999D01*
G01*
X134851000Y-94950001D01*
G75*
G02*
X134800001Y-95001000I-50999J0D01*
G01*
X133399999Y-95001000D01*
G75*
G02*
X133349000Y-94950001I0J50999D01*
G01*
G37*
G36*
G01*
X133349000Y-93250001D02*
X133349000Y-92049999D01*
G75*
G02*
X133399999Y-91999000I50999J0D01*
G01*
X134800001Y-91999000D01*
G75*
G02*
X134851000Y-92049999I0J-50999D01*
G01*
X134851000Y-93250001D01*
G75*
G02*
X134800001Y-93301000I-50999J0D01*
G01*
X133399999Y-93301000D01*
G75*
G02*
X133349000Y-93250001I0J50999D01*
G01*
G37*
G36*
G01*
X131149000Y-93250001D02*
X131149000Y-92049999D01*
G75*
G02*
X131199999Y-91999000I50999J0D01*
G01*
X132600001Y-91999000D01*
G75*
G02*
X132651000Y-92049999I0J-50999D01*
G01*
X132651000Y-93250001D01*
G75*
G02*
X132600001Y-93301000I-50999J0D01*
G01*
X131199999Y-93301000D01*
G75*
G02*
X131149000Y-93250001I0J50999D01*
G01*
G37*
D22*
X189700000Y-114500000D03*
G36*
G01*
X179449000Y-116025500D02*
X179449000Y-112974500D01*
G75*
G02*
X180974500Y-111449000I1525500J0D01*
G01*
X184025500Y-111449000D01*
G75*
G02*
X185551000Y-112974500I0J-1525500D01*
G01*
X185551000Y-116025500D01*
G75*
G02*
X184025500Y-117551000I-1525500J0D01*
G01*
X180974500Y-117551000D01*
G75*
G02*
X179449000Y-116025500I0J1525500D01*
G01*
G37*
D13*
X126000000Y-115500000D03*
D14*
X128400000Y-115500000D03*
X127697056Y-113802944D03*
X126000000Y-113100000D03*
X124302944Y-113802944D03*
X123600000Y-115500000D03*
X124302944Y-117197056D03*
X126000000Y-117900000D03*
X127697056Y-117197056D03*
X158697056Y-117197056D03*
X157000000Y-117900000D03*
X155302944Y-117197056D03*
X154600000Y-115500000D03*
X155302944Y-113802944D03*
X157000000Y-113100000D03*
X158697056Y-113802944D03*
X159400000Y-115500000D03*
D13*
X157000000Y-115500000D03*
X157000000Y-84500000D03*
D14*
X159400000Y-84500000D03*
X158697056Y-82802944D03*
X157000000Y-82100000D03*
X155302944Y-82802944D03*
X154600000Y-84500000D03*
X155302944Y-86197056D03*
X157000000Y-86900000D03*
X158697056Y-86197056D03*
X127697056Y-86197056D03*
X126000000Y-86900000D03*
X124302944Y-86197056D03*
X123600000Y-84500000D03*
X124302944Y-82802944D03*
X126000000Y-82100000D03*
X127697056Y-82802944D03*
X128400000Y-84500000D03*
D13*
X126000000Y-84500000D03*
G36*
G01*
X164449500Y-96724000D02*
X165050500Y-96724000D01*
G75*
G02*
X165276000Y-96949500I0J-225500D01*
G01*
X165276000Y-97400500D01*
G75*
G02*
X165050500Y-97626000I-225500J0D01*
G01*
X164449500Y-97626000D01*
G75*
G02*
X164224000Y-97400500I0J225500D01*
G01*
X164224000Y-96949500D01*
G75*
G02*
X164449500Y-96724000I225500J0D01*
G01*
G37*
G36*
G01*
X164449500Y-98374000D02*
X165050500Y-98374000D01*
G75*
G02*
X165276000Y-98599500I0J-225500D01*
G01*
X165276000Y-99050500D01*
G75*
G02*
X165050500Y-99276000I-225500J0D01*
G01*
X164449500Y-99276000D01*
G75*
G02*
X164224000Y-99050500I0J225500D01*
G01*
X164224000Y-98599500D01*
G75*
G02*
X164449500Y-98374000I225500J0D01*
G01*
G37*
G36*
G01*
X179099500Y-96174000D02*
X179700500Y-96174000D01*
G75*
G02*
X179926000Y-96399500I0J-225500D01*
G01*
X179926000Y-96850500D01*
G75*
G02*
X179700500Y-97076000I-225500J0D01*
G01*
X179099500Y-97076000D01*
G75*
G02*
X178874000Y-96850500I0J225500D01*
G01*
X178874000Y-96399500D01*
G75*
G02*
X179099500Y-96174000I225500J0D01*
G01*
G37*
G36*
G01*
X179099500Y-94524000D02*
X179700500Y-94524000D01*
G75*
G02*
X179926000Y-94749500I0J-225500D01*
G01*
X179926000Y-95200500D01*
G75*
G02*
X179700500Y-95426000I-225500J0D01*
G01*
X179099500Y-95426000D01*
G75*
G02*
X178874000Y-95200500I0J225500D01*
G01*
X178874000Y-94749500D01*
G75*
G02*
X179099500Y-94524000I225500J0D01*
G01*
G37*
D15*
X143920000Y-110000000D03*
X146460000Y-110000000D03*
X149000000Y-110000000D03*
X151540000Y-110000000D03*
X154080000Y-110000000D03*
G36*
G01*
X157470000Y-110901000D02*
X155770000Y-110901000D01*
G75*
G02*
X155719000Y-110850000I0J51000D01*
G01*
X155719000Y-109150000D01*
G75*
G02*
X155770000Y-109099000I51000J0D01*
G01*
X157470000Y-109099000D01*
G75*
G02*
X157521000Y-109150000I0J-51000D01*
G01*
X157521000Y-110850000D01*
G75*
G02*
X157470000Y-110901000I-51000J0D01*
G01*
G37*
G36*
G01*
X168230000Y-90901000D02*
X166530000Y-90901000D01*
G75*
G02*
X166479000Y-90850000I0J51000D01*
G01*
X166479000Y-89150000D01*
G75*
G02*
X166530000Y-89099000I51000J0D01*
G01*
X168230000Y-89099000D01*
G75*
G02*
X168281000Y-89150000I0J-51000D01*
G01*
X168281000Y-90850000D01*
G75*
G02*
X168230000Y-90901000I-51000J0D01*
G01*
G37*
X169920000Y-90000000D03*
X172460000Y-90000000D03*
X175000000Y-90000000D03*
X177540000Y-90000000D03*
X180080000Y-90000000D03*
G36*
G01*
X165100500Y-92826000D02*
X164499500Y-92826000D01*
G75*
G02*
X164274000Y-92600500I0J225500D01*
G01*
X164274000Y-92149500D01*
G75*
G02*
X164499500Y-91924000I225500J0D01*
G01*
X165100500Y-91924000D01*
G75*
G02*
X165326000Y-92149500I0J-225500D01*
G01*
X165326000Y-92600500D01*
G75*
G02*
X165100500Y-92826000I-225500J0D01*
G01*
G37*
G36*
G01*
X165100500Y-94476000D02*
X164499500Y-94476000D01*
G75*
G02*
X164274000Y-94250500I0J225500D01*
G01*
X164274000Y-93799500D01*
G75*
G02*
X164499500Y-93574000I225500J0D01*
G01*
X165100500Y-93574000D01*
G75*
G02*
X165326000Y-93799500I0J-225500D01*
G01*
X165326000Y-94250500D01*
G75*
G02*
X165100500Y-94476000I-225500J0D01*
G01*
G37*
G36*
G01*
X167100500Y-94476000D02*
X166499500Y-94476000D01*
G75*
G02*
X166274000Y-94250500I0J225500D01*
G01*
X166274000Y-93799500D01*
G75*
G02*
X166499500Y-93574000I225500J0D01*
G01*
X167100500Y-93574000D01*
G75*
G02*
X167326000Y-93799500I0J-225500D01*
G01*
X167326000Y-94250500D01*
G75*
G02*
X167100500Y-94476000I-225500J0D01*
G01*
G37*
G36*
G01*
X167100500Y-92826000D02*
X166499500Y-92826000D01*
G75*
G02*
X166274000Y-92600500I0J225500D01*
G01*
X166274000Y-92149500D01*
G75*
G02*
X166499500Y-91924000I225500J0D01*
G01*
X167100500Y-91924000D01*
G75*
G02*
X167326000Y-92149500I0J-225500D01*
G01*
X167326000Y-92600500D01*
G75*
G02*
X167100500Y-92826000I-225500J0D01*
G01*
G37*
G36*
G01*
X150299000Y-88900500D02*
X150299000Y-88299500D01*
G75*
G02*
X150524500Y-88074000I225500J0D01*
G01*
X150975500Y-88074000D01*
G75*
G02*
X151201000Y-88299500I0J-225500D01*
G01*
X151201000Y-88900500D01*
G75*
G02*
X150975500Y-89126000I-225500J0D01*
G01*
X150524500Y-89126000D01*
G75*
G02*
X150299000Y-88900500I0J225500D01*
G01*
G37*
G36*
G01*
X151949000Y-88900500D02*
X151949000Y-88299500D01*
G75*
G02*
X152174500Y-88074000I225500J0D01*
G01*
X152625500Y-88074000D01*
G75*
G02*
X152851000Y-88299500I0J-225500D01*
G01*
X152851000Y-88900500D01*
G75*
G02*
X152625500Y-89126000I-225500J0D01*
G01*
X152174500Y-89126000D01*
G75*
G02*
X151949000Y-88900500I0J225500D01*
G01*
G37*
G36*
G01*
X174501000Y-106200000D02*
X174501000Y-108600000D01*
G75*
G02*
X174450000Y-108651000I-51000J0D01*
G01*
X172450000Y-108651000D01*
G75*
G02*
X172399000Y-108600000I0J51000D01*
G01*
X172399000Y-106200000D01*
G75*
G02*
X172450000Y-106149000I51000J0D01*
G01*
X174450000Y-106149000D01*
G75*
G02*
X174501000Y-106200000I0J-51000D01*
G01*
G37*
G36*
G01*
X170801000Y-106200000D02*
X170801000Y-108600000D01*
G75*
G02*
X170750000Y-108651000I-51000J0D01*
G01*
X168750000Y-108651000D01*
G75*
G02*
X168699000Y-108600000I0J51000D01*
G01*
X168699000Y-106200000D01*
G75*
G02*
X168750000Y-106149000I51000J0D01*
G01*
X170750000Y-106149000D01*
G75*
G02*
X170801000Y-106200000I0J-51000D01*
G01*
G37*
G36*
G01*
X188126000Y-97521172D02*
X188126000Y-98878828D01*
G75*
G02*
X187853828Y-99151000I-272172J0D01*
G01*
X187146172Y-99151000D01*
G75*
G02*
X186874000Y-98878828I0J272172D01*
G01*
X186874000Y-97521172D01*
G75*
G02*
X187146172Y-97249000I272172J0D01*
G01*
X187853828Y-97249000D01*
G75*
G02*
X188126000Y-97521172I0J-272172D01*
G01*
G37*
G36*
G01*
X191076000Y-97521172D02*
X191076000Y-98878828D01*
G75*
G02*
X190803828Y-99151000I-272172J0D01*
G01*
X190096172Y-99151000D01*
G75*
G02*
X189824000Y-98878828I0J272172D01*
G01*
X189824000Y-97521172D01*
G75*
G02*
X190096172Y-97249000I272172J0D01*
G01*
X190803828Y-97249000D01*
G75*
G02*
X191076000Y-97521172I0J-272172D01*
G01*
G37*
G36*
G01*
X191676000Y-105421172D02*
X191676000Y-106778828D01*
G75*
G02*
X191403828Y-107051000I-272172J0D01*
G01*
X190696172Y-107051000D01*
G75*
G02*
X190424000Y-106778828I0J272172D01*
G01*
X190424000Y-105421172D01*
G75*
G02*
X190696172Y-105149000I272172J0D01*
G01*
X191403828Y-105149000D01*
G75*
G02*
X191676000Y-105421172I0J-272172D01*
G01*
G37*
G36*
G01*
X188726000Y-105421172D02*
X188726000Y-106778828D01*
G75*
G02*
X188453828Y-107051000I-272172J0D01*
G01*
X187746172Y-107051000D01*
G75*
G02*
X187474000Y-106778828I0J272172D01*
G01*
X187474000Y-105421172D01*
G75*
G02*
X187746172Y-105149000I272172J0D01*
G01*
X188453828Y-105149000D01*
G75*
G02*
X188726000Y-105421172I0J-272172D01*
G01*
G37*
D23*
G36*
X179450990Y-116025304D02*
G01*
X179480282Y-116322715D01*
X179566979Y-116608515D01*
X179707764Y-116871906D01*
X179897230Y-117102770D01*
X180128094Y-117292236D01*
X180391485Y-117433021D01*
X180677285Y-117519718D01*
X180974696Y-117549010D01*
X180976322Y-117550175D01*
X180976126Y-117552165D01*
X180974500Y-117553000D01*
X180918140Y-117553000D01*
X180917944Y-117552990D01*
X180626507Y-117524286D01*
X180626122Y-117524210D01*
X180351782Y-117440990D01*
X180351420Y-117440840D01*
X180098595Y-117305702D01*
X180098269Y-117305484D01*
X179876661Y-117123616D01*
X179876384Y-117123339D01*
X179694516Y-116901731D01*
X179694298Y-116901405D01*
X179559160Y-116648580D01*
X179559010Y-116648218D01*
X179475790Y-116373878D01*
X179475714Y-116373493D01*
X179447010Y-116082056D01*
X179447000Y-116081860D01*
X179447000Y-116025500D01*
X179448000Y-116023768D01*
X179450000Y-116023768D01*
X179450990Y-116025304D01*
G37*
G36*
X185552165Y-116023874D02*
G01*
X185553000Y-116025500D01*
X185553000Y-116081860D01*
X185552990Y-116082056D01*
X185524286Y-116373493D01*
X185524210Y-116373878D01*
X185440990Y-116648218D01*
X185440840Y-116648580D01*
X185305702Y-116901405D01*
X185305484Y-116901731D01*
X185123616Y-117123339D01*
X185123339Y-117123616D01*
X184901731Y-117305484D01*
X184901405Y-117305702D01*
X184648580Y-117440840D01*
X184648218Y-117440990D01*
X184373878Y-117524210D01*
X184373493Y-117524286D01*
X184082056Y-117552990D01*
X184081860Y-117553000D01*
X184025500Y-117553000D01*
X184023768Y-117552000D01*
X184023768Y-117550000D01*
X184025304Y-117549010D01*
X184322715Y-117519718D01*
X184608515Y-117433021D01*
X184871906Y-117292236D01*
X185102770Y-117102770D01*
X185292236Y-116871906D01*
X185433021Y-116608515D01*
X185519718Y-116322715D01*
X185549010Y-116025304D01*
X185550175Y-116023678D01*
X185552165Y-116023874D01*
G37*
G36*
X132100990Y-114785804D02*
G01*
X132106062Y-114837304D01*
X132121029Y-114886642D01*
X132145332Y-114932110D01*
X132178038Y-114971962D01*
X132217890Y-115004668D01*
X132263358Y-115028971D01*
X132312696Y-115043938D01*
X132364196Y-115049010D01*
X132365822Y-115050175D01*
X132365626Y-115052165D01*
X132364000Y-115053000D01*
X132281903Y-115053000D01*
X132281707Y-115052990D01*
X132241204Y-115049001D01*
X132240819Y-115048925D01*
X132207767Y-115038899D01*
X132207405Y-115038749D01*
X132176954Y-115022472D01*
X132176628Y-115022254D01*
X132149932Y-115000345D01*
X132149655Y-115000068D01*
X132127746Y-114973372D01*
X132127528Y-114973046D01*
X132111251Y-114942595D01*
X132111101Y-114942233D01*
X132101075Y-114909181D01*
X132100999Y-114908796D01*
X132097010Y-114868293D01*
X132097000Y-114868097D01*
X132097000Y-114786000D01*
X132098000Y-114784268D01*
X132100000Y-114784268D01*
X132100990Y-114785804D01*
G37*
G36*
X140100990Y-114785804D02*
G01*
X140106062Y-114837304D01*
X140121029Y-114886642D01*
X140145332Y-114932110D01*
X140178038Y-114971962D01*
X140217890Y-115004668D01*
X140263358Y-115028971D01*
X140312696Y-115043938D01*
X140364196Y-115049010D01*
X140365822Y-115050175D01*
X140365626Y-115052165D01*
X140364000Y-115053000D01*
X140281903Y-115053000D01*
X140281707Y-115052990D01*
X140241204Y-115049001D01*
X140240819Y-115048925D01*
X140207767Y-115038899D01*
X140207405Y-115038749D01*
X140176954Y-115022472D01*
X140176628Y-115022254D01*
X140149932Y-115000345D01*
X140149655Y-115000068D01*
X140127746Y-114973372D01*
X140127528Y-114973046D01*
X140111251Y-114942595D01*
X140111101Y-114942233D01*
X140101075Y-114909181D01*
X140100999Y-114908796D01*
X140097010Y-114868293D01*
X140097000Y-114868097D01*
X140097000Y-114786000D01*
X140098000Y-114784268D01*
X140100000Y-114784268D01*
X140100990Y-114785804D01*
G37*
G36*
X133902165Y-114784374D02*
G01*
X133903000Y-114786000D01*
X133903000Y-114868097D01*
X133902990Y-114868293D01*
X133899001Y-114908796D01*
X133898925Y-114909181D01*
X133888899Y-114942233D01*
X133888749Y-114942595D01*
X133872472Y-114973046D01*
X133872254Y-114973372D01*
X133850345Y-115000068D01*
X133850068Y-115000345D01*
X133823372Y-115022254D01*
X133823046Y-115022472D01*
X133792595Y-115038749D01*
X133792233Y-115038899D01*
X133759181Y-115048925D01*
X133758796Y-115049001D01*
X133718293Y-115052990D01*
X133718097Y-115053000D01*
X133636000Y-115053000D01*
X133634268Y-115052000D01*
X133634268Y-115050000D01*
X133635804Y-115049010D01*
X133687304Y-115043938D01*
X133736642Y-115028971D01*
X133782110Y-115004668D01*
X133821962Y-114971962D01*
X133854668Y-114932110D01*
X133878971Y-114886642D01*
X133893938Y-114837304D01*
X133899010Y-114785804D01*
X133900175Y-114784178D01*
X133902165Y-114784374D01*
G37*
G36*
X141902165Y-114784374D02*
G01*
X141903000Y-114786000D01*
X141903000Y-114868097D01*
X141902990Y-114868293D01*
X141899001Y-114908796D01*
X141898925Y-114909181D01*
X141888899Y-114942233D01*
X141888749Y-114942595D01*
X141872472Y-114973046D01*
X141872254Y-114973372D01*
X141850345Y-115000068D01*
X141850068Y-115000345D01*
X141823372Y-115022254D01*
X141823046Y-115022472D01*
X141792595Y-115038749D01*
X141792233Y-115038899D01*
X141759181Y-115048925D01*
X141758796Y-115049001D01*
X141718293Y-115052990D01*
X141718097Y-115053000D01*
X141636000Y-115053000D01*
X141634268Y-115052000D01*
X141634268Y-115050000D01*
X141635804Y-115049010D01*
X141687304Y-115043938D01*
X141736642Y-115028971D01*
X141782110Y-115004668D01*
X141821962Y-114971962D01*
X141854668Y-114932110D01*
X141878971Y-114886642D01*
X141893938Y-114837304D01*
X141899010Y-114785804D01*
X141900175Y-114784178D01*
X141902165Y-114784374D01*
G37*
G36*
X148100990Y-113135804D02*
G01*
X148106062Y-113187304D01*
X148121029Y-113236642D01*
X148145332Y-113282110D01*
X148178038Y-113321962D01*
X148217890Y-113354668D01*
X148263358Y-113378971D01*
X148312696Y-113393938D01*
X148364196Y-113399010D01*
X148365822Y-113400175D01*
X148365626Y-113402165D01*
X148364000Y-113403000D01*
X148281903Y-113403000D01*
X148281707Y-113402990D01*
X148241204Y-113399001D01*
X148240819Y-113398925D01*
X148207767Y-113388899D01*
X148207405Y-113388749D01*
X148176954Y-113372472D01*
X148176628Y-113372254D01*
X148149932Y-113350345D01*
X148149655Y-113350068D01*
X148127746Y-113323372D01*
X148127528Y-113323046D01*
X148111251Y-113292595D01*
X148111101Y-113292233D01*
X148101075Y-113259181D01*
X148100999Y-113258796D01*
X148097010Y-113218293D01*
X148097000Y-113218097D01*
X148097000Y-113136000D01*
X148098000Y-113134268D01*
X148100000Y-113134268D01*
X148100990Y-113135804D01*
G37*
G36*
X149902165Y-113134374D02*
G01*
X149903000Y-113136000D01*
X149903000Y-113218097D01*
X149902990Y-113218293D01*
X149899001Y-113258796D01*
X149898925Y-113259181D01*
X149888899Y-113292233D01*
X149888749Y-113292595D01*
X149872472Y-113323046D01*
X149872254Y-113323372D01*
X149850345Y-113350068D01*
X149850068Y-113350345D01*
X149823372Y-113372254D01*
X149823046Y-113372472D01*
X149792595Y-113388749D01*
X149792233Y-113388899D01*
X149759181Y-113398925D01*
X149758796Y-113399001D01*
X149718293Y-113402990D01*
X149718097Y-113403000D01*
X149636000Y-113403000D01*
X149634268Y-113402000D01*
X149634268Y-113400000D01*
X149635804Y-113399010D01*
X149687304Y-113393938D01*
X149736642Y-113378971D01*
X149782110Y-113354668D01*
X149821962Y-113321962D01*
X149854668Y-113282110D01*
X149878971Y-113236642D01*
X149893938Y-113187304D01*
X149899010Y-113135804D01*
X149900175Y-113134178D01*
X149902165Y-113134374D01*
G37*
G36*
X132365732Y-112948000D02*
G01*
X132365732Y-112950000D01*
X132364196Y-112950990D01*
X132312696Y-112956062D01*
X132263358Y-112971029D01*
X132217890Y-112995332D01*
X132178038Y-113028038D01*
X132145332Y-113067890D01*
X132121029Y-113113358D01*
X132106062Y-113162696D01*
X132100990Y-113214196D01*
X132099825Y-113215822D01*
X132097835Y-113215626D01*
X132097000Y-113214000D01*
X132097000Y-113131903D01*
X132097010Y-113131707D01*
X132100999Y-113091204D01*
X132101075Y-113090819D01*
X132111101Y-113057767D01*
X132111251Y-113057405D01*
X132127528Y-113026954D01*
X132127746Y-113026628D01*
X132149655Y-112999932D01*
X132149932Y-112999655D01*
X132176628Y-112977746D01*
X132176954Y-112977528D01*
X132207405Y-112961251D01*
X132207767Y-112961101D01*
X132240819Y-112951075D01*
X132241204Y-112950999D01*
X132281707Y-112947010D01*
X132281903Y-112947000D01*
X132364000Y-112947000D01*
X132365732Y-112948000D01*
G37*
G36*
X140365732Y-112948000D02*
G01*
X140365732Y-112950000D01*
X140364196Y-112950990D01*
X140312696Y-112956062D01*
X140263358Y-112971029D01*
X140217890Y-112995332D01*
X140178038Y-113028038D01*
X140145332Y-113067890D01*
X140121029Y-113113358D01*
X140106062Y-113162696D01*
X140100990Y-113214196D01*
X140099825Y-113215822D01*
X140097835Y-113215626D01*
X140097000Y-113214000D01*
X140097000Y-113131903D01*
X140097010Y-113131707D01*
X140100999Y-113091204D01*
X140101075Y-113090819D01*
X140111101Y-113057767D01*
X140111251Y-113057405D01*
X140127528Y-113026954D01*
X140127746Y-113026628D01*
X140149655Y-112999932D01*
X140149932Y-112999655D01*
X140176628Y-112977746D01*
X140176954Y-112977528D01*
X140207405Y-112961251D01*
X140207767Y-112961101D01*
X140240819Y-112951075D01*
X140241204Y-112950999D01*
X140281707Y-112947010D01*
X140281903Y-112947000D01*
X140364000Y-112947000D01*
X140365732Y-112948000D01*
G37*
G36*
X141718293Y-112947010D02*
G01*
X141758796Y-112950999D01*
X141759181Y-112951075D01*
X141792233Y-112961101D01*
X141792595Y-112961251D01*
X141823046Y-112977528D01*
X141823372Y-112977746D01*
X141850068Y-112999655D01*
X141850345Y-112999932D01*
X141872254Y-113026628D01*
X141872472Y-113026954D01*
X141888749Y-113057405D01*
X141888899Y-113057767D01*
X141898925Y-113090819D01*
X141899001Y-113091204D01*
X141902990Y-113131707D01*
X141903000Y-113131903D01*
X141903000Y-113214000D01*
X141902000Y-113215732D01*
X141900000Y-113215732D01*
X141899010Y-113214196D01*
X141893938Y-113162696D01*
X141878971Y-113113358D01*
X141854668Y-113067890D01*
X141821962Y-113028038D01*
X141782110Y-112995332D01*
X141736642Y-112971029D01*
X141687304Y-112956062D01*
X141635804Y-112950990D01*
X141634178Y-112949825D01*
X141634374Y-112947835D01*
X141636000Y-112947000D01*
X141718097Y-112947000D01*
X141718293Y-112947010D01*
G37*
G36*
X133718293Y-112947010D02*
G01*
X133758796Y-112950999D01*
X133759181Y-112951075D01*
X133792233Y-112961101D01*
X133792595Y-112961251D01*
X133823046Y-112977528D01*
X133823372Y-112977746D01*
X133850068Y-112999655D01*
X133850345Y-112999932D01*
X133872254Y-113026628D01*
X133872472Y-113026954D01*
X133888749Y-113057405D01*
X133888899Y-113057767D01*
X133898925Y-113090819D01*
X133899001Y-113091204D01*
X133902990Y-113131707D01*
X133903000Y-113131903D01*
X133903000Y-113214000D01*
X133902000Y-113215732D01*
X133900000Y-113215732D01*
X133899010Y-113214196D01*
X133893938Y-113162696D01*
X133878971Y-113113358D01*
X133854668Y-113067890D01*
X133821962Y-113028038D01*
X133782110Y-112995332D01*
X133736642Y-112971029D01*
X133687304Y-112956062D01*
X133635804Y-112950990D01*
X133634178Y-112949825D01*
X133634374Y-112947835D01*
X133636000Y-112947000D01*
X133718097Y-112947000D01*
X133718293Y-112947010D01*
G37*
G36*
X180976232Y-111448000D02*
G01*
X180976232Y-111450000D01*
X180974696Y-111450990D01*
X180677285Y-111480282D01*
X180391485Y-111566979D01*
X180128094Y-111707764D01*
X179897230Y-111897230D01*
X179707764Y-112128094D01*
X179566979Y-112391485D01*
X179480282Y-112677285D01*
X179450990Y-112974696D01*
X179449825Y-112976322D01*
X179447835Y-112976126D01*
X179447000Y-112974500D01*
X179447000Y-112918140D01*
X179447010Y-112917944D01*
X179475714Y-112626507D01*
X179475790Y-112626122D01*
X179559010Y-112351782D01*
X179559160Y-112351420D01*
X179694298Y-112098595D01*
X179694516Y-112098269D01*
X179876384Y-111876661D01*
X179876661Y-111876384D01*
X180098269Y-111694516D01*
X180098595Y-111694298D01*
X180351420Y-111559160D01*
X180351782Y-111559010D01*
X180626122Y-111475790D01*
X180626507Y-111475714D01*
X180917944Y-111447010D01*
X180918140Y-111447000D01*
X180974500Y-111447000D01*
X180976232Y-111448000D01*
G37*
G36*
X184082056Y-111447010D02*
G01*
X184373493Y-111475714D01*
X184373878Y-111475790D01*
X184648218Y-111559010D01*
X184648580Y-111559160D01*
X184901405Y-111694298D01*
X184901731Y-111694516D01*
X185123339Y-111876384D01*
X185123616Y-111876661D01*
X185305484Y-112098269D01*
X185305702Y-112098595D01*
X185440840Y-112351420D01*
X185440990Y-112351782D01*
X185524210Y-112626122D01*
X185524286Y-112626507D01*
X185552990Y-112917944D01*
X185553000Y-112918140D01*
X185553000Y-112974500D01*
X185552000Y-112976232D01*
X185550000Y-112976232D01*
X185549010Y-112974696D01*
X185519718Y-112677285D01*
X185433021Y-112391485D01*
X185292236Y-112128094D01*
X185102770Y-111897230D01*
X184871906Y-111707764D01*
X184608515Y-111566979D01*
X184322715Y-111480282D01*
X184025304Y-111450990D01*
X184023678Y-111449825D01*
X184023874Y-111447835D01*
X184025500Y-111447000D01*
X184081860Y-111447000D01*
X184082056Y-111447010D01*
G37*
G36*
X148365732Y-111598000D02*
G01*
X148365732Y-111600000D01*
X148364196Y-111600990D01*
X148312696Y-111606062D01*
X148263358Y-111621029D01*
X148217890Y-111645332D01*
X148178038Y-111678038D01*
X148145332Y-111717890D01*
X148121029Y-111763358D01*
X148106062Y-111812696D01*
X148100990Y-111864196D01*
X148099825Y-111865822D01*
X148097835Y-111865626D01*
X148097000Y-111864000D01*
X148097000Y-111781903D01*
X148097010Y-111781707D01*
X148100999Y-111741204D01*
X148101075Y-111740819D01*
X148111101Y-111707767D01*
X148111251Y-111707405D01*
X148127528Y-111676954D01*
X148127746Y-111676628D01*
X148149655Y-111649932D01*
X148149932Y-111649655D01*
X148176628Y-111627746D01*
X148176954Y-111627528D01*
X148207405Y-111611251D01*
X148207767Y-111611101D01*
X148240819Y-111601075D01*
X148241204Y-111600999D01*
X148281707Y-111597010D01*
X148281903Y-111597000D01*
X148364000Y-111597000D01*
X148365732Y-111598000D01*
G37*
G36*
X149718293Y-111597010D02*
G01*
X149758796Y-111600999D01*
X149759181Y-111601075D01*
X149792233Y-111611101D01*
X149792595Y-111611251D01*
X149823046Y-111627528D01*
X149823372Y-111627746D01*
X149850068Y-111649655D01*
X149850345Y-111649932D01*
X149872254Y-111676628D01*
X149872472Y-111676954D01*
X149888749Y-111707405D01*
X149888899Y-111707767D01*
X149898925Y-111740819D01*
X149899001Y-111741204D01*
X149902990Y-111781707D01*
X149903000Y-111781903D01*
X149903000Y-111864000D01*
X149902000Y-111865732D01*
X149900000Y-111865732D01*
X149899010Y-111864196D01*
X149893938Y-111812696D01*
X149878971Y-111763358D01*
X149854668Y-111717890D01*
X149821962Y-111678038D01*
X149782110Y-111645332D01*
X149736642Y-111621029D01*
X149687304Y-111606062D01*
X149635804Y-111600990D01*
X149634178Y-111599825D01*
X149634374Y-111597835D01*
X149636000Y-111597000D01*
X149718097Y-111597000D01*
X149718293Y-111597010D01*
G37*
G36*
X149048689Y-108867722D02*
G01*
X149049454Y-108869570D01*
X149048582Y-108870972D01*
X149044297Y-108873835D01*
X149044129Y-108873936D01*
X149037172Y-108877654D01*
X149018534Y-108892947D01*
X149003237Y-108911582D01*
X148991870Y-108932845D01*
X148984868Y-108955920D01*
X148982503Y-108979910D01*
X148984865Y-109003904D01*
X148991861Y-109026976D01*
X149003226Y-109048242D01*
X149018519Y-109066880D01*
X149037154Y-109082177D01*
X149058417Y-109093544D01*
X149081592Y-109100575D01*
X149085624Y-109101377D01*
X149087128Y-109102696D01*
X149086738Y-109104658D01*
X149085234Y-109105339D01*
X148911886Y-109105339D01*
X148739036Y-109139721D01*
X148576219Y-109207162D01*
X148529366Y-109238468D01*
X148527370Y-109238599D01*
X148526259Y-109236936D01*
X148526986Y-109235259D01*
X148541032Y-109223732D01*
X148556328Y-109205095D01*
X148567693Y-109183831D01*
X148574693Y-109160756D01*
X148577056Y-109136765D01*
X148574693Y-109112774D01*
X148567693Y-109089699D01*
X148556328Y-109068436D01*
X148541033Y-109049799D01*
X148522396Y-109034503D01*
X148501132Y-109023138D01*
X148478057Y-109016138D01*
X148459982Y-109014358D01*
X148458356Y-109013193D01*
X148458552Y-109011203D01*
X148460178Y-109010368D01*
X148574626Y-109010368D01*
X148819096Y-108961740D01*
X149046706Y-108867461D01*
X149048689Y-108867722D01*
G37*
G36*
X138450732Y-103173000D02*
G01*
X138451000Y-103174000D01*
X138451000Y-105026000D01*
X138450000Y-105027732D01*
X138449000Y-105028000D01*
X138351000Y-105028000D01*
X138349268Y-105027000D01*
X138349000Y-105026000D01*
X138349000Y-103176000D01*
X137801000Y-103176000D01*
X137801000Y-105026000D01*
X137800000Y-105027732D01*
X137799000Y-105028000D01*
X137701000Y-105028000D01*
X137699268Y-105027000D01*
X137699000Y-105026000D01*
X137699000Y-103176000D01*
X137151000Y-103176000D01*
X137151000Y-105026000D01*
X137150000Y-105027732D01*
X137149000Y-105028000D01*
X137051000Y-105028000D01*
X137049268Y-105027000D01*
X137049000Y-105026000D01*
X137049000Y-103176000D01*
X136501000Y-103176000D01*
X136501000Y-105026000D01*
X136500000Y-105027732D01*
X136499000Y-105028000D01*
X136401000Y-105028000D01*
X136399268Y-105027000D01*
X136399000Y-105026000D01*
X136399000Y-103176000D01*
X135851000Y-103176000D01*
X135851000Y-105026000D01*
X135850000Y-105027732D01*
X135849000Y-105028000D01*
X135751000Y-105028000D01*
X135749268Y-105027000D01*
X135749000Y-105026000D01*
X135749000Y-103176000D01*
X135201000Y-103176000D01*
X135201000Y-105026000D01*
X135200000Y-105027732D01*
X135199000Y-105028000D01*
X135101000Y-105028000D01*
X135099268Y-105027000D01*
X135099000Y-105026000D01*
X135099000Y-103176000D01*
X134551000Y-103176000D01*
X134551000Y-105026000D01*
X134550000Y-105027732D01*
X134549000Y-105028000D01*
X134451000Y-105028000D01*
X134449268Y-105027000D01*
X134449000Y-105026000D01*
X134449000Y-103176000D01*
X133901000Y-103176000D01*
X133901000Y-105026000D01*
X133900000Y-105027732D01*
X133899000Y-105028000D01*
X133801000Y-105028000D01*
X133799268Y-105027000D01*
X133799000Y-105026000D01*
X133799000Y-103176000D01*
X133251000Y-103176000D01*
X133251000Y-105026000D01*
X133250000Y-105027732D01*
X133249000Y-105028000D01*
X133151000Y-105028000D01*
X133149268Y-105027000D01*
X133149000Y-105026000D01*
X133149000Y-103176000D01*
X132601000Y-103176000D01*
X132601000Y-105026000D01*
X132600000Y-105027732D01*
X132599000Y-105028000D01*
X132501000Y-105028000D01*
X132499268Y-105027000D01*
X132499000Y-105026000D01*
X132499000Y-103176000D01*
X131951000Y-103176000D01*
X131951000Y-105026000D01*
X131950000Y-105027732D01*
X131949000Y-105028000D01*
X131851000Y-105028000D01*
X131849268Y-105027000D01*
X131849000Y-105026000D01*
X131849000Y-103176000D01*
X131301000Y-103176000D01*
X131301000Y-105026000D01*
X131300000Y-105027732D01*
X131299000Y-105028000D01*
X131201000Y-105028000D01*
X131199268Y-105027000D01*
X131199000Y-105026000D01*
X131199000Y-103176000D01*
X130651000Y-103176000D01*
X130651000Y-105026000D01*
X130650000Y-105027732D01*
X130649000Y-105028000D01*
X130551000Y-105028000D01*
X130549268Y-105027000D01*
X130549000Y-105026000D01*
X130549000Y-103174000D01*
X130550000Y-103172268D01*
X130551000Y-103172000D01*
X138449000Y-103172000D01*
X138450732Y-103173000D01*
G37*
G36*
X173975732Y-102898000D02*
G01*
X173976000Y-102899000D01*
X173976000Y-104601000D01*
X173975000Y-104602732D01*
X173974000Y-104603000D01*
X173826000Y-104603000D01*
X173824268Y-104602000D01*
X173824000Y-104601000D01*
X173824000Y-102901000D01*
X173176000Y-102901000D01*
X173176000Y-104601000D01*
X173175000Y-104602732D01*
X173174000Y-104603000D01*
X173026000Y-104603000D01*
X173024268Y-104602000D01*
X173024000Y-104601000D01*
X173024000Y-102901000D01*
X172376000Y-102901000D01*
X172376000Y-104601000D01*
X172375000Y-104602732D01*
X172374000Y-104603000D01*
X172226000Y-104603000D01*
X172224268Y-104602000D01*
X172224000Y-104601000D01*
X172224000Y-102901000D01*
X171576000Y-102901000D01*
X171576000Y-104601000D01*
X171575000Y-104602732D01*
X171574000Y-104603000D01*
X171426000Y-104603000D01*
X171424268Y-104602000D01*
X171424000Y-104601000D01*
X171424000Y-102901000D01*
X170776000Y-102901000D01*
X170776000Y-104601000D01*
X170775000Y-104602732D01*
X170774000Y-104603000D01*
X170626000Y-104603000D01*
X170624268Y-104602000D01*
X170624000Y-104601000D01*
X170624000Y-102901000D01*
X169976000Y-102901000D01*
X169976000Y-104601000D01*
X169975000Y-104602732D01*
X169974000Y-104603000D01*
X169826000Y-104603000D01*
X169824268Y-104602000D01*
X169824000Y-104601000D01*
X169824000Y-102901000D01*
X169176000Y-102901000D01*
X169176000Y-104601000D01*
X169175000Y-104602732D01*
X169174000Y-104603000D01*
X169026000Y-104603000D01*
X169024268Y-104602000D01*
X169024000Y-104601000D01*
X169024000Y-102899000D01*
X169025000Y-102897268D01*
X169026000Y-102897000D01*
X173974000Y-102897000D01*
X173975732Y-102898000D01*
G37*
G36*
X176602732Y-101825000D02*
G01*
X176603000Y-101826000D01*
X176603000Y-101974000D01*
X176602000Y-101975732D01*
X176601000Y-101976000D01*
X174899000Y-101976000D01*
X174897268Y-101975000D01*
X174897000Y-101974000D01*
X174897000Y-101826000D01*
X174898000Y-101824268D01*
X174899000Y-101824000D01*
X176601000Y-101824000D01*
X176602732Y-101825000D01*
G37*
G36*
X168102732Y-101825000D02*
G01*
X168103000Y-101826000D01*
X168103000Y-101974000D01*
X168102000Y-101975732D01*
X168101000Y-101976000D01*
X166399000Y-101976000D01*
X166397268Y-101975000D01*
X166397000Y-101974000D01*
X166397000Y-101826000D01*
X166398000Y-101824268D01*
X166399000Y-101824000D01*
X168101000Y-101824000D01*
X168102732Y-101825000D01*
G37*
G36*
X194552165Y-101539174D02*
G01*
X194553000Y-101540800D01*
X194553000Y-101634660D01*
X194552990Y-101634856D01*
X194549319Y-101672130D01*
X194549243Y-101672515D01*
X194540160Y-101702458D01*
X194540010Y-101702820D01*
X194525264Y-101730408D01*
X194525046Y-101730734D01*
X194505197Y-101754920D01*
X194504920Y-101755197D01*
X194480734Y-101775046D01*
X194480408Y-101775264D01*
X194452820Y-101790010D01*
X194452458Y-101790160D01*
X194422515Y-101799243D01*
X194422130Y-101799319D01*
X194384856Y-101802990D01*
X194384660Y-101803000D01*
X194290800Y-101803000D01*
X194289068Y-101802000D01*
X194289068Y-101800000D01*
X194290604Y-101799010D01*
X194341168Y-101794030D01*
X194389605Y-101779336D01*
X194434243Y-101755477D01*
X194473368Y-101723368D01*
X194505477Y-101684243D01*
X194529336Y-101639605D01*
X194544030Y-101591168D01*
X194549010Y-101540604D01*
X194550175Y-101538978D01*
X194552165Y-101539174D01*
G37*
G36*
X190950990Y-101540604D02*
G01*
X190955970Y-101591168D01*
X190970664Y-101639605D01*
X190994523Y-101684243D01*
X191026632Y-101723368D01*
X191065757Y-101755477D01*
X191110395Y-101779336D01*
X191158832Y-101794030D01*
X191209396Y-101799010D01*
X191211022Y-101800175D01*
X191210826Y-101802165D01*
X191209200Y-101803000D01*
X191115340Y-101803000D01*
X191115144Y-101802990D01*
X191077870Y-101799319D01*
X191077485Y-101799243D01*
X191047542Y-101790160D01*
X191047180Y-101790010D01*
X191019592Y-101775264D01*
X191019266Y-101775046D01*
X190995080Y-101755197D01*
X190994803Y-101754920D01*
X190974954Y-101730734D01*
X190974736Y-101730408D01*
X190959990Y-101702820D01*
X190959840Y-101702458D01*
X190950757Y-101672515D01*
X190950681Y-101672130D01*
X190947010Y-101634856D01*
X190947000Y-101634660D01*
X190947000Y-101540800D01*
X190948000Y-101539068D01*
X190950000Y-101539068D01*
X190950990Y-101540604D01*
G37*
G36*
X201052165Y-101539174D02*
G01*
X201053000Y-101540800D01*
X201053000Y-101634660D01*
X201052990Y-101634856D01*
X201049319Y-101672130D01*
X201049243Y-101672515D01*
X201040160Y-101702458D01*
X201040010Y-101702820D01*
X201025264Y-101730408D01*
X201025046Y-101730734D01*
X201005197Y-101754920D01*
X201004920Y-101755197D01*
X200980734Y-101775046D01*
X200980408Y-101775264D01*
X200952820Y-101790010D01*
X200952458Y-101790160D01*
X200922515Y-101799243D01*
X200922130Y-101799319D01*
X200884856Y-101802990D01*
X200884660Y-101803000D01*
X200790800Y-101803000D01*
X200789068Y-101802000D01*
X200789068Y-101800000D01*
X200790604Y-101799010D01*
X200841168Y-101794030D01*
X200889605Y-101779336D01*
X200934243Y-101755477D01*
X200973368Y-101723368D01*
X201005477Y-101684243D01*
X201029336Y-101639605D01*
X201044030Y-101591168D01*
X201049010Y-101540604D01*
X201050175Y-101538978D01*
X201052165Y-101539174D01*
G37*
G36*
X197450990Y-101540604D02*
G01*
X197455970Y-101591168D01*
X197470664Y-101639605D01*
X197494523Y-101684243D01*
X197526632Y-101723368D01*
X197565757Y-101755477D01*
X197610395Y-101779336D01*
X197658832Y-101794030D01*
X197709396Y-101799010D01*
X197711022Y-101800175D01*
X197710826Y-101802165D01*
X197709200Y-101803000D01*
X197615340Y-101803000D01*
X197615144Y-101802990D01*
X197577870Y-101799319D01*
X197577485Y-101799243D01*
X197547542Y-101790160D01*
X197547180Y-101790010D01*
X197519592Y-101775264D01*
X197519266Y-101775046D01*
X197495080Y-101755197D01*
X197494803Y-101754920D01*
X197474954Y-101730734D01*
X197474736Y-101730408D01*
X197459990Y-101702820D01*
X197459840Y-101702458D01*
X197450757Y-101672515D01*
X197450681Y-101672130D01*
X197447010Y-101634856D01*
X197447000Y-101634660D01*
X197447000Y-101540800D01*
X197448000Y-101539068D01*
X197450000Y-101539068D01*
X197450990Y-101540604D01*
G37*
G36*
X176602732Y-101025000D02*
G01*
X176603000Y-101026000D01*
X176603000Y-101174000D01*
X176602000Y-101175732D01*
X176601000Y-101176000D01*
X174899000Y-101176000D01*
X174897268Y-101175000D01*
X174897000Y-101174000D01*
X174897000Y-101026000D01*
X174898000Y-101024268D01*
X174899000Y-101024000D01*
X176601000Y-101024000D01*
X176602732Y-101025000D01*
G37*
G36*
X168102732Y-101025000D02*
G01*
X168103000Y-101026000D01*
X168103000Y-101174000D01*
X168102000Y-101175732D01*
X168101000Y-101176000D01*
X166399000Y-101176000D01*
X166397268Y-101175000D01*
X166397000Y-101174000D01*
X166397000Y-101026000D01*
X166398000Y-101024268D01*
X166399000Y-101024000D01*
X168101000Y-101024000D01*
X168102732Y-101025000D01*
G37*
G36*
X168102732Y-100225000D02*
G01*
X168103000Y-100226000D01*
X168103000Y-100374000D01*
X168102000Y-100375732D01*
X168101000Y-100376000D01*
X166399000Y-100376000D01*
X166397268Y-100375000D01*
X166397000Y-100374000D01*
X166397000Y-100226000D01*
X166398000Y-100224268D01*
X166399000Y-100224000D01*
X168101000Y-100224000D01*
X168102732Y-100225000D01*
G37*
G36*
X176602732Y-100225000D02*
G01*
X176603000Y-100226000D01*
X176603000Y-100374000D01*
X176602000Y-100375732D01*
X176601000Y-100376000D01*
X174899000Y-100376000D01*
X174897268Y-100375000D01*
X174897000Y-100374000D01*
X174897000Y-100226000D01*
X174898000Y-100224268D01*
X174899000Y-100224000D01*
X176601000Y-100224000D01*
X176602732Y-100225000D01*
G37*
G36*
X168102732Y-99425000D02*
G01*
X168103000Y-99426000D01*
X168103000Y-99574000D01*
X168102000Y-99575732D01*
X168101000Y-99576000D01*
X166399000Y-99576000D01*
X166397268Y-99575000D01*
X166397000Y-99574000D01*
X166397000Y-99426000D01*
X166398000Y-99424268D01*
X166399000Y-99424000D01*
X168101000Y-99424000D01*
X168102732Y-99425000D01*
G37*
G36*
X176602732Y-99425000D02*
G01*
X176603000Y-99426000D01*
X176603000Y-99574000D01*
X176602000Y-99575732D01*
X176601000Y-99576000D01*
X174899000Y-99576000D01*
X174897268Y-99575000D01*
X174897000Y-99574000D01*
X174897000Y-99426000D01*
X174898000Y-99424268D01*
X174899000Y-99424000D01*
X176601000Y-99424000D01*
X176602732Y-99425000D01*
G37*
G36*
X197710932Y-99198000D02*
G01*
X197710932Y-99200000D01*
X197709396Y-99200990D01*
X197658832Y-99205970D01*
X197610395Y-99220664D01*
X197565757Y-99244523D01*
X197526632Y-99276632D01*
X197494523Y-99315757D01*
X197470664Y-99360395D01*
X197455970Y-99408832D01*
X197450990Y-99459396D01*
X197449825Y-99461022D01*
X197447835Y-99460826D01*
X197447000Y-99459200D01*
X197447000Y-99365340D01*
X197447010Y-99365144D01*
X197450681Y-99327870D01*
X197450757Y-99327485D01*
X197459840Y-99297542D01*
X197459990Y-99297180D01*
X197474736Y-99269592D01*
X197474954Y-99269266D01*
X197494803Y-99245080D01*
X197495080Y-99244803D01*
X197519266Y-99224954D01*
X197519592Y-99224736D01*
X197547180Y-99209990D01*
X197547542Y-99209840D01*
X197577485Y-99200757D01*
X197577870Y-99200681D01*
X197615144Y-99197010D01*
X197615340Y-99197000D01*
X197709200Y-99197000D01*
X197710932Y-99198000D01*
G37*
G36*
X191077165Y-98877202D02*
G01*
X191078000Y-98878828D01*
X191078000Y-98943340D01*
X191077990Y-98943536D01*
X191073525Y-98988874D01*
X191073449Y-98989259D01*
X191058602Y-99038200D01*
X191053878Y-99061947D01*
X191053878Y-99086053D01*
X191058582Y-99109703D01*
X191067808Y-99131977D01*
X191081203Y-99152025D01*
X191098250Y-99169072D01*
X191118297Y-99182467D01*
X191140571Y-99191693D01*
X191164267Y-99196407D01*
X191176332Y-99197000D01*
X191209200Y-99197000D01*
X191210932Y-99198000D01*
X191210932Y-99200000D01*
X191209396Y-99200990D01*
X191158832Y-99205970D01*
X191110395Y-99220664D01*
X191065757Y-99244523D01*
X191026632Y-99276632D01*
X190994523Y-99315757D01*
X190970664Y-99360395D01*
X190955970Y-99408832D01*
X190950990Y-99459396D01*
X190949825Y-99461022D01*
X190947835Y-99460826D01*
X190947000Y-99459200D01*
X190947000Y-99365340D01*
X190947010Y-99365144D01*
X190950681Y-99327866D01*
X190950757Y-99327481D01*
X190955515Y-99311797D01*
X190960238Y-99288050D01*
X190960238Y-99263944D01*
X190955533Y-99240294D01*
X190946306Y-99218020D01*
X190932911Y-99197973D01*
X190915864Y-99180926D01*
X190895816Y-99167532D01*
X190873585Y-99158323D01*
X190837696Y-99153000D01*
X190803828Y-99153000D01*
X190802096Y-99152000D01*
X190802096Y-99150000D01*
X190803632Y-99149010D01*
X190856531Y-99143800D01*
X190907215Y-99128425D01*
X190953923Y-99103460D01*
X190994862Y-99069862D01*
X191028460Y-99028923D01*
X191053425Y-98982215D01*
X191068800Y-98931531D01*
X191074010Y-98878632D01*
X191075175Y-98877006D01*
X191077165Y-98877202D01*
G37*
G36*
X200884856Y-99197010D02*
G01*
X200922130Y-99200681D01*
X200922515Y-99200757D01*
X200952458Y-99209840D01*
X200952820Y-99209990D01*
X200980408Y-99224736D01*
X200980734Y-99224954D01*
X201004920Y-99244803D01*
X201005197Y-99245080D01*
X201025046Y-99269266D01*
X201025264Y-99269592D01*
X201040010Y-99297180D01*
X201040160Y-99297542D01*
X201049243Y-99327485D01*
X201049319Y-99327870D01*
X201052990Y-99365144D01*
X201053000Y-99365340D01*
X201053000Y-99459200D01*
X201052000Y-99460932D01*
X201050000Y-99460932D01*
X201049010Y-99459396D01*
X201044030Y-99408832D01*
X201029336Y-99360395D01*
X201005477Y-99315757D01*
X200973368Y-99276632D01*
X200934243Y-99244523D01*
X200889605Y-99220664D01*
X200841168Y-99205970D01*
X200790604Y-99200990D01*
X200788978Y-99199825D01*
X200789174Y-99197835D01*
X200790800Y-99197000D01*
X200884660Y-99197000D01*
X200884856Y-99197010D01*
G37*
G36*
X194384856Y-99197010D02*
G01*
X194422130Y-99200681D01*
X194422515Y-99200757D01*
X194452458Y-99209840D01*
X194452820Y-99209990D01*
X194480408Y-99224736D01*
X194480734Y-99224954D01*
X194504920Y-99244803D01*
X194505197Y-99245080D01*
X194525046Y-99269266D01*
X194525264Y-99269592D01*
X194540010Y-99297180D01*
X194540160Y-99297542D01*
X194549243Y-99327485D01*
X194549319Y-99327870D01*
X194552990Y-99365144D01*
X194553000Y-99365340D01*
X194553000Y-99459200D01*
X194552000Y-99460932D01*
X194550000Y-99460932D01*
X194549010Y-99459396D01*
X194544030Y-99408832D01*
X194529336Y-99360395D01*
X194505477Y-99315757D01*
X194473368Y-99276632D01*
X194434243Y-99244523D01*
X194389605Y-99220664D01*
X194341168Y-99205970D01*
X194290604Y-99200990D01*
X194288978Y-99199825D01*
X194289174Y-99197835D01*
X194290800Y-99197000D01*
X194384660Y-99197000D01*
X194384856Y-99197010D01*
G37*
G36*
X176602732Y-98625000D02*
G01*
X176603000Y-98626000D01*
X176603000Y-98774000D01*
X176602000Y-98775732D01*
X176601000Y-98776000D01*
X174899000Y-98776000D01*
X174897268Y-98775000D01*
X174897000Y-98774000D01*
X174897000Y-98626000D01*
X174898000Y-98624268D01*
X174899000Y-98624000D01*
X176601000Y-98624000D01*
X176602732Y-98625000D01*
G37*
G36*
X168102732Y-98625000D02*
G01*
X168103000Y-98626000D01*
X168103000Y-98774000D01*
X168102000Y-98775732D01*
X168101000Y-98776000D01*
X166399000Y-98776000D01*
X166397268Y-98775000D01*
X166397000Y-98774000D01*
X166397000Y-98626000D01*
X166398000Y-98624268D01*
X166399000Y-98624000D01*
X168101000Y-98624000D01*
X168102732Y-98625000D01*
G37*
G36*
X168102732Y-97825000D02*
G01*
X168103000Y-97826000D01*
X168103000Y-97974000D01*
X168102000Y-97975732D01*
X168101000Y-97976000D01*
X166399000Y-97976000D01*
X166397268Y-97975000D01*
X166397000Y-97974000D01*
X166397000Y-97826000D01*
X166398000Y-97824268D01*
X166399000Y-97824000D01*
X168101000Y-97824000D01*
X168102732Y-97825000D01*
G37*
G36*
X176602732Y-97825000D02*
G01*
X176603000Y-97826000D01*
X176603000Y-97974000D01*
X176602000Y-97975732D01*
X176601000Y-97976000D01*
X174899000Y-97976000D01*
X174897268Y-97975000D01*
X174897000Y-97974000D01*
X174897000Y-97826000D01*
X174898000Y-97824268D01*
X174899000Y-97824000D01*
X176601000Y-97824000D01*
X176602732Y-97825000D01*
G37*
G36*
X138450732Y-95973000D02*
G01*
X138451000Y-95974000D01*
X138451000Y-97826000D01*
X138450000Y-97827732D01*
X138449000Y-97828000D01*
X138351000Y-97828000D01*
X138349268Y-97827000D01*
X138349000Y-97826000D01*
X138349000Y-95976000D01*
X137801000Y-95976000D01*
X137801000Y-97826000D01*
X137800000Y-97827732D01*
X137799000Y-97828000D01*
X137701000Y-97828000D01*
X137699268Y-97827000D01*
X137699000Y-97826000D01*
X137699000Y-95976000D01*
X137151000Y-95976000D01*
X137151000Y-97826000D01*
X137150000Y-97827732D01*
X137149000Y-97828000D01*
X137051000Y-97828000D01*
X137049268Y-97827000D01*
X137049000Y-97826000D01*
X137049000Y-95976000D01*
X136501000Y-95976000D01*
X136501000Y-97826000D01*
X136500000Y-97827732D01*
X136499000Y-97828000D01*
X136401000Y-97828000D01*
X136399268Y-97827000D01*
X136399000Y-97826000D01*
X136399000Y-95976000D01*
X135851000Y-95976000D01*
X135851000Y-97826000D01*
X135850000Y-97827732D01*
X135849000Y-97828000D01*
X135751000Y-97828000D01*
X135749268Y-97827000D01*
X135749000Y-97826000D01*
X135749000Y-95976000D01*
X135201000Y-95976000D01*
X135201000Y-97826000D01*
X135200000Y-97827732D01*
X135199000Y-97828000D01*
X135101000Y-97828000D01*
X135099268Y-97827000D01*
X135099000Y-97826000D01*
X135099000Y-95976000D01*
X134551000Y-95976000D01*
X134551000Y-97826000D01*
X134550000Y-97827732D01*
X134549000Y-97828000D01*
X134451000Y-97828000D01*
X134449268Y-97827000D01*
X134449000Y-97826000D01*
X134449000Y-95976000D01*
X133901000Y-95976000D01*
X133901000Y-97826000D01*
X133900000Y-97827732D01*
X133899000Y-97828000D01*
X133801000Y-97828000D01*
X133799268Y-97827000D01*
X133799000Y-97826000D01*
X133799000Y-95976000D01*
X133251000Y-95976000D01*
X133251000Y-97826000D01*
X133250000Y-97827732D01*
X133249000Y-97828000D01*
X133151000Y-97828000D01*
X133149268Y-97827000D01*
X133149000Y-97826000D01*
X133149000Y-95976000D01*
X132601000Y-95976000D01*
X132601000Y-97826000D01*
X132600000Y-97827732D01*
X132599000Y-97828000D01*
X132501000Y-97828000D01*
X132499268Y-97827000D01*
X132499000Y-97826000D01*
X132499000Y-95976000D01*
X131951000Y-95976000D01*
X131951000Y-97826000D01*
X131950000Y-97827732D01*
X131949000Y-97828000D01*
X131851000Y-97828000D01*
X131849268Y-97827000D01*
X131849000Y-97826000D01*
X131849000Y-95976000D01*
X131301000Y-95976000D01*
X131301000Y-97826000D01*
X131300000Y-97827732D01*
X131299000Y-97828000D01*
X131201000Y-97828000D01*
X131199268Y-97827000D01*
X131199000Y-97826000D01*
X131199000Y-95976000D01*
X130651000Y-95976000D01*
X130651000Y-97826000D01*
X130650000Y-97827732D01*
X130649000Y-97828000D01*
X130551000Y-97828000D01*
X130549268Y-97827000D01*
X130549000Y-97826000D01*
X130549000Y-95974000D01*
X130550000Y-95972268D01*
X130551000Y-95972000D01*
X138449000Y-95972000D01*
X138450732Y-95973000D01*
G37*
G36*
X176602732Y-97025000D02*
G01*
X176603000Y-97026000D01*
X176603000Y-97174000D01*
X176602000Y-97175732D01*
X176601000Y-97176000D01*
X174899000Y-97176000D01*
X174897268Y-97175000D01*
X174897000Y-97174000D01*
X174897000Y-97026000D01*
X174898000Y-97024268D01*
X174899000Y-97024000D01*
X176601000Y-97024000D01*
X176602732Y-97025000D01*
G37*
G36*
X168102732Y-97025000D02*
G01*
X168103000Y-97026000D01*
X168103000Y-97174000D01*
X168102000Y-97175732D01*
X168101000Y-97176000D01*
X166399000Y-97176000D01*
X166397268Y-97175000D01*
X166397000Y-97174000D01*
X166397000Y-97026000D01*
X166398000Y-97024268D01*
X166399000Y-97024000D01*
X168101000Y-97024000D01*
X168102732Y-97025000D01*
G37*
G36*
X173975732Y-94398000D02*
G01*
X173976000Y-94399000D01*
X173976000Y-96101000D01*
X173975000Y-96102732D01*
X173974000Y-96103000D01*
X173826000Y-96103000D01*
X173824268Y-96102000D01*
X173824000Y-96101000D01*
X173824000Y-94401000D01*
X173176000Y-94401000D01*
X173176000Y-96101000D01*
X173175000Y-96102732D01*
X173174000Y-96103000D01*
X173026000Y-96103000D01*
X173024268Y-96102000D01*
X173024000Y-96101000D01*
X173024000Y-94401000D01*
X172376000Y-94401000D01*
X172376000Y-96101000D01*
X172375000Y-96102732D01*
X172374000Y-96103000D01*
X172226000Y-96103000D01*
X172224268Y-96102000D01*
X172224000Y-96101000D01*
X172224000Y-94401000D01*
X171576000Y-94401000D01*
X171576000Y-96101000D01*
X171575000Y-96102732D01*
X171574000Y-96103000D01*
X171426000Y-96103000D01*
X171424268Y-96102000D01*
X171424000Y-96101000D01*
X171424000Y-94401000D01*
X170776000Y-94401000D01*
X170776000Y-96101000D01*
X170775000Y-96102732D01*
X170774000Y-96103000D01*
X170626000Y-96103000D01*
X170624268Y-96102000D01*
X170624000Y-96101000D01*
X170624000Y-94401000D01*
X169976000Y-94401000D01*
X169976000Y-96101000D01*
X169975000Y-96102732D01*
X169974000Y-96103000D01*
X169826000Y-96103000D01*
X169824268Y-96102000D01*
X169824000Y-96101000D01*
X169824000Y-94401000D01*
X169176000Y-94401000D01*
X169176000Y-96101000D01*
X169175000Y-96102732D01*
X169174000Y-96103000D01*
X169026000Y-96103000D01*
X169024268Y-96102000D01*
X169024000Y-96101000D01*
X169024000Y-94399000D01*
X169025000Y-94397268D01*
X169026000Y-94397000D01*
X173974000Y-94397000D01*
X173975732Y-94398000D01*
G37*
G36*
X175902165Y-88134374D02*
G01*
X175903000Y-88136000D01*
X175903000Y-88218097D01*
X175902990Y-88218293D01*
X175899001Y-88258796D01*
X175898925Y-88259181D01*
X175888899Y-88292233D01*
X175888749Y-88292595D01*
X175872472Y-88323046D01*
X175872254Y-88323372D01*
X175850345Y-88350068D01*
X175850068Y-88350345D01*
X175823372Y-88372254D01*
X175823046Y-88372472D01*
X175792595Y-88388749D01*
X175792233Y-88388899D01*
X175759181Y-88398925D01*
X175758796Y-88399001D01*
X175718293Y-88402990D01*
X175718097Y-88403000D01*
X175636000Y-88403000D01*
X175634268Y-88402000D01*
X175634268Y-88400000D01*
X175635804Y-88399010D01*
X175687304Y-88393938D01*
X175736642Y-88378971D01*
X175782110Y-88354668D01*
X175821962Y-88321962D01*
X175854668Y-88282110D01*
X175878971Y-88236642D01*
X175893938Y-88187304D01*
X175899010Y-88135804D01*
X175900175Y-88134178D01*
X175902165Y-88134374D01*
G37*
G36*
X174100990Y-88135804D02*
G01*
X174106062Y-88187304D01*
X174121029Y-88236642D01*
X174145332Y-88282110D01*
X174178038Y-88321962D01*
X174217890Y-88354668D01*
X174263358Y-88378971D01*
X174312696Y-88393938D01*
X174364196Y-88399010D01*
X174365822Y-88400175D01*
X174365626Y-88402165D01*
X174364000Y-88403000D01*
X174281903Y-88403000D01*
X174281707Y-88402990D01*
X174241204Y-88399001D01*
X174240819Y-88398925D01*
X174207767Y-88388899D01*
X174207405Y-88388749D01*
X174176954Y-88372472D01*
X174176628Y-88372254D01*
X174149932Y-88350345D01*
X174149655Y-88350068D01*
X174127746Y-88323372D01*
X174127528Y-88323046D01*
X174111251Y-88292595D01*
X174111101Y-88292233D01*
X174101075Y-88259181D01*
X174100999Y-88258796D01*
X174097010Y-88218293D01*
X174097000Y-88218097D01*
X174097000Y-88136000D01*
X174098000Y-88134268D01*
X174100000Y-88134268D01*
X174100990Y-88135804D01*
G37*
G36*
X174365732Y-86598000D02*
G01*
X174365732Y-86600000D01*
X174364196Y-86600990D01*
X174312696Y-86606062D01*
X174263358Y-86621029D01*
X174217890Y-86645332D01*
X174178038Y-86678038D01*
X174145332Y-86717890D01*
X174121029Y-86763358D01*
X174106062Y-86812696D01*
X174100990Y-86864196D01*
X174099825Y-86865822D01*
X174097835Y-86865626D01*
X174097000Y-86864000D01*
X174097000Y-86781903D01*
X174097010Y-86781707D01*
X174100999Y-86741204D01*
X174101075Y-86740819D01*
X174111101Y-86707767D01*
X174111251Y-86707405D01*
X174127528Y-86676954D01*
X174127746Y-86676628D01*
X174149655Y-86649932D01*
X174149932Y-86649655D01*
X174176628Y-86627746D01*
X174176954Y-86627528D01*
X174207405Y-86611251D01*
X174207767Y-86611101D01*
X174240819Y-86601075D01*
X174241204Y-86600999D01*
X174281707Y-86597010D01*
X174281903Y-86597000D01*
X174364000Y-86597000D01*
X174365732Y-86598000D01*
G37*
G36*
X175718293Y-86597010D02*
G01*
X175758796Y-86600999D01*
X175759181Y-86601075D01*
X175792233Y-86611101D01*
X175792595Y-86611251D01*
X175823046Y-86627528D01*
X175823372Y-86627746D01*
X175850068Y-86649655D01*
X175850345Y-86649932D01*
X175872254Y-86676628D01*
X175872472Y-86676954D01*
X175888749Y-86707405D01*
X175888899Y-86707767D01*
X175898925Y-86740819D01*
X175899001Y-86741204D01*
X175902990Y-86781707D01*
X175903000Y-86781903D01*
X175903000Y-86864000D01*
X175902000Y-86865732D01*
X175900000Y-86865732D01*
X175899010Y-86864196D01*
X175893938Y-86812696D01*
X175878971Y-86763358D01*
X175854668Y-86717890D01*
X175821962Y-86678038D01*
X175782110Y-86645332D01*
X175736642Y-86621029D01*
X175687304Y-86606062D01*
X175635804Y-86600990D01*
X175634178Y-86599825D01*
X175634374Y-86597835D01*
X175636000Y-86597000D01*
X175718097Y-86597000D01*
X175718293Y-86597010D01*
G37*
M02*
