%TF.GenerationSoftware,KiCad,Pcbnew,(5.1.8-0-10_14)*%
%TF.CreationDate,2021-02-08T17:53:51+01:00*%
%TF.ProjectId,ethersweep,65746865-7273-4776-9565-702e6b696361,rev?*%
%TF.SameCoordinates,Original*%
%TF.FileFunction,Other,User*%
%FSLAX46Y46*%
G04 Gerber Fmt 4.6, Leading zero omitted, Abs format (unit mm)*
G04 Created by KiCad (PCBNEW (5.1.8-0-10_14)) date 2021-02-08 17:53:51*
%MOMM*%
%LPD*%
G01*
G04 APERTURE LIST*
%TA.AperFunction,Profile*%
%ADD10C,0.150000*%
%TD*%
%ADD11C,0.050000*%
G04 APERTURE END LIST*
D10*
X163500000Y-98250000D02*
G75*
G02*
X160500000Y-98250000I-1500000J0D01*
G01*
X160500000Y-91000000D02*
G75*
G02*
X163500000Y-91000000I1500000J0D01*
G01*
X163500000Y-98250000D02*
X163500000Y-91000000D01*
X160500000Y-91000000D02*
X160500000Y-98250000D01*
X160500000Y-102250000D02*
G75*
G02*
X163500000Y-102250000I1500000J0D01*
G01*
X160500000Y-102250000D02*
X160500000Y-109500000D01*
X163500000Y-109500000D02*
X163500000Y-102250000D01*
X163500000Y-109500000D02*
G75*
G02*
X160500000Y-109500000I-1500000J0D01*
G01*
X163500000Y-87250000D02*
G75*
G03*
X163500000Y-87250000I-1500000J0D01*
G01*
X163500000Y-113250000D02*
G75*
G03*
X163500000Y-113250000I-1500000J0D01*
G01*
X160500000Y-84500000D02*
X160500000Y-85000000D01*
X163500000Y-84500000D02*
X163500000Y-85000000D01*
X160500000Y-115500000D02*
X163500000Y-115500000D01*
X163500000Y-85000000D02*
X160500000Y-85000000D01*
X149500000Y-89000000D02*
G75*
G03*
X149500000Y-89000000I-1500000J0D01*
G01*
X129500000Y-90000000D02*
X129500000Y-81000000D01*
X126000000Y-81000000D02*
X129500000Y-81000000D01*
X126000000Y-81000000D02*
G75*
G03*
X122500000Y-84500000I0J-3500000D01*
G01*
X146500000Y-81000000D02*
X157000000Y-81000000D01*
X143500000Y-90000000D02*
X129500000Y-90000000D01*
X146500000Y-87000000D02*
X143500000Y-90000000D01*
X146500000Y-81000000D02*
X146500000Y-87000000D01*
X180500000Y-81000000D02*
X167000000Y-81000000D01*
X184500000Y-81000000D02*
X198000000Y-81000000D01*
X184500000Y-81000000D02*
G75*
G02*
X180500000Y-81000000I-2000000J500000D01*
G01*
X163500000Y-84500000D02*
G75*
G02*
X167000000Y-81000000I3500000J0D01*
G01*
X201500000Y-115500000D02*
G75*
G02*
X198000000Y-119000000I-3500000J0D01*
G01*
X167000000Y-119000000D02*
G75*
G02*
X163500000Y-115500000I0J3500000D01*
G01*
X167000000Y-119000000D02*
X198000000Y-119000000D01*
X198000000Y-81000000D02*
G75*
G02*
X201500000Y-84500000I0J-3500000D01*
G01*
X201500000Y-115500000D02*
X201500000Y-84500000D01*
X122500000Y-115500000D02*
X122500000Y-84500000D01*
X160500000Y-84500000D02*
G75*
G03*
X157000000Y-81000000I-3500000J0D01*
G01*
X157000000Y-119000000D02*
G75*
G03*
X160500000Y-115500000I0J3500000D01*
G01*
X122500000Y-115500000D02*
G75*
G03*
X126000000Y-119000000I3500000J0D01*
G01*
X157000000Y-119000000D02*
X126000000Y-119000000D01*
D11*
X155220000Y-106900000D02*
X145320000Y-106900000D01*
X155220000Y-123190000D02*
X155220000Y-106900000D01*
X145320000Y-123190000D02*
X155220000Y-123190000D01*
X145320000Y-106900000D02*
X145320000Y-123190000D01*
X178680000Y-93100000D02*
X178680000Y-76810000D01*
X178680000Y-76810000D02*
X168780000Y-76810000D01*
X168780000Y-76810000D02*
X168780000Y-93100000D01*
X168780000Y-93100000D02*
X178680000Y-93100000D01*
X167450000Y-91320000D02*
X167450000Y-94680000D01*
X165550000Y-91320000D02*
X167450000Y-91320000D01*
X165550000Y-94680000D02*
X165550000Y-91320000D01*
X167450000Y-94680000D02*
X165550000Y-94680000D01*
X170450000Y-115500000D02*
G75*
G03*
X170450000Y-115500000I-3450000J0D01*
G01*
X201450000Y-115475001D02*
G75*
G03*
X201450000Y-115475001I-3450000J0D01*
G01*
X201450000Y-84500000D02*
G75*
G03*
X201450000Y-84500000I-3450000J0D01*
G01*
X170450000Y-84500000D02*
G75*
G03*
X170450000Y-84500000I-3450000J0D01*
G01*
X175950000Y-93980000D02*
X172550000Y-93980000D01*
X175950000Y-92020000D02*
X175950000Y-93980000D01*
X172550000Y-92020000D02*
X175950000Y-92020000D01*
X172550000Y-93980000D02*
X172550000Y-92020000D01*
X186700000Y-96950000D02*
X191300000Y-96950000D01*
X186700000Y-99050000D02*
X186700000Y-96950000D01*
X191300000Y-99050000D02*
X186700000Y-99050000D01*
X191300000Y-96950000D02*
X191300000Y-99050000D01*
X129200000Y-92520000D02*
X129200000Y-94480000D01*
X129200000Y-94480000D02*
X125800000Y-94480000D01*
X125800000Y-94480000D02*
X125800000Y-92520000D01*
X125800000Y-92520000D02*
X129200000Y-92520000D01*
X136460000Y-94910000D02*
X135540000Y-94910000D01*
X135540000Y-94910000D02*
X135540000Y-93090000D01*
X135540000Y-93090000D02*
X136460000Y-93090000D01*
X136460000Y-93090000D02*
X136460000Y-94910000D01*
X130460000Y-93090000D02*
X130460000Y-94910000D01*
X129540000Y-93090000D02*
X130460000Y-93090000D01*
X129540000Y-94910000D02*
X129540000Y-93090000D01*
X130460000Y-94910000D02*
X129540000Y-94910000D01*
X190200000Y-99520000D02*
X190200000Y-101480000D01*
X190200000Y-101480000D02*
X186800000Y-101480000D01*
X186800000Y-101480000D02*
X186800000Y-99520000D01*
X186800000Y-99520000D02*
X190200000Y-99520000D01*
X125800000Y-95020000D02*
X129200000Y-95020000D01*
X125800000Y-96980000D02*
X125800000Y-95020000D01*
X129200000Y-96980000D02*
X125800000Y-96980000D01*
X129200000Y-95020000D02*
X129200000Y-96980000D01*
X168960000Y-106590000D02*
X168960000Y-108410000D01*
X168040000Y-106590000D02*
X168960000Y-106590000D01*
X168040000Y-108410000D02*
X168040000Y-106590000D01*
X168960000Y-108410000D02*
X168040000Y-108410000D01*
X187250000Y-107520000D02*
X190650000Y-107520000D01*
X187250000Y-109480000D02*
X187250000Y-107520000D01*
X190650000Y-109480000D02*
X187250000Y-109480000D01*
X190650000Y-107520000D02*
X190650000Y-109480000D01*
X174960000Y-108410000D02*
X174040000Y-108410000D01*
X174040000Y-108410000D02*
X174040000Y-106590000D01*
X174040000Y-106590000D02*
X174960000Y-106590000D01*
X174960000Y-106590000D02*
X174960000Y-108410000D01*
X191800000Y-104950000D02*
X191800000Y-107050000D01*
X191800000Y-107050000D02*
X187200000Y-107050000D01*
X187200000Y-107050000D02*
X187200000Y-104950000D01*
X187200000Y-104950000D02*
X191800000Y-104950000D01*
X177800000Y-105980000D02*
X177800000Y-104020000D01*
X177800000Y-104020000D02*
X181200000Y-104020000D01*
X181200000Y-104020000D02*
X181200000Y-105980000D01*
X181200000Y-105980000D02*
X177800000Y-105980000D01*
X128020000Y-109200000D02*
X128020000Y-105800000D01*
X129980000Y-109200000D02*
X128020000Y-109200000D01*
X129980000Y-105800000D02*
X129980000Y-109200000D01*
X128020000Y-105800000D02*
X129980000Y-105800000D01*
X143700000Y-93480000D02*
X140300000Y-93480000D01*
X143700000Y-91520000D02*
X143700000Y-93480000D01*
X140300000Y-91520000D02*
X143700000Y-91520000D01*
X140300000Y-93480000D02*
X140300000Y-91520000D01*
X135200000Y-107520000D02*
X135200000Y-109480000D01*
X135200000Y-109480000D02*
X131800000Y-109480000D01*
X131800000Y-109480000D02*
X131800000Y-107520000D01*
X131800000Y-107520000D02*
X135200000Y-107520000D01*
X150200000Y-103480000D02*
X146800000Y-103480000D01*
X150200000Y-101520000D02*
X150200000Y-103480000D01*
X146800000Y-101520000D02*
X150200000Y-101520000D01*
X146800000Y-103480000D02*
X146800000Y-101520000D01*
X146800000Y-101335001D02*
X146800000Y-99375001D01*
X146800000Y-99375001D02*
X150200000Y-99375001D01*
X150200000Y-99375001D02*
X150200000Y-101335001D01*
X150200000Y-101335001D02*
X146800000Y-101335001D01*
X198480000Y-91700000D02*
X196520000Y-91700000D01*
X196520000Y-91700000D02*
X196520000Y-88300000D01*
X196520000Y-88300000D02*
X198480000Y-88300000D01*
X198480000Y-88300000D02*
X198480000Y-91700000D01*
X194480000Y-84700000D02*
X192520000Y-84700000D01*
X192520000Y-84700000D02*
X192520000Y-81300000D01*
X192520000Y-81300000D02*
X194480000Y-81300000D01*
X194480000Y-81300000D02*
X194480000Y-84700000D01*
X200400000Y-96100000D02*
X200400000Y-99000000D01*
X200400000Y-99000000D02*
X201250000Y-99000000D01*
X201250000Y-99000000D02*
X201250000Y-102000000D01*
X201250000Y-102000000D02*
X200400000Y-102000000D01*
X200400000Y-102000000D02*
X200400000Y-104900000D01*
X192750000Y-104900000D02*
X200400000Y-104900000D01*
X192750000Y-96100000D02*
X200400000Y-96100000D01*
X191600000Y-103750000D02*
X192750000Y-104900000D01*
X191600000Y-97250000D02*
X192750000Y-96100000D01*
X191600000Y-97250000D02*
X191600000Y-99000000D01*
X191600000Y-102000000D02*
X191600000Y-103750000D01*
X191600000Y-99000000D02*
X190750000Y-99000000D01*
X190750000Y-99000000D02*
X190750000Y-102000000D01*
X190750000Y-102000000D02*
X191600000Y-102000000D01*
X184980000Y-90300000D02*
X184980000Y-93700000D01*
X183020000Y-90300000D02*
X184980000Y-90300000D01*
X183020000Y-93700000D02*
X183020000Y-90300000D01*
X184980000Y-93700000D02*
X183020000Y-93700000D01*
X200200000Y-95980000D02*
X196800000Y-95980000D01*
X200200000Y-94020000D02*
X200200000Y-95980000D01*
X196800000Y-94020000D02*
X200200000Y-94020000D01*
X196800000Y-95980000D02*
X196800000Y-94020000D01*
X196800000Y-93980000D02*
X196800000Y-92020000D01*
X196800000Y-92020000D02*
X200200000Y-92020000D01*
X200200000Y-92020000D02*
X200200000Y-93980000D01*
X200200000Y-93980000D02*
X196800000Y-93980000D01*
X147050000Y-81820000D02*
X148950000Y-81820000D01*
X148950000Y-81820000D02*
X148950000Y-85180000D01*
X148950000Y-85180000D02*
X147050000Y-85180000D01*
X147050000Y-85180000D02*
X147050000Y-81820000D01*
X125800000Y-105800000D02*
X125800000Y-94600000D01*
X125800000Y-94600000D02*
X122200000Y-94600000D01*
X122200000Y-94600000D02*
X122200000Y-105800000D01*
X122200000Y-105800000D02*
X125800000Y-105800000D01*
X175100000Y-82950000D02*
X175100000Y-89050000D01*
X175100000Y-89050000D02*
X186900000Y-89050000D01*
X186900000Y-89050000D02*
X186900000Y-82950000D01*
X186900000Y-82950000D02*
X175100000Y-82950000D01*
X165450000Y-94680000D02*
X163550000Y-94680000D01*
X163550000Y-94680000D02*
X163550000Y-91320000D01*
X163550000Y-91320000D02*
X165450000Y-91320000D01*
X165450000Y-91320000D02*
X165450000Y-94680000D01*
X149820000Y-89450000D02*
X149820000Y-87550000D01*
X149820000Y-87550000D02*
X153180000Y-87550000D01*
X153180000Y-87550000D02*
X153180000Y-89450000D01*
X153180000Y-89450000D02*
X149820000Y-89450000D01*
X139730000Y-106020000D02*
X139730000Y-108980000D01*
X138270000Y-106020000D02*
X139730000Y-106020000D01*
X138270000Y-108980000D02*
X138270000Y-106020000D01*
X139730000Y-108980000D02*
X138270000Y-108980000D01*
X151520000Y-101770000D02*
X154480000Y-101770000D01*
X151520000Y-103230000D02*
X151520000Y-101770000D01*
X154480000Y-103230000D02*
X151520000Y-103230000D01*
X154480000Y-101770000D02*
X154480000Y-103230000D01*
X154480000Y-99770000D02*
X154480000Y-101230000D01*
X154480000Y-101230000D02*
X151520000Y-101230000D01*
X151520000Y-101230000D02*
X151520000Y-99770000D01*
X151520000Y-99770000D02*
X154480000Y-99770000D01*
X138770000Y-94980000D02*
X138770000Y-92020000D01*
X140230000Y-94980000D02*
X138770000Y-94980000D01*
X140230000Y-92020000D02*
X140230000Y-94980000D01*
X138770000Y-92020000D02*
X140230000Y-92020000D01*
X137270000Y-92020000D02*
X138730000Y-92020000D01*
X138730000Y-92020000D02*
X138730000Y-94980000D01*
X138730000Y-94980000D02*
X137270000Y-94980000D01*
X137270000Y-94980000D02*
X137270000Y-92020000D01*
X136730000Y-106020000D02*
X136730000Y-108980000D01*
X135270000Y-106020000D02*
X136730000Y-106020000D01*
X135270000Y-108980000D02*
X135270000Y-106020000D01*
X136730000Y-108980000D02*
X135270000Y-108980000D01*
X138230000Y-108980000D02*
X136770000Y-108980000D01*
X136770000Y-108980000D02*
X136770000Y-106020000D01*
X136770000Y-106020000D02*
X138230000Y-106020000D01*
X138230000Y-106020000D02*
X138230000Y-108980000D01*
X192120000Y-81220000D02*
X192120000Y-85780000D01*
X189880000Y-81220000D02*
X192120000Y-81220000D01*
X189880000Y-85780000D02*
X189880000Y-81220000D01*
X192120000Y-85780000D02*
X189880000Y-85780000D01*
X188620000Y-85780000D02*
X186380000Y-85780000D01*
X186380000Y-85780000D02*
X186380000Y-81220000D01*
X186380000Y-81220000D02*
X188620000Y-81220000D01*
X188620000Y-81220000D02*
X188620000Y-85780000D01*
X149480000Y-85770000D02*
X149480000Y-87230000D01*
X149480000Y-87230000D02*
X146520000Y-87230000D01*
X146520000Y-87230000D02*
X146520000Y-85770000D01*
X146520000Y-85770000D02*
X149480000Y-85770000D01*
X172300000Y-119600000D02*
X177700000Y-119600000D01*
X177700000Y-119600000D02*
X177700000Y-109500000D01*
X177700000Y-109500000D02*
X172300000Y-109500000D01*
X172300000Y-109500000D02*
X172300000Y-119600000D01*
X149800000Y-87250000D02*
X149800000Y-81750000D01*
X149800000Y-81750000D02*
X153200000Y-81750000D01*
X153200000Y-81750000D02*
X153200000Y-87250000D01*
X153200000Y-87250000D02*
X149800000Y-87250000D01*
X129000000Y-105250000D02*
X140000000Y-105250000D01*
X129000000Y-95750000D02*
X140000000Y-95750000D01*
X129000000Y-105250000D02*
X129000000Y-95750000D01*
X140000000Y-105250000D02*
X140000000Y-95750000D01*
X166200000Y-104800000D02*
X176800000Y-104800000D01*
X166200000Y-94200000D02*
X176800000Y-94200000D01*
X166200000Y-104800000D02*
X166200000Y-94200000D01*
X176800000Y-104800000D02*
X176800000Y-94200000D01*
X195670000Y-87650000D02*
X195670000Y-95350000D01*
X185330000Y-87650000D02*
X185330000Y-95350000D01*
X195670000Y-87650000D02*
X185330000Y-87650000D01*
X195670000Y-95350000D02*
X185330000Y-95350000D01*
X192100000Y-112100000D02*
X200900000Y-112100000D01*
X192100000Y-104900000D02*
X192100000Y-112100000D01*
X200900000Y-104900000D02*
X192100000Y-104900000D01*
X200900000Y-112100000D02*
X200900000Y-104900000D01*
X130900000Y-91800000D02*
X130900000Y-95200000D01*
X130900000Y-95200000D02*
X135100000Y-95200000D01*
X135100000Y-95200000D02*
X135100000Y-91800000D01*
X135100000Y-91800000D02*
X130900000Y-91800000D01*
X173600000Y-105800000D02*
X169400000Y-105800000D01*
X173600000Y-109200000D02*
X173600000Y-105800000D01*
X169400000Y-109200000D02*
X173600000Y-109200000D01*
X169400000Y-105800000D02*
X169400000Y-109200000D01*
X180900000Y-109900000D02*
X194350000Y-109900000D01*
X177850000Y-112650000D02*
X180900000Y-109900000D01*
X177850000Y-116350000D02*
X177850000Y-112650000D01*
X180900000Y-119100000D02*
X177850000Y-116350000D01*
X194350000Y-119100000D02*
X180900000Y-119100000D01*
X194350000Y-109900000D02*
X194350000Y-119100000D01*
X164020000Y-99480000D02*
X164020000Y-96520000D01*
X165480000Y-99480000D02*
X164020000Y-99480000D01*
X165480000Y-96520000D02*
X165480000Y-99480000D01*
X164020000Y-96520000D02*
X165480000Y-96520000D01*
X178670000Y-94320000D02*
X180130000Y-94320000D01*
X180130000Y-94320000D02*
X180130000Y-97280000D01*
X180130000Y-97280000D02*
X178670000Y-97280000D01*
X178670000Y-97280000D02*
X178670000Y-94320000D01*
X165580000Y-88200000D02*
X165580000Y-91800000D01*
X181880000Y-88200000D02*
X165580000Y-88200000D01*
X181880000Y-91800000D02*
X181880000Y-88200000D01*
X165580000Y-91800000D02*
X181880000Y-91800000D01*
M02*
