M48
; DRILL file {KiCad (5.1.8-0-10_14)} date Monday, February 08, 2021 at 05:54:03 PM
; FORMAT={-:-/ absolute / inch / decimal}
; #@! TF.CreationDate,2021-02-08T17:54:03+01:00
; #@! TF.GenerationSoftware,Kicad,Pcbnew,(5.1.8-0-10_14)
; #@! TF.FileFunction,Plated,1,2,PTH
FMAT,2
INCH
T1C0.0118
T2C0.0157
T3C0.0197
T4C0.0315
T5C0.0350
T6C0.0394
T7C0.0402
T8C0.0642
T9C0.1260
T10C0.1772
%
G90
G05
T1
X7.3465Y-3.5512
X7.3465Y-3.6024
X7.3465Y-3.6535
X7.3976Y-3.5512
X7.3976Y-3.6024
X7.3976Y-3.6535
X7.4488Y-3.5512
X7.4488Y-3.6024
X7.4488Y-3.6535
X7.5Y-3.5512
X7.5Y-3.6024
X7.5Y-3.6535
X7.5512Y-3.5512
X7.5512Y-3.6024
X7.5512Y-3.6535
X7.6024Y-3.5512
X7.6024Y-3.6024
X7.6024Y-3.6535
X7.6535Y-3.5512
X7.6535Y-3.6024
X7.6535Y-3.6535
T2
X4.8622Y-3.6614
X4.8622Y-4.252
X4.8622Y-4.4094
X4.8819Y-3.6024
X4.8819Y-4.3307
X4.9016Y-3.5039
X4.9409Y-3.6614
X4.9409Y-3.7598
X4.9606Y-4.311
X5.0Y-4.0945
X5.0Y-4.2126
X5.0197Y-3.563
X5.0394Y-3.5039
X5.0394Y-3.622
X5.0394Y-4.0157
X5.0591Y-4.1142
X5.0591Y-4.3307
X5.0787Y-4.6457
X5.0984Y-3.5827
X5.0984Y-4.311
X5.0984Y-4.4685
X5.1378Y-3.878
X5.1378Y-4.3504
X5.1545Y-4.0187
X5.1545Y-4.1703
X5.1575Y-3.622
X5.1673Y-3.9075
X5.1929Y-3.6024
X5.1969Y-4.2028
X5.1969Y-4.311
X5.2165Y-4.5866
X5.2362Y-4.0157
X5.2461Y-4.2028
X5.2953Y-4.4193
X5.2953Y-4.6457
X5.315Y-3.937
X5.3343Y-3.7398
X5.3346Y-3.5827
X5.3346Y-3.9764
X5.3543Y-4.2913
X5.374Y-4.2913
X5.374Y-4.6063
X5.3907Y-3.7431
X5.3937Y-3.937
X5.3937Y-4.0157
X5.3937Y-4.2913
X5.4134Y-4.2913
X5.4331Y-3.622
X5.4528Y-3.622
X5.4528Y-4.5669
X5.4724Y-3.622
X5.4921Y-3.937
X5.4921Y-4.1142
X5.4921Y-4.2913
X5.502Y-4.1535
X5.5315Y-3.7992
X5.5315Y-3.9764
X5.5315Y-4.2323
X5.5315Y-4.3996
X5.5413Y-4.2913
X5.5807Y-4.3799
X5.5807Y-4.626
X5.5906Y-4.1732
X5.6102Y-3.7402
X5.6299Y-4.2618
X5.6693Y-3.6417
X5.689Y-4.6358
X5.7087Y-4.1339
X5.7185Y-4.2224
X5.7283Y-3.5433
X5.748Y-4.4587
X5.748Y-4.5374
X5.7776Y-4.626
X5.7874Y-3.7795
X5.8071Y-4.1339
X5.8071Y-4.5079
X5.8465Y-3.8189
X5.8661Y-3.878
X5.9055Y-3.878
X5.935Y-4.2618
X5.9449Y-3.5827
X5.9646Y-3.3071
X5.9843Y-3.9173
X6.0236Y-3.8583
X6.0236Y-4.6063
X6.0335Y-4.4094
X6.0728Y-4.1535
X6.0728Y-4.1732
X6.0728Y-4.1929
X6.0827Y-3.4843
X6.0827Y-3.7008
X6.0827Y-3.8386
X6.1024Y-3.6024
X6.122Y-4.2618
X6.1811Y-3.5433
X6.2008Y-3.8386
X6.2008Y-3.9764
X6.2205Y-4.4094
X6.2598Y-4.4094
X6.2795Y-3.4843
X6.2795Y-3.622
X6.2795Y-3.8386
X6.2795Y-4.0157
X6.2795Y-4.252
X6.2992Y-4.4094
X6.4646Y-3.937
X6.4646Y-4.0945
X6.4665Y-3.4941
X6.4764Y-3.4547
X6.4764Y-3.7598
X6.4764Y-3.9961
X6.4961Y-3.5236
X6.5118Y-3.9449
X6.5157Y-3.7402
X6.5157Y-4.3898
X6.5197Y-4.0
X6.5354Y-4.1339
X6.5945Y-4.3898
X6.5984Y-4.3228
X6.6063Y-4.1575
X6.6339Y-4.1732
X6.6732Y-3.8189
X6.6732Y-3.8976
X6.6732Y-3.8976
X6.6732Y-4.1535
X6.6732Y-4.3898
X6.6929Y-3.6811
X6.6929Y-4.0157
X6.7028Y-3.435
X6.7126Y-3.2185
X6.7126Y-3.622
X6.7126Y-3.937
X6.7323Y-3.2677
X6.7323Y-3.6811
X6.7323Y-3.9961
X6.7421Y-3.8091
X6.752Y-3.6417
X6.752Y-3.8583
X6.752Y-4.3898
X6.752Y-4.4685
X6.752Y-4.5472
X6.752Y-4.626
X6.7717Y-4.0157
X6.7913Y-3.622
X6.7913Y-3.9764
X6.7913Y-4.0157
X6.8012Y-3.8681
X6.811Y-4.0157
X6.8307Y-3.2087
X6.8307Y-3.8386
X6.8307Y-4.0157
X6.8504Y-4.2913
X6.8583Y-3.8701
X6.8819Y-4.1654
X6.8996Y-3.7106
X6.9094Y-3.6024
X6.937Y-3.2992
X6.9685Y-3.6024
X6.9685Y-4.065
X6.9685Y-4.5276
X6.9685Y-4.626
X6.9882Y-3.2283
X6.9882Y-3.2874
X6.9882Y-4.252
X6.9882Y-4.311
X7.0Y-3.8976
X7.0157Y-3.7795
X7.0276Y-3.3858
X7.0276Y-4.0551
X7.0295Y-4.1713
X7.0472Y-3.8583
X7.0472Y-4.252
X7.0472Y-4.311
X7.0551Y-3.6299
X7.063Y-4.6535
X7.0669Y-3.2283
X7.0669Y-3.9567
X7.0669Y-4.0748
X7.0787Y-3.3858
X7.0866Y-3.7402
X7.1063Y-3.3071
X7.1181Y-3.6299
X7.126Y-3.3465
X7.126Y-3.4646
X7.1339Y-3.748
X7.1457Y-3.3858
X7.1457Y-4.1142
X7.185Y-3.7205
X7.185Y-3.7598
X7.2047Y-3.8976
X7.2441Y-3.5236
X7.2441Y-3.7402
X7.2835Y-3.5039
X7.2835Y-3.5433
X7.2835Y-3.8189
X7.2835Y-4.3307
X7.2835Y-4.6535
X7.3046Y-3.2298
X7.3214Y-3.2298
X7.3228Y-3.4055
X7.3228Y-4.4488
X7.3425Y-3.878
X7.3425Y-3.9764
X7.3425Y-4.5866
X7.3622Y-4.2913
X7.3622Y-4.4094
X7.3622Y-4.6457
X7.3834Y-3.4237
X7.4016Y-4.3307
X7.4395Y-3.2298
X7.4592Y-3.2298
X7.5138Y-4.2343
X7.5157Y-4.3583
X7.5197Y-3.7963
X7.5394Y-4.2717
X7.5591Y-3.7992
X7.5591Y-4.2717
X7.5591Y-4.6457
X7.5787Y-3.3858
X7.5984Y-3.8189
X7.5984Y-4.4291
X7.6181Y-3.3661
X7.6181Y-4.4882
X7.6181Y-4.5866
X7.6378Y-3.7795
X7.7165Y-4.3622
X7.7362Y-3.6614
X7.7362Y-3.9567
X7.7382Y-3.7008
X7.7835Y-4.3622
X7.7953Y-3.878
X7.8445Y-4.0256
X7.8543Y-3.5039
X7.8543Y-3.5433
X7.8937Y-3.5039
X7.8937Y-3.5433
X7.8937Y-3.6614
X7.8937Y-3.7402
X7.8937Y-3.878
T3
X4.8661Y-4.5472
X4.8938Y-4.4804
X4.8938Y-4.6141
X4.9606Y-4.4528
X4.9606Y-4.6417
X5.0274Y-4.4804
X5.0274Y-4.6141
X5.0551Y-4.5472
X6.0866Y-3.3268
X6.1143Y-3.26
X6.1143Y-3.3936
X6.1811Y-3.2323
X6.1811Y-3.4213
X6.2479Y-3.26
X6.2479Y-3.3936
X6.2756Y-3.3268
X7.7008Y-4.5463
X7.7285Y-4.4794
X7.7285Y-4.6131
X7.7953Y-4.4518
X7.7953Y-4.6407
X7.8621Y-4.4794
X7.8621Y-4.6131
X7.8898Y-4.5463
X4.8661Y-3.3268
X4.8938Y-3.26
X4.8938Y-3.3936
X4.9606Y-3.2323
X4.9606Y-3.4213
X5.0274Y-3.26
X5.0274Y-3.3936
X5.0551Y-3.3268
X6.4803Y-4.5472
X6.508Y-4.4804
X6.508Y-4.6141
X6.5748Y-4.4528
X6.5748Y-4.6417
X6.6416Y-4.4804
X6.6416Y-4.6141
X6.6693Y-4.5472
X6.0866Y-4.5472
X6.1143Y-4.4804
X6.1143Y-4.6141
X6.1811Y-4.4528
X6.1811Y-4.6417
X6.2479Y-4.4804
X6.2479Y-4.6141
X6.2756Y-4.5472
X7.7008Y-3.3268
X7.7285Y-3.26
X7.7285Y-3.3936
X7.7953Y-3.2323
X7.7953Y-3.4213
X7.8621Y-3.26
X7.8621Y-3.3936
X7.8898Y-3.3268
X6.4803Y-3.3268
X6.508Y-3.26
X6.508Y-3.3936
X6.5748Y-3.2323
X6.5748Y-3.4213
X6.6416Y-3.26
X6.6416Y-3.3936
X6.6693Y-3.3268
T4
X6.8898Y-4.4094
X6.8898Y-4.5094
X6.8898Y-4.6094
T5
X5.6146Y-3.8118
X5.6146Y-3.9118
X5.6146Y-4.0118
X5.6146Y-4.1118
X5.7146Y-3.7618
X5.7146Y-3.8618
X5.7146Y-3.9618
X5.7146Y-4.0618
T6
X5.6661Y-4.3307
X5.7661Y-4.3307
X5.8661Y-4.3307
X5.9661Y-4.3307
X6.0661Y-4.3307
X6.1661Y-4.3307
X5.2362Y-4.4882
X5.3346Y-4.4882
X6.5898Y-3.5433
X6.6898Y-3.5433
X6.7898Y-3.5433
X6.8898Y-3.5433
X6.9898Y-3.5433
X7.0898Y-3.5433
X5.8661Y-4.4291
X5.8661Y-4.5291
X5.8661Y-4.6291
X5.9661Y-4.4291
X5.9661Y-4.5291
X5.9661Y-4.6291
X5.5512Y-4.4882
X5.6496Y-4.4882
X4.8819Y-3.7945
X4.8819Y-3.8945
X4.8819Y-3.9945
X4.8819Y-4.0945
X6.7898Y-3.2449
X6.7898Y-3.3449
X6.7898Y-3.4449
X6.8898Y-3.2449
X6.8898Y-3.3449
X6.8898Y-3.4449
T7
X6.1575Y-3.6762
X6.1575Y-3.7762
X6.1575Y-4.0978
X6.1575Y-4.1978
T8
X5.8445Y-3.6321
X5.8445Y-4.2419
T9
X7.7953Y-4.5463
X4.9606Y-3.3268
X6.5748Y-4.5472
X6.1811Y-4.5472
X7.7953Y-3.3268
X6.5748Y-3.3268
X4.9606Y-4.5472
X6.1811Y-3.3268
T10
X7.185Y-4.5079
X7.4685Y-4.5079
T0
M30
