%TF.GenerationSoftware,KiCad,Pcbnew,(5.1.8-0-10_14)*%
%TF.CreationDate,2021-02-10T22:24:42+01:00*%
%TF.ProjectId,ethersweep,65746865-7273-4776-9565-702e6b696361,rev?*%
%TF.SameCoordinates,Original*%
%TF.FileFunction,Legend,Bot*%
%TF.FilePolarity,Positive*%
%FSLAX46Y46*%
G04 Gerber Fmt 4.6, Leading zero omitted, Abs format (unit mm)*
G04 Created by KiCad (PCBNEW (5.1.8-0-10_14)) date 2021-02-10 22:24:42*
%MOMM*%
%LPD*%
G01*
G04 APERTURE LIST*
%ADD10C,0.100000*%
%ADD11C,0.500000*%
%ADD12C,0.300000*%
%TA.AperFunction,Profile*%
%ADD13C,0.150000*%
%TD*%
%ADD14C,0.375000*%
%ADD15C,0.120000*%
%ADD16C,0.127000*%
%ADD17C,0.150000*%
%ADD18C,0.015000*%
G04 APERTURE END LIST*
D10*
G36*
X139200000Y-111000000D02*
G01*
X126200000Y-111000000D01*
X126300000Y-91000000D01*
X139300000Y-91000000D01*
X139200000Y-111000000D01*
G37*
X139200000Y-111000000D02*
X126200000Y-111000000D01*
X126300000Y-91000000D01*
X139300000Y-91000000D01*
X139200000Y-111000000D01*
D11*
X192336904Y-86109523D02*
X192527380Y-86204761D01*
X192908333Y-86204761D01*
X193098809Y-86109523D01*
X193194047Y-85919047D01*
X193194047Y-85157142D01*
X193098809Y-84966666D01*
X192908333Y-84871428D01*
X192527380Y-84871428D01*
X192336904Y-84966666D01*
X192241666Y-85157142D01*
X192241666Y-85347619D01*
X193194047Y-85538095D01*
X191670238Y-84871428D02*
X190908333Y-84871428D01*
X191384523Y-84204761D02*
X191384523Y-85919047D01*
X191289285Y-86109523D01*
X191098809Y-86204761D01*
X190908333Y-86204761D01*
X190241666Y-86204761D02*
X190241666Y-84204761D01*
X189384523Y-86204761D02*
X189384523Y-85157142D01*
X189479761Y-84966666D01*
X189670238Y-84871428D01*
X189955952Y-84871428D01*
X190146428Y-84966666D01*
X190241666Y-85061904D01*
X187670238Y-86109523D02*
X187860714Y-86204761D01*
X188241666Y-86204761D01*
X188432142Y-86109523D01*
X188527380Y-85919047D01*
X188527380Y-85157142D01*
X188432142Y-84966666D01*
X188241666Y-84871428D01*
X187860714Y-84871428D01*
X187670238Y-84966666D01*
X187575000Y-85157142D01*
X187575000Y-85347619D01*
X188527380Y-85538095D01*
X186717857Y-86204761D02*
X186717857Y-84871428D01*
X186717857Y-85252380D02*
X186622619Y-85061904D01*
X186527380Y-84966666D01*
X186336904Y-84871428D01*
X186146428Y-84871428D01*
X185575000Y-86109523D02*
X185384523Y-86204761D01*
X185003571Y-86204761D01*
X184813095Y-86109523D01*
X184717857Y-85919047D01*
X184717857Y-85823809D01*
X184813095Y-85633333D01*
X185003571Y-85538095D01*
X185289285Y-85538095D01*
X185479761Y-85442857D01*
X185575000Y-85252380D01*
X185575000Y-85157142D01*
X185479761Y-84966666D01*
X185289285Y-84871428D01*
X185003571Y-84871428D01*
X184813095Y-84966666D01*
X184051190Y-84871428D02*
X183670238Y-86204761D01*
X183289285Y-85252380D01*
X182908333Y-86204761D01*
X182527380Y-84871428D01*
X181003571Y-86109523D02*
X181194047Y-86204761D01*
X181575000Y-86204761D01*
X181765476Y-86109523D01*
X181860714Y-85919047D01*
X181860714Y-85157142D01*
X181765476Y-84966666D01*
X181575000Y-84871428D01*
X181194047Y-84871428D01*
X181003571Y-84966666D01*
X180908333Y-85157142D01*
X180908333Y-85347619D01*
X181860714Y-85538095D01*
X179289285Y-86109523D02*
X179479761Y-86204761D01*
X179860714Y-86204761D01*
X180051190Y-86109523D01*
X180146428Y-85919047D01*
X180146428Y-85157142D01*
X180051190Y-84966666D01*
X179860714Y-84871428D01*
X179479761Y-84871428D01*
X179289285Y-84966666D01*
X179194047Y-85157142D01*
X179194047Y-85347619D01*
X180146428Y-85538095D01*
X178336904Y-84871428D02*
X178336904Y-86871428D01*
X178336904Y-84966666D02*
X178146428Y-84871428D01*
X177765476Y-84871428D01*
X177575000Y-84966666D01*
X177479761Y-85061904D01*
X177384523Y-85252380D01*
X177384523Y-85823809D01*
X177479761Y-86014285D01*
X177575000Y-86109523D01*
X177765476Y-86204761D01*
X178146428Y-86204761D01*
X178336904Y-86109523D01*
D10*
G36*
X178700000Y-103100000D02*
G01*
X165400000Y-103100000D01*
X165400000Y-93100000D01*
X178700000Y-93100000D01*
X178700000Y-103100000D01*
G37*
X178700000Y-103100000D02*
X165400000Y-103100000D01*
X165400000Y-93100000D01*
X178700000Y-93100000D01*
X178700000Y-103100000D01*
D12*
X175642857Y-108578571D02*
X174714285Y-108578571D01*
X175214285Y-109150000D01*
X175000000Y-109150000D01*
X174857142Y-109221428D01*
X174785714Y-109292857D01*
X174714285Y-109435714D01*
X174714285Y-109792857D01*
X174785714Y-109935714D01*
X174857142Y-110007142D01*
X175000000Y-110078571D01*
X175428571Y-110078571D01*
X175571428Y-110007142D01*
X175642857Y-109935714D01*
X174071428Y-109935714D02*
X174000000Y-110007142D01*
X174071428Y-110078571D01*
X174142857Y-110007142D01*
X174071428Y-109935714D01*
X174071428Y-110078571D01*
X173500000Y-108578571D02*
X172571428Y-108578571D01*
X173071428Y-109150000D01*
X172857142Y-109150000D01*
X172714285Y-109221428D01*
X172642857Y-109292857D01*
X172571428Y-109435714D01*
X172571428Y-109792857D01*
X172642857Y-109935714D01*
X172714285Y-110007142D01*
X172857142Y-110078571D01*
X173285714Y-110078571D01*
X173428571Y-110007142D01*
X173500000Y-109935714D01*
X172142857Y-108578571D02*
X171642857Y-110078571D01*
X171142857Y-108578571D01*
X170642857Y-109078571D02*
X169500000Y-109507142D01*
X170642857Y-109935714D01*
X174871428Y-105550000D02*
X175014285Y-105478571D01*
X175228571Y-105478571D01*
X175442857Y-105550000D01*
X175585714Y-105692857D01*
X175657142Y-105835714D01*
X175728571Y-106121428D01*
X175728571Y-106335714D01*
X175657142Y-106621428D01*
X175585714Y-106764285D01*
X175442857Y-106907142D01*
X175228571Y-106978571D01*
X175085714Y-106978571D01*
X174871428Y-106907142D01*
X174800000Y-106835714D01*
X174800000Y-106335714D01*
X175085714Y-106335714D01*
X174157142Y-106978571D02*
X174157142Y-105478571D01*
X173300000Y-106978571D01*
X173300000Y-105478571D01*
X172585714Y-106978571D02*
X172585714Y-105478571D01*
X172228571Y-105478571D01*
X172014285Y-105550000D01*
X171871428Y-105692857D01*
X171800000Y-105835714D01*
X171728571Y-106121428D01*
X171728571Y-106335714D01*
X171800000Y-106621428D01*
X171871428Y-106764285D01*
X172014285Y-106907142D01*
X172228571Y-106978571D01*
X172585714Y-106978571D01*
X171085714Y-105978571D02*
X169942857Y-106407142D01*
X171085714Y-106835714D01*
D13*
X163500000Y-98000000D02*
G75*
G02*
X160500000Y-98000000I-1500000J0D01*
G01*
X160500000Y-91000000D02*
G75*
G02*
X163500000Y-91000000I1500000J0D01*
G01*
X163500000Y-98000000D02*
X163500000Y-91000000D01*
X160500000Y-91000000D02*
X160500000Y-98000000D01*
X160500000Y-102400000D02*
G75*
G02*
X163500000Y-102400000I1500000J0D01*
G01*
X160500000Y-102400000D02*
X160500000Y-109500000D01*
X163500000Y-109500000D02*
X163500000Y-102400000D01*
X163500000Y-109500000D02*
G75*
G02*
X160500000Y-109500000I-1500000J0D01*
G01*
X163500000Y-87250000D02*
G75*
G03*
X163500000Y-87250000I-1500000J0D01*
G01*
X163500000Y-113250000D02*
G75*
G03*
X163500000Y-113250000I-1500000J0D01*
G01*
D14*
X193141964Y-87166071D02*
X192784821Y-88166071D01*
X192427678Y-87166071D01*
X191284821Y-88094642D02*
X191427678Y-88166071D01*
X191713392Y-88166071D01*
X191856250Y-88094642D01*
X191927678Y-87951785D01*
X191927678Y-87380357D01*
X191856250Y-87237500D01*
X191713392Y-87166071D01*
X191427678Y-87166071D01*
X191284821Y-87237500D01*
X191213392Y-87380357D01*
X191213392Y-87523214D01*
X191927678Y-87666071D01*
X190570535Y-88166071D02*
X190570535Y-87166071D01*
X190570535Y-87451785D02*
X190499107Y-87308928D01*
X190427678Y-87237500D01*
X190284821Y-87166071D01*
X190141964Y-87166071D01*
X189713392Y-88094642D02*
X189570535Y-88166071D01*
X189284821Y-88166071D01*
X189141964Y-88094642D01*
X189070535Y-87951785D01*
X189070535Y-87880357D01*
X189141964Y-87737500D01*
X189284821Y-87666071D01*
X189499107Y-87666071D01*
X189641964Y-87594642D01*
X189713392Y-87451785D01*
X189713392Y-87380357D01*
X189641964Y-87237500D01*
X189499107Y-87166071D01*
X189284821Y-87166071D01*
X189141964Y-87237500D01*
X188427678Y-88023214D02*
X188356250Y-88094642D01*
X188427678Y-88166071D01*
X188499107Y-88094642D01*
X188427678Y-88023214D01*
X188427678Y-88166071D01*
X193070535Y-89433928D02*
X192999107Y-89362500D01*
X192856250Y-89291071D01*
X192499107Y-89291071D01*
X192356250Y-89362500D01*
X192284821Y-89433928D01*
X192213392Y-89576785D01*
X192213392Y-89719642D01*
X192284821Y-89933928D01*
X193141964Y-90791071D01*
X192213392Y-90791071D01*
X191570535Y-90648214D02*
X191499107Y-90719642D01*
X191570535Y-90791071D01*
X191641964Y-90719642D01*
X191570535Y-90648214D01*
X191570535Y-90791071D01*
X190570535Y-89291071D02*
X190427678Y-89291071D01*
X190284821Y-89362500D01*
X190213392Y-89433928D01*
X190141964Y-89576785D01*
X190070535Y-89862500D01*
X190070535Y-90219642D01*
X190141964Y-90505357D01*
X190213392Y-90648214D01*
X190284821Y-90719642D01*
X190427678Y-90791071D01*
X190570535Y-90791071D01*
X190713392Y-90719642D01*
X190784821Y-90648214D01*
X190856250Y-90505357D01*
X190927678Y-90219642D01*
X190927678Y-89862500D01*
X190856250Y-89576785D01*
X190784821Y-89433928D01*
X190713392Y-89362500D01*
X190570535Y-89291071D01*
X189427678Y-90648214D02*
X189356250Y-90719642D01*
X189427678Y-90791071D01*
X189499107Y-90719642D01*
X189427678Y-90648214D01*
X189427678Y-90791071D01*
X187927678Y-90791071D02*
X188784821Y-90791071D01*
X188356250Y-90791071D02*
X188356250Y-89291071D01*
X188499107Y-89505357D01*
X188641964Y-89648214D01*
X188784821Y-89719642D01*
D11*
X199698809Y-103404761D02*
X199698809Y-101404761D01*
X199698809Y-102166666D02*
X199508333Y-102071428D01*
X199127380Y-102071428D01*
X198936904Y-102166666D01*
X198841666Y-102261904D01*
X198746428Y-102452380D01*
X198746428Y-103023809D01*
X198841666Y-103214285D01*
X198936904Y-103309523D01*
X199127380Y-103404761D01*
X199508333Y-103404761D01*
X199698809Y-103309523D01*
X198079761Y-102071428D02*
X197603571Y-103404761D01*
X197127380Y-102071428D02*
X197603571Y-103404761D01*
X197794047Y-103880952D01*
X197889285Y-103976190D01*
X198079761Y-104071428D01*
X194841666Y-103404761D02*
X194841666Y-101404761D01*
X193698809Y-103404761D01*
X193698809Y-101404761D01*
X191984523Y-103309523D02*
X192175000Y-103404761D01*
X192555952Y-103404761D01*
X192746428Y-103309523D01*
X192841666Y-103119047D01*
X192841666Y-102357142D01*
X192746428Y-102166666D01*
X192555952Y-102071428D01*
X192175000Y-102071428D01*
X191984523Y-102166666D01*
X191889285Y-102357142D01*
X191889285Y-102547619D01*
X192841666Y-102738095D01*
X190175000Y-102071428D02*
X190175000Y-103404761D01*
X191032142Y-102071428D02*
X191032142Y-103119047D01*
X190936904Y-103309523D01*
X190746428Y-103404761D01*
X190460714Y-103404761D01*
X190270238Y-103309523D01*
X190175000Y-103214285D01*
X189222619Y-103404761D02*
X189222619Y-102071428D01*
X189222619Y-102261904D02*
X189127380Y-102166666D01*
X188936904Y-102071428D01*
X188651190Y-102071428D01*
X188460714Y-102166666D01*
X188365476Y-102357142D01*
X188365476Y-103404761D01*
X188365476Y-102357142D02*
X188270238Y-102166666D01*
X188079761Y-102071428D01*
X187794047Y-102071428D01*
X187603571Y-102166666D01*
X187508333Y-102357142D01*
X187508333Y-103404761D01*
X186555952Y-103404761D02*
X186555952Y-102071428D01*
X186555952Y-101404761D02*
X186651190Y-101500000D01*
X186555952Y-101595238D01*
X186460714Y-101500000D01*
X186555952Y-101404761D01*
X186555952Y-101595238D01*
X199794047Y-105095238D02*
X199698809Y-105000000D01*
X199508333Y-104904761D01*
X199032142Y-104904761D01*
X198841666Y-105000000D01*
X198746428Y-105095238D01*
X198651190Y-105285714D01*
X198651190Y-105476190D01*
X198746428Y-105761904D01*
X199889285Y-106904761D01*
X198651190Y-106904761D01*
X197413095Y-104904761D02*
X197222619Y-104904761D01*
X197032142Y-105000000D01*
X196936904Y-105095238D01*
X196841666Y-105285714D01*
X196746428Y-105666666D01*
X196746428Y-106142857D01*
X196841666Y-106523809D01*
X196936904Y-106714285D01*
X197032142Y-106809523D01*
X197222619Y-106904761D01*
X197413095Y-106904761D01*
X197603571Y-106809523D01*
X197698809Y-106714285D01*
X197794047Y-106523809D01*
X197889285Y-106142857D01*
X197889285Y-105666666D01*
X197794047Y-105285714D01*
X197698809Y-105095238D01*
X197603571Y-105000000D01*
X197413095Y-104904761D01*
X195984523Y-105095238D02*
X195889285Y-105000000D01*
X195698809Y-104904761D01*
X195222619Y-104904761D01*
X195032142Y-105000000D01*
X194936904Y-105095238D01*
X194841666Y-105285714D01*
X194841666Y-105476190D01*
X194936904Y-105761904D01*
X196079761Y-106904761D01*
X194841666Y-106904761D01*
X192936904Y-106904761D02*
X194079761Y-106904761D01*
X193508333Y-106904761D02*
X193508333Y-104904761D01*
X193698809Y-105190476D01*
X193889285Y-105380952D01*
X194079761Y-105476190D01*
X192079761Y-106142857D02*
X190555952Y-106142857D01*
X189222619Y-104904761D02*
X189032142Y-104904761D01*
X188841666Y-105000000D01*
X188746428Y-105095238D01*
X188651190Y-105285714D01*
X188555952Y-105666666D01*
X188555952Y-106142857D01*
X188651190Y-106523809D01*
X188746428Y-106714285D01*
X188841666Y-106809523D01*
X189032142Y-106904761D01*
X189222619Y-106904761D01*
X189413095Y-106809523D01*
X189508333Y-106714285D01*
X189603571Y-106523809D01*
X189698809Y-106142857D01*
X189698809Y-105666666D01*
X189603571Y-105285714D01*
X189508333Y-105095238D01*
X189413095Y-105000000D01*
X189222619Y-104904761D01*
X187794047Y-105095238D02*
X187698809Y-105000000D01*
X187508333Y-104904761D01*
X187032142Y-104904761D01*
X186841666Y-105000000D01*
X186746428Y-105095238D01*
X186651190Y-105285714D01*
X186651190Y-105476190D01*
X186746428Y-105761904D01*
X187889285Y-106904761D01*
X186651190Y-106904761D01*
X185794047Y-106142857D02*
X184270238Y-106142857D01*
X182270238Y-106904761D02*
X183413095Y-106904761D01*
X182841666Y-106904761D02*
X182841666Y-104904761D01*
X183032142Y-105190476D01*
X183222619Y-105380952D01*
X183413095Y-105476190D01*
X181032142Y-104904761D02*
X180841666Y-104904761D01*
X180651190Y-105000000D01*
X180555952Y-105095238D01*
X180460714Y-105285714D01*
X180365476Y-105666666D01*
X180365476Y-106142857D01*
X180460714Y-106523809D01*
X180555952Y-106714285D01*
X180651190Y-106809523D01*
X180841666Y-106904761D01*
X181032142Y-106904761D01*
X181222619Y-106809523D01*
X181317857Y-106714285D01*
X181413095Y-106523809D01*
X181508333Y-106142857D01*
X181508333Y-105666666D01*
X181413095Y-105285714D01*
X181317857Y-105095238D01*
X181222619Y-105000000D01*
X181032142Y-104904761D01*
D13*
X160500000Y-84500000D02*
X160500000Y-85000000D01*
X163500000Y-84500000D02*
X163500000Y-85000000D01*
X160500000Y-115500000D02*
X163500000Y-115500000D01*
X163500000Y-85000000D02*
X160500000Y-85000000D01*
X149500000Y-89000000D02*
G75*
G03*
X149500000Y-89000000I-1500000J0D01*
G01*
X129500000Y-90000000D02*
X129500000Y-81000000D01*
X126000000Y-81000000D02*
X129500000Y-81000000D01*
X126000000Y-81000000D02*
G75*
G03*
X122500000Y-84500000I0J-3500000D01*
G01*
X146500000Y-81000000D02*
X157000000Y-81000000D01*
X143500000Y-90000000D02*
X129500000Y-90000000D01*
X146500000Y-87000000D02*
X143500000Y-90000000D01*
X146500000Y-81000000D02*
X146500000Y-87000000D01*
X180500000Y-81000000D02*
X167000000Y-81000000D01*
X184500000Y-81000000D02*
X198000000Y-81000000D01*
X184500000Y-81000000D02*
G75*
G02*
X180500000Y-81000000I-2000000J500000D01*
G01*
X163500000Y-84500000D02*
G75*
G02*
X167000000Y-81000000I3500000J0D01*
G01*
X201500000Y-115500000D02*
G75*
G02*
X198000000Y-119000000I-3500000J0D01*
G01*
X167000000Y-119000000D02*
G75*
G02*
X163500000Y-115500000I0J3500000D01*
G01*
X167000000Y-119000000D02*
X198000000Y-119000000D01*
X198000000Y-81000000D02*
G75*
G02*
X201500000Y-84500000I0J-3500000D01*
G01*
X201500000Y-115500000D02*
X201500000Y-84500000D01*
X122500000Y-115500000D02*
X122500000Y-84500000D01*
X160500000Y-84500000D02*
G75*
G03*
X157000000Y-81000000I-3500000J0D01*
G01*
X157000000Y-119000000D02*
G75*
G03*
X160500000Y-115500000I0J3500000D01*
G01*
X122500000Y-115500000D02*
G75*
G03*
X126000000Y-119000000I3500000J0D01*
G01*
X157000000Y-119000000D02*
X126000000Y-119000000D01*
D15*
X131610000Y-114590000D02*
X131610000Y-112390000D01*
X131610000Y-112390000D02*
X130390000Y-112390000D01*
X130390000Y-112390000D02*
X130390000Y-120810000D01*
X130390000Y-120810000D02*
X138110000Y-120810000D01*
X138110000Y-120810000D02*
X138110000Y-112390000D01*
X138110000Y-112390000D02*
X136890000Y-112390000D01*
X136890000Y-112390000D02*
X136890000Y-114590000D01*
X130390000Y-119590000D02*
X131610000Y-119590000D01*
X131610000Y-119590000D02*
X131610000Y-114590000D01*
X131610000Y-114590000D02*
X130390000Y-114590000D01*
X138110000Y-119590000D02*
X136890000Y-119590000D01*
X136890000Y-119590000D02*
X136890000Y-114590000D01*
X136890000Y-114590000D02*
X138110000Y-114590000D01*
X131610000Y-115590000D02*
X136890000Y-115590000D01*
X133000000Y-115590000D02*
X132680000Y-115590000D01*
X132680000Y-115590000D02*
X132680000Y-119010000D01*
X132680000Y-119010000D02*
X133000000Y-119090000D01*
X133000000Y-119090000D02*
X133320000Y-119010000D01*
X133320000Y-119010000D02*
X133320000Y-115590000D01*
X133320000Y-115590000D02*
X133000000Y-115590000D01*
X134170000Y-114590000D02*
X134330000Y-114590000D01*
X135500000Y-115590000D02*
X135180000Y-115590000D01*
X135180000Y-115590000D02*
X135180000Y-119010000D01*
X135180000Y-119010000D02*
X135500000Y-119090000D01*
X135500000Y-119090000D02*
X135820000Y-119010000D01*
X135820000Y-119010000D02*
X135820000Y-115590000D01*
X135820000Y-115590000D02*
X135500000Y-115590000D01*
X133000000Y-112500000D02*
X132700000Y-111900000D01*
X132700000Y-111900000D02*
X133300000Y-111900000D01*
X133300000Y-111900000D02*
X133000000Y-112500000D01*
X141300000Y-111900000D02*
X141000000Y-112500000D01*
X140700000Y-111900000D02*
X141300000Y-111900000D01*
X141000000Y-112500000D02*
X140700000Y-111900000D01*
X143820000Y-115590000D02*
X143500000Y-115590000D01*
X143820000Y-119010000D02*
X143820000Y-115590000D01*
X143500000Y-119090000D02*
X143820000Y-119010000D01*
X143180000Y-119010000D02*
X143500000Y-119090000D01*
X143180000Y-115590000D02*
X143180000Y-119010000D01*
X143500000Y-115590000D02*
X143180000Y-115590000D01*
X142170000Y-114590000D02*
X142330000Y-114590000D01*
X141320000Y-115590000D02*
X141000000Y-115590000D01*
X141320000Y-119010000D02*
X141320000Y-115590000D01*
X141000000Y-119090000D02*
X141320000Y-119010000D01*
X140680000Y-119010000D02*
X141000000Y-119090000D01*
X140680000Y-115590000D02*
X140680000Y-119010000D01*
X141000000Y-115590000D02*
X140680000Y-115590000D01*
X139610000Y-115590000D02*
X144890000Y-115590000D01*
X144890000Y-114590000D02*
X146110000Y-114590000D01*
X144890000Y-119590000D02*
X144890000Y-114590000D01*
X146110000Y-119590000D02*
X144890000Y-119590000D01*
X139610000Y-114590000D02*
X138390000Y-114590000D01*
X139610000Y-119590000D02*
X139610000Y-114590000D01*
X138390000Y-119590000D02*
X139610000Y-119590000D01*
X144890000Y-112390000D02*
X144890000Y-114590000D01*
X146110000Y-112390000D02*
X144890000Y-112390000D01*
X146110000Y-120810000D02*
X146110000Y-112390000D01*
X138390000Y-120810000D02*
X146110000Y-120810000D01*
X138390000Y-112390000D02*
X138390000Y-120810000D01*
X139610000Y-112390000D02*
X138390000Y-112390000D01*
X139610000Y-114590000D02*
X139610000Y-112390000D01*
D16*
X141020000Y-92000000D02*
X141020000Y-108000000D01*
X162420000Y-92000000D02*
X162420000Y-108000000D01*
X162420000Y-108000000D02*
X150000000Y-108000000D01*
X146900000Y-108000000D02*
X141020000Y-108000000D01*
X162420000Y-92000000D02*
X150000000Y-92000000D01*
X146900000Y-92000000D02*
X141020000Y-92000000D01*
D12*
X145350000Y-91000000D02*
G75*
G03*
X145350000Y-91000000I-150000J0D01*
G01*
D16*
X185000000Y-102000000D02*
X185000000Y-98000000D01*
X180000000Y-98000000D02*
X180000000Y-102000000D01*
D15*
X166174999Y-109500000D02*
G75*
G03*
X166174999Y-109500000I-1200000J0D01*
G01*
X166200000Y-106400000D02*
G75*
G03*
X166200000Y-106400000I-1200000J0D01*
G01*
X142590000Y-111330000D02*
X142590000Y-108670000D01*
X155350000Y-111330000D02*
X142590000Y-111330000D01*
X155350000Y-108670000D02*
X142590000Y-108670000D01*
X155350000Y-111330000D02*
X155350000Y-108670000D01*
X156620000Y-111330000D02*
X157950000Y-111330000D01*
X157950000Y-111330000D02*
X157950000Y-110000000D01*
X169300000Y-109500000D02*
G75*
G03*
X169300000Y-109500000I-1200000J0D01*
G01*
X169300000Y-106400000D02*
G75*
G03*
X169300000Y-106400000I-1200000J0D01*
G01*
D17*
X134583333Y-121352380D02*
X134583333Y-122066666D01*
X134630952Y-122209523D01*
X134726190Y-122304761D01*
X134869047Y-122352380D01*
X134964285Y-122352380D01*
X133678571Y-121685714D02*
X133678571Y-122352380D01*
X133916666Y-121304761D02*
X134154761Y-122019047D01*
X133535714Y-122019047D01*
X142583333Y-121352380D02*
X142583333Y-122066666D01*
X142630952Y-122209523D01*
X142726190Y-122304761D01*
X142869047Y-122352380D01*
X142964285Y-122352380D01*
X141630952Y-121352380D02*
X142107142Y-121352380D01*
X142154761Y-121828571D01*
X142107142Y-121780952D01*
X142011904Y-121733333D01*
X141773809Y-121733333D01*
X141678571Y-121780952D01*
X141630952Y-121828571D01*
X141583333Y-121923809D01*
X141583333Y-122161904D01*
X141630952Y-122257142D01*
X141678571Y-122304761D01*
X141773809Y-122352380D01*
X142011904Y-122352380D01*
X142107142Y-122304761D01*
X142154761Y-122257142D01*
D18*
X163122378Y-102652265D02*
X164270702Y-102652265D01*
X164500367Y-102575710D01*
X164653477Y-102422600D01*
X164730032Y-102192935D01*
X164730032Y-102039825D01*
X163122378Y-104106809D02*
X163122378Y-103800589D01*
X163198933Y-103647479D01*
X163275487Y-103570924D01*
X163505152Y-103417814D01*
X163811372Y-103341259D01*
X164423812Y-103341259D01*
X164576922Y-103417814D01*
X164653477Y-103494369D01*
X164730032Y-103647479D01*
X164730032Y-103953699D01*
X164653477Y-104106809D01*
X164576922Y-104183364D01*
X164423812Y-104259919D01*
X164041037Y-104259919D01*
X163887927Y-104183364D01*
X163811372Y-104106809D01*
X163734817Y-103953699D01*
X163734817Y-103647479D01*
X163811372Y-103494369D01*
X163887927Y-103417814D01*
X164041037Y-103341259D01*
X179794833Y-99934166D02*
X179794833Y-100500833D01*
X179761500Y-100567500D01*
X179728166Y-100600833D01*
X179661500Y-100634166D01*
X179528166Y-100634166D01*
X179461500Y-100600833D01*
X179428166Y-100567500D01*
X179394833Y-100500833D01*
X179394833Y-99934166D01*
X178728166Y-99934166D02*
X179061500Y-99934166D01*
X179094833Y-100267500D01*
X179061500Y-100234166D01*
X178994833Y-100200833D01*
X178828166Y-100200833D01*
X178761500Y-100234166D01*
X178728166Y-100267500D01*
X178694833Y-100334166D01*
X178694833Y-100500833D01*
X178728166Y-100567500D01*
X178761500Y-100600833D01*
X178828166Y-100634166D01*
X178994833Y-100634166D01*
X179061500Y-100600833D01*
X179094833Y-100567500D01*
D17*
X126761904Y-120152380D02*
X126761904Y-119152380D01*
X126761904Y-119628571D02*
X126190476Y-119628571D01*
X126190476Y-120152380D02*
X126190476Y-119152380D01*
X125238095Y-119152380D02*
X125714285Y-119152380D01*
X125761904Y-119628571D01*
X125714285Y-119580952D01*
X125619047Y-119533333D01*
X125380952Y-119533333D01*
X125285714Y-119580952D01*
X125238095Y-119628571D01*
X125190476Y-119723809D01*
X125190476Y-119961904D01*
X125238095Y-120057142D01*
X125285714Y-120104761D01*
X125380952Y-120152380D01*
X125619047Y-120152380D01*
X125714285Y-120104761D01*
X125761904Y-120057142D01*
X157761904Y-120152380D02*
X157761904Y-119152380D01*
X157761904Y-119628571D02*
X157190476Y-119628571D01*
X157190476Y-120152380D02*
X157190476Y-119152380D01*
X156285714Y-119152380D02*
X156476190Y-119152380D01*
X156571428Y-119200000D01*
X156619047Y-119247619D01*
X156714285Y-119390476D01*
X156761904Y-119580952D01*
X156761904Y-119961904D01*
X156714285Y-120057142D01*
X156666666Y-120104761D01*
X156571428Y-120152380D01*
X156380952Y-120152380D01*
X156285714Y-120104761D01*
X156238095Y-120057142D01*
X156190476Y-119961904D01*
X156190476Y-119723809D01*
X156238095Y-119628571D01*
X156285714Y-119580952D01*
X156380952Y-119533333D01*
X156571428Y-119533333D01*
X156666666Y-119580952D01*
X156714285Y-119628571D01*
X156761904Y-119723809D01*
X157561904Y-78952380D02*
X157561904Y-77952380D01*
X157561904Y-78428571D02*
X156990476Y-78428571D01*
X156990476Y-78952380D02*
X156990476Y-77952380D01*
X156609523Y-77952380D02*
X155942857Y-77952380D01*
X156371428Y-78952380D01*
X126961904Y-78652380D02*
X126961904Y-77652380D01*
X126961904Y-78128571D02*
X126390476Y-78128571D01*
X126390476Y-78652380D02*
X126390476Y-77652380D01*
X125771428Y-78080952D02*
X125866666Y-78033333D01*
X125914285Y-77985714D01*
X125961904Y-77890476D01*
X125961904Y-77842857D01*
X125914285Y-77747619D01*
X125866666Y-77700000D01*
X125771428Y-77652380D01*
X125580952Y-77652380D01*
X125485714Y-77700000D01*
X125438095Y-77747619D01*
X125390476Y-77842857D01*
X125390476Y-77890476D01*
X125438095Y-77985714D01*
X125485714Y-78033333D01*
X125580952Y-78080952D01*
X125771428Y-78080952D01*
X125866666Y-78128571D01*
X125914285Y-78176190D01*
X125961904Y-78271428D01*
X125961904Y-78461904D01*
X125914285Y-78557142D01*
X125866666Y-78604761D01*
X125771428Y-78652380D01*
X125580952Y-78652380D01*
X125485714Y-78604761D01*
X125438095Y-78557142D01*
X125390476Y-78461904D01*
X125390476Y-78271428D01*
X125438095Y-78176190D01*
X125485714Y-78128571D01*
X125580952Y-78080952D01*
X165542857Y-111952380D02*
X165876190Y-111476190D01*
X166114285Y-111952380D02*
X166114285Y-110952380D01*
X165733333Y-110952380D01*
X165638095Y-111000000D01*
X165590476Y-111047619D01*
X165542857Y-111142857D01*
X165542857Y-111285714D01*
X165590476Y-111380952D01*
X165638095Y-111428571D01*
X165733333Y-111476190D01*
X166114285Y-111476190D01*
X165209523Y-110952380D02*
X164542857Y-111952380D01*
X164542857Y-110952380D02*
X165209523Y-111952380D01*
X163638095Y-111952380D02*
X164209523Y-111952380D01*
X163923809Y-111952380D02*
X163923809Y-110952380D01*
X164019047Y-111095238D01*
X164114285Y-111190476D01*
X164209523Y-111238095D01*
X166138095Y-103852380D02*
X165566666Y-103852380D01*
X165852380Y-104852380D02*
X165852380Y-103852380D01*
X165328571Y-103852380D02*
X164661904Y-104852380D01*
X164661904Y-103852380D02*
X165328571Y-104852380D01*
X163757142Y-104852380D02*
X164328571Y-104852380D01*
X164042857Y-104852380D02*
X164042857Y-103852380D01*
X164138095Y-103995238D01*
X164233333Y-104090476D01*
X164328571Y-104138095D01*
X160047619Y-127333333D02*
X159333333Y-127333333D01*
X159190476Y-127380952D01*
X159095238Y-127476190D01*
X159047619Y-127619047D01*
X159047619Y-127714285D01*
X160047619Y-126952380D02*
X160047619Y-126285714D01*
X159047619Y-126714285D01*
X169261904Y-110950380D02*
X168690476Y-110950380D01*
X168976190Y-111950380D02*
X168976190Y-110950380D01*
X168357142Y-111950380D02*
X168357142Y-110950380D01*
X167976190Y-110950380D01*
X167880952Y-110998000D01*
X167833333Y-111045619D01*
X167785714Y-111140857D01*
X167785714Y-111283714D01*
X167833333Y-111378952D01*
X167880952Y-111426571D01*
X167976190Y-111474190D01*
X168357142Y-111474190D01*
X166833333Y-111950380D02*
X167404761Y-111950380D01*
X167119047Y-111950380D02*
X167119047Y-110950380D01*
X167214285Y-111093238D01*
X167309523Y-111188476D01*
X167404761Y-111236095D01*
X169561904Y-103852380D02*
X168990476Y-103852380D01*
X169276190Y-104852380D02*
X169276190Y-103852380D01*
X168657142Y-104852380D02*
X168657142Y-103852380D01*
X168276190Y-103852380D01*
X168180952Y-103900000D01*
X168133333Y-103947619D01*
X168085714Y-104042857D01*
X168085714Y-104185714D01*
X168133333Y-104280952D01*
X168180952Y-104328571D01*
X168276190Y-104376190D01*
X168657142Y-104376190D01*
X167704761Y-103947619D02*
X167657142Y-103900000D01*
X167561904Y-103852380D01*
X167323809Y-103852380D01*
X167228571Y-103900000D01*
X167180952Y-103947619D01*
X167133333Y-104042857D01*
X167133333Y-104138095D01*
X167180952Y-104280952D01*
X167752380Y-104852380D01*
X167133333Y-104852380D01*
M02*
