%TF.GenerationSoftware,KiCad,Pcbnew,(5.1.8-0-10_14)*%
%TF.CreationDate,2021-02-08T17:53:51+01:00*%
%TF.ProjectId,ethersweep,65746865-7273-4776-9565-702e6b696361,rev?*%
%TF.SameCoordinates,Original*%
%TF.FileFunction,Other,Fab,Top*%
%FSLAX46Y46*%
G04 Gerber Fmt 4.6, Leading zero omitted, Abs format (unit mm)*
G04 Created by KiCad (PCBNEW (5.1.8-0-10_14)) date 2021-02-08 17:53:51*
%MOMM*%
%LPD*%
G01*
G04 APERTURE LIST*
%ADD10C,0.150000*%
%TA.AperFunction,Profile*%
%ADD11C,0.150000*%
%TD*%
%ADD12C,0.100000*%
%ADD13C,0.200000*%
%ADD14C,0.127000*%
%ADD15C,0.120000*%
%ADD16C,0.080000*%
%ADD17C,0.040000*%
%ADD18C,0.060000*%
%ADD19C,0.015000*%
%ADD20C,0.105000*%
G04 APERTURE END LIST*
D10*
X168750000Y-104250000D02*
G75*
G03*
X168750000Y-104250000I-1250000J0D01*
G01*
X169500000Y-104250000D02*
G75*
G03*
X169500000Y-104250000I-2000000J0D01*
G01*
X170000000Y-104250000D02*
G75*
G03*
X170000000Y-104250000I-2500000J0D01*
G01*
D11*
X163500000Y-98250000D02*
G75*
G02*
X160500000Y-98250000I-1500000J0D01*
G01*
X160500000Y-91000000D02*
G75*
G02*
X163500000Y-91000000I1500000J0D01*
G01*
X163500000Y-98250000D02*
X163500000Y-91000000D01*
X160500000Y-91000000D02*
X160500000Y-98250000D01*
X160500000Y-102250000D02*
G75*
G02*
X163500000Y-102250000I1500000J0D01*
G01*
X160500000Y-102250000D02*
X160500000Y-109500000D01*
X163500000Y-109500000D02*
X163500000Y-102250000D01*
X163500000Y-109500000D02*
G75*
G02*
X160500000Y-109500000I-1500000J0D01*
G01*
X163500000Y-87250000D02*
G75*
G03*
X163500000Y-87250000I-1500000J0D01*
G01*
X163500000Y-113250000D02*
G75*
G03*
X163500000Y-113250000I-1500000J0D01*
G01*
X160500000Y-84500000D02*
X160500000Y-85000000D01*
X163500000Y-84500000D02*
X163500000Y-85000000D01*
X160500000Y-115500000D02*
X163500000Y-115500000D01*
X163500000Y-85000000D02*
X160500000Y-85000000D01*
D10*
X163500000Y-115500000D02*
X163500000Y-84500000D01*
D11*
X149500000Y-89000000D02*
G75*
G03*
X149500000Y-89000000I-1500000J0D01*
G01*
X129500000Y-90000000D02*
X129500000Y-81000000D01*
X126000000Y-81000000D02*
X129500000Y-81000000D01*
X126000000Y-81000000D02*
G75*
G03*
X122500000Y-84500000I0J-3500000D01*
G01*
X146500000Y-81000000D02*
X157000000Y-81000000D01*
X143500000Y-90000000D02*
X129500000Y-90000000D01*
X146500000Y-87000000D02*
X143500000Y-90000000D01*
X146500000Y-81000000D02*
X146500000Y-87000000D01*
X180500000Y-81000000D02*
X167000000Y-81000000D01*
X184500000Y-81000000D02*
X198000000Y-81000000D01*
X184500000Y-81000000D02*
G75*
G02*
X180500000Y-81000000I-2000000J500000D01*
G01*
X163500000Y-84500000D02*
G75*
G02*
X167000000Y-81000000I3500000J0D01*
G01*
X201500000Y-115500000D02*
G75*
G02*
X198000000Y-119000000I-3500000J0D01*
G01*
X167000000Y-119000000D02*
G75*
G02*
X163500000Y-115500000I0J3500000D01*
G01*
X167000000Y-119000000D02*
X198000000Y-119000000D01*
X198000000Y-81000000D02*
G75*
G02*
X201500000Y-84500000I0J-3500000D01*
G01*
X201500000Y-115500000D02*
X201500000Y-84500000D01*
X122500000Y-115500000D02*
X122500000Y-84500000D01*
X160500000Y-84500000D02*
G75*
G03*
X157000000Y-81000000I-3500000J0D01*
G01*
X157000000Y-119000000D02*
G75*
G03*
X160500000Y-115500000I0J3500000D01*
G01*
X122500000Y-115500000D02*
G75*
G03*
X126000000Y-119000000I3500000J0D01*
G01*
X157000000Y-119000000D02*
X126000000Y-119000000D01*
D12*
X147020000Y-117090000D02*
X145820000Y-117090000D01*
X147020000Y-117090000D02*
X147020000Y-117090000D01*
X147020000Y-121490000D02*
X147020000Y-117090000D01*
X153520000Y-121490000D02*
X147020000Y-121490000D01*
X153520000Y-108590000D02*
X153520000Y-121490000D01*
X147020000Y-108590000D02*
X153520000Y-108590000D01*
X147020000Y-112990000D02*
X147020000Y-108590000D01*
X145820000Y-112990000D02*
X147020000Y-112990000D01*
X145820000Y-122680000D02*
X145820000Y-108400000D01*
X154720000Y-122680000D02*
X145820000Y-122680000D01*
X154720000Y-107400000D02*
X154720000Y-122680000D01*
X146820000Y-107400000D02*
X154720000Y-107400000D01*
X145820000Y-108400000D02*
X146820000Y-107400000D01*
X178180000Y-91600000D02*
X177180000Y-92600000D01*
X177180000Y-92600000D02*
X169280000Y-92600000D01*
X169280000Y-92600000D02*
X169280000Y-77320000D01*
X169280000Y-77320000D02*
X178180000Y-77320000D01*
X178180000Y-77320000D02*
X178180000Y-91600000D01*
X178180000Y-87010000D02*
X176980000Y-87010000D01*
X176980000Y-87010000D02*
X176980000Y-91410000D01*
X176980000Y-91410000D02*
X170480000Y-91410000D01*
X170480000Y-91410000D02*
X170480000Y-78510000D01*
X170480000Y-78510000D02*
X176980000Y-78510000D01*
X176980000Y-78510000D02*
X176980000Y-82910000D01*
X176980000Y-82910000D02*
X176980000Y-82910000D01*
X176980000Y-82910000D02*
X178180000Y-82910000D01*
X167125000Y-92000000D02*
X167125000Y-94000000D01*
X165875000Y-92000000D02*
X167125000Y-92000000D01*
X165875000Y-94000000D02*
X165875000Y-92000000D01*
X167125000Y-94000000D02*
X165875000Y-94000000D01*
X175250000Y-93625000D02*
X173250000Y-93625000D01*
X175250000Y-92375000D02*
X175250000Y-93625000D01*
X173250000Y-92375000D02*
X175250000Y-92375000D01*
X173250000Y-93625000D02*
X173250000Y-92375000D01*
X187400000Y-97200000D02*
X187400000Y-98800000D01*
X190600000Y-97200000D02*
X187400000Y-97200000D01*
X190600000Y-98400000D02*
X190600000Y-97200000D01*
X190200000Y-98800000D02*
X190600000Y-98400000D01*
X187400000Y-98800000D02*
X190200000Y-98800000D01*
X128500000Y-92875000D02*
X128500000Y-94125000D01*
X128500000Y-94125000D02*
X126500000Y-94125000D01*
X126500000Y-94125000D02*
X126500000Y-92875000D01*
X126500000Y-92875000D02*
X128500000Y-92875000D01*
X136250000Y-94500000D02*
X135750000Y-94500000D01*
X135750000Y-94500000D02*
X135750000Y-93500000D01*
X135750000Y-93500000D02*
X136250000Y-93500000D01*
X136250000Y-93500000D02*
X136250000Y-94500000D01*
X130250000Y-93500000D02*
X130250000Y-94500000D01*
X129750000Y-93500000D02*
X130250000Y-93500000D01*
X129750000Y-94500000D02*
X129750000Y-93500000D01*
X130250000Y-94500000D02*
X129750000Y-94500000D01*
X189500000Y-99875000D02*
X189500000Y-101125000D01*
X189500000Y-101125000D02*
X187500000Y-101125000D01*
X187500000Y-101125000D02*
X187500000Y-99875000D01*
X187500000Y-99875000D02*
X189500000Y-99875000D01*
X126500000Y-95375000D02*
X128500000Y-95375000D01*
X126500000Y-96625000D02*
X126500000Y-95375000D01*
X128500000Y-96625000D02*
X126500000Y-96625000D01*
X128500000Y-95375000D02*
X128500000Y-96625000D01*
X168750000Y-107000000D02*
X168750000Y-108000000D01*
X168250000Y-107000000D02*
X168750000Y-107000000D01*
X168250000Y-108000000D02*
X168250000Y-107000000D01*
X168750000Y-108000000D02*
X168250000Y-108000000D01*
X187950000Y-107875000D02*
X189950000Y-107875000D01*
X187950000Y-109125000D02*
X187950000Y-107875000D01*
X189950000Y-109125000D02*
X187950000Y-109125000D01*
X189950000Y-107875000D02*
X189950000Y-109125000D01*
X174750000Y-108000000D02*
X174250000Y-108000000D01*
X174250000Y-108000000D02*
X174250000Y-107000000D01*
X174250000Y-107000000D02*
X174750000Y-107000000D01*
X174750000Y-107000000D02*
X174750000Y-108000000D01*
X187900000Y-106800000D02*
X190700000Y-106800000D01*
X190700000Y-106800000D02*
X191100000Y-106400000D01*
X191100000Y-106400000D02*
X191100000Y-105200000D01*
X191100000Y-105200000D02*
X187900000Y-105200000D01*
X187900000Y-105200000D02*
X187900000Y-106800000D01*
X178500000Y-105625000D02*
X178500000Y-104375000D01*
X178500000Y-104375000D02*
X180500000Y-104375000D01*
X180500000Y-104375000D02*
X180500000Y-105625000D01*
X180500000Y-105625000D02*
X178500000Y-105625000D01*
X128375000Y-108500000D02*
X128375000Y-106500000D01*
X129625000Y-108500000D02*
X128375000Y-108500000D01*
X129625000Y-106500000D02*
X129625000Y-108500000D01*
X128375000Y-106500000D02*
X129625000Y-106500000D01*
X143000000Y-93125000D02*
X141000000Y-93125000D01*
X143000000Y-91875000D02*
X143000000Y-93125000D01*
X141000000Y-91875000D02*
X143000000Y-91875000D01*
X141000000Y-93125000D02*
X141000000Y-91875000D01*
X134500000Y-107875000D02*
X134500000Y-109125000D01*
X134500000Y-109125000D02*
X132500000Y-109125000D01*
X132500000Y-109125000D02*
X132500000Y-107875000D01*
X132500000Y-107875000D02*
X134500000Y-107875000D01*
X149500000Y-103125000D02*
X147500000Y-103125000D01*
X149500000Y-101875000D02*
X149500000Y-103125000D01*
X147500000Y-101875000D02*
X149500000Y-101875000D01*
X147500000Y-103125000D02*
X147500000Y-101875000D01*
X147500000Y-100980001D02*
X147500000Y-99730001D01*
X147500000Y-99730001D02*
X149500000Y-99730001D01*
X149500000Y-99730001D02*
X149500000Y-100980001D01*
X149500000Y-100980001D02*
X147500000Y-100980001D01*
X198125000Y-91000000D02*
X196875000Y-91000000D01*
X196875000Y-91000000D02*
X196875000Y-89000000D01*
X196875000Y-89000000D02*
X198125000Y-89000000D01*
X198125000Y-89000000D02*
X198125000Y-91000000D01*
X194125000Y-84000000D02*
X192875000Y-84000000D01*
X192875000Y-84000000D02*
X192875000Y-82000000D01*
X192875000Y-82000000D02*
X194125000Y-82000000D01*
X194125000Y-82000000D02*
X194125000Y-84000000D01*
X200000000Y-100500000D02*
G75*
G03*
X200000000Y-100500000I-4000000J0D01*
G01*
X200150000Y-96350000D02*
X200150000Y-104650000D01*
X192850000Y-96350000D02*
X200150000Y-96350000D01*
X192850000Y-104650000D02*
X200150000Y-104650000D01*
X191850000Y-97350000D02*
X191850000Y-103650000D01*
X191850000Y-97350000D02*
X192850000Y-96350000D01*
X191850000Y-103650000D02*
X192850000Y-104650000D01*
X192437722Y-99000000D02*
X193237722Y-99000000D01*
X192837722Y-98600000D02*
X192837722Y-99400000D01*
X184625000Y-91000000D02*
X184625000Y-93000000D01*
X183375000Y-91000000D02*
X184625000Y-91000000D01*
X183375000Y-93000000D02*
X183375000Y-91000000D01*
X184625000Y-93000000D02*
X183375000Y-93000000D01*
X199500000Y-95625000D02*
X197500000Y-95625000D01*
X199500000Y-94375000D02*
X199500000Y-95625000D01*
X197500000Y-94375000D02*
X199500000Y-94375000D01*
X197500000Y-95625000D02*
X197500000Y-94375000D01*
X197500000Y-93625000D02*
X197500000Y-92375000D01*
X197500000Y-92375000D02*
X199500000Y-92375000D01*
X199500000Y-92375000D02*
X199500000Y-93625000D01*
X199500000Y-93625000D02*
X197500000Y-93625000D01*
X148600000Y-84500000D02*
X148600000Y-82800000D01*
X148600000Y-82800000D02*
X148300000Y-82500000D01*
X148300000Y-82500000D02*
X147400000Y-82500000D01*
X147400000Y-82500000D02*
X147400000Y-84500000D01*
X147400000Y-84500000D02*
X148600000Y-84500000D01*
X124635000Y-105270000D02*
X122730000Y-105270000D01*
X122730000Y-105270000D02*
X122730000Y-95110000D01*
X122730000Y-95110000D02*
X125270000Y-95110000D01*
X125270000Y-95110000D02*
X125270000Y-104635000D01*
X125270000Y-104635000D02*
X124635000Y-105270000D01*
X183540000Y-88540000D02*
X178460000Y-88540000D01*
X179410000Y-83460000D02*
X183540000Y-83460000D01*
X178460000Y-88540000D02*
X178460000Y-84410000D01*
X178460000Y-84410000D02*
X179410000Y-83460000D01*
X183540000Y-83460000D02*
X183540000Y-88540000D01*
X178460000Y-84410000D02*
X177400000Y-84410000D01*
X177400000Y-84410000D02*
X177400000Y-85050000D01*
X177400000Y-85050000D02*
X178460000Y-85050000D01*
X183540000Y-84410000D02*
X184600000Y-84410000D01*
X184600000Y-84410000D02*
X184600000Y-85050000D01*
X184600000Y-85050000D02*
X183540000Y-85050000D01*
X178460000Y-86950000D02*
X177400000Y-86950000D01*
X177400000Y-86950000D02*
X177400000Y-87590000D01*
X177400000Y-87590000D02*
X178460000Y-87590000D01*
X183540000Y-86950000D02*
X184600000Y-86950000D01*
X184600000Y-86950000D02*
X184600000Y-87590000D01*
X184600000Y-87590000D02*
X183540000Y-87590000D01*
X165125000Y-94000000D02*
X163875000Y-94000000D01*
X163875000Y-94000000D02*
X163875000Y-92000000D01*
X163875000Y-92000000D02*
X165125000Y-92000000D01*
X165125000Y-92000000D02*
X165125000Y-94000000D01*
X150500000Y-89125000D02*
X150500000Y-87875000D01*
X150500000Y-87875000D02*
X152500000Y-87875000D01*
X152500000Y-87875000D02*
X152500000Y-89125000D01*
X152500000Y-89125000D02*
X150500000Y-89125000D01*
X139412500Y-106700000D02*
X139412500Y-108300000D01*
X138587500Y-106700000D02*
X139412500Y-106700000D01*
X138587500Y-108300000D02*
X138587500Y-106700000D01*
X139412500Y-108300000D02*
X138587500Y-108300000D01*
X152200000Y-102087500D02*
X153800000Y-102087500D01*
X152200000Y-102912500D02*
X152200000Y-102087500D01*
X153800000Y-102912500D02*
X152200000Y-102912500D01*
X153800000Y-102087500D02*
X153800000Y-102912500D01*
X153800000Y-100087500D02*
X153800000Y-100912500D01*
X153800000Y-100912500D02*
X152200000Y-100912500D01*
X152200000Y-100912500D02*
X152200000Y-100087500D01*
X152200000Y-100087500D02*
X153800000Y-100087500D01*
X139087500Y-94300000D02*
X139087500Y-92700000D01*
X139912500Y-94300000D02*
X139087500Y-94300000D01*
X139912500Y-92700000D02*
X139912500Y-94300000D01*
X139087500Y-92700000D02*
X139912500Y-92700000D01*
X137587500Y-92700000D02*
X138412500Y-92700000D01*
X138412500Y-92700000D02*
X138412500Y-94300000D01*
X138412500Y-94300000D02*
X137587500Y-94300000D01*
X137587500Y-94300000D02*
X137587500Y-92700000D01*
X136412500Y-106700000D02*
X136412500Y-108300000D01*
X135587500Y-106700000D02*
X136412500Y-106700000D01*
X135587500Y-108300000D02*
X135587500Y-106700000D01*
X136412500Y-108300000D02*
X135587500Y-108300000D01*
X137912500Y-108300000D02*
X137087500Y-108300000D01*
X137087500Y-108300000D02*
X137087500Y-106700000D01*
X137087500Y-106700000D02*
X137912500Y-106700000D01*
X137912500Y-106700000D02*
X137912500Y-108300000D01*
X191800000Y-81900000D02*
X191800000Y-85100000D01*
X190200000Y-81900000D02*
X191800000Y-81900000D01*
X190200000Y-85100000D02*
X190200000Y-81900000D01*
X191800000Y-85100000D02*
X190200000Y-85100000D01*
X188300000Y-85100000D02*
X186700000Y-85100000D01*
X186700000Y-85100000D02*
X186700000Y-81900000D01*
X186700000Y-81900000D02*
X188300000Y-81900000D01*
X188300000Y-81900000D02*
X188300000Y-85100000D01*
X148800000Y-86087500D02*
X148800000Y-86912500D01*
X148800000Y-86912500D02*
X147200000Y-86912500D01*
X147200000Y-86912500D02*
X147200000Y-86087500D01*
X147200000Y-86087500D02*
X148800000Y-86087500D01*
X177245000Y-111045000D02*
G75*
G03*
X177245000Y-111045000I-1095000J0D01*
G01*
X172590000Y-119305000D02*
X177420000Y-119305000D01*
X177420000Y-119305000D02*
X177420000Y-109775000D01*
X177420000Y-109775000D02*
X172590000Y-109775000D01*
X172590000Y-109775000D02*
X172590000Y-119305000D01*
X177235000Y-111045000D02*
X175066000Y-111044000D01*
X177235000Y-111045000D02*
X175066000Y-111044000D01*
X152500000Y-84500000D02*
G75*
G03*
X152500000Y-84500000I-1000000J0D01*
G01*
X152950000Y-82550000D02*
X152950000Y-86450000D01*
X152950000Y-86450000D02*
X150050000Y-86450000D01*
X150050000Y-86450000D02*
X150050000Y-82550000D01*
X150050000Y-82550000D02*
X152950000Y-82550000D01*
D10*
X129400000Y-102150000D02*
X129400000Y-97850000D01*
X129400000Y-97850000D02*
X139600000Y-97850000D01*
X139600000Y-97850000D02*
X139600000Y-103150000D01*
X139600000Y-103150000D02*
X130400000Y-103150000D01*
X130400000Y-103150000D02*
X129400000Y-102150000D01*
X168000000Y-102000000D02*
X168000000Y-96000000D01*
X168000000Y-96000000D02*
X175000000Y-96000000D01*
X175000000Y-96000000D02*
X175000000Y-103000000D01*
X175000000Y-103000000D02*
X169000000Y-103000000D01*
X169000000Y-103000000D02*
X168000000Y-102000000D01*
D13*
X195135000Y-87260000D02*
G75*
G03*
X195135000Y-87260000I-100000J0D01*
G01*
D14*
X195350000Y-89300000D02*
X195350000Y-93700000D01*
X185650000Y-89300000D02*
X185650000Y-93700000D01*
X195350000Y-89300000D02*
X185650000Y-89300000D01*
X195350000Y-93700000D02*
X185650000Y-93700000D01*
D12*
X198350000Y-110850000D02*
X197350000Y-111850000D01*
X198350000Y-110850000D02*
X198350000Y-105150000D01*
X197350000Y-111850000D02*
X194650000Y-111850000D01*
X198350000Y-105150000D02*
X194650000Y-105150000D01*
X194650000Y-111850000D02*
X194650000Y-105150000D01*
X131400000Y-92250000D02*
X131400000Y-94750000D01*
X131400000Y-94750000D02*
X134600000Y-94750000D01*
X134600000Y-94750000D02*
X134600000Y-92250000D01*
X134600000Y-92250000D02*
X131400000Y-92250000D01*
X131400000Y-93750000D02*
X132400000Y-94750000D01*
X169900000Y-107750000D02*
X170900000Y-108750000D01*
X173100000Y-106250000D02*
X169900000Y-106250000D01*
X173100000Y-108750000D02*
X173100000Y-106250000D01*
X169900000Y-108750000D02*
X173100000Y-108750000D01*
X169900000Y-106250000D02*
X169900000Y-108750000D01*
D15*
X193850000Y-118550000D02*
X193850000Y-110450000D01*
X181100000Y-118550000D02*
X193850000Y-118550000D01*
X178350000Y-116050000D02*
X181100000Y-118550000D01*
X178350000Y-112950000D02*
X178350000Y-116050000D01*
X181100000Y-110450000D02*
X178350000Y-112950000D01*
X193850000Y-110450000D02*
X181100000Y-110450000D01*
D12*
X164337500Y-98800000D02*
X164337500Y-97200000D01*
X165162500Y-98800000D02*
X164337500Y-98800000D01*
X165162500Y-97200000D02*
X165162500Y-98800000D01*
X164337500Y-97200000D02*
X165162500Y-97200000D01*
X178987500Y-95000000D02*
X179812500Y-95000000D01*
X179812500Y-95000000D02*
X179812500Y-96600000D01*
X179812500Y-96600000D02*
X178987500Y-96600000D01*
X178987500Y-96600000D02*
X178987500Y-95000000D01*
X166745000Y-91270000D02*
X166110000Y-90635000D01*
X181350000Y-91270000D02*
X166745000Y-91270000D01*
X181350000Y-88730000D02*
X181350000Y-91270000D01*
X166110000Y-88730000D02*
X181350000Y-88730000D01*
X166110000Y-90635000D02*
X166110000Y-88730000D01*
D10*
X146174761Y-123846666D02*
X146650952Y-123846666D01*
X146079523Y-124132380D02*
X146412857Y-123132380D01*
X146746190Y-124132380D01*
X146936666Y-123132380D02*
X147270000Y-124132380D01*
X147603333Y-123132380D01*
X148508095Y-124132380D02*
X148174761Y-123656190D01*
X147936666Y-124132380D02*
X147936666Y-123132380D01*
X148317619Y-123132380D01*
X148412857Y-123180000D01*
X148460476Y-123227619D01*
X148508095Y-123322857D01*
X148508095Y-123465714D01*
X148460476Y-123560952D01*
X148412857Y-123608571D01*
X148317619Y-123656190D01*
X147936666Y-123656190D01*
X148936666Y-123751428D02*
X149698571Y-123751428D01*
X150174761Y-124132380D02*
X150174761Y-123132380D01*
X150603333Y-124084761D02*
X150746190Y-124132380D01*
X150984285Y-124132380D01*
X151079523Y-124084761D01*
X151127142Y-124037142D01*
X151174761Y-123941904D01*
X151174761Y-123846666D01*
X151127142Y-123751428D01*
X151079523Y-123703809D01*
X150984285Y-123656190D01*
X150793809Y-123608571D01*
X150698571Y-123560952D01*
X150650952Y-123513333D01*
X150603333Y-123418095D01*
X150603333Y-123322857D01*
X150650952Y-123227619D01*
X150698571Y-123180000D01*
X150793809Y-123132380D01*
X151031904Y-123132380D01*
X151174761Y-123180000D01*
X151603333Y-124132380D02*
X151603333Y-123132380D01*
X151984285Y-123132380D01*
X152079523Y-123180000D01*
X152127142Y-123227619D01*
X152174761Y-123322857D01*
X152174761Y-123465714D01*
X152127142Y-123560952D01*
X152079523Y-123608571D01*
X151984285Y-123656190D01*
X151603333Y-123656190D01*
X152603333Y-123751428D02*
X153365238Y-123751428D01*
X154270000Y-123132380D02*
X154079523Y-123132380D01*
X153984285Y-123180000D01*
X153936666Y-123227619D01*
X153841428Y-123370476D01*
X153793809Y-123560952D01*
X153793809Y-123941904D01*
X153841428Y-124037142D01*
X153889047Y-124084761D01*
X153984285Y-124132380D01*
X154174761Y-124132380D01*
X154270000Y-124084761D01*
X154317619Y-124037142D01*
X154365238Y-123941904D01*
X154365238Y-123703809D01*
X154317619Y-123608571D01*
X154270000Y-123560952D01*
X154174761Y-123513333D01*
X153984285Y-123513333D01*
X153889047Y-123560952D01*
X153841428Y-123608571D01*
X153793809Y-123703809D01*
X149722380Y-115373333D02*
X150436666Y-115373333D01*
X150579523Y-115420952D01*
X150674761Y-115516190D01*
X150722380Y-115659047D01*
X150722380Y-115754285D01*
X150150952Y-114754285D02*
X150103333Y-114849523D01*
X150055714Y-114897142D01*
X149960476Y-114944761D01*
X149912857Y-114944761D01*
X149817619Y-114897142D01*
X149770000Y-114849523D01*
X149722380Y-114754285D01*
X149722380Y-114563809D01*
X149770000Y-114468571D01*
X149817619Y-114420952D01*
X149912857Y-114373333D01*
X149960476Y-114373333D01*
X150055714Y-114420952D01*
X150103333Y-114468571D01*
X150150952Y-114563809D01*
X150150952Y-114754285D01*
X150198571Y-114849523D01*
X150246190Y-114897142D01*
X150341428Y-114944761D01*
X150531904Y-114944761D01*
X150627142Y-114897142D01*
X150674761Y-114849523D01*
X150722380Y-114754285D01*
X150722380Y-114563809D01*
X150674761Y-114468571D01*
X150627142Y-114420952D01*
X150531904Y-114373333D01*
X150341428Y-114373333D01*
X150246190Y-114420952D01*
X150198571Y-114468571D01*
X150150952Y-114563809D01*
X169634761Y-76486666D02*
X170110952Y-76486666D01*
X169539523Y-76772380D02*
X169872857Y-75772380D01*
X170206190Y-76772380D01*
X170396666Y-75772380D02*
X170730000Y-76772380D01*
X171063333Y-75772380D01*
X171968095Y-76772380D02*
X171634761Y-76296190D01*
X171396666Y-76772380D02*
X171396666Y-75772380D01*
X171777619Y-75772380D01*
X171872857Y-75820000D01*
X171920476Y-75867619D01*
X171968095Y-75962857D01*
X171968095Y-76105714D01*
X171920476Y-76200952D01*
X171872857Y-76248571D01*
X171777619Y-76296190D01*
X171396666Y-76296190D01*
X172396666Y-76391428D02*
X173158571Y-76391428D01*
X173634761Y-76772380D02*
X173634761Y-75772380D01*
X174063333Y-76724761D02*
X174206190Y-76772380D01*
X174444285Y-76772380D01*
X174539523Y-76724761D01*
X174587142Y-76677142D01*
X174634761Y-76581904D01*
X174634761Y-76486666D01*
X174587142Y-76391428D01*
X174539523Y-76343809D01*
X174444285Y-76296190D01*
X174253809Y-76248571D01*
X174158571Y-76200952D01*
X174110952Y-76153333D01*
X174063333Y-76058095D01*
X174063333Y-75962857D01*
X174110952Y-75867619D01*
X174158571Y-75820000D01*
X174253809Y-75772380D01*
X174491904Y-75772380D01*
X174634761Y-75820000D01*
X175063333Y-76772380D02*
X175063333Y-75772380D01*
X175444285Y-75772380D01*
X175539523Y-75820000D01*
X175587142Y-75867619D01*
X175634761Y-75962857D01*
X175634761Y-76105714D01*
X175587142Y-76200952D01*
X175539523Y-76248571D01*
X175444285Y-76296190D01*
X175063333Y-76296190D01*
X176063333Y-76391428D02*
X176825238Y-76391428D01*
X177730000Y-75772380D02*
X177539523Y-75772380D01*
X177444285Y-75820000D01*
X177396666Y-75867619D01*
X177301428Y-76010476D01*
X177253809Y-76200952D01*
X177253809Y-76581904D01*
X177301428Y-76677142D01*
X177349047Y-76724761D01*
X177444285Y-76772380D01*
X177634761Y-76772380D01*
X177730000Y-76724761D01*
X177777619Y-76677142D01*
X177825238Y-76581904D01*
X177825238Y-76343809D01*
X177777619Y-76248571D01*
X177730000Y-76200952D01*
X177634761Y-76153333D01*
X177444285Y-76153333D01*
X177349047Y-76200952D01*
X177301428Y-76248571D01*
X177253809Y-76343809D01*
X173182380Y-85293333D02*
X173896666Y-85293333D01*
X174039523Y-85340952D01*
X174134761Y-85436190D01*
X174182380Y-85579047D01*
X174182380Y-85674285D01*
X174182380Y-84293333D02*
X174182380Y-84864761D01*
X174182380Y-84579047D02*
X173182380Y-84579047D01*
X173325238Y-84674285D01*
X173420476Y-84769523D01*
X173468095Y-84864761D01*
X168602380Y-93571428D02*
X168126190Y-93904761D01*
X168602380Y-94142857D02*
X167602380Y-94142857D01*
X167602380Y-93761904D01*
X167650000Y-93666666D01*
X167697619Y-93619047D01*
X167792857Y-93571428D01*
X167935714Y-93571428D01*
X168030952Y-93619047D01*
X168078571Y-93666666D01*
X168126190Y-93761904D01*
X168126190Y-94142857D01*
X167602380Y-92666666D02*
X167602380Y-93142857D01*
X168078571Y-93190476D01*
X168030952Y-93142857D01*
X167983333Y-93047619D01*
X167983333Y-92809523D01*
X168030952Y-92714285D01*
X168078571Y-92666666D01*
X168173809Y-92619047D01*
X168411904Y-92619047D01*
X168507142Y-92666666D01*
X168554761Y-92714285D01*
X168602380Y-92809523D01*
X168602380Y-93047619D01*
X168554761Y-93142857D01*
X168507142Y-93190476D01*
X168602380Y-92190476D02*
X167602380Y-92190476D01*
X168221428Y-92095238D02*
X168602380Y-91809523D01*
X167935714Y-91809523D02*
X168316666Y-92190476D01*
D16*
X166726190Y-93083333D02*
X166488095Y-93250000D01*
X166726190Y-93369047D02*
X166226190Y-93369047D01*
X166226190Y-93178571D01*
X166250000Y-93130952D01*
X166273809Y-93107142D01*
X166321428Y-93083333D01*
X166392857Y-93083333D01*
X166440476Y-93107142D01*
X166464285Y-93130952D01*
X166488095Y-93178571D01*
X166488095Y-93369047D01*
X166273809Y-92892857D02*
X166250000Y-92869047D01*
X166226190Y-92821428D01*
X166226190Y-92702380D01*
X166250000Y-92654761D01*
X166273809Y-92630952D01*
X166321428Y-92607142D01*
X166369047Y-92607142D01*
X166440476Y-92630952D01*
X166726190Y-92916666D01*
X166726190Y-92607142D01*
D10*
X160428571Y-120152380D02*
X160428571Y-119152380D01*
X160761904Y-119866666D01*
X161095238Y-119152380D01*
X161095238Y-120152380D01*
X161714285Y-120152380D02*
X161619047Y-120104761D01*
X161571428Y-120057142D01*
X161523809Y-119961904D01*
X161523809Y-119676190D01*
X161571428Y-119580952D01*
X161619047Y-119533333D01*
X161714285Y-119485714D01*
X161857142Y-119485714D01*
X161952380Y-119533333D01*
X162000000Y-119580952D01*
X162047619Y-119676190D01*
X162047619Y-119961904D01*
X162000000Y-120057142D01*
X161952380Y-120104761D01*
X161857142Y-120152380D01*
X161714285Y-120152380D01*
X162904761Y-119485714D02*
X162904761Y-120152380D01*
X162476190Y-119485714D02*
X162476190Y-120009523D01*
X162523809Y-120104761D01*
X162619047Y-120152380D01*
X162761904Y-120152380D01*
X162857142Y-120104761D01*
X162904761Y-120057142D01*
X163380952Y-119485714D02*
X163380952Y-120152380D01*
X163380952Y-119580952D02*
X163428571Y-119533333D01*
X163523809Y-119485714D01*
X163666666Y-119485714D01*
X163761904Y-119533333D01*
X163809523Y-119628571D01*
X163809523Y-120152380D01*
X164142857Y-119485714D02*
X164523809Y-119485714D01*
X164285714Y-119152380D02*
X164285714Y-120009523D01*
X164333333Y-120104761D01*
X164428571Y-120152380D01*
X164523809Y-120152380D01*
X164857142Y-120152380D02*
X164857142Y-119485714D01*
X164857142Y-119152380D02*
X164809523Y-119200000D01*
X164857142Y-119247619D01*
X164904761Y-119200000D01*
X164857142Y-119152380D01*
X164857142Y-119247619D01*
X165333333Y-119485714D02*
X165333333Y-120152380D01*
X165333333Y-119580952D02*
X165380952Y-119533333D01*
X165476190Y-119485714D01*
X165619047Y-119485714D01*
X165714285Y-119533333D01*
X165761904Y-119628571D01*
X165761904Y-120152380D01*
X166666666Y-119485714D02*
X166666666Y-120295238D01*
X166619047Y-120390476D01*
X166571428Y-120438095D01*
X166476190Y-120485714D01*
X166333333Y-120485714D01*
X166238095Y-120438095D01*
X166666666Y-120104761D02*
X166571428Y-120152380D01*
X166380952Y-120152380D01*
X166285714Y-120104761D01*
X166238095Y-120057142D01*
X166190476Y-119961904D01*
X166190476Y-119676190D01*
X166238095Y-119580952D01*
X166285714Y-119533333D01*
X166380952Y-119485714D01*
X166571428Y-119485714D01*
X166666666Y-119533333D01*
X167142857Y-120152380D02*
X167142857Y-119152380D01*
X167142857Y-119628571D02*
X167714285Y-119628571D01*
X167714285Y-120152380D02*
X167714285Y-119152380D01*
X168333333Y-120152380D02*
X168238095Y-120104761D01*
X168190476Y-120057142D01*
X168142857Y-119961904D01*
X168142857Y-119676190D01*
X168190476Y-119580952D01*
X168238095Y-119533333D01*
X168333333Y-119485714D01*
X168476190Y-119485714D01*
X168571428Y-119533333D01*
X168619047Y-119580952D01*
X168666666Y-119676190D01*
X168666666Y-119961904D01*
X168619047Y-120057142D01*
X168571428Y-120104761D01*
X168476190Y-120152380D01*
X168333333Y-120152380D01*
X169238095Y-120152380D02*
X169142857Y-120104761D01*
X169095238Y-120009523D01*
X169095238Y-119152380D01*
X170000000Y-120104761D02*
X169904761Y-120152380D01*
X169714285Y-120152380D01*
X169619047Y-120104761D01*
X169571428Y-120009523D01*
X169571428Y-119628571D01*
X169619047Y-119533333D01*
X169714285Y-119485714D01*
X169904761Y-119485714D01*
X170000000Y-119533333D01*
X170047619Y-119628571D01*
X170047619Y-119723809D01*
X169571428Y-119819047D01*
X170238095Y-120247619D02*
X171000000Y-120247619D01*
X171238095Y-120152380D02*
X171238095Y-119152380D01*
X171619047Y-119152380D01*
X171714285Y-119200000D01*
X171761904Y-119247619D01*
X171809523Y-119342857D01*
X171809523Y-119485714D01*
X171761904Y-119580952D01*
X171714285Y-119628571D01*
X171619047Y-119676190D01*
X171238095Y-119676190D01*
X172666666Y-120152380D02*
X172666666Y-119628571D01*
X172619047Y-119533333D01*
X172523809Y-119485714D01*
X172333333Y-119485714D01*
X172238095Y-119533333D01*
X172666666Y-120104761D02*
X172571428Y-120152380D01*
X172333333Y-120152380D01*
X172238095Y-120104761D01*
X172190476Y-120009523D01*
X172190476Y-119914285D01*
X172238095Y-119819047D01*
X172333333Y-119771428D01*
X172571428Y-119771428D01*
X172666666Y-119723809D01*
X173571428Y-120152380D02*
X173571428Y-119152380D01*
X173571428Y-120104761D02*
X173476190Y-120152380D01*
X173285714Y-120152380D01*
X173190476Y-120104761D01*
X173142857Y-120057142D01*
X173095238Y-119961904D01*
X173095238Y-119676190D01*
X173142857Y-119580952D01*
X173190476Y-119533333D01*
X173285714Y-119485714D01*
X173476190Y-119485714D01*
X173571428Y-119533333D01*
X166538095Y-115952380D02*
X166538095Y-114952380D01*
X166538095Y-115428571D02*
X167109523Y-115428571D01*
X167109523Y-115952380D02*
X167109523Y-114952380D01*
X168014285Y-115285714D02*
X168014285Y-115952380D01*
X167776190Y-114904761D02*
X167538095Y-115619047D01*
X168157142Y-115619047D01*
X191428571Y-120127381D02*
X191428571Y-119127381D01*
X191761904Y-119841667D01*
X192095238Y-119127381D01*
X192095238Y-120127381D01*
X192714285Y-120127381D02*
X192619047Y-120079762D01*
X192571428Y-120032143D01*
X192523809Y-119936905D01*
X192523809Y-119651191D01*
X192571428Y-119555953D01*
X192619047Y-119508334D01*
X192714285Y-119460715D01*
X192857142Y-119460715D01*
X192952380Y-119508334D01*
X193000000Y-119555953D01*
X193047619Y-119651191D01*
X193047619Y-119936905D01*
X193000000Y-120032143D01*
X192952380Y-120079762D01*
X192857142Y-120127381D01*
X192714285Y-120127381D01*
X193904761Y-119460715D02*
X193904761Y-120127381D01*
X193476190Y-119460715D02*
X193476190Y-119984524D01*
X193523809Y-120079762D01*
X193619047Y-120127381D01*
X193761904Y-120127381D01*
X193857142Y-120079762D01*
X193904761Y-120032143D01*
X194380952Y-119460715D02*
X194380952Y-120127381D01*
X194380952Y-119555953D02*
X194428571Y-119508334D01*
X194523809Y-119460715D01*
X194666666Y-119460715D01*
X194761904Y-119508334D01*
X194809523Y-119603572D01*
X194809523Y-120127381D01*
X195142857Y-119460715D02*
X195523809Y-119460715D01*
X195285714Y-119127381D02*
X195285714Y-119984524D01*
X195333333Y-120079762D01*
X195428571Y-120127381D01*
X195523809Y-120127381D01*
X195857142Y-120127381D02*
X195857142Y-119460715D01*
X195857142Y-119127381D02*
X195809523Y-119175001D01*
X195857142Y-119222620D01*
X195904761Y-119175001D01*
X195857142Y-119127381D01*
X195857142Y-119222620D01*
X196333333Y-119460715D02*
X196333333Y-120127381D01*
X196333333Y-119555953D02*
X196380952Y-119508334D01*
X196476190Y-119460715D01*
X196619047Y-119460715D01*
X196714285Y-119508334D01*
X196761904Y-119603572D01*
X196761904Y-120127381D01*
X197666666Y-119460715D02*
X197666666Y-120270239D01*
X197619047Y-120365477D01*
X197571428Y-120413096D01*
X197476190Y-120460715D01*
X197333333Y-120460715D01*
X197238095Y-120413096D01*
X197666666Y-120079762D02*
X197571428Y-120127381D01*
X197380952Y-120127381D01*
X197285714Y-120079762D01*
X197238095Y-120032143D01*
X197190476Y-119936905D01*
X197190476Y-119651191D01*
X197238095Y-119555953D01*
X197285714Y-119508334D01*
X197380952Y-119460715D01*
X197571428Y-119460715D01*
X197666666Y-119508334D01*
X198142857Y-120127381D02*
X198142857Y-119127381D01*
X198142857Y-119603572D02*
X198714285Y-119603572D01*
X198714285Y-120127381D02*
X198714285Y-119127381D01*
X199333333Y-120127381D02*
X199238095Y-120079762D01*
X199190476Y-120032143D01*
X199142857Y-119936905D01*
X199142857Y-119651191D01*
X199190476Y-119555953D01*
X199238095Y-119508334D01*
X199333333Y-119460715D01*
X199476190Y-119460715D01*
X199571428Y-119508334D01*
X199619047Y-119555953D01*
X199666666Y-119651191D01*
X199666666Y-119936905D01*
X199619047Y-120032143D01*
X199571428Y-120079762D01*
X199476190Y-120127381D01*
X199333333Y-120127381D01*
X200238095Y-120127381D02*
X200142857Y-120079762D01*
X200095238Y-119984524D01*
X200095238Y-119127381D01*
X201000000Y-120079762D02*
X200904761Y-120127381D01*
X200714285Y-120127381D01*
X200619047Y-120079762D01*
X200571428Y-119984524D01*
X200571428Y-119603572D01*
X200619047Y-119508334D01*
X200714285Y-119460715D01*
X200904761Y-119460715D01*
X201000000Y-119508334D01*
X201047619Y-119603572D01*
X201047619Y-119698810D01*
X200571428Y-119794048D01*
X201238095Y-120222620D02*
X202000000Y-120222620D01*
X202238095Y-120127381D02*
X202238095Y-119127381D01*
X202619047Y-119127381D01*
X202714285Y-119175001D01*
X202761904Y-119222620D01*
X202809523Y-119317858D01*
X202809523Y-119460715D01*
X202761904Y-119555953D01*
X202714285Y-119603572D01*
X202619047Y-119651191D01*
X202238095Y-119651191D01*
X203666666Y-120127381D02*
X203666666Y-119603572D01*
X203619047Y-119508334D01*
X203523809Y-119460715D01*
X203333333Y-119460715D01*
X203238095Y-119508334D01*
X203666666Y-120079762D02*
X203571428Y-120127381D01*
X203333333Y-120127381D01*
X203238095Y-120079762D01*
X203190476Y-119984524D01*
X203190476Y-119889286D01*
X203238095Y-119794048D01*
X203333333Y-119746429D01*
X203571428Y-119746429D01*
X203666666Y-119698810D01*
X204571428Y-120127381D02*
X204571428Y-119127381D01*
X204571428Y-120079762D02*
X204476190Y-120127381D01*
X204285714Y-120127381D01*
X204190476Y-120079762D01*
X204142857Y-120032143D01*
X204095238Y-119936905D01*
X204095238Y-119651191D01*
X204142857Y-119555953D01*
X204190476Y-119508334D01*
X204285714Y-119460715D01*
X204476190Y-119460715D01*
X204571428Y-119508334D01*
X197538095Y-115927381D02*
X197538095Y-114927381D01*
X197538095Y-115403572D02*
X198109523Y-115403572D01*
X198109523Y-115927381D02*
X198109523Y-114927381D01*
X198490476Y-114927381D02*
X199109523Y-114927381D01*
X198776190Y-115308334D01*
X198919047Y-115308334D01*
X199014285Y-115355953D01*
X199061904Y-115403572D01*
X199109523Y-115498810D01*
X199109523Y-115736905D01*
X199061904Y-115832143D01*
X199014285Y-115879762D01*
X198919047Y-115927381D01*
X198633333Y-115927381D01*
X198538095Y-115879762D01*
X198490476Y-115832143D01*
X191428571Y-89152380D02*
X191428571Y-88152380D01*
X191761904Y-88866666D01*
X192095238Y-88152380D01*
X192095238Y-89152380D01*
X192714285Y-89152380D02*
X192619047Y-89104761D01*
X192571428Y-89057142D01*
X192523809Y-88961904D01*
X192523809Y-88676190D01*
X192571428Y-88580952D01*
X192619047Y-88533333D01*
X192714285Y-88485714D01*
X192857142Y-88485714D01*
X192952380Y-88533333D01*
X193000000Y-88580952D01*
X193047619Y-88676190D01*
X193047619Y-88961904D01*
X193000000Y-89057142D01*
X192952380Y-89104761D01*
X192857142Y-89152380D01*
X192714285Y-89152380D01*
X193904761Y-88485714D02*
X193904761Y-89152380D01*
X193476190Y-88485714D02*
X193476190Y-89009523D01*
X193523809Y-89104761D01*
X193619047Y-89152380D01*
X193761904Y-89152380D01*
X193857142Y-89104761D01*
X193904761Y-89057142D01*
X194380952Y-88485714D02*
X194380952Y-89152380D01*
X194380952Y-88580952D02*
X194428571Y-88533333D01*
X194523809Y-88485714D01*
X194666666Y-88485714D01*
X194761904Y-88533333D01*
X194809523Y-88628571D01*
X194809523Y-89152380D01*
X195142857Y-88485714D02*
X195523809Y-88485714D01*
X195285714Y-88152380D02*
X195285714Y-89009523D01*
X195333333Y-89104761D01*
X195428571Y-89152380D01*
X195523809Y-89152380D01*
X195857142Y-89152380D02*
X195857142Y-88485714D01*
X195857142Y-88152380D02*
X195809523Y-88200000D01*
X195857142Y-88247619D01*
X195904761Y-88200000D01*
X195857142Y-88152380D01*
X195857142Y-88247619D01*
X196333333Y-88485714D02*
X196333333Y-89152380D01*
X196333333Y-88580952D02*
X196380952Y-88533333D01*
X196476190Y-88485714D01*
X196619047Y-88485714D01*
X196714285Y-88533333D01*
X196761904Y-88628571D01*
X196761904Y-89152380D01*
X197666666Y-88485714D02*
X197666666Y-89295238D01*
X197619047Y-89390476D01*
X197571428Y-89438095D01*
X197476190Y-89485714D01*
X197333333Y-89485714D01*
X197238095Y-89438095D01*
X197666666Y-89104761D02*
X197571428Y-89152380D01*
X197380952Y-89152380D01*
X197285714Y-89104761D01*
X197238095Y-89057142D01*
X197190476Y-88961904D01*
X197190476Y-88676190D01*
X197238095Y-88580952D01*
X197285714Y-88533333D01*
X197380952Y-88485714D01*
X197571428Y-88485714D01*
X197666666Y-88533333D01*
X198142857Y-89152380D02*
X198142857Y-88152380D01*
X198142857Y-88628571D02*
X198714285Y-88628571D01*
X198714285Y-89152380D02*
X198714285Y-88152380D01*
X199333333Y-89152380D02*
X199238095Y-89104761D01*
X199190476Y-89057142D01*
X199142857Y-88961904D01*
X199142857Y-88676190D01*
X199190476Y-88580952D01*
X199238095Y-88533333D01*
X199333333Y-88485714D01*
X199476190Y-88485714D01*
X199571428Y-88533333D01*
X199619047Y-88580952D01*
X199666666Y-88676190D01*
X199666666Y-88961904D01*
X199619047Y-89057142D01*
X199571428Y-89104761D01*
X199476190Y-89152380D01*
X199333333Y-89152380D01*
X200238095Y-89152380D02*
X200142857Y-89104761D01*
X200095238Y-89009523D01*
X200095238Y-88152380D01*
X201000000Y-89104761D02*
X200904761Y-89152380D01*
X200714285Y-89152380D01*
X200619047Y-89104761D01*
X200571428Y-89009523D01*
X200571428Y-88628571D01*
X200619047Y-88533333D01*
X200714285Y-88485714D01*
X200904761Y-88485714D01*
X201000000Y-88533333D01*
X201047619Y-88628571D01*
X201047619Y-88723809D01*
X200571428Y-88819047D01*
X201238095Y-89247619D02*
X202000000Y-89247619D01*
X202238095Y-89152380D02*
X202238095Y-88152380D01*
X202619047Y-88152380D01*
X202714285Y-88200000D01*
X202761904Y-88247619D01*
X202809523Y-88342857D01*
X202809523Y-88485714D01*
X202761904Y-88580952D01*
X202714285Y-88628571D01*
X202619047Y-88676190D01*
X202238095Y-88676190D01*
X203666666Y-89152380D02*
X203666666Y-88628571D01*
X203619047Y-88533333D01*
X203523809Y-88485714D01*
X203333333Y-88485714D01*
X203238095Y-88533333D01*
X203666666Y-89104761D02*
X203571428Y-89152380D01*
X203333333Y-89152380D01*
X203238095Y-89104761D01*
X203190476Y-89009523D01*
X203190476Y-88914285D01*
X203238095Y-88819047D01*
X203333333Y-88771428D01*
X203571428Y-88771428D01*
X203666666Y-88723809D01*
X204571428Y-89152380D02*
X204571428Y-88152380D01*
X204571428Y-89104761D02*
X204476190Y-89152380D01*
X204285714Y-89152380D01*
X204190476Y-89104761D01*
X204142857Y-89057142D01*
X204095238Y-88961904D01*
X204095238Y-88676190D01*
X204142857Y-88580952D01*
X204190476Y-88533333D01*
X204285714Y-88485714D01*
X204476190Y-88485714D01*
X204571428Y-88533333D01*
X197538095Y-84952380D02*
X197538095Y-83952380D01*
X197538095Y-84428571D02*
X198109523Y-84428571D01*
X198109523Y-84952380D02*
X198109523Y-83952380D01*
X198538095Y-84047619D02*
X198585714Y-84000000D01*
X198680952Y-83952380D01*
X198919047Y-83952380D01*
X199014285Y-84000000D01*
X199061904Y-84047619D01*
X199109523Y-84142857D01*
X199109523Y-84238095D01*
X199061904Y-84380952D01*
X198490476Y-84952380D01*
X199109523Y-84952380D01*
X160428571Y-89152380D02*
X160428571Y-88152380D01*
X160761904Y-88866666D01*
X161095238Y-88152380D01*
X161095238Y-89152380D01*
X161714285Y-89152380D02*
X161619047Y-89104761D01*
X161571428Y-89057142D01*
X161523809Y-88961904D01*
X161523809Y-88676190D01*
X161571428Y-88580952D01*
X161619047Y-88533333D01*
X161714285Y-88485714D01*
X161857142Y-88485714D01*
X161952380Y-88533333D01*
X162000000Y-88580952D01*
X162047619Y-88676190D01*
X162047619Y-88961904D01*
X162000000Y-89057142D01*
X161952380Y-89104761D01*
X161857142Y-89152380D01*
X161714285Y-89152380D01*
X162904761Y-88485714D02*
X162904761Y-89152380D01*
X162476190Y-88485714D02*
X162476190Y-89009523D01*
X162523809Y-89104761D01*
X162619047Y-89152380D01*
X162761904Y-89152380D01*
X162857142Y-89104761D01*
X162904761Y-89057142D01*
X163380952Y-88485714D02*
X163380952Y-89152380D01*
X163380952Y-88580952D02*
X163428571Y-88533333D01*
X163523809Y-88485714D01*
X163666666Y-88485714D01*
X163761904Y-88533333D01*
X163809523Y-88628571D01*
X163809523Y-89152380D01*
X164142857Y-88485714D02*
X164523809Y-88485714D01*
X164285714Y-88152380D02*
X164285714Y-89009523D01*
X164333333Y-89104761D01*
X164428571Y-89152380D01*
X164523809Y-89152380D01*
X164857142Y-89152380D02*
X164857142Y-88485714D01*
X164857142Y-88152380D02*
X164809523Y-88200000D01*
X164857142Y-88247619D01*
X164904761Y-88200000D01*
X164857142Y-88152380D01*
X164857142Y-88247619D01*
X165333333Y-88485714D02*
X165333333Y-89152380D01*
X165333333Y-88580952D02*
X165380952Y-88533333D01*
X165476190Y-88485714D01*
X165619047Y-88485714D01*
X165714285Y-88533333D01*
X165761904Y-88628571D01*
X165761904Y-89152380D01*
X166666666Y-88485714D02*
X166666666Y-89295238D01*
X166619047Y-89390476D01*
X166571428Y-89438095D01*
X166476190Y-89485714D01*
X166333333Y-89485714D01*
X166238095Y-89438095D01*
X166666666Y-89104761D02*
X166571428Y-89152380D01*
X166380952Y-89152380D01*
X166285714Y-89104761D01*
X166238095Y-89057142D01*
X166190476Y-88961904D01*
X166190476Y-88676190D01*
X166238095Y-88580952D01*
X166285714Y-88533333D01*
X166380952Y-88485714D01*
X166571428Y-88485714D01*
X166666666Y-88533333D01*
X167142857Y-89152380D02*
X167142857Y-88152380D01*
X167142857Y-88628571D02*
X167714285Y-88628571D01*
X167714285Y-89152380D02*
X167714285Y-88152380D01*
X168333333Y-89152380D02*
X168238095Y-89104761D01*
X168190476Y-89057142D01*
X168142857Y-88961904D01*
X168142857Y-88676190D01*
X168190476Y-88580952D01*
X168238095Y-88533333D01*
X168333333Y-88485714D01*
X168476190Y-88485714D01*
X168571428Y-88533333D01*
X168619047Y-88580952D01*
X168666666Y-88676190D01*
X168666666Y-88961904D01*
X168619047Y-89057142D01*
X168571428Y-89104761D01*
X168476190Y-89152380D01*
X168333333Y-89152380D01*
X169238095Y-89152380D02*
X169142857Y-89104761D01*
X169095238Y-89009523D01*
X169095238Y-88152380D01*
X170000000Y-89104761D02*
X169904761Y-89152380D01*
X169714285Y-89152380D01*
X169619047Y-89104761D01*
X169571428Y-89009523D01*
X169571428Y-88628571D01*
X169619047Y-88533333D01*
X169714285Y-88485714D01*
X169904761Y-88485714D01*
X170000000Y-88533333D01*
X170047619Y-88628571D01*
X170047619Y-88723809D01*
X169571428Y-88819047D01*
X170238095Y-89247619D02*
X171000000Y-89247619D01*
X171238095Y-89152380D02*
X171238095Y-88152380D01*
X171619047Y-88152380D01*
X171714285Y-88200000D01*
X171761904Y-88247619D01*
X171809523Y-88342857D01*
X171809523Y-88485714D01*
X171761904Y-88580952D01*
X171714285Y-88628571D01*
X171619047Y-88676190D01*
X171238095Y-88676190D01*
X172666666Y-89152380D02*
X172666666Y-88628571D01*
X172619047Y-88533333D01*
X172523809Y-88485714D01*
X172333333Y-88485714D01*
X172238095Y-88533333D01*
X172666666Y-89104761D02*
X172571428Y-89152380D01*
X172333333Y-89152380D01*
X172238095Y-89104761D01*
X172190476Y-89009523D01*
X172190476Y-88914285D01*
X172238095Y-88819047D01*
X172333333Y-88771428D01*
X172571428Y-88771428D01*
X172666666Y-88723809D01*
X173571428Y-89152380D02*
X173571428Y-88152380D01*
X173571428Y-89104761D02*
X173476190Y-89152380D01*
X173285714Y-89152380D01*
X173190476Y-89104761D01*
X173142857Y-89057142D01*
X173095238Y-88961904D01*
X173095238Y-88676190D01*
X173142857Y-88580952D01*
X173190476Y-88533333D01*
X173285714Y-88485714D01*
X173476190Y-88485714D01*
X173571428Y-88533333D01*
X166538095Y-84952380D02*
X166538095Y-83952380D01*
X166538095Y-84428571D02*
X167109523Y-84428571D01*
X167109523Y-84952380D02*
X167109523Y-83952380D01*
X168109523Y-84952380D02*
X167538095Y-84952380D01*
X167823809Y-84952380D02*
X167823809Y-83952380D01*
X167728571Y-84095238D01*
X167633333Y-84190476D01*
X167538095Y-84238095D01*
X172250000Y-95037142D02*
X172202380Y-95084761D01*
X172059523Y-95132380D01*
X171964285Y-95132380D01*
X171821428Y-95084761D01*
X171726190Y-94989523D01*
X171678571Y-94894285D01*
X171630952Y-94703809D01*
X171630952Y-94560952D01*
X171678571Y-94370476D01*
X171726190Y-94275238D01*
X171821428Y-94180000D01*
X171964285Y-94132380D01*
X172059523Y-94132380D01*
X172202380Y-94180000D01*
X172250000Y-94227619D01*
X173202380Y-95132380D02*
X172630952Y-95132380D01*
X172916666Y-95132380D02*
X172916666Y-94132380D01*
X172821428Y-94275238D01*
X172726190Y-94370476D01*
X172630952Y-94418095D01*
X173821428Y-94132380D02*
X173916666Y-94132380D01*
X174011904Y-94180000D01*
X174059523Y-94227619D01*
X174107142Y-94322857D01*
X174154761Y-94513333D01*
X174154761Y-94751428D01*
X174107142Y-94941904D01*
X174059523Y-95037142D01*
X174011904Y-95084761D01*
X173916666Y-95132380D01*
X173821428Y-95132380D01*
X173726190Y-95084761D01*
X173678571Y-95037142D01*
X173630952Y-94941904D01*
X173583333Y-94751428D01*
X173583333Y-94513333D01*
X173630952Y-94322857D01*
X173678571Y-94227619D01*
X173726190Y-94180000D01*
X173821428Y-94132380D01*
X174773809Y-94132380D02*
X174869047Y-94132380D01*
X174964285Y-94180000D01*
X175011904Y-94227619D01*
X175059523Y-94322857D01*
X175107142Y-94513333D01*
X175107142Y-94751428D01*
X175059523Y-94941904D01*
X175011904Y-95037142D01*
X174964285Y-95084761D01*
X174869047Y-95132380D01*
X174773809Y-95132380D01*
X174678571Y-95084761D01*
X174630952Y-95037142D01*
X174583333Y-94941904D01*
X174535714Y-94751428D01*
X174535714Y-94513333D01*
X174583333Y-94322857D01*
X174630952Y-94227619D01*
X174678571Y-94180000D01*
X174773809Y-94132380D01*
X175535714Y-94465714D02*
X175535714Y-95132380D01*
X175535714Y-94560952D02*
X175583333Y-94513333D01*
X175678571Y-94465714D01*
X175821428Y-94465714D01*
X175916666Y-94513333D01*
X175964285Y-94608571D01*
X175964285Y-95132380D01*
X176773809Y-94608571D02*
X176440476Y-94608571D01*
X176440476Y-95132380D02*
X176440476Y-94132380D01*
X176916666Y-94132380D01*
D16*
X174166666Y-93178571D02*
X174142857Y-93202380D01*
X174071428Y-93226190D01*
X174023809Y-93226190D01*
X173952380Y-93202380D01*
X173904761Y-93154761D01*
X173880952Y-93107142D01*
X173857142Y-93011904D01*
X173857142Y-92940476D01*
X173880952Y-92845238D01*
X173904761Y-92797619D01*
X173952380Y-92750000D01*
X174023809Y-92726190D01*
X174071428Y-92726190D01*
X174142857Y-92750000D01*
X174166666Y-92773809D01*
X174642857Y-93226190D02*
X174357142Y-93226190D01*
X174500000Y-93226190D02*
X174500000Y-92726190D01*
X174452380Y-92797619D01*
X174404761Y-92845238D01*
X174357142Y-92869047D01*
D10*
X187476190Y-96607142D02*
X187428571Y-96654761D01*
X187285714Y-96702380D01*
X187190476Y-96702380D01*
X187047619Y-96654761D01*
X186952380Y-96559523D01*
X186904761Y-96464285D01*
X186857142Y-96273809D01*
X186857142Y-96130952D01*
X186904761Y-95940476D01*
X186952380Y-95845238D01*
X187047619Y-95750000D01*
X187190476Y-95702380D01*
X187285714Y-95702380D01*
X187428571Y-95750000D01*
X187476190Y-95797619D01*
X187857142Y-95797619D02*
X187904761Y-95750000D01*
X188000000Y-95702380D01*
X188238095Y-95702380D01*
X188333333Y-95750000D01*
X188380952Y-95797619D01*
X188428571Y-95892857D01*
X188428571Y-95988095D01*
X188380952Y-96130952D01*
X187809523Y-96702380D01*
X188428571Y-96702380D01*
X188809523Y-95797619D02*
X188857142Y-95750000D01*
X188952380Y-95702380D01*
X189190476Y-95702380D01*
X189285714Y-95750000D01*
X189333333Y-95797619D01*
X189380952Y-95892857D01*
X189380952Y-95988095D01*
X189333333Y-96130952D01*
X188761904Y-96702380D01*
X189380952Y-96702380D01*
X190238095Y-96035714D02*
X190238095Y-96702380D01*
X189809523Y-96035714D02*
X189809523Y-96559523D01*
X189857142Y-96654761D01*
X189952380Y-96702380D01*
X190095238Y-96702380D01*
X190190476Y-96654761D01*
X190238095Y-96607142D01*
X191047619Y-96178571D02*
X190714285Y-96178571D01*
X190714285Y-96702380D02*
X190714285Y-95702380D01*
X191190476Y-95702380D01*
D15*
X185866666Y-96785714D02*
X185828571Y-96823809D01*
X185714285Y-96861904D01*
X185638095Y-96861904D01*
X185523809Y-96823809D01*
X185447619Y-96747619D01*
X185409523Y-96671428D01*
X185371428Y-96519047D01*
X185371428Y-96404761D01*
X185409523Y-96252380D01*
X185447619Y-96176190D01*
X185523809Y-96100000D01*
X185638095Y-96061904D01*
X185714285Y-96061904D01*
X185828571Y-96100000D01*
X185866666Y-96138095D01*
X186171428Y-96138095D02*
X186209523Y-96100000D01*
X186285714Y-96061904D01*
X186476190Y-96061904D01*
X186552380Y-96100000D01*
X186590476Y-96138095D01*
X186628571Y-96214285D01*
X186628571Y-96290476D01*
X186590476Y-96404761D01*
X186133333Y-96861904D01*
X186628571Y-96861904D01*
D10*
X126452380Y-92177142D02*
X126404761Y-92224761D01*
X126261904Y-92272380D01*
X126166666Y-92272380D01*
X126023809Y-92224761D01*
X125928571Y-92129523D01*
X125880952Y-92034285D01*
X125833333Y-91843809D01*
X125833333Y-91700952D01*
X125880952Y-91510476D01*
X125928571Y-91415238D01*
X126023809Y-91320000D01*
X126166666Y-91272380D01*
X126261904Y-91272380D01*
X126404761Y-91320000D01*
X126452380Y-91367619D01*
X127404761Y-92272380D02*
X126833333Y-92272380D01*
X127119047Y-92272380D02*
X127119047Y-91272380D01*
X127023809Y-91415238D01*
X126928571Y-91510476D01*
X126833333Y-91558095D01*
X128261904Y-91605714D02*
X128261904Y-92272380D01*
X127833333Y-91605714D02*
X127833333Y-92129523D01*
X127880952Y-92224761D01*
X127976190Y-92272380D01*
X128119047Y-92272380D01*
X128214285Y-92224761D01*
X128261904Y-92177142D01*
X129071428Y-91748571D02*
X128738095Y-91748571D01*
X128738095Y-92272380D02*
X128738095Y-91272380D01*
X129214285Y-91272380D01*
D16*
X127416666Y-93678571D02*
X127392857Y-93702380D01*
X127321428Y-93726190D01*
X127273809Y-93726190D01*
X127202380Y-93702380D01*
X127154761Y-93654761D01*
X127130952Y-93607142D01*
X127107142Y-93511904D01*
X127107142Y-93440476D01*
X127130952Y-93345238D01*
X127154761Y-93297619D01*
X127202380Y-93250000D01*
X127273809Y-93226190D01*
X127321428Y-93226190D01*
X127392857Y-93250000D01*
X127416666Y-93273809D01*
X127583333Y-93226190D02*
X127892857Y-93226190D01*
X127726190Y-93416666D01*
X127797619Y-93416666D01*
X127845238Y-93440476D01*
X127869047Y-93464285D01*
X127892857Y-93511904D01*
X127892857Y-93630952D01*
X127869047Y-93678571D01*
X127845238Y-93702380D01*
X127797619Y-93726190D01*
X127654761Y-93726190D01*
X127607142Y-93702380D01*
X127583333Y-93678571D01*
D10*
X137517142Y-95523809D02*
X137564761Y-95571428D01*
X137612380Y-95714285D01*
X137612380Y-95809523D01*
X137564761Y-95952380D01*
X137469523Y-96047619D01*
X137374285Y-96095238D01*
X137183809Y-96142857D01*
X137040952Y-96142857D01*
X136850476Y-96095238D01*
X136755238Y-96047619D01*
X136660000Y-95952380D01*
X136612380Y-95809523D01*
X136612380Y-95714285D01*
X136660000Y-95571428D01*
X136707619Y-95523809D01*
X136707619Y-95142857D02*
X136660000Y-95095238D01*
X136612380Y-95000000D01*
X136612380Y-94761904D01*
X136660000Y-94666666D01*
X136707619Y-94619047D01*
X136802857Y-94571428D01*
X136898095Y-94571428D01*
X137040952Y-94619047D01*
X137612380Y-95190476D01*
X137612380Y-94571428D01*
X136707619Y-94190476D02*
X136660000Y-94142857D01*
X136612380Y-94047619D01*
X136612380Y-93809523D01*
X136660000Y-93714285D01*
X136707619Y-93666666D01*
X136802857Y-93619047D01*
X136898095Y-93619047D01*
X137040952Y-93666666D01*
X137612380Y-94238095D01*
X137612380Y-93619047D01*
X136945714Y-93190476D02*
X137945714Y-93190476D01*
X136993333Y-93190476D02*
X136945714Y-93095238D01*
X136945714Y-92904761D01*
X136993333Y-92809523D01*
X137040952Y-92761904D01*
X137136190Y-92714285D01*
X137421904Y-92714285D01*
X137517142Y-92761904D01*
X137564761Y-92809523D01*
X137612380Y-92904761D01*
X137612380Y-93095238D01*
X137564761Y-93190476D01*
X137088571Y-91952380D02*
X137088571Y-92285714D01*
X137612380Y-92285714D02*
X136612380Y-92285714D01*
X136612380Y-91809523D01*
D17*
X136089285Y-94041666D02*
X136101190Y-94053571D01*
X136113095Y-94089285D01*
X136113095Y-94113095D01*
X136101190Y-94148809D01*
X136077380Y-94172619D01*
X136053571Y-94184523D01*
X136005952Y-94196428D01*
X135970238Y-94196428D01*
X135922619Y-94184523D01*
X135898809Y-94172619D01*
X135875000Y-94148809D01*
X135863095Y-94113095D01*
X135863095Y-94089285D01*
X135875000Y-94053571D01*
X135886904Y-94041666D01*
X135946428Y-93827380D02*
X136113095Y-93827380D01*
X135851190Y-93886904D02*
X136029761Y-93946428D01*
X136029761Y-93791666D01*
D10*
X131517142Y-95523809D02*
X131564761Y-95571428D01*
X131612380Y-95714285D01*
X131612380Y-95809523D01*
X131564761Y-95952380D01*
X131469523Y-96047619D01*
X131374285Y-96095238D01*
X131183809Y-96142857D01*
X131040952Y-96142857D01*
X130850476Y-96095238D01*
X130755238Y-96047619D01*
X130660000Y-95952380D01*
X130612380Y-95809523D01*
X130612380Y-95714285D01*
X130660000Y-95571428D01*
X130707619Y-95523809D01*
X130707619Y-95142857D02*
X130660000Y-95095238D01*
X130612380Y-95000000D01*
X130612380Y-94761904D01*
X130660000Y-94666666D01*
X130707619Y-94619047D01*
X130802857Y-94571428D01*
X130898095Y-94571428D01*
X131040952Y-94619047D01*
X131612380Y-95190476D01*
X131612380Y-94571428D01*
X130707619Y-94190476D02*
X130660000Y-94142857D01*
X130612380Y-94047619D01*
X130612380Y-93809523D01*
X130660000Y-93714285D01*
X130707619Y-93666666D01*
X130802857Y-93619047D01*
X130898095Y-93619047D01*
X131040952Y-93666666D01*
X131612380Y-94238095D01*
X131612380Y-93619047D01*
X130945714Y-93190476D02*
X131945714Y-93190476D01*
X130993333Y-93190476D02*
X130945714Y-93095238D01*
X130945714Y-92904761D01*
X130993333Y-92809523D01*
X131040952Y-92761904D01*
X131136190Y-92714285D01*
X131421904Y-92714285D01*
X131517142Y-92761904D01*
X131564761Y-92809523D01*
X131612380Y-92904761D01*
X131612380Y-93095238D01*
X131564761Y-93190476D01*
X131088571Y-91952380D02*
X131088571Y-92285714D01*
X131612380Y-92285714D02*
X130612380Y-92285714D01*
X130612380Y-91809523D01*
D17*
X130089285Y-94041666D02*
X130101190Y-94053571D01*
X130113095Y-94089285D01*
X130113095Y-94113095D01*
X130101190Y-94148809D01*
X130077380Y-94172619D01*
X130053571Y-94184523D01*
X130005952Y-94196428D01*
X129970238Y-94196428D01*
X129922619Y-94184523D01*
X129898809Y-94172619D01*
X129875000Y-94148809D01*
X129863095Y-94113095D01*
X129863095Y-94089285D01*
X129875000Y-94053571D01*
X129886904Y-94041666D01*
X129863095Y-93815476D02*
X129863095Y-93934523D01*
X129982142Y-93946428D01*
X129970238Y-93934523D01*
X129958333Y-93910714D01*
X129958333Y-93851190D01*
X129970238Y-93827380D01*
X129982142Y-93815476D01*
X130005952Y-93803571D01*
X130065476Y-93803571D01*
X130089285Y-93815476D01*
X130101190Y-93827380D01*
X130113095Y-93851190D01*
X130113095Y-93910714D01*
X130101190Y-93934523D01*
X130089285Y-93946428D01*
D10*
X186500000Y-99177142D02*
X186452380Y-99224761D01*
X186309523Y-99272380D01*
X186214285Y-99272380D01*
X186071428Y-99224761D01*
X185976190Y-99129523D01*
X185928571Y-99034285D01*
X185880952Y-98843809D01*
X185880952Y-98700952D01*
X185928571Y-98510476D01*
X185976190Y-98415238D01*
X186071428Y-98320000D01*
X186214285Y-98272380D01*
X186309523Y-98272380D01*
X186452380Y-98320000D01*
X186500000Y-98367619D01*
X187452380Y-99272380D02*
X186880952Y-99272380D01*
X187166666Y-99272380D02*
X187166666Y-98272380D01*
X187071428Y-98415238D01*
X186976190Y-98510476D01*
X186880952Y-98558095D01*
X188071428Y-98272380D02*
X188166666Y-98272380D01*
X188261904Y-98320000D01*
X188309523Y-98367619D01*
X188357142Y-98462857D01*
X188404761Y-98653333D01*
X188404761Y-98891428D01*
X188357142Y-99081904D01*
X188309523Y-99177142D01*
X188261904Y-99224761D01*
X188166666Y-99272380D01*
X188071428Y-99272380D01*
X187976190Y-99224761D01*
X187928571Y-99177142D01*
X187880952Y-99081904D01*
X187833333Y-98891428D01*
X187833333Y-98653333D01*
X187880952Y-98462857D01*
X187928571Y-98367619D01*
X187976190Y-98320000D01*
X188071428Y-98272380D01*
X189023809Y-98272380D02*
X189119047Y-98272380D01*
X189214285Y-98320000D01*
X189261904Y-98367619D01*
X189309523Y-98462857D01*
X189357142Y-98653333D01*
X189357142Y-98891428D01*
X189309523Y-99081904D01*
X189261904Y-99177142D01*
X189214285Y-99224761D01*
X189119047Y-99272380D01*
X189023809Y-99272380D01*
X188928571Y-99224761D01*
X188880952Y-99177142D01*
X188833333Y-99081904D01*
X188785714Y-98891428D01*
X188785714Y-98653333D01*
X188833333Y-98462857D01*
X188880952Y-98367619D01*
X188928571Y-98320000D01*
X189023809Y-98272380D01*
X189785714Y-98605714D02*
X189785714Y-99272380D01*
X189785714Y-98700952D02*
X189833333Y-98653333D01*
X189928571Y-98605714D01*
X190071428Y-98605714D01*
X190166666Y-98653333D01*
X190214285Y-98748571D01*
X190214285Y-99272380D01*
X191023809Y-98748571D02*
X190690476Y-98748571D01*
X190690476Y-99272380D02*
X190690476Y-98272380D01*
X191166666Y-98272380D01*
D16*
X188416666Y-100678571D02*
X188392857Y-100702380D01*
X188321428Y-100726190D01*
X188273809Y-100726190D01*
X188202380Y-100702380D01*
X188154761Y-100654761D01*
X188130952Y-100607142D01*
X188107142Y-100511904D01*
X188107142Y-100440476D01*
X188130952Y-100345238D01*
X188154761Y-100297619D01*
X188202380Y-100250000D01*
X188273809Y-100226190D01*
X188321428Y-100226190D01*
X188392857Y-100250000D01*
X188416666Y-100273809D01*
X188845238Y-100226190D02*
X188750000Y-100226190D01*
X188702380Y-100250000D01*
X188678571Y-100273809D01*
X188630952Y-100345238D01*
X188607142Y-100440476D01*
X188607142Y-100630952D01*
X188630952Y-100678571D01*
X188654761Y-100702380D01*
X188702380Y-100726190D01*
X188797619Y-100726190D01*
X188845238Y-100702380D01*
X188869047Y-100678571D01*
X188892857Y-100630952D01*
X188892857Y-100511904D01*
X188869047Y-100464285D01*
X188845238Y-100440476D01*
X188797619Y-100416666D01*
X188702380Y-100416666D01*
X188654761Y-100440476D01*
X188630952Y-100464285D01*
X188607142Y-100511904D01*
D10*
X126452380Y-94677142D02*
X126404761Y-94724761D01*
X126261904Y-94772380D01*
X126166666Y-94772380D01*
X126023809Y-94724761D01*
X125928571Y-94629523D01*
X125880952Y-94534285D01*
X125833333Y-94343809D01*
X125833333Y-94200952D01*
X125880952Y-94010476D01*
X125928571Y-93915238D01*
X126023809Y-93820000D01*
X126166666Y-93772380D01*
X126261904Y-93772380D01*
X126404761Y-93820000D01*
X126452380Y-93867619D01*
X127404761Y-94772380D02*
X126833333Y-94772380D01*
X127119047Y-94772380D02*
X127119047Y-93772380D01*
X127023809Y-93915238D01*
X126928571Y-94010476D01*
X126833333Y-94058095D01*
X128261904Y-94105714D02*
X128261904Y-94772380D01*
X127833333Y-94105714D02*
X127833333Y-94629523D01*
X127880952Y-94724761D01*
X127976190Y-94772380D01*
X128119047Y-94772380D01*
X128214285Y-94724761D01*
X128261904Y-94677142D01*
X129071428Y-94248571D02*
X128738095Y-94248571D01*
X128738095Y-94772380D02*
X128738095Y-93772380D01*
X129214285Y-93772380D01*
D16*
X127416666Y-96178571D02*
X127392857Y-96202380D01*
X127321428Y-96226190D01*
X127273809Y-96226190D01*
X127202380Y-96202380D01*
X127154761Y-96154761D01*
X127130952Y-96107142D01*
X127107142Y-96011904D01*
X127107142Y-95940476D01*
X127130952Y-95845238D01*
X127154761Y-95797619D01*
X127202380Y-95750000D01*
X127273809Y-95726190D01*
X127321428Y-95726190D01*
X127392857Y-95750000D01*
X127416666Y-95773809D01*
X127583333Y-95726190D02*
X127916666Y-95726190D01*
X127702380Y-96226190D01*
D10*
X170017142Y-109023809D02*
X170064761Y-109071428D01*
X170112380Y-109214285D01*
X170112380Y-109309523D01*
X170064761Y-109452380D01*
X169969523Y-109547619D01*
X169874285Y-109595238D01*
X169683809Y-109642857D01*
X169540952Y-109642857D01*
X169350476Y-109595238D01*
X169255238Y-109547619D01*
X169160000Y-109452380D01*
X169112380Y-109309523D01*
X169112380Y-109214285D01*
X169160000Y-109071428D01*
X169207619Y-109023809D01*
X169207619Y-108642857D02*
X169160000Y-108595238D01*
X169112380Y-108500000D01*
X169112380Y-108261904D01*
X169160000Y-108166666D01*
X169207619Y-108119047D01*
X169302857Y-108071428D01*
X169398095Y-108071428D01*
X169540952Y-108119047D01*
X170112380Y-108690476D01*
X170112380Y-108071428D01*
X169207619Y-107690476D02*
X169160000Y-107642857D01*
X169112380Y-107547619D01*
X169112380Y-107309523D01*
X169160000Y-107214285D01*
X169207619Y-107166666D01*
X169302857Y-107119047D01*
X169398095Y-107119047D01*
X169540952Y-107166666D01*
X170112380Y-107738095D01*
X170112380Y-107119047D01*
X169445714Y-106690476D02*
X170445714Y-106690476D01*
X169493333Y-106690476D02*
X169445714Y-106595238D01*
X169445714Y-106404761D01*
X169493333Y-106309523D01*
X169540952Y-106261904D01*
X169636190Y-106214285D01*
X169921904Y-106214285D01*
X170017142Y-106261904D01*
X170064761Y-106309523D01*
X170112380Y-106404761D01*
X170112380Y-106595238D01*
X170064761Y-106690476D01*
X169588571Y-105452380D02*
X169588571Y-105785714D01*
X170112380Y-105785714D02*
X169112380Y-105785714D01*
X169112380Y-105309523D01*
D17*
X168589285Y-107541666D02*
X168601190Y-107553571D01*
X168613095Y-107589285D01*
X168613095Y-107613095D01*
X168601190Y-107648809D01*
X168577380Y-107672619D01*
X168553571Y-107684523D01*
X168505952Y-107696428D01*
X168470238Y-107696428D01*
X168422619Y-107684523D01*
X168398809Y-107672619D01*
X168375000Y-107648809D01*
X168363095Y-107613095D01*
X168363095Y-107589285D01*
X168375000Y-107553571D01*
X168386904Y-107541666D01*
X168470238Y-107398809D02*
X168458333Y-107422619D01*
X168446428Y-107434523D01*
X168422619Y-107446428D01*
X168410714Y-107446428D01*
X168386904Y-107434523D01*
X168375000Y-107422619D01*
X168363095Y-107398809D01*
X168363095Y-107351190D01*
X168375000Y-107327380D01*
X168386904Y-107315476D01*
X168410714Y-107303571D01*
X168422619Y-107303571D01*
X168446428Y-107315476D01*
X168458333Y-107327380D01*
X168470238Y-107351190D01*
X168470238Y-107398809D01*
X168482142Y-107422619D01*
X168494047Y-107434523D01*
X168517857Y-107446428D01*
X168565476Y-107446428D01*
X168589285Y-107434523D01*
X168601190Y-107422619D01*
X168613095Y-107398809D01*
X168613095Y-107351190D01*
X168601190Y-107327380D01*
X168589285Y-107315476D01*
X168565476Y-107303571D01*
X168517857Y-107303571D01*
X168494047Y-107315476D01*
X168482142Y-107327380D01*
X168470238Y-107351190D01*
D10*
X186950000Y-107177142D02*
X186902380Y-107224761D01*
X186759523Y-107272380D01*
X186664285Y-107272380D01*
X186521428Y-107224761D01*
X186426190Y-107129523D01*
X186378571Y-107034285D01*
X186330952Y-106843809D01*
X186330952Y-106700952D01*
X186378571Y-106510476D01*
X186426190Y-106415238D01*
X186521428Y-106320000D01*
X186664285Y-106272380D01*
X186759523Y-106272380D01*
X186902380Y-106320000D01*
X186950000Y-106367619D01*
X187902380Y-107272380D02*
X187330952Y-107272380D01*
X187616666Y-107272380D02*
X187616666Y-106272380D01*
X187521428Y-106415238D01*
X187426190Y-106510476D01*
X187330952Y-106558095D01*
X188521428Y-106272380D02*
X188616666Y-106272380D01*
X188711904Y-106320000D01*
X188759523Y-106367619D01*
X188807142Y-106462857D01*
X188854761Y-106653333D01*
X188854761Y-106891428D01*
X188807142Y-107081904D01*
X188759523Y-107177142D01*
X188711904Y-107224761D01*
X188616666Y-107272380D01*
X188521428Y-107272380D01*
X188426190Y-107224761D01*
X188378571Y-107177142D01*
X188330952Y-107081904D01*
X188283333Y-106891428D01*
X188283333Y-106653333D01*
X188330952Y-106462857D01*
X188378571Y-106367619D01*
X188426190Y-106320000D01*
X188521428Y-106272380D01*
X189473809Y-106272380D02*
X189569047Y-106272380D01*
X189664285Y-106320000D01*
X189711904Y-106367619D01*
X189759523Y-106462857D01*
X189807142Y-106653333D01*
X189807142Y-106891428D01*
X189759523Y-107081904D01*
X189711904Y-107177142D01*
X189664285Y-107224761D01*
X189569047Y-107272380D01*
X189473809Y-107272380D01*
X189378571Y-107224761D01*
X189330952Y-107177142D01*
X189283333Y-107081904D01*
X189235714Y-106891428D01*
X189235714Y-106653333D01*
X189283333Y-106462857D01*
X189330952Y-106367619D01*
X189378571Y-106320000D01*
X189473809Y-106272380D01*
X190235714Y-106605714D02*
X190235714Y-107272380D01*
X190235714Y-106700952D02*
X190283333Y-106653333D01*
X190378571Y-106605714D01*
X190521428Y-106605714D01*
X190616666Y-106653333D01*
X190664285Y-106748571D01*
X190664285Y-107272380D01*
X191473809Y-106748571D02*
X191140476Y-106748571D01*
X191140476Y-107272380D02*
X191140476Y-106272380D01*
X191616666Y-106272380D01*
D16*
X188866666Y-108678571D02*
X188842857Y-108702380D01*
X188771428Y-108726190D01*
X188723809Y-108726190D01*
X188652380Y-108702380D01*
X188604761Y-108654761D01*
X188580952Y-108607142D01*
X188557142Y-108511904D01*
X188557142Y-108440476D01*
X188580952Y-108345238D01*
X188604761Y-108297619D01*
X188652380Y-108250000D01*
X188723809Y-108226190D01*
X188771428Y-108226190D01*
X188842857Y-108250000D01*
X188866666Y-108273809D01*
X189104761Y-108726190D02*
X189200000Y-108726190D01*
X189247619Y-108702380D01*
X189271428Y-108678571D01*
X189319047Y-108607142D01*
X189342857Y-108511904D01*
X189342857Y-108321428D01*
X189319047Y-108273809D01*
X189295238Y-108250000D01*
X189247619Y-108226190D01*
X189152380Y-108226190D01*
X189104761Y-108250000D01*
X189080952Y-108273809D01*
X189057142Y-108321428D01*
X189057142Y-108440476D01*
X189080952Y-108488095D01*
X189104761Y-108511904D01*
X189152380Y-108535714D01*
X189247619Y-108535714D01*
X189295238Y-108511904D01*
X189319047Y-108488095D01*
X189342857Y-108440476D01*
D10*
X176017142Y-109023809D02*
X176064761Y-109071428D01*
X176112380Y-109214285D01*
X176112380Y-109309523D01*
X176064761Y-109452380D01*
X175969523Y-109547619D01*
X175874285Y-109595238D01*
X175683809Y-109642857D01*
X175540952Y-109642857D01*
X175350476Y-109595238D01*
X175255238Y-109547619D01*
X175160000Y-109452380D01*
X175112380Y-109309523D01*
X175112380Y-109214285D01*
X175160000Y-109071428D01*
X175207619Y-109023809D01*
X175207619Y-108642857D02*
X175160000Y-108595238D01*
X175112380Y-108500000D01*
X175112380Y-108261904D01*
X175160000Y-108166666D01*
X175207619Y-108119047D01*
X175302857Y-108071428D01*
X175398095Y-108071428D01*
X175540952Y-108119047D01*
X176112380Y-108690476D01*
X176112380Y-108071428D01*
X175207619Y-107690476D02*
X175160000Y-107642857D01*
X175112380Y-107547619D01*
X175112380Y-107309523D01*
X175160000Y-107214285D01*
X175207619Y-107166666D01*
X175302857Y-107119047D01*
X175398095Y-107119047D01*
X175540952Y-107166666D01*
X176112380Y-107738095D01*
X176112380Y-107119047D01*
X175445714Y-106690476D02*
X176445714Y-106690476D01*
X175493333Y-106690476D02*
X175445714Y-106595238D01*
X175445714Y-106404761D01*
X175493333Y-106309523D01*
X175540952Y-106261904D01*
X175636190Y-106214285D01*
X175921904Y-106214285D01*
X176017142Y-106261904D01*
X176064761Y-106309523D01*
X176112380Y-106404761D01*
X176112380Y-106595238D01*
X176064761Y-106690476D01*
X175588571Y-105452380D02*
X175588571Y-105785714D01*
X176112380Y-105785714D02*
X175112380Y-105785714D01*
X175112380Y-105309523D01*
D17*
X174589285Y-107660714D02*
X174601190Y-107672619D01*
X174613095Y-107708333D01*
X174613095Y-107732142D01*
X174601190Y-107767857D01*
X174577380Y-107791666D01*
X174553571Y-107803571D01*
X174505952Y-107815476D01*
X174470238Y-107815476D01*
X174422619Y-107803571D01*
X174398809Y-107791666D01*
X174375000Y-107767857D01*
X174363095Y-107732142D01*
X174363095Y-107708333D01*
X174375000Y-107672619D01*
X174386904Y-107660714D01*
X174613095Y-107422619D02*
X174613095Y-107565476D01*
X174613095Y-107494047D02*
X174363095Y-107494047D01*
X174398809Y-107517857D01*
X174422619Y-107541666D01*
X174434523Y-107565476D01*
X174363095Y-107267857D02*
X174363095Y-107244047D01*
X174375000Y-107220238D01*
X174386904Y-107208333D01*
X174410714Y-107196428D01*
X174458333Y-107184523D01*
X174517857Y-107184523D01*
X174565476Y-107196428D01*
X174589285Y-107208333D01*
X174601190Y-107220238D01*
X174613095Y-107244047D01*
X174613095Y-107267857D01*
X174601190Y-107291666D01*
X174589285Y-107303571D01*
X174565476Y-107315476D01*
X174517857Y-107327380D01*
X174458333Y-107327380D01*
X174410714Y-107315476D01*
X174386904Y-107303571D01*
X174375000Y-107291666D01*
X174363095Y-107267857D01*
D10*
X187976190Y-104607142D02*
X187928571Y-104654761D01*
X187785714Y-104702380D01*
X187690476Y-104702380D01*
X187547619Y-104654761D01*
X187452380Y-104559523D01*
X187404761Y-104464285D01*
X187357142Y-104273809D01*
X187357142Y-104130952D01*
X187404761Y-103940476D01*
X187452380Y-103845238D01*
X187547619Y-103750000D01*
X187690476Y-103702380D01*
X187785714Y-103702380D01*
X187928571Y-103750000D01*
X187976190Y-103797619D01*
X188357142Y-103797619D02*
X188404761Y-103750000D01*
X188500000Y-103702380D01*
X188738095Y-103702380D01*
X188833333Y-103750000D01*
X188880952Y-103797619D01*
X188928571Y-103892857D01*
X188928571Y-103988095D01*
X188880952Y-104130952D01*
X188309523Y-104702380D01*
X188928571Y-104702380D01*
X189309523Y-103797619D02*
X189357142Y-103750000D01*
X189452380Y-103702380D01*
X189690476Y-103702380D01*
X189785714Y-103750000D01*
X189833333Y-103797619D01*
X189880952Y-103892857D01*
X189880952Y-103988095D01*
X189833333Y-104130952D01*
X189261904Y-104702380D01*
X189880952Y-104702380D01*
X190738095Y-104035714D02*
X190738095Y-104702380D01*
X190309523Y-104035714D02*
X190309523Y-104559523D01*
X190357142Y-104654761D01*
X190452380Y-104702380D01*
X190595238Y-104702380D01*
X190690476Y-104654761D01*
X190738095Y-104607142D01*
X191547619Y-104178571D02*
X191214285Y-104178571D01*
X191214285Y-104702380D02*
X191214285Y-103702380D01*
X191690476Y-103702380D01*
D15*
X188985714Y-106285714D02*
X188947619Y-106323809D01*
X188833333Y-106361904D01*
X188757142Y-106361904D01*
X188642857Y-106323809D01*
X188566666Y-106247619D01*
X188528571Y-106171428D01*
X188490476Y-106019047D01*
X188490476Y-105904761D01*
X188528571Y-105752380D01*
X188566666Y-105676190D01*
X188642857Y-105600000D01*
X188757142Y-105561904D01*
X188833333Y-105561904D01*
X188947619Y-105600000D01*
X188985714Y-105638095D01*
X189747619Y-106361904D02*
X189290476Y-106361904D01*
X189519047Y-106361904D02*
X189519047Y-105561904D01*
X189442857Y-105676190D01*
X189366666Y-105752380D01*
X189290476Y-105790476D01*
X190509523Y-106361904D02*
X190052380Y-106361904D01*
X190280952Y-106361904D02*
X190280952Y-105561904D01*
X190204761Y-105676190D01*
X190128571Y-105752380D01*
X190052380Y-105790476D01*
D10*
X177500000Y-107037142D02*
X177452380Y-107084761D01*
X177309523Y-107132380D01*
X177214285Y-107132380D01*
X177071428Y-107084761D01*
X176976190Y-106989523D01*
X176928571Y-106894285D01*
X176880952Y-106703809D01*
X176880952Y-106560952D01*
X176928571Y-106370476D01*
X176976190Y-106275238D01*
X177071428Y-106180000D01*
X177214285Y-106132380D01*
X177309523Y-106132380D01*
X177452380Y-106180000D01*
X177500000Y-106227619D01*
X178452380Y-107132380D02*
X177880952Y-107132380D01*
X178166666Y-107132380D02*
X178166666Y-106132380D01*
X178071428Y-106275238D01*
X177976190Y-106370476D01*
X177880952Y-106418095D01*
X179071428Y-106132380D02*
X179166666Y-106132380D01*
X179261904Y-106180000D01*
X179309523Y-106227619D01*
X179357142Y-106322857D01*
X179404761Y-106513333D01*
X179404761Y-106751428D01*
X179357142Y-106941904D01*
X179309523Y-107037142D01*
X179261904Y-107084761D01*
X179166666Y-107132380D01*
X179071428Y-107132380D01*
X178976190Y-107084761D01*
X178928571Y-107037142D01*
X178880952Y-106941904D01*
X178833333Y-106751428D01*
X178833333Y-106513333D01*
X178880952Y-106322857D01*
X178928571Y-106227619D01*
X178976190Y-106180000D01*
X179071428Y-106132380D01*
X180023809Y-106132380D02*
X180119047Y-106132380D01*
X180214285Y-106180000D01*
X180261904Y-106227619D01*
X180309523Y-106322857D01*
X180357142Y-106513333D01*
X180357142Y-106751428D01*
X180309523Y-106941904D01*
X180261904Y-107037142D01*
X180214285Y-107084761D01*
X180119047Y-107132380D01*
X180023809Y-107132380D01*
X179928571Y-107084761D01*
X179880952Y-107037142D01*
X179833333Y-106941904D01*
X179785714Y-106751428D01*
X179785714Y-106513333D01*
X179833333Y-106322857D01*
X179880952Y-106227619D01*
X179928571Y-106180000D01*
X180023809Y-106132380D01*
X180785714Y-106465714D02*
X180785714Y-107132380D01*
X180785714Y-106560952D02*
X180833333Y-106513333D01*
X180928571Y-106465714D01*
X181071428Y-106465714D01*
X181166666Y-106513333D01*
X181214285Y-106608571D01*
X181214285Y-107132380D01*
X182023809Y-106608571D02*
X181690476Y-106608571D01*
X181690476Y-107132380D02*
X181690476Y-106132380D01*
X182166666Y-106132380D01*
D16*
X179178571Y-105178571D02*
X179154761Y-105202380D01*
X179083333Y-105226190D01*
X179035714Y-105226190D01*
X178964285Y-105202380D01*
X178916666Y-105154761D01*
X178892857Y-105107142D01*
X178869047Y-105011904D01*
X178869047Y-104940476D01*
X178892857Y-104845238D01*
X178916666Y-104797619D01*
X178964285Y-104750000D01*
X179035714Y-104726190D01*
X179083333Y-104726190D01*
X179154761Y-104750000D01*
X179178571Y-104773809D01*
X179654761Y-105226190D02*
X179369047Y-105226190D01*
X179511904Y-105226190D02*
X179511904Y-104726190D01*
X179464285Y-104797619D01*
X179416666Y-104845238D01*
X179369047Y-104869047D01*
X179845238Y-104773809D02*
X179869047Y-104750000D01*
X179916666Y-104726190D01*
X180035714Y-104726190D01*
X180083333Y-104750000D01*
X180107142Y-104773809D01*
X180130952Y-104821428D01*
X180130952Y-104869047D01*
X180107142Y-104940476D01*
X179821428Y-105226190D01*
X180130952Y-105226190D01*
D10*
X127677142Y-108547619D02*
X127724761Y-108595238D01*
X127772380Y-108738095D01*
X127772380Y-108833333D01*
X127724761Y-108976190D01*
X127629523Y-109071428D01*
X127534285Y-109119047D01*
X127343809Y-109166666D01*
X127200952Y-109166666D01*
X127010476Y-109119047D01*
X126915238Y-109071428D01*
X126820000Y-108976190D01*
X126772380Y-108833333D01*
X126772380Y-108738095D01*
X126820000Y-108595238D01*
X126867619Y-108547619D01*
X127772380Y-107595238D02*
X127772380Y-108166666D01*
X127772380Y-107880952D02*
X126772380Y-107880952D01*
X126915238Y-107976190D01*
X127010476Y-108071428D01*
X127058095Y-108166666D01*
X127105714Y-106738095D02*
X127772380Y-106738095D01*
X127105714Y-107166666D02*
X127629523Y-107166666D01*
X127724761Y-107119047D01*
X127772380Y-107023809D01*
X127772380Y-106880952D01*
X127724761Y-106785714D01*
X127677142Y-106738095D01*
X127248571Y-105928571D02*
X127248571Y-106261904D01*
X127772380Y-106261904D02*
X126772380Y-106261904D01*
X126772380Y-105785714D01*
D16*
X129178571Y-107821428D02*
X129202380Y-107845238D01*
X129226190Y-107916666D01*
X129226190Y-107964285D01*
X129202380Y-108035714D01*
X129154761Y-108083333D01*
X129107142Y-108107142D01*
X129011904Y-108130952D01*
X128940476Y-108130952D01*
X128845238Y-108107142D01*
X128797619Y-108083333D01*
X128750000Y-108035714D01*
X128726190Y-107964285D01*
X128726190Y-107916666D01*
X128750000Y-107845238D01*
X128773809Y-107821428D01*
X129226190Y-107345238D02*
X129226190Y-107630952D01*
X129226190Y-107488095D02*
X128726190Y-107488095D01*
X128797619Y-107535714D01*
X128845238Y-107583333D01*
X128869047Y-107630952D01*
X128726190Y-107178571D02*
X128726190Y-106869047D01*
X128916666Y-107035714D01*
X128916666Y-106964285D01*
X128940476Y-106916666D01*
X128964285Y-106892857D01*
X129011904Y-106869047D01*
X129130952Y-106869047D01*
X129178571Y-106892857D01*
X129202380Y-106916666D01*
X129226190Y-106964285D01*
X129226190Y-107107142D01*
X129202380Y-107154761D01*
X129178571Y-107178571D01*
D10*
X140952380Y-94537142D02*
X140904761Y-94584761D01*
X140761904Y-94632380D01*
X140666666Y-94632380D01*
X140523809Y-94584761D01*
X140428571Y-94489523D01*
X140380952Y-94394285D01*
X140333333Y-94203809D01*
X140333333Y-94060952D01*
X140380952Y-93870476D01*
X140428571Y-93775238D01*
X140523809Y-93680000D01*
X140666666Y-93632380D01*
X140761904Y-93632380D01*
X140904761Y-93680000D01*
X140952380Y-93727619D01*
X141904761Y-94632380D02*
X141333333Y-94632380D01*
X141619047Y-94632380D02*
X141619047Y-93632380D01*
X141523809Y-93775238D01*
X141428571Y-93870476D01*
X141333333Y-93918095D01*
X142761904Y-93965714D02*
X142761904Y-94632380D01*
X142333333Y-93965714D02*
X142333333Y-94489523D01*
X142380952Y-94584761D01*
X142476190Y-94632380D01*
X142619047Y-94632380D01*
X142714285Y-94584761D01*
X142761904Y-94537142D01*
X143571428Y-94108571D02*
X143238095Y-94108571D01*
X143238095Y-94632380D02*
X143238095Y-93632380D01*
X143714285Y-93632380D01*
D16*
X141678571Y-92678571D02*
X141654761Y-92702380D01*
X141583333Y-92726190D01*
X141535714Y-92726190D01*
X141464285Y-92702380D01*
X141416666Y-92654761D01*
X141392857Y-92607142D01*
X141369047Y-92511904D01*
X141369047Y-92440476D01*
X141392857Y-92345238D01*
X141416666Y-92297619D01*
X141464285Y-92250000D01*
X141535714Y-92226190D01*
X141583333Y-92226190D01*
X141654761Y-92250000D01*
X141678571Y-92273809D01*
X142154761Y-92726190D02*
X141869047Y-92726190D01*
X142011904Y-92726190D02*
X142011904Y-92226190D01*
X141964285Y-92297619D01*
X141916666Y-92345238D01*
X141869047Y-92369047D01*
X142583333Y-92392857D02*
X142583333Y-92726190D01*
X142464285Y-92202380D02*
X142345238Y-92559523D01*
X142654761Y-92559523D01*
D10*
X132452380Y-107177142D02*
X132404761Y-107224761D01*
X132261904Y-107272380D01*
X132166666Y-107272380D01*
X132023809Y-107224761D01*
X131928571Y-107129523D01*
X131880952Y-107034285D01*
X131833333Y-106843809D01*
X131833333Y-106700952D01*
X131880952Y-106510476D01*
X131928571Y-106415238D01*
X132023809Y-106320000D01*
X132166666Y-106272380D01*
X132261904Y-106272380D01*
X132404761Y-106320000D01*
X132452380Y-106367619D01*
X133404761Y-107272380D02*
X132833333Y-107272380D01*
X133119047Y-107272380D02*
X133119047Y-106272380D01*
X133023809Y-106415238D01*
X132928571Y-106510476D01*
X132833333Y-106558095D01*
X134261904Y-106605714D02*
X134261904Y-107272380D01*
X133833333Y-106605714D02*
X133833333Y-107129523D01*
X133880952Y-107224761D01*
X133976190Y-107272380D01*
X134119047Y-107272380D01*
X134214285Y-107224761D01*
X134261904Y-107177142D01*
X135071428Y-106748571D02*
X134738095Y-106748571D01*
X134738095Y-107272380D02*
X134738095Y-106272380D01*
X135214285Y-106272380D01*
D16*
X133178571Y-108678571D02*
X133154761Y-108702380D01*
X133083333Y-108726190D01*
X133035714Y-108726190D01*
X132964285Y-108702380D01*
X132916666Y-108654761D01*
X132892857Y-108607142D01*
X132869047Y-108511904D01*
X132869047Y-108440476D01*
X132892857Y-108345238D01*
X132916666Y-108297619D01*
X132964285Y-108250000D01*
X133035714Y-108226190D01*
X133083333Y-108226190D01*
X133154761Y-108250000D01*
X133178571Y-108273809D01*
X133654761Y-108726190D02*
X133369047Y-108726190D01*
X133511904Y-108726190D02*
X133511904Y-108226190D01*
X133464285Y-108297619D01*
X133416666Y-108345238D01*
X133369047Y-108369047D01*
X134107142Y-108226190D02*
X133869047Y-108226190D01*
X133845238Y-108464285D01*
X133869047Y-108440476D01*
X133916666Y-108416666D01*
X134035714Y-108416666D01*
X134083333Y-108440476D01*
X134107142Y-108464285D01*
X134130952Y-108511904D01*
X134130952Y-108630952D01*
X134107142Y-108678571D01*
X134083333Y-108702380D01*
X134035714Y-108726190D01*
X133916666Y-108726190D01*
X133869047Y-108702380D01*
X133845238Y-108678571D01*
D10*
X147452380Y-104537142D02*
X147404761Y-104584761D01*
X147261904Y-104632380D01*
X147166666Y-104632380D01*
X147023809Y-104584761D01*
X146928571Y-104489523D01*
X146880952Y-104394285D01*
X146833333Y-104203809D01*
X146833333Y-104060952D01*
X146880952Y-103870476D01*
X146928571Y-103775238D01*
X147023809Y-103680000D01*
X147166666Y-103632380D01*
X147261904Y-103632380D01*
X147404761Y-103680000D01*
X147452380Y-103727619D01*
X148404761Y-104632380D02*
X147833333Y-104632380D01*
X148119047Y-104632380D02*
X148119047Y-103632380D01*
X148023809Y-103775238D01*
X147928571Y-103870476D01*
X147833333Y-103918095D01*
X149261904Y-103965714D02*
X149261904Y-104632380D01*
X148833333Y-103965714D02*
X148833333Y-104489523D01*
X148880952Y-104584761D01*
X148976190Y-104632380D01*
X149119047Y-104632380D01*
X149214285Y-104584761D01*
X149261904Y-104537142D01*
X150071428Y-104108571D02*
X149738095Y-104108571D01*
X149738095Y-104632380D02*
X149738095Y-103632380D01*
X150214285Y-103632380D01*
D16*
X148178571Y-102678571D02*
X148154761Y-102702380D01*
X148083333Y-102726190D01*
X148035714Y-102726190D01*
X147964285Y-102702380D01*
X147916666Y-102654761D01*
X147892857Y-102607142D01*
X147869047Y-102511904D01*
X147869047Y-102440476D01*
X147892857Y-102345238D01*
X147916666Y-102297619D01*
X147964285Y-102250000D01*
X148035714Y-102226190D01*
X148083333Y-102226190D01*
X148154761Y-102250000D01*
X148178571Y-102273809D01*
X148654761Y-102726190D02*
X148369047Y-102726190D01*
X148511904Y-102726190D02*
X148511904Y-102226190D01*
X148464285Y-102297619D01*
X148416666Y-102345238D01*
X148369047Y-102369047D01*
X149083333Y-102226190D02*
X148988095Y-102226190D01*
X148940476Y-102250000D01*
X148916666Y-102273809D01*
X148869047Y-102345238D01*
X148845238Y-102440476D01*
X148845238Y-102630952D01*
X148869047Y-102678571D01*
X148892857Y-102702380D01*
X148940476Y-102726190D01*
X149035714Y-102726190D01*
X149083333Y-102702380D01*
X149107142Y-102678571D01*
X149130952Y-102630952D01*
X149130952Y-102511904D01*
X149107142Y-102464285D01*
X149083333Y-102440476D01*
X149035714Y-102416666D01*
X148940476Y-102416666D01*
X148892857Y-102440476D01*
X148869047Y-102464285D01*
X148845238Y-102511904D01*
D10*
X147452380Y-102392143D02*
X147404761Y-102439762D01*
X147261904Y-102487381D01*
X147166666Y-102487381D01*
X147023809Y-102439762D01*
X146928571Y-102344524D01*
X146880952Y-102249286D01*
X146833333Y-102058810D01*
X146833333Y-101915953D01*
X146880952Y-101725477D01*
X146928571Y-101630239D01*
X147023809Y-101535001D01*
X147166666Y-101487381D01*
X147261904Y-101487381D01*
X147404761Y-101535001D01*
X147452380Y-101582620D01*
X148404761Y-102487381D02*
X147833333Y-102487381D01*
X148119047Y-102487381D02*
X148119047Y-101487381D01*
X148023809Y-101630239D01*
X147928571Y-101725477D01*
X147833333Y-101773096D01*
X149261904Y-101820715D02*
X149261904Y-102487381D01*
X148833333Y-101820715D02*
X148833333Y-102344524D01*
X148880952Y-102439762D01*
X148976190Y-102487381D01*
X149119047Y-102487381D01*
X149214285Y-102439762D01*
X149261904Y-102392143D01*
X150071428Y-101963572D02*
X149738095Y-101963572D01*
X149738095Y-102487381D02*
X149738095Y-101487381D01*
X150214285Y-101487381D01*
D16*
X148178571Y-100533572D02*
X148154761Y-100557381D01*
X148083333Y-100581191D01*
X148035714Y-100581191D01*
X147964285Y-100557381D01*
X147916666Y-100509762D01*
X147892857Y-100462143D01*
X147869047Y-100366905D01*
X147869047Y-100295477D01*
X147892857Y-100200239D01*
X147916666Y-100152620D01*
X147964285Y-100105001D01*
X148035714Y-100081191D01*
X148083333Y-100081191D01*
X148154761Y-100105001D01*
X148178571Y-100128810D01*
X148654761Y-100581191D02*
X148369047Y-100581191D01*
X148511904Y-100581191D02*
X148511904Y-100081191D01*
X148464285Y-100152620D01*
X148416666Y-100200239D01*
X148369047Y-100224048D01*
X148821428Y-100081191D02*
X149154761Y-100081191D01*
X148940476Y-100581191D01*
D10*
X199537142Y-91523809D02*
X199584761Y-91571428D01*
X199632380Y-91714285D01*
X199632380Y-91809523D01*
X199584761Y-91952380D01*
X199489523Y-92047619D01*
X199394285Y-92095238D01*
X199203809Y-92142857D01*
X199060952Y-92142857D01*
X198870476Y-92095238D01*
X198775238Y-92047619D01*
X198680000Y-91952380D01*
X198632380Y-91809523D01*
X198632380Y-91714285D01*
X198680000Y-91571428D01*
X198727619Y-91523809D01*
X199632380Y-90571428D02*
X199632380Y-91142857D01*
X199632380Y-90857142D02*
X198632380Y-90857142D01*
X198775238Y-90952380D01*
X198870476Y-91047619D01*
X198918095Y-91142857D01*
X198632380Y-89952380D02*
X198632380Y-89857142D01*
X198680000Y-89761904D01*
X198727619Y-89714285D01*
X198822857Y-89666666D01*
X199013333Y-89619047D01*
X199251428Y-89619047D01*
X199441904Y-89666666D01*
X199537142Y-89714285D01*
X199584761Y-89761904D01*
X199632380Y-89857142D01*
X199632380Y-89952380D01*
X199584761Y-90047619D01*
X199537142Y-90095238D01*
X199441904Y-90142857D01*
X199251428Y-90190476D01*
X199013333Y-90190476D01*
X198822857Y-90142857D01*
X198727619Y-90095238D01*
X198680000Y-90047619D01*
X198632380Y-89952380D01*
X198965714Y-89190476D02*
X199632380Y-89190476D01*
X199060952Y-89190476D02*
X199013333Y-89142857D01*
X198965714Y-89047619D01*
X198965714Y-88904761D01*
X199013333Y-88809523D01*
X199108571Y-88761904D01*
X199632380Y-88761904D01*
X199108571Y-87952380D02*
X199108571Y-88285714D01*
X199632380Y-88285714D02*
X198632380Y-88285714D01*
X198632380Y-87809523D01*
D16*
X197678571Y-90321428D02*
X197702380Y-90345238D01*
X197726190Y-90416666D01*
X197726190Y-90464285D01*
X197702380Y-90535714D01*
X197654761Y-90583333D01*
X197607142Y-90607142D01*
X197511904Y-90630952D01*
X197440476Y-90630952D01*
X197345238Y-90607142D01*
X197297619Y-90583333D01*
X197250000Y-90535714D01*
X197226190Y-90464285D01*
X197226190Y-90416666D01*
X197250000Y-90345238D01*
X197273809Y-90321428D01*
X197726190Y-89845238D02*
X197726190Y-90130952D01*
X197726190Y-89988095D02*
X197226190Y-89988095D01*
X197297619Y-90035714D01*
X197345238Y-90083333D01*
X197369047Y-90130952D01*
X197440476Y-89559523D02*
X197416666Y-89607142D01*
X197392857Y-89630952D01*
X197345238Y-89654761D01*
X197321428Y-89654761D01*
X197273809Y-89630952D01*
X197250000Y-89607142D01*
X197226190Y-89559523D01*
X197226190Y-89464285D01*
X197250000Y-89416666D01*
X197273809Y-89392857D01*
X197321428Y-89369047D01*
X197345238Y-89369047D01*
X197392857Y-89392857D01*
X197416666Y-89416666D01*
X197440476Y-89464285D01*
X197440476Y-89559523D01*
X197464285Y-89607142D01*
X197488095Y-89630952D01*
X197535714Y-89654761D01*
X197630952Y-89654761D01*
X197678571Y-89630952D01*
X197702380Y-89607142D01*
X197726190Y-89559523D01*
X197726190Y-89464285D01*
X197702380Y-89416666D01*
X197678571Y-89392857D01*
X197630952Y-89369047D01*
X197535714Y-89369047D01*
X197488095Y-89392857D01*
X197464285Y-89416666D01*
X197440476Y-89464285D01*
D10*
X195537142Y-85000000D02*
X195584761Y-85047619D01*
X195632380Y-85190476D01*
X195632380Y-85285714D01*
X195584761Y-85428571D01*
X195489523Y-85523809D01*
X195394285Y-85571428D01*
X195203809Y-85619047D01*
X195060952Y-85619047D01*
X194870476Y-85571428D01*
X194775238Y-85523809D01*
X194680000Y-85428571D01*
X194632380Y-85285714D01*
X194632380Y-85190476D01*
X194680000Y-85047619D01*
X194727619Y-85000000D01*
X195632380Y-84047619D02*
X195632380Y-84619047D01*
X195632380Y-84333333D02*
X194632380Y-84333333D01*
X194775238Y-84428571D01*
X194870476Y-84523809D01*
X194918095Y-84619047D01*
X194632380Y-83428571D02*
X194632380Y-83333333D01*
X194680000Y-83238095D01*
X194727619Y-83190476D01*
X194822857Y-83142857D01*
X195013333Y-83095238D01*
X195251428Y-83095238D01*
X195441904Y-83142857D01*
X195537142Y-83190476D01*
X195584761Y-83238095D01*
X195632380Y-83333333D01*
X195632380Y-83428571D01*
X195584761Y-83523809D01*
X195537142Y-83571428D01*
X195441904Y-83619047D01*
X195251428Y-83666666D01*
X195013333Y-83666666D01*
X194822857Y-83619047D01*
X194727619Y-83571428D01*
X194680000Y-83523809D01*
X194632380Y-83428571D01*
X194632380Y-82476190D02*
X194632380Y-82380952D01*
X194680000Y-82285714D01*
X194727619Y-82238095D01*
X194822857Y-82190476D01*
X195013333Y-82142857D01*
X195251428Y-82142857D01*
X195441904Y-82190476D01*
X195537142Y-82238095D01*
X195584761Y-82285714D01*
X195632380Y-82380952D01*
X195632380Y-82476190D01*
X195584761Y-82571428D01*
X195537142Y-82619047D01*
X195441904Y-82666666D01*
X195251428Y-82714285D01*
X195013333Y-82714285D01*
X194822857Y-82666666D01*
X194727619Y-82619047D01*
X194680000Y-82571428D01*
X194632380Y-82476190D01*
X194965714Y-81714285D02*
X195632380Y-81714285D01*
X195060952Y-81714285D02*
X195013333Y-81666666D01*
X194965714Y-81571428D01*
X194965714Y-81428571D01*
X195013333Y-81333333D01*
X195108571Y-81285714D01*
X195632380Y-81285714D01*
X195108571Y-80476190D02*
X195108571Y-80809523D01*
X195632380Y-80809523D02*
X194632380Y-80809523D01*
X194632380Y-80333333D01*
D16*
X193678571Y-83321428D02*
X193702380Y-83345238D01*
X193726190Y-83416666D01*
X193726190Y-83464285D01*
X193702380Y-83535714D01*
X193654761Y-83583333D01*
X193607142Y-83607142D01*
X193511904Y-83630952D01*
X193440476Y-83630952D01*
X193345238Y-83607142D01*
X193297619Y-83583333D01*
X193250000Y-83535714D01*
X193226190Y-83464285D01*
X193226190Y-83416666D01*
X193250000Y-83345238D01*
X193273809Y-83321428D01*
X193726190Y-82845238D02*
X193726190Y-83130952D01*
X193726190Y-82988095D02*
X193226190Y-82988095D01*
X193297619Y-83035714D01*
X193345238Y-83083333D01*
X193369047Y-83130952D01*
X193726190Y-82607142D02*
X193726190Y-82511904D01*
X193702380Y-82464285D01*
X193678571Y-82440476D01*
X193607142Y-82392857D01*
X193511904Y-82369047D01*
X193321428Y-82369047D01*
X193273809Y-82392857D01*
X193250000Y-82416666D01*
X193226190Y-82464285D01*
X193226190Y-82559523D01*
X193250000Y-82607142D01*
X193273809Y-82630952D01*
X193321428Y-82654761D01*
X193440476Y-82654761D01*
X193488095Y-82630952D01*
X193511904Y-82607142D01*
X193535714Y-82559523D01*
X193535714Y-82464285D01*
X193511904Y-82416666D01*
X193488095Y-82392857D01*
X193440476Y-82369047D01*
D10*
X194000000Y-106057142D02*
X193952380Y-106104761D01*
X193809523Y-106152380D01*
X193714285Y-106152380D01*
X193571428Y-106104761D01*
X193476190Y-106009523D01*
X193428571Y-105914285D01*
X193380952Y-105723809D01*
X193380952Y-105580952D01*
X193428571Y-105390476D01*
X193476190Y-105295238D01*
X193571428Y-105200000D01*
X193714285Y-105152380D01*
X193809523Y-105152380D01*
X193952380Y-105200000D01*
X194000000Y-105247619D01*
X194952380Y-106152380D02*
X194380952Y-106152380D01*
X194666666Y-106152380D02*
X194666666Y-105152380D01*
X194571428Y-105295238D01*
X194476190Y-105390476D01*
X194380952Y-105438095D01*
X195571428Y-105152380D02*
X195666666Y-105152380D01*
X195761904Y-105200000D01*
X195809523Y-105247619D01*
X195857142Y-105342857D01*
X195904761Y-105533333D01*
X195904761Y-105771428D01*
X195857142Y-105961904D01*
X195809523Y-106057142D01*
X195761904Y-106104761D01*
X195666666Y-106152380D01*
X195571428Y-106152380D01*
X195476190Y-106104761D01*
X195428571Y-106057142D01*
X195380952Y-105961904D01*
X195333333Y-105771428D01*
X195333333Y-105533333D01*
X195380952Y-105342857D01*
X195428571Y-105247619D01*
X195476190Y-105200000D01*
X195571428Y-105152380D01*
X196523809Y-105152380D02*
X196619047Y-105152380D01*
X196714285Y-105200000D01*
X196761904Y-105247619D01*
X196809523Y-105342857D01*
X196857142Y-105533333D01*
X196857142Y-105771428D01*
X196809523Y-105961904D01*
X196761904Y-106057142D01*
X196714285Y-106104761D01*
X196619047Y-106152380D01*
X196523809Y-106152380D01*
X196428571Y-106104761D01*
X196380952Y-106057142D01*
X196333333Y-105961904D01*
X196285714Y-105771428D01*
X196285714Y-105533333D01*
X196333333Y-105342857D01*
X196380952Y-105247619D01*
X196428571Y-105200000D01*
X196523809Y-105152380D01*
X197714285Y-105485714D02*
X197714285Y-106152380D01*
X197285714Y-105485714D02*
X197285714Y-106009523D01*
X197333333Y-106104761D01*
X197428571Y-106152380D01*
X197571428Y-106152380D01*
X197666666Y-106104761D01*
X197714285Y-106057142D01*
X198523809Y-105628571D02*
X198190476Y-105628571D01*
X198190476Y-106152380D02*
X198190476Y-105152380D01*
X198666666Y-105152380D01*
X195357142Y-100857142D02*
X195309523Y-100904761D01*
X195166666Y-100952380D01*
X195071428Y-100952380D01*
X194928571Y-100904761D01*
X194833333Y-100809523D01*
X194785714Y-100714285D01*
X194738095Y-100523809D01*
X194738095Y-100380952D01*
X194785714Y-100190476D01*
X194833333Y-100095238D01*
X194928571Y-100000000D01*
X195071428Y-99952380D01*
X195166666Y-99952380D01*
X195309523Y-100000000D01*
X195357142Y-100047619D01*
X195738095Y-100047619D02*
X195785714Y-100000000D01*
X195880952Y-99952380D01*
X196119047Y-99952380D01*
X196214285Y-100000000D01*
X196261904Y-100047619D01*
X196309523Y-100142857D01*
X196309523Y-100238095D01*
X196261904Y-100380952D01*
X195690476Y-100952380D01*
X196309523Y-100952380D01*
X196928571Y-99952380D02*
X197023809Y-99952380D01*
X197119047Y-100000000D01*
X197166666Y-100047619D01*
X197214285Y-100142857D01*
X197261904Y-100333333D01*
X197261904Y-100571428D01*
X197214285Y-100761904D01*
X197166666Y-100857142D01*
X197119047Y-100904761D01*
X197023809Y-100952380D01*
X196928571Y-100952380D01*
X196833333Y-100904761D01*
X196785714Y-100857142D01*
X196738095Y-100761904D01*
X196690476Y-100571428D01*
X196690476Y-100333333D01*
X196738095Y-100142857D01*
X196785714Y-100047619D01*
X196833333Y-100000000D01*
X196928571Y-99952380D01*
X182857142Y-94238095D02*
X182904761Y-94285714D01*
X182952380Y-94428571D01*
X182952380Y-94523809D01*
X182904761Y-94666666D01*
X182809523Y-94761904D01*
X182714285Y-94809523D01*
X182523809Y-94857142D01*
X182380952Y-94857142D01*
X182190476Y-94809523D01*
X182095238Y-94761904D01*
X182000000Y-94666666D01*
X181952380Y-94523809D01*
X181952380Y-94428571D01*
X182000000Y-94285714D01*
X182047619Y-94238095D01*
X181952380Y-93619047D02*
X181952380Y-93523809D01*
X182000000Y-93428571D01*
X182047619Y-93380952D01*
X182142857Y-93333333D01*
X182333333Y-93285714D01*
X182571428Y-93285714D01*
X182761904Y-93333333D01*
X182857142Y-93380952D01*
X182904761Y-93428571D01*
X182952380Y-93523809D01*
X182952380Y-93619047D01*
X182904761Y-93714285D01*
X182857142Y-93761904D01*
X182761904Y-93809523D01*
X182571428Y-93857142D01*
X182333333Y-93857142D01*
X182142857Y-93809523D01*
X182047619Y-93761904D01*
X182000000Y-93714285D01*
X181952380Y-93619047D01*
X182857142Y-92857142D02*
X182904761Y-92809523D01*
X182952380Y-92857142D01*
X182904761Y-92904761D01*
X182857142Y-92857142D01*
X182952380Y-92857142D01*
X182285714Y-91952380D02*
X182952380Y-91952380D01*
X181904761Y-92190476D02*
X182619047Y-92428571D01*
X182619047Y-91809523D01*
X181952380Y-91523809D02*
X181952380Y-90857142D01*
X182952380Y-91285714D01*
X182285714Y-90047619D02*
X182952380Y-90047619D01*
X182285714Y-90476190D02*
X182809523Y-90476190D01*
X182904761Y-90428571D01*
X182952380Y-90333333D01*
X182952380Y-90190476D01*
X182904761Y-90095238D01*
X182857142Y-90047619D01*
X182428571Y-89238095D02*
X182428571Y-89571428D01*
X182952380Y-89571428D02*
X181952380Y-89571428D01*
X181952380Y-89095238D01*
D16*
X184178571Y-92321428D02*
X184202380Y-92345238D01*
X184226190Y-92416666D01*
X184226190Y-92464285D01*
X184202380Y-92535714D01*
X184154761Y-92583333D01*
X184107142Y-92607142D01*
X184011904Y-92630952D01*
X183940476Y-92630952D01*
X183845238Y-92607142D01*
X183797619Y-92583333D01*
X183750000Y-92535714D01*
X183726190Y-92464285D01*
X183726190Y-92416666D01*
X183750000Y-92345238D01*
X183773809Y-92321428D01*
X183773809Y-92130952D02*
X183750000Y-92107142D01*
X183726190Y-92059523D01*
X183726190Y-91940476D01*
X183750000Y-91892857D01*
X183773809Y-91869047D01*
X183821428Y-91845238D01*
X183869047Y-91845238D01*
X183940476Y-91869047D01*
X184226190Y-92154761D01*
X184226190Y-91845238D01*
X184226190Y-91369047D02*
X184226190Y-91654761D01*
X184226190Y-91511904D02*
X183726190Y-91511904D01*
X183797619Y-91559523D01*
X183845238Y-91607142D01*
X183869047Y-91654761D01*
D10*
X196500000Y-97037142D02*
X196452380Y-97084761D01*
X196309523Y-97132380D01*
X196214285Y-97132380D01*
X196071428Y-97084761D01*
X195976190Y-96989523D01*
X195928571Y-96894285D01*
X195880952Y-96703809D01*
X195880952Y-96560952D01*
X195928571Y-96370476D01*
X195976190Y-96275238D01*
X196071428Y-96180000D01*
X196214285Y-96132380D01*
X196309523Y-96132380D01*
X196452380Y-96180000D01*
X196500000Y-96227619D01*
X197452380Y-97132380D02*
X196880952Y-97132380D01*
X197166666Y-97132380D02*
X197166666Y-96132380D01*
X197071428Y-96275238D01*
X196976190Y-96370476D01*
X196880952Y-96418095D01*
X198071428Y-96132380D02*
X198166666Y-96132380D01*
X198261904Y-96180000D01*
X198309523Y-96227619D01*
X198357142Y-96322857D01*
X198404761Y-96513333D01*
X198404761Y-96751428D01*
X198357142Y-96941904D01*
X198309523Y-97037142D01*
X198261904Y-97084761D01*
X198166666Y-97132380D01*
X198071428Y-97132380D01*
X197976190Y-97084761D01*
X197928571Y-97037142D01*
X197880952Y-96941904D01*
X197833333Y-96751428D01*
X197833333Y-96513333D01*
X197880952Y-96322857D01*
X197928571Y-96227619D01*
X197976190Y-96180000D01*
X198071428Y-96132380D01*
X199023809Y-96132380D02*
X199119047Y-96132380D01*
X199214285Y-96180000D01*
X199261904Y-96227619D01*
X199309523Y-96322857D01*
X199357142Y-96513333D01*
X199357142Y-96751428D01*
X199309523Y-96941904D01*
X199261904Y-97037142D01*
X199214285Y-97084761D01*
X199119047Y-97132380D01*
X199023809Y-97132380D01*
X198928571Y-97084761D01*
X198880952Y-97037142D01*
X198833333Y-96941904D01*
X198785714Y-96751428D01*
X198785714Y-96513333D01*
X198833333Y-96322857D01*
X198880952Y-96227619D01*
X198928571Y-96180000D01*
X199023809Y-96132380D01*
X199785714Y-96465714D02*
X199785714Y-97132380D01*
X199785714Y-96560952D02*
X199833333Y-96513333D01*
X199928571Y-96465714D01*
X200071428Y-96465714D01*
X200166666Y-96513333D01*
X200214285Y-96608571D01*
X200214285Y-97132380D01*
X201023809Y-96608571D02*
X200690476Y-96608571D01*
X200690476Y-97132380D02*
X200690476Y-96132380D01*
X201166666Y-96132380D01*
D16*
X198178571Y-95178571D02*
X198154761Y-95202380D01*
X198083333Y-95226190D01*
X198035714Y-95226190D01*
X197964285Y-95202380D01*
X197916666Y-95154761D01*
X197892857Y-95107142D01*
X197869047Y-95011904D01*
X197869047Y-94940476D01*
X197892857Y-94845238D01*
X197916666Y-94797619D01*
X197964285Y-94750000D01*
X198035714Y-94726190D01*
X198083333Y-94726190D01*
X198154761Y-94750000D01*
X198178571Y-94773809D01*
X198369047Y-94773809D02*
X198392857Y-94750000D01*
X198440476Y-94726190D01*
X198559523Y-94726190D01*
X198607142Y-94750000D01*
X198630952Y-94773809D01*
X198654761Y-94821428D01*
X198654761Y-94869047D01*
X198630952Y-94940476D01*
X198345238Y-95226190D01*
X198654761Y-95226190D01*
X198845238Y-94773809D02*
X198869047Y-94750000D01*
X198916666Y-94726190D01*
X199035714Y-94726190D01*
X199083333Y-94750000D01*
X199107142Y-94773809D01*
X199130952Y-94821428D01*
X199130952Y-94869047D01*
X199107142Y-94940476D01*
X198821428Y-95226190D01*
X199130952Y-95226190D01*
D10*
X196500000Y-95037142D02*
X196452380Y-95084761D01*
X196309523Y-95132380D01*
X196214285Y-95132380D01*
X196071428Y-95084761D01*
X195976190Y-94989523D01*
X195928571Y-94894285D01*
X195880952Y-94703809D01*
X195880952Y-94560952D01*
X195928571Y-94370476D01*
X195976190Y-94275238D01*
X196071428Y-94180000D01*
X196214285Y-94132380D01*
X196309523Y-94132380D01*
X196452380Y-94180000D01*
X196500000Y-94227619D01*
X197452380Y-95132380D02*
X196880952Y-95132380D01*
X197166666Y-95132380D02*
X197166666Y-94132380D01*
X197071428Y-94275238D01*
X196976190Y-94370476D01*
X196880952Y-94418095D01*
X198071428Y-94132380D02*
X198166666Y-94132380D01*
X198261904Y-94180000D01*
X198309523Y-94227619D01*
X198357142Y-94322857D01*
X198404761Y-94513333D01*
X198404761Y-94751428D01*
X198357142Y-94941904D01*
X198309523Y-95037142D01*
X198261904Y-95084761D01*
X198166666Y-95132380D01*
X198071428Y-95132380D01*
X197976190Y-95084761D01*
X197928571Y-95037142D01*
X197880952Y-94941904D01*
X197833333Y-94751428D01*
X197833333Y-94513333D01*
X197880952Y-94322857D01*
X197928571Y-94227619D01*
X197976190Y-94180000D01*
X198071428Y-94132380D01*
X199023809Y-94132380D02*
X199119047Y-94132380D01*
X199214285Y-94180000D01*
X199261904Y-94227619D01*
X199309523Y-94322857D01*
X199357142Y-94513333D01*
X199357142Y-94751428D01*
X199309523Y-94941904D01*
X199261904Y-95037142D01*
X199214285Y-95084761D01*
X199119047Y-95132380D01*
X199023809Y-95132380D01*
X198928571Y-95084761D01*
X198880952Y-95037142D01*
X198833333Y-94941904D01*
X198785714Y-94751428D01*
X198785714Y-94513333D01*
X198833333Y-94322857D01*
X198880952Y-94227619D01*
X198928571Y-94180000D01*
X199023809Y-94132380D01*
X199785714Y-94465714D02*
X199785714Y-95132380D01*
X199785714Y-94560952D02*
X199833333Y-94513333D01*
X199928571Y-94465714D01*
X200071428Y-94465714D01*
X200166666Y-94513333D01*
X200214285Y-94608571D01*
X200214285Y-95132380D01*
X201023809Y-94608571D02*
X200690476Y-94608571D01*
X200690476Y-95132380D02*
X200690476Y-94132380D01*
X201166666Y-94132380D01*
D16*
X198178571Y-93178571D02*
X198154761Y-93202380D01*
X198083333Y-93226190D01*
X198035714Y-93226190D01*
X197964285Y-93202380D01*
X197916666Y-93154761D01*
X197892857Y-93107142D01*
X197869047Y-93011904D01*
X197869047Y-92940476D01*
X197892857Y-92845238D01*
X197916666Y-92797619D01*
X197964285Y-92750000D01*
X198035714Y-92726190D01*
X198083333Y-92726190D01*
X198154761Y-92750000D01*
X198178571Y-92773809D01*
X198369047Y-92773809D02*
X198392857Y-92750000D01*
X198440476Y-92726190D01*
X198559523Y-92726190D01*
X198607142Y-92750000D01*
X198630952Y-92773809D01*
X198654761Y-92821428D01*
X198654761Y-92869047D01*
X198630952Y-92940476D01*
X198345238Y-93226190D01*
X198654761Y-93226190D01*
X198821428Y-92726190D02*
X199130952Y-92726190D01*
X198964285Y-92916666D01*
X199035714Y-92916666D01*
X199083333Y-92940476D01*
X199107142Y-92964285D01*
X199130952Y-93011904D01*
X199130952Y-93130952D01*
X199107142Y-93178571D01*
X199083333Y-93202380D01*
X199035714Y-93226190D01*
X198892857Y-93226190D01*
X198845238Y-93202380D01*
X198821428Y-93178571D01*
D10*
X150452380Y-84142857D02*
X150452380Y-84619047D01*
X149452380Y-84619047D01*
X149928571Y-83809523D02*
X149928571Y-83476190D01*
X150452380Y-83333333D02*
X150452380Y-83809523D01*
X149452380Y-83809523D01*
X149452380Y-83333333D01*
X150452380Y-82904761D02*
X149452380Y-82904761D01*
X149452380Y-82666666D01*
X149500000Y-82523809D01*
X149595238Y-82428571D01*
X149690476Y-82380952D01*
X149880952Y-82333333D01*
X150023809Y-82333333D01*
X150214285Y-82380952D01*
X150309523Y-82428571D01*
X150404761Y-82523809D01*
X150452380Y-82666666D01*
X150452380Y-82904761D01*
D16*
X148226190Y-83869047D02*
X147726190Y-83869047D01*
X147726190Y-83750000D01*
X147750000Y-83678571D01*
X147797619Y-83630952D01*
X147845238Y-83607142D01*
X147940476Y-83583333D01*
X148011904Y-83583333D01*
X148107142Y-83607142D01*
X148154761Y-83630952D01*
X148202380Y-83678571D01*
X148226190Y-83750000D01*
X148226190Y-83869047D01*
X148226190Y-83107142D02*
X148226190Y-83392857D01*
X148226190Y-83250000D02*
X147726190Y-83250000D01*
X147797619Y-83297619D01*
X147845238Y-83345238D01*
X147869047Y-83392857D01*
D10*
X117214285Y-94407142D02*
X117166666Y-94454761D01*
X117023809Y-94502380D01*
X116928571Y-94502380D01*
X116785714Y-94454761D01*
X116690476Y-94359523D01*
X116642857Y-94264285D01*
X116595238Y-94073809D01*
X116595238Y-93930952D01*
X116642857Y-93740476D01*
X116690476Y-93645238D01*
X116785714Y-93550000D01*
X116928571Y-93502380D01*
X117023809Y-93502380D01*
X117166666Y-93550000D01*
X117214285Y-93597619D01*
X117785714Y-94502380D02*
X117690476Y-94454761D01*
X117642857Y-94407142D01*
X117595238Y-94311904D01*
X117595238Y-94026190D01*
X117642857Y-93930952D01*
X117690476Y-93883333D01*
X117785714Y-93835714D01*
X117928571Y-93835714D01*
X118023809Y-93883333D01*
X118071428Y-93930952D01*
X118119047Y-94026190D01*
X118119047Y-94311904D01*
X118071428Y-94407142D01*
X118023809Y-94454761D01*
X117928571Y-94502380D01*
X117785714Y-94502380D01*
X118547619Y-93835714D02*
X118547619Y-94502380D01*
X118547619Y-93930952D02*
X118595238Y-93883333D01*
X118690476Y-93835714D01*
X118833333Y-93835714D01*
X118928571Y-93883333D01*
X118976190Y-93978571D01*
X118976190Y-94502380D01*
X119452380Y-93835714D02*
X119452380Y-94502380D01*
X119452380Y-93930952D02*
X119500000Y-93883333D01*
X119595238Y-93835714D01*
X119738095Y-93835714D01*
X119833333Y-93883333D01*
X119880952Y-93978571D01*
X119880952Y-94502380D01*
X120119047Y-94597619D02*
X120880952Y-94597619D01*
X121309523Y-93502380D02*
X121404761Y-93502380D01*
X121500000Y-93550000D01*
X121547619Y-93597619D01*
X121595238Y-93692857D01*
X121642857Y-93883333D01*
X121642857Y-94121428D01*
X121595238Y-94311904D01*
X121547619Y-94407142D01*
X121500000Y-94454761D01*
X121404761Y-94502380D01*
X121309523Y-94502380D01*
X121214285Y-94454761D01*
X121166666Y-94407142D01*
X121119047Y-94311904D01*
X121071428Y-94121428D01*
X121071428Y-93883333D01*
X121119047Y-93692857D01*
X121166666Y-93597619D01*
X121214285Y-93550000D01*
X121309523Y-93502380D01*
X122595238Y-94502380D02*
X122023809Y-94502380D01*
X122309523Y-94502380D02*
X122309523Y-93502380D01*
X122214285Y-93645238D01*
X122119047Y-93740476D01*
X122023809Y-93788095D01*
X122928571Y-94502380D02*
X123452380Y-93835714D01*
X122928571Y-93835714D02*
X123452380Y-94502380D01*
X124023809Y-93502380D02*
X124119047Y-93502380D01*
X124214285Y-93550000D01*
X124261904Y-93597619D01*
X124309523Y-93692857D01*
X124357142Y-93883333D01*
X124357142Y-94121428D01*
X124309523Y-94311904D01*
X124261904Y-94407142D01*
X124214285Y-94454761D01*
X124119047Y-94502380D01*
X124023809Y-94502380D01*
X123928571Y-94454761D01*
X123880952Y-94407142D01*
X123833333Y-94311904D01*
X123785714Y-94121428D01*
X123785714Y-93883333D01*
X123833333Y-93692857D01*
X123880952Y-93597619D01*
X123928571Y-93550000D01*
X124023809Y-93502380D01*
X125214285Y-93835714D02*
X125214285Y-94502380D01*
X124976190Y-93454761D02*
X124738095Y-94169047D01*
X125357142Y-94169047D01*
X125500000Y-94597619D02*
X126261904Y-94597619D01*
X126833333Y-93978571D02*
X126500000Y-93978571D01*
X126500000Y-94502380D02*
X126500000Y-93502380D01*
X126976190Y-93502380D01*
X127738095Y-94454761D02*
X127642857Y-94502380D01*
X127452380Y-94502380D01*
X127357142Y-94454761D01*
X127309523Y-94359523D01*
X127309523Y-93978571D01*
X127357142Y-93883333D01*
X127452380Y-93835714D01*
X127642857Y-93835714D01*
X127738095Y-93883333D01*
X127785714Y-93978571D01*
X127785714Y-94073809D01*
X127309523Y-94169047D01*
X128214285Y-94502380D02*
X128214285Y-93835714D01*
X128214285Y-93930952D02*
X128261904Y-93883333D01*
X128357142Y-93835714D01*
X128500000Y-93835714D01*
X128595238Y-93883333D01*
X128642857Y-93978571D01*
X128642857Y-94502380D01*
X128642857Y-93978571D02*
X128690476Y-93883333D01*
X128785714Y-93835714D01*
X128928571Y-93835714D01*
X129023809Y-93883333D01*
X129071428Y-93978571D01*
X129071428Y-94502380D01*
X129976190Y-94502380D02*
X129976190Y-93978571D01*
X129928571Y-93883333D01*
X129833333Y-93835714D01*
X129642857Y-93835714D01*
X129547619Y-93883333D01*
X129976190Y-94454761D02*
X129880952Y-94502380D01*
X129642857Y-94502380D01*
X129547619Y-94454761D01*
X129500000Y-94359523D01*
X129500000Y-94264285D01*
X129547619Y-94169047D01*
X129642857Y-94121428D01*
X129880952Y-94121428D01*
X129976190Y-94073809D01*
X130595238Y-94502380D02*
X130500000Y-94454761D01*
X130452380Y-94359523D01*
X130452380Y-93502380D01*
X131357142Y-94454761D02*
X131261904Y-94502380D01*
X131071428Y-94502380D01*
X130976190Y-94454761D01*
X130928571Y-94359523D01*
X130928571Y-93978571D01*
X130976190Y-93883333D01*
X131071428Y-93835714D01*
X131261904Y-93835714D01*
X131357142Y-93883333D01*
X131404761Y-93978571D01*
X131404761Y-94073809D01*
X130928571Y-94169047D01*
X123452380Y-100523333D02*
X124166666Y-100523333D01*
X124309523Y-100570952D01*
X124404761Y-100666190D01*
X124452380Y-100809047D01*
X124452380Y-100904285D01*
X123452380Y-100142380D02*
X123452380Y-99523333D01*
X123833333Y-99856666D01*
X123833333Y-99713809D01*
X123880952Y-99618571D01*
X123928571Y-99570952D01*
X124023809Y-99523333D01*
X124261904Y-99523333D01*
X124357142Y-99570952D01*
X124404761Y-99618571D01*
X124452380Y-99713809D01*
X124452380Y-99999523D01*
X124404761Y-100094761D01*
X124357142Y-100142380D01*
X172904761Y-90004761D02*
X173047619Y-90052380D01*
X173285714Y-90052380D01*
X173380952Y-90004761D01*
X173428571Y-89957142D01*
X173476190Y-89861904D01*
X173476190Y-89766666D01*
X173428571Y-89671428D01*
X173380952Y-89623809D01*
X173285714Y-89576190D01*
X173095238Y-89528571D01*
X173000000Y-89480952D01*
X172952380Y-89433333D01*
X172904761Y-89338095D01*
X172904761Y-89242857D01*
X172952380Y-89147619D01*
X173000000Y-89100000D01*
X173095238Y-89052380D01*
X173333333Y-89052380D01*
X173476190Y-89100000D01*
X173761904Y-89385714D02*
X174142857Y-89385714D01*
X173904761Y-89052380D02*
X173904761Y-89909523D01*
X173952380Y-90004761D01*
X174047619Y-90052380D01*
X174142857Y-90052380D01*
X174857142Y-90004761D02*
X174761904Y-90052380D01*
X174571428Y-90052380D01*
X174476190Y-90004761D01*
X174428571Y-89909523D01*
X174428571Y-89528571D01*
X174476190Y-89433333D01*
X174571428Y-89385714D01*
X174761904Y-89385714D01*
X174857142Y-89433333D01*
X174904761Y-89528571D01*
X174904761Y-89623809D01*
X174428571Y-89719047D01*
X175333333Y-89385714D02*
X175333333Y-90385714D01*
X175333333Y-89433333D02*
X175428571Y-89385714D01*
X175619047Y-89385714D01*
X175714285Y-89433333D01*
X175761904Y-89480952D01*
X175809523Y-89576190D01*
X175809523Y-89861904D01*
X175761904Y-89957142D01*
X175714285Y-90004761D01*
X175619047Y-90052380D01*
X175428571Y-90052380D01*
X175333333Y-90004761D01*
X176238095Y-89385714D02*
X176238095Y-90385714D01*
X176238095Y-89433333D02*
X176333333Y-89385714D01*
X176523809Y-89385714D01*
X176619047Y-89433333D01*
X176666666Y-89480952D01*
X176714285Y-89576190D01*
X176714285Y-89861904D01*
X176666666Y-89957142D01*
X176619047Y-90004761D01*
X176523809Y-90052380D01*
X176333333Y-90052380D01*
X176238095Y-90004761D01*
X177523809Y-90004761D02*
X177428571Y-90052380D01*
X177238095Y-90052380D01*
X177142857Y-90004761D01*
X177095238Y-89909523D01*
X177095238Y-89528571D01*
X177142857Y-89433333D01*
X177238095Y-89385714D01*
X177428571Y-89385714D01*
X177523809Y-89433333D01*
X177571428Y-89528571D01*
X177571428Y-89623809D01*
X177095238Y-89719047D01*
X178000000Y-90052380D02*
X178000000Y-89385714D01*
X178000000Y-89576190D02*
X178047619Y-89480952D01*
X178095238Y-89433333D01*
X178190476Y-89385714D01*
X178285714Y-89385714D01*
X178380952Y-90147619D02*
X179142857Y-90147619D01*
X179380952Y-90052380D02*
X179380952Y-89052380D01*
X179714285Y-89766666D01*
X180047619Y-89052380D01*
X180047619Y-90052380D01*
X180666666Y-90052380D02*
X180571428Y-90004761D01*
X180523809Y-89957142D01*
X180476190Y-89861904D01*
X180476190Y-89576190D01*
X180523809Y-89480952D01*
X180571428Y-89433333D01*
X180666666Y-89385714D01*
X180809523Y-89385714D01*
X180904761Y-89433333D01*
X180952380Y-89480952D01*
X181000000Y-89576190D01*
X181000000Y-89861904D01*
X180952380Y-89957142D01*
X180904761Y-90004761D01*
X180809523Y-90052380D01*
X180666666Y-90052380D01*
X181285714Y-89385714D02*
X181666666Y-89385714D01*
X181428571Y-89052380D02*
X181428571Y-89909523D01*
X181476190Y-90004761D01*
X181571428Y-90052380D01*
X181666666Y-90052380D01*
X182142857Y-90052380D02*
X182047619Y-90004761D01*
X182000000Y-89957142D01*
X181952380Y-89861904D01*
X181952380Y-89576190D01*
X182000000Y-89480952D01*
X182047619Y-89433333D01*
X182142857Y-89385714D01*
X182285714Y-89385714D01*
X182380952Y-89433333D01*
X182428571Y-89480952D01*
X182476190Y-89576190D01*
X182476190Y-89861904D01*
X182428571Y-89957142D01*
X182380952Y-90004761D01*
X182285714Y-90052380D01*
X182142857Y-90052380D01*
X182904761Y-90052380D02*
X182904761Y-89385714D01*
X182904761Y-89576190D02*
X182952380Y-89480952D01*
X183000000Y-89433333D01*
X183095238Y-89385714D01*
X183190476Y-89385714D01*
X183285714Y-90147619D02*
X184047619Y-90147619D01*
X184285714Y-90052380D02*
X184285714Y-89052380D01*
X184285714Y-89433333D02*
X184380952Y-89385714D01*
X184571428Y-89385714D01*
X184666666Y-89433333D01*
X184714285Y-89480952D01*
X184761904Y-89576190D01*
X184761904Y-89861904D01*
X184714285Y-89957142D01*
X184666666Y-90004761D01*
X184571428Y-90052380D01*
X184380952Y-90052380D01*
X184285714Y-90004761D01*
X185190476Y-90052380D02*
X185190476Y-89385714D01*
X185190476Y-89052380D02*
X185142857Y-89100000D01*
X185190476Y-89147619D01*
X185238095Y-89100000D01*
X185190476Y-89052380D01*
X185190476Y-89147619D01*
X185666666Y-89385714D02*
X185666666Y-90385714D01*
X185666666Y-89433333D02*
X185761904Y-89385714D01*
X185952380Y-89385714D01*
X186047619Y-89433333D01*
X186095238Y-89480952D01*
X186142857Y-89576190D01*
X186142857Y-89861904D01*
X186095238Y-89957142D01*
X186047619Y-90004761D01*
X185952380Y-90052380D01*
X185761904Y-90052380D01*
X185666666Y-90004761D01*
X186714285Y-90052380D02*
X186619047Y-90004761D01*
X186571428Y-89957142D01*
X186523809Y-89861904D01*
X186523809Y-89576190D01*
X186571428Y-89480952D01*
X186619047Y-89433333D01*
X186714285Y-89385714D01*
X186857142Y-89385714D01*
X186952380Y-89433333D01*
X187000000Y-89480952D01*
X187047619Y-89576190D01*
X187047619Y-89861904D01*
X187000000Y-89957142D01*
X186952380Y-90004761D01*
X186857142Y-90052380D01*
X186714285Y-90052380D01*
X187619047Y-90052380D02*
X187523809Y-90004761D01*
X187476190Y-89909523D01*
X187476190Y-89052380D01*
X188428571Y-90052380D02*
X188428571Y-89528571D01*
X188380952Y-89433333D01*
X188285714Y-89385714D01*
X188095238Y-89385714D01*
X188000000Y-89433333D01*
X188428571Y-90004761D02*
X188333333Y-90052380D01*
X188095238Y-90052380D01*
X188000000Y-90004761D01*
X187952380Y-89909523D01*
X187952380Y-89814285D01*
X188000000Y-89719047D01*
X188095238Y-89671428D01*
X188333333Y-89671428D01*
X188428571Y-89623809D01*
X188904761Y-90052380D02*
X188904761Y-89385714D01*
X188904761Y-89576190D02*
X188952380Y-89480952D01*
X189000000Y-89433333D01*
X189095238Y-89385714D01*
X189190476Y-89385714D01*
X181452380Y-86809523D02*
X180452380Y-86809523D01*
X181166666Y-86476190D01*
X180452380Y-86142857D01*
X181452380Y-86142857D01*
X181452380Y-85142857D02*
X181452380Y-85714285D01*
X181452380Y-85428571D02*
X180452380Y-85428571D01*
X180595238Y-85523809D01*
X180690476Y-85619047D01*
X180738095Y-85714285D01*
X166602380Y-93571428D02*
X166126190Y-93904761D01*
X166602380Y-94142857D02*
X165602380Y-94142857D01*
X165602380Y-93761904D01*
X165650000Y-93666666D01*
X165697619Y-93619047D01*
X165792857Y-93571428D01*
X165935714Y-93571428D01*
X166030952Y-93619047D01*
X166078571Y-93666666D01*
X166126190Y-93761904D01*
X166126190Y-94142857D01*
X165602380Y-92666666D02*
X165602380Y-93142857D01*
X166078571Y-93190476D01*
X166030952Y-93142857D01*
X165983333Y-93047619D01*
X165983333Y-92809523D01*
X166030952Y-92714285D01*
X166078571Y-92666666D01*
X166173809Y-92619047D01*
X166411904Y-92619047D01*
X166507142Y-92666666D01*
X166554761Y-92714285D01*
X166602380Y-92809523D01*
X166602380Y-93047619D01*
X166554761Y-93142857D01*
X166507142Y-93190476D01*
X166602380Y-92190476D02*
X165602380Y-92190476D01*
X166221428Y-92095238D02*
X166602380Y-91809523D01*
X165935714Y-91809523D02*
X166316666Y-92190476D01*
D16*
X164726190Y-93083333D02*
X164488095Y-93250000D01*
X164726190Y-93369047D02*
X164226190Y-93369047D01*
X164226190Y-93178571D01*
X164250000Y-93130952D01*
X164273809Y-93107142D01*
X164321428Y-93083333D01*
X164392857Y-93083333D01*
X164440476Y-93107142D01*
X164464285Y-93130952D01*
X164488095Y-93178571D01*
X164488095Y-93369047D01*
X164726190Y-92607142D02*
X164726190Y-92892857D01*
X164726190Y-92750000D02*
X164226190Y-92750000D01*
X164297619Y-92797619D01*
X164345238Y-92845238D01*
X164369047Y-92892857D01*
D10*
X150452380Y-90602380D02*
X150119047Y-90126190D01*
X149880952Y-90602380D02*
X149880952Y-89602380D01*
X150261904Y-89602380D01*
X150357142Y-89650000D01*
X150404761Y-89697619D01*
X150452380Y-89792857D01*
X150452380Y-89935714D01*
X150404761Y-90030952D01*
X150357142Y-90078571D01*
X150261904Y-90126190D01*
X149880952Y-90126190D01*
X151404761Y-90602380D02*
X150833333Y-90602380D01*
X151119047Y-90602380D02*
X151119047Y-89602380D01*
X151023809Y-89745238D01*
X150928571Y-89840476D01*
X150833333Y-89888095D01*
X152023809Y-89602380D02*
X152119047Y-89602380D01*
X152214285Y-89650000D01*
X152261904Y-89697619D01*
X152309523Y-89792857D01*
X152357142Y-89983333D01*
X152357142Y-90221428D01*
X152309523Y-90411904D01*
X152261904Y-90507142D01*
X152214285Y-90554761D01*
X152119047Y-90602380D01*
X152023809Y-90602380D01*
X151928571Y-90554761D01*
X151880952Y-90507142D01*
X151833333Y-90411904D01*
X151785714Y-90221428D01*
X151785714Y-89983333D01*
X151833333Y-89792857D01*
X151880952Y-89697619D01*
X151928571Y-89650000D01*
X152023809Y-89602380D01*
X152785714Y-90602380D02*
X152785714Y-89602380D01*
X152880952Y-90221428D02*
X153166666Y-90602380D01*
X153166666Y-89935714D02*
X152785714Y-90316666D01*
D16*
X151416666Y-88726190D02*
X151250000Y-88488095D01*
X151130952Y-88726190D02*
X151130952Y-88226190D01*
X151321428Y-88226190D01*
X151369047Y-88250000D01*
X151392857Y-88273809D01*
X151416666Y-88321428D01*
X151416666Y-88392857D01*
X151392857Y-88440476D01*
X151369047Y-88464285D01*
X151321428Y-88488095D01*
X151130952Y-88488095D01*
X151583333Y-88226190D02*
X151892857Y-88226190D01*
X151726190Y-88416666D01*
X151797619Y-88416666D01*
X151845238Y-88440476D01*
X151869047Y-88464285D01*
X151892857Y-88511904D01*
X151892857Y-88630952D01*
X151869047Y-88678571D01*
X151845238Y-88702380D01*
X151797619Y-88726190D01*
X151654761Y-88726190D01*
X151607142Y-88702380D01*
X151583333Y-88678571D01*
D10*
X140882380Y-108071428D02*
X140406190Y-108404761D01*
X140882380Y-108642857D02*
X139882380Y-108642857D01*
X139882380Y-108261904D01*
X139930000Y-108166666D01*
X139977619Y-108119047D01*
X140072857Y-108071428D01*
X140215714Y-108071428D01*
X140310952Y-108119047D01*
X140358571Y-108166666D01*
X140406190Y-108261904D01*
X140406190Y-108642857D01*
X140882380Y-107119047D02*
X140882380Y-107690476D01*
X140882380Y-107404761D02*
X139882380Y-107404761D01*
X140025238Y-107500000D01*
X140120476Y-107595238D01*
X140168095Y-107690476D01*
X140882380Y-106690476D02*
X139882380Y-106690476D01*
X140501428Y-106595238D02*
X140882380Y-106309523D01*
X140215714Y-106309523D02*
X140596666Y-106690476D01*
D18*
X139180952Y-107566666D02*
X138990476Y-107700000D01*
X139180952Y-107795238D02*
X138780952Y-107795238D01*
X138780952Y-107642857D01*
X138800000Y-107604761D01*
X138819047Y-107585714D01*
X138857142Y-107566666D01*
X138914285Y-107566666D01*
X138952380Y-107585714D01*
X138971428Y-107604761D01*
X138990476Y-107642857D01*
X138990476Y-107795238D01*
X138914285Y-107223809D02*
X139180952Y-107223809D01*
X138761904Y-107319047D02*
X139047619Y-107414285D01*
X139047619Y-107166666D01*
D10*
X151880952Y-101522380D02*
X151547619Y-101046190D01*
X151309523Y-101522380D02*
X151309523Y-100522380D01*
X151690476Y-100522380D01*
X151785714Y-100570000D01*
X151833333Y-100617619D01*
X151880952Y-100712857D01*
X151880952Y-100855714D01*
X151833333Y-100950952D01*
X151785714Y-100998571D01*
X151690476Y-101046190D01*
X151309523Y-101046190D01*
X152214285Y-100522380D02*
X152833333Y-100522380D01*
X152500000Y-100903333D01*
X152642857Y-100903333D01*
X152738095Y-100950952D01*
X152785714Y-100998571D01*
X152833333Y-101093809D01*
X152833333Y-101331904D01*
X152785714Y-101427142D01*
X152738095Y-101474761D01*
X152642857Y-101522380D01*
X152357142Y-101522380D01*
X152261904Y-101474761D01*
X152214285Y-101427142D01*
X153166666Y-100522380D02*
X153785714Y-100522380D01*
X153452380Y-100903333D01*
X153595238Y-100903333D01*
X153690476Y-100950952D01*
X153738095Y-100998571D01*
X153785714Y-101093809D01*
X153785714Y-101331904D01*
X153738095Y-101427142D01*
X153690476Y-101474761D01*
X153595238Y-101522380D01*
X153309523Y-101522380D01*
X153214285Y-101474761D01*
X153166666Y-101427142D01*
X154404761Y-100522380D02*
X154500000Y-100522380D01*
X154595238Y-100570000D01*
X154642857Y-100617619D01*
X154690476Y-100712857D01*
X154738095Y-100903333D01*
X154738095Y-101141428D01*
X154690476Y-101331904D01*
X154642857Y-101427142D01*
X154595238Y-101474761D01*
X154500000Y-101522380D01*
X154404761Y-101522380D01*
X154309523Y-101474761D01*
X154261904Y-101427142D01*
X154214285Y-101331904D01*
X154166666Y-101141428D01*
X154166666Y-100903333D01*
X154214285Y-100712857D01*
X154261904Y-100617619D01*
X154309523Y-100570000D01*
X154404761Y-100522380D01*
D18*
X153068334Y-102445953D02*
X152935001Y-102255477D01*
X152839762Y-102445953D02*
X152839762Y-102045953D01*
X152992143Y-102045953D01*
X153030239Y-102065001D01*
X153049286Y-102084048D01*
X153068334Y-102122143D01*
X153068334Y-102179286D01*
X153049286Y-102217381D01*
X153030239Y-102236429D01*
X152992143Y-102255477D01*
X152839762Y-102255477D01*
X153430239Y-102045953D02*
X153239762Y-102045953D01*
X153220715Y-102236429D01*
X153239762Y-102217381D01*
X153277858Y-102198334D01*
X153373096Y-102198334D01*
X153411191Y-102217381D01*
X153430239Y-102236429D01*
X153449286Y-102274524D01*
X153449286Y-102369762D01*
X153430239Y-102407858D01*
X153411191Y-102426905D01*
X153373096Y-102445953D01*
X153277858Y-102445953D01*
X153239762Y-102426905D01*
X153220715Y-102407858D01*
D10*
X151880952Y-99522380D02*
X151547619Y-99046190D01*
X151309523Y-99522380D02*
X151309523Y-98522380D01*
X151690476Y-98522380D01*
X151785714Y-98570000D01*
X151833333Y-98617619D01*
X151880952Y-98712857D01*
X151880952Y-98855714D01*
X151833333Y-98950952D01*
X151785714Y-98998571D01*
X151690476Y-99046190D01*
X151309523Y-99046190D01*
X152214285Y-98522380D02*
X152833333Y-98522380D01*
X152500000Y-98903333D01*
X152642857Y-98903333D01*
X152738095Y-98950952D01*
X152785714Y-98998571D01*
X152833333Y-99093809D01*
X152833333Y-99331904D01*
X152785714Y-99427142D01*
X152738095Y-99474761D01*
X152642857Y-99522380D01*
X152357142Y-99522380D01*
X152261904Y-99474761D01*
X152214285Y-99427142D01*
X153166666Y-98522380D02*
X153785714Y-98522380D01*
X153452380Y-98903333D01*
X153595238Y-98903333D01*
X153690476Y-98950952D01*
X153738095Y-98998571D01*
X153785714Y-99093809D01*
X153785714Y-99331904D01*
X153738095Y-99427142D01*
X153690476Y-99474761D01*
X153595238Y-99522380D01*
X153309523Y-99522380D01*
X153214285Y-99474761D01*
X153166666Y-99427142D01*
X154404761Y-98522380D02*
X154500000Y-98522380D01*
X154595238Y-98570000D01*
X154642857Y-98617619D01*
X154690476Y-98712857D01*
X154738095Y-98903333D01*
X154738095Y-99141428D01*
X154690476Y-99331904D01*
X154642857Y-99427142D01*
X154595238Y-99474761D01*
X154500000Y-99522380D01*
X154404761Y-99522380D01*
X154309523Y-99474761D01*
X154261904Y-99427142D01*
X154214285Y-99331904D01*
X154166666Y-99141428D01*
X154166666Y-98903333D01*
X154214285Y-98712857D01*
X154261904Y-98617619D01*
X154309523Y-98570000D01*
X154404761Y-98522380D01*
D18*
X152933333Y-100680952D02*
X152800000Y-100490476D01*
X152704761Y-100680952D02*
X152704761Y-100280952D01*
X152857142Y-100280952D01*
X152895238Y-100300000D01*
X152914285Y-100319047D01*
X152933333Y-100357142D01*
X152933333Y-100414285D01*
X152914285Y-100452380D01*
X152895238Y-100471428D01*
X152857142Y-100490476D01*
X152704761Y-100490476D01*
X153276190Y-100280952D02*
X153200000Y-100280952D01*
X153161904Y-100300000D01*
X153142857Y-100319047D01*
X153104761Y-100376190D01*
X153085714Y-100452380D01*
X153085714Y-100604761D01*
X153104761Y-100642857D01*
X153123809Y-100661904D01*
X153161904Y-100680952D01*
X153238095Y-100680952D01*
X153276190Y-100661904D01*
X153295238Y-100642857D01*
X153314285Y-100604761D01*
X153314285Y-100509523D01*
X153295238Y-100471428D01*
X153276190Y-100452380D01*
X153238095Y-100433333D01*
X153161904Y-100433333D01*
X153123809Y-100452380D01*
X153104761Y-100471428D01*
X153085714Y-100509523D01*
D10*
X138522380Y-94071428D02*
X138046190Y-94404761D01*
X138522380Y-94642857D02*
X137522380Y-94642857D01*
X137522380Y-94261904D01*
X137570000Y-94166666D01*
X137617619Y-94119047D01*
X137712857Y-94071428D01*
X137855714Y-94071428D01*
X137950952Y-94119047D01*
X137998571Y-94166666D01*
X138046190Y-94261904D01*
X138046190Y-94642857D01*
X138522380Y-93119047D02*
X138522380Y-93690476D01*
X138522380Y-93404761D02*
X137522380Y-93404761D01*
X137665238Y-93500000D01*
X137760476Y-93595238D01*
X137808095Y-93690476D01*
X138522380Y-92690476D02*
X137522380Y-92690476D01*
X138141428Y-92595238D02*
X138522380Y-92309523D01*
X137855714Y-92309523D02*
X138236666Y-92690476D01*
D18*
X139680952Y-93566666D02*
X139490476Y-93700000D01*
X139680952Y-93795238D02*
X139280952Y-93795238D01*
X139280952Y-93642857D01*
X139300000Y-93604761D01*
X139319047Y-93585714D01*
X139357142Y-93566666D01*
X139414285Y-93566666D01*
X139452380Y-93585714D01*
X139471428Y-93604761D01*
X139490476Y-93642857D01*
X139490476Y-93795238D01*
X139280952Y-93433333D02*
X139280952Y-93166666D01*
X139680952Y-93338095D01*
D10*
X137022380Y-94071428D02*
X136546190Y-94404761D01*
X137022380Y-94642857D02*
X136022380Y-94642857D01*
X136022380Y-94261904D01*
X136070000Y-94166666D01*
X136117619Y-94119047D01*
X136212857Y-94071428D01*
X136355714Y-94071428D01*
X136450952Y-94119047D01*
X136498571Y-94166666D01*
X136546190Y-94261904D01*
X136546190Y-94642857D01*
X137022380Y-93119047D02*
X137022380Y-93690476D01*
X137022380Y-93404761D02*
X136022380Y-93404761D01*
X136165238Y-93500000D01*
X136260476Y-93595238D01*
X136308095Y-93690476D01*
X137022380Y-92690476D02*
X136022380Y-92690476D01*
X136641428Y-92595238D02*
X137022380Y-92309523D01*
X136355714Y-92309523D02*
X136736666Y-92690476D01*
D18*
X138180952Y-93566666D02*
X137990476Y-93700000D01*
X138180952Y-93795238D02*
X137780952Y-93795238D01*
X137780952Y-93642857D01*
X137800000Y-93604761D01*
X137819047Y-93585714D01*
X137857142Y-93566666D01*
X137914285Y-93566666D01*
X137952380Y-93585714D01*
X137971428Y-93604761D01*
X137990476Y-93642857D01*
X137990476Y-93795238D01*
X137952380Y-93338095D02*
X137933333Y-93376190D01*
X137914285Y-93395238D01*
X137876190Y-93414285D01*
X137857142Y-93414285D01*
X137819047Y-93395238D01*
X137800000Y-93376190D01*
X137780952Y-93338095D01*
X137780952Y-93261904D01*
X137800000Y-93223809D01*
X137819047Y-93204761D01*
X137857142Y-93185714D01*
X137876190Y-93185714D01*
X137914285Y-93204761D01*
X137933333Y-93223809D01*
X137952380Y-93261904D01*
X137952380Y-93338095D01*
X137971428Y-93376190D01*
X137990476Y-93395238D01*
X138028571Y-93414285D01*
X138104761Y-93414285D01*
X138142857Y-93395238D01*
X138161904Y-93376190D01*
X138180952Y-93338095D01*
X138180952Y-93261904D01*
X138161904Y-93223809D01*
X138142857Y-93204761D01*
X138104761Y-93185714D01*
X138028571Y-93185714D01*
X137990476Y-93204761D01*
X137971428Y-93223809D01*
X137952380Y-93261904D01*
D10*
X136977619Y-106928571D02*
X137453809Y-106595238D01*
X136977619Y-106357142D02*
X137977619Y-106357142D01*
X137977619Y-106738095D01*
X137930000Y-106833333D01*
X137882380Y-106880952D01*
X137787142Y-106928571D01*
X137644285Y-106928571D01*
X137549047Y-106880952D01*
X137501428Y-106833333D01*
X137453809Y-106738095D01*
X137453809Y-106357142D01*
X136977619Y-107880952D02*
X136977619Y-107309523D01*
X136977619Y-107595238D02*
X137977619Y-107595238D01*
X137834761Y-107500000D01*
X137739523Y-107404761D01*
X137691904Y-107309523D01*
X136977619Y-108309523D02*
X137977619Y-108309523D01*
X137358571Y-108404761D02*
X136977619Y-108690476D01*
X137644285Y-108690476D02*
X137263333Y-108309523D01*
D18*
X135819047Y-107433333D02*
X136009523Y-107300000D01*
X135819047Y-107204761D02*
X136219047Y-107204761D01*
X136219047Y-107357142D01*
X136200000Y-107395238D01*
X136180952Y-107414285D01*
X136142857Y-107433333D01*
X136085714Y-107433333D01*
X136047619Y-107414285D01*
X136028571Y-107395238D01*
X136009523Y-107357142D01*
X136009523Y-107204761D01*
X135819047Y-107623809D02*
X135819047Y-107700000D01*
X135838095Y-107738095D01*
X135857142Y-107757142D01*
X135914285Y-107795238D01*
X135990476Y-107814285D01*
X136142857Y-107814285D01*
X136180952Y-107795238D01*
X136200000Y-107776190D01*
X136219047Y-107738095D01*
X136219047Y-107661904D01*
X136200000Y-107623809D01*
X136180952Y-107604761D01*
X136142857Y-107585714D01*
X136047619Y-107585714D01*
X136009523Y-107604761D01*
X135990476Y-107623809D01*
X135971428Y-107661904D01*
X135971428Y-107738095D01*
X135990476Y-107776190D01*
X136009523Y-107795238D01*
X136047619Y-107814285D01*
D10*
X139382380Y-108071428D02*
X138906190Y-108404761D01*
X139382380Y-108642857D02*
X138382380Y-108642857D01*
X138382380Y-108261904D01*
X138430000Y-108166666D01*
X138477619Y-108119047D01*
X138572857Y-108071428D01*
X138715714Y-108071428D01*
X138810952Y-108119047D01*
X138858571Y-108166666D01*
X138906190Y-108261904D01*
X138906190Y-108642857D01*
X139382380Y-107119047D02*
X139382380Y-107690476D01*
X139382380Y-107404761D02*
X138382380Y-107404761D01*
X138525238Y-107500000D01*
X138620476Y-107595238D01*
X138668095Y-107690476D01*
X139382380Y-106690476D02*
X138382380Y-106690476D01*
X139001428Y-106595238D02*
X139382380Y-106309523D01*
X138715714Y-106309523D02*
X139096666Y-106690476D01*
D18*
X137680952Y-107757142D02*
X137490476Y-107890476D01*
X137680952Y-107985714D02*
X137280952Y-107985714D01*
X137280952Y-107833333D01*
X137300000Y-107795238D01*
X137319047Y-107776190D01*
X137357142Y-107757142D01*
X137414285Y-107757142D01*
X137452380Y-107776190D01*
X137471428Y-107795238D01*
X137490476Y-107833333D01*
X137490476Y-107985714D01*
X137680952Y-107376190D02*
X137680952Y-107604761D01*
X137680952Y-107490476D02*
X137280952Y-107490476D01*
X137338095Y-107528571D01*
X137376190Y-107566666D01*
X137395238Y-107604761D01*
X137280952Y-107128571D02*
X137280952Y-107090476D01*
X137300000Y-107052380D01*
X137319047Y-107033333D01*
X137357142Y-107014285D01*
X137433333Y-106995238D01*
X137528571Y-106995238D01*
X137604761Y-107014285D01*
X137642857Y-107033333D01*
X137661904Y-107052380D01*
X137680952Y-107090476D01*
X137680952Y-107128571D01*
X137661904Y-107166666D01*
X137642857Y-107185714D01*
X137604761Y-107204761D01*
X137528571Y-107223809D01*
X137433333Y-107223809D01*
X137357142Y-107204761D01*
X137319047Y-107185714D01*
X137300000Y-107166666D01*
X137280952Y-107128571D01*
D10*
X193272380Y-86904761D02*
X192796190Y-87238095D01*
X193272380Y-87476190D02*
X192272380Y-87476190D01*
X192272380Y-87095238D01*
X192320000Y-87000000D01*
X192367619Y-86952380D01*
X192462857Y-86904761D01*
X192605714Y-86904761D01*
X192700952Y-86952380D01*
X192748571Y-87000000D01*
X192796190Y-87095238D01*
X192796190Y-87476190D01*
X192367619Y-86523809D02*
X192320000Y-86476190D01*
X192272380Y-86380952D01*
X192272380Y-86142857D01*
X192320000Y-86047619D01*
X192367619Y-86000000D01*
X192462857Y-85952380D01*
X192558095Y-85952380D01*
X192700952Y-86000000D01*
X193272380Y-86571428D01*
X193272380Y-85952380D01*
X192272380Y-85333333D02*
X192272380Y-85238095D01*
X192320000Y-85142857D01*
X192367619Y-85095238D01*
X192462857Y-85047619D01*
X192653333Y-85000000D01*
X192891428Y-85000000D01*
X193081904Y-85047619D01*
X193177142Y-85095238D01*
X193224761Y-85142857D01*
X193272380Y-85238095D01*
X193272380Y-85333333D01*
X193224761Y-85428571D01*
X193177142Y-85476190D01*
X193081904Y-85523809D01*
X192891428Y-85571428D01*
X192653333Y-85571428D01*
X192462857Y-85523809D01*
X192367619Y-85476190D01*
X192320000Y-85428571D01*
X192272380Y-85333333D01*
X192272380Y-84380952D02*
X192272380Y-84285714D01*
X192320000Y-84190476D01*
X192367619Y-84142857D01*
X192462857Y-84095238D01*
X192653333Y-84047619D01*
X192891428Y-84047619D01*
X193081904Y-84095238D01*
X193177142Y-84142857D01*
X193224761Y-84190476D01*
X193272380Y-84285714D01*
X193272380Y-84380952D01*
X193224761Y-84476190D01*
X193177142Y-84523809D01*
X193081904Y-84571428D01*
X192891428Y-84619047D01*
X192653333Y-84619047D01*
X192462857Y-84571428D01*
X192367619Y-84523809D01*
X192320000Y-84476190D01*
X192272380Y-84380952D01*
X193272380Y-83619047D02*
X192605714Y-83619047D01*
X192700952Y-83619047D02*
X192653333Y-83571428D01*
X192605714Y-83476190D01*
X192605714Y-83333333D01*
X192653333Y-83238095D01*
X192748571Y-83190476D01*
X193272380Y-83190476D01*
X192748571Y-83190476D02*
X192653333Y-83142857D01*
X192605714Y-83047619D01*
X192605714Y-82904761D01*
X192653333Y-82809523D01*
X192748571Y-82761904D01*
X193272380Y-82761904D01*
X192272380Y-82095238D02*
X192272380Y-81904761D01*
X192320000Y-81809523D01*
X192415238Y-81714285D01*
X192605714Y-81666666D01*
X192939047Y-81666666D01*
X193129523Y-81714285D01*
X193224761Y-81809523D01*
X193272380Y-81904761D01*
X193272380Y-82095238D01*
X193224761Y-82190476D01*
X193129523Y-82285714D01*
X192939047Y-82333333D01*
X192605714Y-82333333D01*
X192415238Y-82285714D01*
X192320000Y-82190476D01*
X192272380Y-82095238D01*
X193272380Y-81238095D02*
X192272380Y-81238095D01*
X192748571Y-81238095D02*
X192748571Y-80666666D01*
X193272380Y-80666666D02*
X192272380Y-80666666D01*
X193272380Y-80190476D02*
X192272380Y-80190476D01*
X192986666Y-79857142D01*
X192272380Y-79523809D01*
X193272380Y-79523809D01*
D15*
X191361904Y-84014285D02*
X190980952Y-84280952D01*
X191361904Y-84471428D02*
X190561904Y-84471428D01*
X190561904Y-84166666D01*
X190600000Y-84090476D01*
X190638095Y-84052380D01*
X190714285Y-84014285D01*
X190828571Y-84014285D01*
X190904761Y-84052380D01*
X190942857Y-84090476D01*
X190980952Y-84166666D01*
X190980952Y-84471428D01*
X191361904Y-83252380D02*
X191361904Y-83709523D01*
X191361904Y-83480952D02*
X190561904Y-83480952D01*
X190676190Y-83557142D01*
X190752380Y-83633333D01*
X190790476Y-83709523D01*
X191361904Y-82490476D02*
X191361904Y-82947619D01*
X191361904Y-82719047D02*
X190561904Y-82719047D01*
X190676190Y-82795238D01*
X190752380Y-82871428D01*
X190790476Y-82947619D01*
D10*
X189772380Y-86904761D02*
X189296190Y-87238095D01*
X189772380Y-87476190D02*
X188772380Y-87476190D01*
X188772380Y-87095238D01*
X188820000Y-87000000D01*
X188867619Y-86952380D01*
X188962857Y-86904761D01*
X189105714Y-86904761D01*
X189200952Y-86952380D01*
X189248571Y-87000000D01*
X189296190Y-87095238D01*
X189296190Y-87476190D01*
X188867619Y-86523809D02*
X188820000Y-86476190D01*
X188772380Y-86380952D01*
X188772380Y-86142857D01*
X188820000Y-86047619D01*
X188867619Y-86000000D01*
X188962857Y-85952380D01*
X189058095Y-85952380D01*
X189200952Y-86000000D01*
X189772380Y-86571428D01*
X189772380Y-85952380D01*
X188772380Y-85333333D02*
X188772380Y-85238095D01*
X188820000Y-85142857D01*
X188867619Y-85095238D01*
X188962857Y-85047619D01*
X189153333Y-85000000D01*
X189391428Y-85000000D01*
X189581904Y-85047619D01*
X189677142Y-85095238D01*
X189724761Y-85142857D01*
X189772380Y-85238095D01*
X189772380Y-85333333D01*
X189724761Y-85428571D01*
X189677142Y-85476190D01*
X189581904Y-85523809D01*
X189391428Y-85571428D01*
X189153333Y-85571428D01*
X188962857Y-85523809D01*
X188867619Y-85476190D01*
X188820000Y-85428571D01*
X188772380Y-85333333D01*
X188772380Y-84380952D02*
X188772380Y-84285714D01*
X188820000Y-84190476D01*
X188867619Y-84142857D01*
X188962857Y-84095238D01*
X189153333Y-84047619D01*
X189391428Y-84047619D01*
X189581904Y-84095238D01*
X189677142Y-84142857D01*
X189724761Y-84190476D01*
X189772380Y-84285714D01*
X189772380Y-84380952D01*
X189724761Y-84476190D01*
X189677142Y-84523809D01*
X189581904Y-84571428D01*
X189391428Y-84619047D01*
X189153333Y-84619047D01*
X188962857Y-84571428D01*
X188867619Y-84523809D01*
X188820000Y-84476190D01*
X188772380Y-84380952D01*
X189772380Y-83619047D02*
X189105714Y-83619047D01*
X189200952Y-83619047D02*
X189153333Y-83571428D01*
X189105714Y-83476190D01*
X189105714Y-83333333D01*
X189153333Y-83238095D01*
X189248571Y-83190476D01*
X189772380Y-83190476D01*
X189248571Y-83190476D02*
X189153333Y-83142857D01*
X189105714Y-83047619D01*
X189105714Y-82904761D01*
X189153333Y-82809523D01*
X189248571Y-82761904D01*
X189772380Y-82761904D01*
X188772380Y-82095238D02*
X188772380Y-81904761D01*
X188820000Y-81809523D01*
X188915238Y-81714285D01*
X189105714Y-81666666D01*
X189439047Y-81666666D01*
X189629523Y-81714285D01*
X189724761Y-81809523D01*
X189772380Y-81904761D01*
X189772380Y-82095238D01*
X189724761Y-82190476D01*
X189629523Y-82285714D01*
X189439047Y-82333333D01*
X189105714Y-82333333D01*
X188915238Y-82285714D01*
X188820000Y-82190476D01*
X188772380Y-82095238D01*
X189772380Y-81238095D02*
X188772380Y-81238095D01*
X189248571Y-81238095D02*
X189248571Y-80666666D01*
X189772380Y-80666666D02*
X188772380Y-80666666D01*
X189772380Y-80190476D02*
X188772380Y-80190476D01*
X189486666Y-79857142D01*
X188772380Y-79523809D01*
X189772380Y-79523809D01*
D15*
X187861904Y-84014285D02*
X187480952Y-84280952D01*
X187861904Y-84471428D02*
X187061904Y-84471428D01*
X187061904Y-84166666D01*
X187100000Y-84090476D01*
X187138095Y-84052380D01*
X187214285Y-84014285D01*
X187328571Y-84014285D01*
X187404761Y-84052380D01*
X187442857Y-84090476D01*
X187480952Y-84166666D01*
X187480952Y-84471428D01*
X187861904Y-83252380D02*
X187861904Y-83709523D01*
X187861904Y-83480952D02*
X187061904Y-83480952D01*
X187176190Y-83557142D01*
X187252380Y-83633333D01*
X187290476Y-83709523D01*
X187138095Y-82947619D02*
X187100000Y-82909523D01*
X187061904Y-82833333D01*
X187061904Y-82642857D01*
X187100000Y-82566666D01*
X187138095Y-82528571D01*
X187214285Y-82490476D01*
X187290476Y-82490476D01*
X187404761Y-82528571D01*
X187861904Y-82985714D01*
X187861904Y-82490476D01*
D10*
X146880952Y-85522380D02*
X146547619Y-85046190D01*
X146309523Y-85522380D02*
X146309523Y-84522380D01*
X146690476Y-84522380D01*
X146785714Y-84570000D01*
X146833333Y-84617619D01*
X146880952Y-84712857D01*
X146880952Y-84855714D01*
X146833333Y-84950952D01*
X146785714Y-84998571D01*
X146690476Y-85046190D01*
X146309523Y-85046190D01*
X147214285Y-84522380D02*
X147833333Y-84522380D01*
X147500000Y-84903333D01*
X147642857Y-84903333D01*
X147738095Y-84950952D01*
X147785714Y-84998571D01*
X147833333Y-85093809D01*
X147833333Y-85331904D01*
X147785714Y-85427142D01*
X147738095Y-85474761D01*
X147642857Y-85522380D01*
X147357142Y-85522380D01*
X147261904Y-85474761D01*
X147214285Y-85427142D01*
X148166666Y-84522380D02*
X148785714Y-84522380D01*
X148452380Y-84903333D01*
X148595238Y-84903333D01*
X148690476Y-84950952D01*
X148738095Y-84998571D01*
X148785714Y-85093809D01*
X148785714Y-85331904D01*
X148738095Y-85427142D01*
X148690476Y-85474761D01*
X148595238Y-85522380D01*
X148309523Y-85522380D01*
X148214285Y-85474761D01*
X148166666Y-85427142D01*
X149404761Y-84522380D02*
X149500000Y-84522380D01*
X149595238Y-84570000D01*
X149642857Y-84617619D01*
X149690476Y-84712857D01*
X149738095Y-84903333D01*
X149738095Y-85141428D01*
X149690476Y-85331904D01*
X149642857Y-85427142D01*
X149595238Y-85474761D01*
X149500000Y-85522380D01*
X149404761Y-85522380D01*
X149309523Y-85474761D01*
X149261904Y-85427142D01*
X149214285Y-85331904D01*
X149166666Y-85141428D01*
X149166666Y-84903333D01*
X149214285Y-84712857D01*
X149261904Y-84617619D01*
X149309523Y-84570000D01*
X149404761Y-84522380D01*
D18*
X147742857Y-86680952D02*
X147609523Y-86490476D01*
X147514285Y-86680952D02*
X147514285Y-86280952D01*
X147666666Y-86280952D01*
X147704761Y-86300000D01*
X147723809Y-86319047D01*
X147742857Y-86357142D01*
X147742857Y-86414285D01*
X147723809Y-86452380D01*
X147704761Y-86471428D01*
X147666666Y-86490476D01*
X147514285Y-86490476D01*
X148123809Y-86680952D02*
X147895238Y-86680952D01*
X148009523Y-86680952D02*
X148009523Y-86280952D01*
X147971428Y-86338095D01*
X147933333Y-86376190D01*
X147895238Y-86395238D01*
X148257142Y-86280952D02*
X148504761Y-86280952D01*
X148371428Y-86433333D01*
X148428571Y-86433333D01*
X148466666Y-86452380D01*
X148485714Y-86471428D01*
X148504761Y-86509523D01*
X148504761Y-86604761D01*
X148485714Y-86642857D01*
X148466666Y-86661904D01*
X148428571Y-86680952D01*
X148314285Y-86680952D01*
X148276190Y-86661904D01*
X148257142Y-86642857D01*
D10*
X179122380Y-117849523D02*
X178646190Y-118182857D01*
X179122380Y-118420952D02*
X178122380Y-118420952D01*
X178122380Y-118040000D01*
X178170000Y-117944761D01*
X178217619Y-117897142D01*
X178312857Y-117849523D01*
X178455714Y-117849523D01*
X178550952Y-117897142D01*
X178598571Y-117944761D01*
X178646190Y-118040000D01*
X178646190Y-118420952D01*
X179217619Y-117659047D02*
X179217619Y-116897142D01*
X179122380Y-116659047D02*
X178122380Y-116659047D01*
X178122380Y-116278095D01*
X178170000Y-116182857D01*
X178217619Y-116135238D01*
X178312857Y-116087619D01*
X178455714Y-116087619D01*
X178550952Y-116135238D01*
X178598571Y-116182857D01*
X178646190Y-116278095D01*
X178646190Y-116659047D01*
X178122380Y-115468571D02*
X178122380Y-115278095D01*
X178170000Y-115182857D01*
X178265238Y-115087619D01*
X178455714Y-115040000D01*
X178789047Y-115040000D01*
X178979523Y-115087619D01*
X179074761Y-115182857D01*
X179122380Y-115278095D01*
X179122380Y-115468571D01*
X179074761Y-115563809D01*
X178979523Y-115659047D01*
X178789047Y-115706666D01*
X178455714Y-115706666D01*
X178265238Y-115659047D01*
X178170000Y-115563809D01*
X178122380Y-115468571D01*
X178122380Y-114754285D02*
X178122380Y-114182857D01*
X179122380Y-114468571D02*
X178122380Y-114468571D01*
X179217619Y-114087619D02*
X179217619Y-113325714D01*
X179122380Y-112563809D02*
X179122380Y-113135238D01*
X179122380Y-112849523D02*
X178122380Y-112849523D01*
X178265238Y-112944761D01*
X178360476Y-113040000D01*
X178408095Y-113135238D01*
X178122380Y-111944761D02*
X178122380Y-111849523D01*
X178170000Y-111754285D01*
X178217619Y-111706666D01*
X178312857Y-111659047D01*
X178503333Y-111611428D01*
X178741428Y-111611428D01*
X178931904Y-111659047D01*
X179027142Y-111706666D01*
X179074761Y-111754285D01*
X179122380Y-111849523D01*
X179122380Y-111944761D01*
X179074761Y-112040000D01*
X179027142Y-112087619D01*
X178931904Y-112135238D01*
X178741428Y-112182857D01*
X178503333Y-112182857D01*
X178312857Y-112135238D01*
X178217619Y-112087619D01*
X178170000Y-112040000D01*
X178122380Y-111944761D01*
X179122380Y-111182857D02*
X178122380Y-111182857D01*
X179122380Y-110611428D02*
X178550952Y-111040000D01*
X178122380Y-110611428D02*
X178693809Y-111182857D01*
X175457380Y-115770238D02*
X174981190Y-116103571D01*
X175457380Y-116341666D02*
X174457380Y-116341666D01*
X174457380Y-115960714D01*
X174505000Y-115865476D01*
X174552619Y-115817857D01*
X174647857Y-115770238D01*
X174790714Y-115770238D01*
X174885952Y-115817857D01*
X174933571Y-115865476D01*
X174981190Y-115960714D01*
X174981190Y-116341666D01*
X174457380Y-115484523D02*
X175457380Y-115151190D01*
X174457380Y-114817857D01*
X175457380Y-113960714D02*
X175457380Y-114532142D01*
X175457380Y-114246428D02*
X174457380Y-114246428D01*
X174600238Y-114341666D01*
X174695476Y-114436904D01*
X174743095Y-114532142D01*
X153595238Y-81452380D02*
X153547619Y-81595238D01*
X153547619Y-81833333D01*
X153595238Y-81928571D01*
X153642857Y-81976190D01*
X153738095Y-82023809D01*
X153833333Y-82023809D01*
X153928571Y-81976190D01*
X153976190Y-81928571D01*
X154023809Y-81833333D01*
X154071428Y-81642857D01*
X154119047Y-81547619D01*
X154166666Y-81500000D01*
X154261904Y-81452380D01*
X154357142Y-81452380D01*
X154452380Y-81500000D01*
X154500000Y-81547619D01*
X154547619Y-81642857D01*
X154547619Y-81880952D01*
X154500000Y-82023809D01*
X154547619Y-82357142D02*
X153547619Y-82595238D01*
X154261904Y-82785714D01*
X153547619Y-82976190D01*
X154547619Y-83214285D01*
X153452380Y-83357142D02*
X153452380Y-84119047D01*
X153547619Y-84357142D02*
X154547619Y-84357142D01*
X154547619Y-84738095D01*
X154500000Y-84833333D01*
X154452380Y-84880952D01*
X154357142Y-84928571D01*
X154214285Y-84928571D01*
X154119047Y-84880952D01*
X154071428Y-84833333D01*
X154023809Y-84738095D01*
X154023809Y-84357142D01*
X154214285Y-85785714D02*
X153547619Y-85785714D01*
X154214285Y-85357142D02*
X153690476Y-85357142D01*
X153595238Y-85404761D01*
X153547619Y-85500000D01*
X153547619Y-85642857D01*
X153595238Y-85738095D01*
X153642857Y-85785714D01*
X153595238Y-86214285D02*
X153547619Y-86309523D01*
X153547619Y-86500000D01*
X153595238Y-86595238D01*
X153690476Y-86642857D01*
X153738095Y-86642857D01*
X153833333Y-86595238D01*
X153880952Y-86500000D01*
X153880952Y-86357142D01*
X153928571Y-86261904D01*
X154023809Y-86214285D01*
X154071428Y-86214285D01*
X154166666Y-86261904D01*
X154214285Y-86357142D01*
X154214285Y-86500000D01*
X154166666Y-86595238D01*
X153547619Y-87071428D02*
X154547619Y-87071428D01*
X153547619Y-87500000D02*
X154071428Y-87500000D01*
X154166666Y-87452380D01*
X154214285Y-87357142D01*
X154214285Y-87214285D01*
X154166666Y-87119047D01*
X154119047Y-87071428D01*
X151095238Y-83166666D02*
X151047619Y-83309523D01*
X151047619Y-83547619D01*
X151095238Y-83642857D01*
X151142857Y-83690476D01*
X151238095Y-83738095D01*
X151333333Y-83738095D01*
X151428571Y-83690476D01*
X151476190Y-83642857D01*
X151523809Y-83547619D01*
X151571428Y-83357142D01*
X151619047Y-83261904D01*
X151666666Y-83214285D01*
X151761904Y-83166666D01*
X151857142Y-83166666D01*
X151952380Y-83214285D01*
X152000000Y-83261904D01*
X152047619Y-83357142D01*
X152047619Y-83595238D01*
X152000000Y-83738095D01*
X152047619Y-84071428D02*
X151047619Y-84309523D01*
X151761904Y-84500000D01*
X151047619Y-84690476D01*
X152047619Y-84928571D01*
X151047619Y-85833333D02*
X151047619Y-85261904D01*
X151047619Y-85547619D02*
X152047619Y-85547619D01*
X151904761Y-85452380D01*
X151809523Y-85357142D01*
X151761904Y-85261904D01*
X140678571Y-106000000D02*
X140678571Y-105666666D01*
X141202380Y-105523809D02*
X141202380Y-106000000D01*
X140202380Y-106000000D01*
X140202380Y-105523809D01*
X141202380Y-105095238D02*
X140202380Y-105095238D01*
X141202380Y-104523809D01*
X140202380Y-104523809D01*
X141107142Y-103476190D02*
X141154761Y-103523809D01*
X141202380Y-103666666D01*
X141202380Y-103761904D01*
X141154761Y-103904761D01*
X141059523Y-104000000D01*
X140964285Y-104047619D01*
X140773809Y-104095238D01*
X140630952Y-104095238D01*
X140440476Y-104047619D01*
X140345238Y-104000000D01*
X140250000Y-103904761D01*
X140202380Y-103761904D01*
X140202380Y-103666666D01*
X140250000Y-103523809D01*
X140297619Y-103476190D01*
X140297619Y-103095238D02*
X140250000Y-103047619D01*
X140202380Y-102952380D01*
X140202380Y-102714285D01*
X140250000Y-102619047D01*
X140297619Y-102571428D01*
X140392857Y-102523809D01*
X140488095Y-102523809D01*
X140630952Y-102571428D01*
X141202380Y-103142857D01*
X141202380Y-102523809D01*
X140630952Y-101952380D02*
X140583333Y-102047619D01*
X140535714Y-102095238D01*
X140440476Y-102142857D01*
X140392857Y-102142857D01*
X140297619Y-102095238D01*
X140250000Y-102047619D01*
X140202380Y-101952380D01*
X140202380Y-101761904D01*
X140250000Y-101666666D01*
X140297619Y-101619047D01*
X140392857Y-101571428D01*
X140440476Y-101571428D01*
X140535714Y-101619047D01*
X140583333Y-101666666D01*
X140630952Y-101761904D01*
X140630952Y-101952380D01*
X140678571Y-102047619D01*
X140726190Y-102095238D01*
X140821428Y-102142857D01*
X141011904Y-102142857D01*
X141107142Y-102095238D01*
X141154761Y-102047619D01*
X141202380Y-101952380D01*
X141202380Y-101761904D01*
X141154761Y-101666666D01*
X141107142Y-101619047D01*
X141011904Y-101571428D01*
X140821428Y-101571428D01*
X140726190Y-101619047D01*
X140678571Y-101666666D01*
X140630952Y-101761904D01*
X140202380Y-100857142D02*
X140916666Y-100857142D01*
X141059523Y-100904761D01*
X141154761Y-101000000D01*
X141202380Y-101142857D01*
X141202380Y-101238095D01*
X140202380Y-99952380D02*
X140202380Y-100142857D01*
X140250000Y-100238095D01*
X140297619Y-100285714D01*
X140440476Y-100380952D01*
X140630952Y-100428571D01*
X141011904Y-100428571D01*
X141107142Y-100380952D01*
X141154761Y-100333333D01*
X141202380Y-100238095D01*
X141202380Y-100047619D01*
X141154761Y-99952380D01*
X141107142Y-99904761D01*
X141011904Y-99857142D01*
X140773809Y-99857142D01*
X140678571Y-99904761D01*
X140630952Y-99952380D01*
X140583333Y-100047619D01*
X140583333Y-100238095D01*
X140630952Y-100333333D01*
X140678571Y-100380952D01*
X140773809Y-100428571D01*
X140202380Y-99238095D02*
X140202380Y-99142857D01*
X140250000Y-99047619D01*
X140297619Y-99000000D01*
X140392857Y-98952380D01*
X140583333Y-98904761D01*
X140821428Y-98904761D01*
X141011904Y-98952380D01*
X141107142Y-99000000D01*
X141154761Y-99047619D01*
X141202380Y-99142857D01*
X141202380Y-99238095D01*
X141154761Y-99333333D01*
X141107142Y-99380952D01*
X141011904Y-99428571D01*
X140821428Y-99476190D01*
X140583333Y-99476190D01*
X140392857Y-99428571D01*
X140297619Y-99380952D01*
X140250000Y-99333333D01*
X140202380Y-99238095D01*
X141202380Y-98571428D02*
X140535714Y-98047619D01*
X140535714Y-98571428D02*
X141202380Y-98047619D01*
X140821428Y-97666666D02*
X140821428Y-96904761D01*
X141154761Y-96476190D02*
X141202380Y-96333333D01*
X141202380Y-96095238D01*
X141154761Y-96000000D01*
X141107142Y-95952380D01*
X141011904Y-95904761D01*
X140916666Y-95904761D01*
X140821428Y-95952380D01*
X140773809Y-96000000D01*
X140726190Y-96095238D01*
X140678571Y-96285714D01*
X140630952Y-96380952D01*
X140583333Y-96428571D01*
X140488095Y-96476190D01*
X140392857Y-96476190D01*
X140297619Y-96428571D01*
X140250000Y-96380952D01*
X140202380Y-96285714D01*
X140202380Y-96047619D01*
X140250000Y-95904761D01*
X141154761Y-95523809D02*
X141202380Y-95380952D01*
X141202380Y-95142857D01*
X141154761Y-95047619D01*
X141107142Y-95000000D01*
X141011904Y-94952380D01*
X140916666Y-94952380D01*
X140821428Y-95000000D01*
X140773809Y-95047619D01*
X140726190Y-95142857D01*
X140678571Y-95333333D01*
X140630952Y-95428571D01*
X140583333Y-95476190D01*
X140488095Y-95523809D01*
X140392857Y-95523809D01*
X140297619Y-95476190D01*
X140250000Y-95428571D01*
X140202380Y-95333333D01*
X140202380Y-95095238D01*
X140250000Y-94952380D01*
X134061904Y-101109523D02*
X134709523Y-101109523D01*
X134785714Y-101071428D01*
X134823809Y-101033333D01*
X134861904Y-100957142D01*
X134861904Y-100804761D01*
X134823809Y-100728571D01*
X134785714Y-100690476D01*
X134709523Y-100652380D01*
X134061904Y-100652380D01*
X134861904Y-99852380D02*
X134861904Y-100309523D01*
X134861904Y-100080952D02*
X134061904Y-100080952D01*
X134176190Y-100157142D01*
X134252380Y-100233333D01*
X134290476Y-100309523D01*
X177716666Y-105119047D02*
X177716666Y-104642857D01*
X178002380Y-105214285D02*
X177002380Y-104880952D01*
X178002380Y-104547619D01*
X177002380Y-104357142D02*
X177002380Y-103785714D01*
X178002380Y-104071428D02*
X177002380Y-104071428D01*
X178002380Y-103452380D02*
X177335714Y-103452380D01*
X177430952Y-103452380D02*
X177383333Y-103404761D01*
X177335714Y-103309523D01*
X177335714Y-103166666D01*
X177383333Y-103071428D01*
X177478571Y-103023809D01*
X178002380Y-103023809D01*
X177478571Y-103023809D02*
X177383333Y-102976190D01*
X177335714Y-102880952D01*
X177335714Y-102738095D01*
X177383333Y-102642857D01*
X177478571Y-102595238D01*
X178002380Y-102595238D01*
X177954761Y-101738095D02*
X178002380Y-101833333D01*
X178002380Y-102023809D01*
X177954761Y-102119047D01*
X177859523Y-102166666D01*
X177478571Y-102166666D01*
X177383333Y-102119047D01*
X177335714Y-102023809D01*
X177335714Y-101833333D01*
X177383333Y-101738095D01*
X177478571Y-101690476D01*
X177573809Y-101690476D01*
X177669047Y-102166666D01*
X177335714Y-100833333D02*
X178145238Y-100833333D01*
X178240476Y-100880952D01*
X178288095Y-100928571D01*
X178335714Y-101023809D01*
X178335714Y-101166666D01*
X178288095Y-101261904D01*
X177954761Y-100833333D02*
X178002380Y-100928571D01*
X178002380Y-101119047D01*
X177954761Y-101214285D01*
X177907142Y-101261904D01*
X177811904Y-101309523D01*
X177526190Y-101309523D01*
X177430952Y-101261904D01*
X177383333Y-101214285D01*
X177335714Y-101119047D01*
X177335714Y-100928571D01*
X177383333Y-100833333D01*
X178002380Y-99928571D02*
X177478571Y-99928571D01*
X177383333Y-99976190D01*
X177335714Y-100071428D01*
X177335714Y-100261904D01*
X177383333Y-100357142D01*
X177954761Y-99928571D02*
X178002380Y-100023809D01*
X178002380Y-100261904D01*
X177954761Y-100357142D01*
X177859523Y-100404761D01*
X177764285Y-100404761D01*
X177669047Y-100357142D01*
X177621428Y-100261904D01*
X177621428Y-100023809D01*
X177573809Y-99928571D01*
X177002380Y-99547619D02*
X177002380Y-98928571D01*
X177383333Y-99261904D01*
X177383333Y-99119047D01*
X177430952Y-99023809D01*
X177478571Y-98976190D01*
X177573809Y-98928571D01*
X177811904Y-98928571D01*
X177907142Y-98976190D01*
X177954761Y-99023809D01*
X178002380Y-99119047D01*
X178002380Y-99404761D01*
X177954761Y-99500000D01*
X177907142Y-99547619D01*
X177097619Y-98547619D02*
X177050000Y-98500000D01*
X177002380Y-98404761D01*
X177002380Y-98166666D01*
X177050000Y-98071428D01*
X177097619Y-98023809D01*
X177192857Y-97976190D01*
X177288095Y-97976190D01*
X177430952Y-98023809D01*
X178002380Y-98595238D01*
X178002380Y-97976190D01*
X177430952Y-97404761D02*
X177383333Y-97500000D01*
X177335714Y-97547619D01*
X177240476Y-97595238D01*
X177192857Y-97595238D01*
X177097619Y-97547619D01*
X177050000Y-97500000D01*
X177002380Y-97404761D01*
X177002380Y-97214285D01*
X177050000Y-97119047D01*
X177097619Y-97071428D01*
X177192857Y-97023809D01*
X177240476Y-97023809D01*
X177335714Y-97071428D01*
X177383333Y-97119047D01*
X177430952Y-97214285D01*
X177430952Y-97404761D01*
X177478571Y-97500000D01*
X177526190Y-97547619D01*
X177621428Y-97595238D01*
X177811904Y-97595238D01*
X177907142Y-97547619D01*
X177954761Y-97500000D01*
X178002380Y-97404761D01*
X178002380Y-97214285D01*
X177954761Y-97119047D01*
X177907142Y-97071428D01*
X177811904Y-97023809D01*
X177621428Y-97023809D01*
X177526190Y-97071428D01*
X177478571Y-97119047D01*
X177430952Y-97214285D01*
X177621428Y-96595238D02*
X177621428Y-95833333D01*
X177716666Y-95404761D02*
X177716666Y-94928571D01*
X178002380Y-95500000D02*
X177002380Y-95166666D01*
X178002380Y-94833333D01*
X177002380Y-94500000D02*
X177811904Y-94500000D01*
X177907142Y-94452380D01*
X177954761Y-94404761D01*
X178002380Y-94309523D01*
X178002380Y-94119047D01*
X177954761Y-94023809D01*
X177907142Y-93976190D01*
X177811904Y-93928571D01*
X177002380Y-93928571D01*
X170952380Y-100261904D02*
X171761904Y-100261904D01*
X171857142Y-100214285D01*
X171904761Y-100166666D01*
X171952380Y-100071428D01*
X171952380Y-99880952D01*
X171904761Y-99785714D01*
X171857142Y-99738095D01*
X171761904Y-99690476D01*
X170952380Y-99690476D01*
X171047619Y-99261904D02*
X171000000Y-99214285D01*
X170952380Y-99119047D01*
X170952380Y-98880952D01*
X171000000Y-98785714D01*
X171047619Y-98738095D01*
X171142857Y-98690476D01*
X171238095Y-98690476D01*
X171380952Y-98738095D01*
X171952380Y-99309523D01*
X171952380Y-98690476D01*
D19*
X184817380Y-103961666D02*
X183817380Y-103961666D01*
X183817380Y-103723571D01*
X183865000Y-103580714D01*
X183960238Y-103485476D01*
X184055476Y-103437857D01*
X184245952Y-103390238D01*
X184388809Y-103390238D01*
X184579285Y-103437857D01*
X184674523Y-103485476D01*
X184769761Y-103580714D01*
X184817380Y-103723571D01*
X184817380Y-103961666D01*
X184817380Y-102390238D02*
X184341190Y-102723571D01*
X184817380Y-102961666D02*
X183817380Y-102961666D01*
X183817380Y-102580714D01*
X183865000Y-102485476D01*
X183912619Y-102437857D01*
X184007857Y-102390238D01*
X184150714Y-102390238D01*
X184245952Y-102437857D01*
X184293571Y-102485476D01*
X184341190Y-102580714D01*
X184341190Y-102961666D01*
X183817380Y-102104523D02*
X184817380Y-101771190D01*
X183817380Y-101437857D01*
X184245952Y-100961666D02*
X184198333Y-101056904D01*
X184150714Y-101104523D01*
X184055476Y-101152142D01*
X184007857Y-101152142D01*
X183912619Y-101104523D01*
X183865000Y-101056904D01*
X183817380Y-100961666D01*
X183817380Y-100771190D01*
X183865000Y-100675952D01*
X183912619Y-100628333D01*
X184007857Y-100580714D01*
X184055476Y-100580714D01*
X184150714Y-100628333D01*
X184198333Y-100675952D01*
X184245952Y-100771190D01*
X184245952Y-100961666D01*
X184293571Y-101056904D01*
X184341190Y-101104523D01*
X184436428Y-101152142D01*
X184626904Y-101152142D01*
X184722142Y-101104523D01*
X184769761Y-101056904D01*
X184817380Y-100961666D01*
X184817380Y-100771190D01*
X184769761Y-100675952D01*
X184722142Y-100628333D01*
X184626904Y-100580714D01*
X184436428Y-100580714D01*
X184341190Y-100628333D01*
X184293571Y-100675952D01*
X184245952Y-100771190D01*
X184245952Y-100009285D02*
X184198333Y-100104523D01*
X184150714Y-100152142D01*
X184055476Y-100199761D01*
X184007857Y-100199761D01*
X183912619Y-100152142D01*
X183865000Y-100104523D01*
X183817380Y-100009285D01*
X183817380Y-99818809D01*
X183865000Y-99723571D01*
X183912619Y-99675952D01*
X184007857Y-99628333D01*
X184055476Y-99628333D01*
X184150714Y-99675952D01*
X184198333Y-99723571D01*
X184245952Y-99818809D01*
X184245952Y-100009285D01*
X184293571Y-100104523D01*
X184341190Y-100152142D01*
X184436428Y-100199761D01*
X184626904Y-100199761D01*
X184722142Y-100152142D01*
X184769761Y-100104523D01*
X184817380Y-100009285D01*
X184817380Y-99818809D01*
X184769761Y-99723571D01*
X184722142Y-99675952D01*
X184626904Y-99628333D01*
X184436428Y-99628333D01*
X184341190Y-99675952D01*
X184293571Y-99723571D01*
X184245952Y-99818809D01*
X183912619Y-99247380D02*
X183865000Y-99199761D01*
X183817380Y-99104523D01*
X183817380Y-98866428D01*
X183865000Y-98771190D01*
X183912619Y-98723571D01*
X184007857Y-98675952D01*
X184103095Y-98675952D01*
X184245952Y-98723571D01*
X184817380Y-99295000D01*
X184817380Y-98675952D01*
X183817380Y-97771190D02*
X183817380Y-98247380D01*
X184293571Y-98295000D01*
X184245952Y-98247380D01*
X184198333Y-98152142D01*
X184198333Y-97914047D01*
X184245952Y-97818809D01*
X184293571Y-97771190D01*
X184388809Y-97723571D01*
X184626904Y-97723571D01*
X184722142Y-97771190D01*
X184769761Y-97818809D01*
X184817380Y-97914047D01*
X184817380Y-98152142D01*
X184769761Y-98247380D01*
X184722142Y-98295000D01*
X184817380Y-97295000D02*
X183817380Y-97295000D01*
X183817380Y-96914047D01*
X183865000Y-96818809D01*
X183912619Y-96771190D01*
X184007857Y-96723571D01*
X184150714Y-96723571D01*
X184245952Y-96771190D01*
X184293571Y-96818809D01*
X184341190Y-96914047D01*
X184341190Y-97295000D01*
X183817380Y-96390238D02*
X184817380Y-96152142D01*
X184103095Y-95961666D01*
X184817380Y-95771190D01*
X183817380Y-95533095D01*
X184817380Y-95152142D02*
X183817380Y-95152142D01*
X183817380Y-94771190D01*
X183865000Y-94675952D01*
X183912619Y-94628333D01*
X184007857Y-94580714D01*
X184150714Y-94580714D01*
X184245952Y-94628333D01*
X184293571Y-94675952D01*
X184341190Y-94771190D01*
X184341190Y-95152142D01*
X184817380Y-93580714D02*
X184341190Y-93914047D01*
X184817380Y-94152142D02*
X183817380Y-94152142D01*
X183817380Y-93771190D01*
X183865000Y-93675952D01*
X183912619Y-93628333D01*
X184007857Y-93580714D01*
X184150714Y-93580714D01*
X184245952Y-93628333D01*
X184293571Y-93675952D01*
X184341190Y-93771190D01*
X184341190Y-94152142D01*
X182234523Y-89952619D02*
X181594523Y-89952619D01*
X182234523Y-89586904D01*
X181594523Y-89586904D01*
X182234523Y-89190714D02*
X182204047Y-89251666D01*
X182173571Y-89282142D01*
X182112619Y-89312619D01*
X181929761Y-89312619D01*
X181868809Y-89282142D01*
X181838333Y-89251666D01*
X181807857Y-89190714D01*
X181807857Y-89099285D01*
X181838333Y-89038333D01*
X181868809Y-89007857D01*
X181929761Y-88977380D01*
X182112619Y-88977380D01*
X182173571Y-89007857D01*
X182204047Y-89038333D01*
X182234523Y-89099285D01*
X182234523Y-89190714D01*
X181807857Y-88794523D02*
X181807857Y-88550714D01*
X181594523Y-88703095D02*
X182143095Y-88703095D01*
X182204047Y-88672619D01*
X182234523Y-88611666D01*
X182234523Y-88550714D01*
X182204047Y-88093571D02*
X182234523Y-88154523D01*
X182234523Y-88276428D01*
X182204047Y-88337380D01*
X182143095Y-88367857D01*
X181899285Y-88367857D01*
X181838333Y-88337380D01*
X181807857Y-88276428D01*
X181807857Y-88154523D01*
X181838333Y-88093571D01*
X181899285Y-88063095D01*
X181960238Y-88063095D01*
X182021190Y-88367857D01*
X182173571Y-87788809D02*
X182204047Y-87758333D01*
X182234523Y-87788809D01*
X182204047Y-87819285D01*
X182173571Y-87788809D01*
X182234523Y-87788809D01*
X181838333Y-87788809D02*
X181868809Y-87758333D01*
X181899285Y-87788809D01*
X181868809Y-87819285D01*
X181838333Y-87788809D01*
X181899285Y-87788809D01*
X181464700Y-87636428D02*
X181464700Y-86996428D01*
X182234523Y-87484047D02*
X181594523Y-87484047D01*
X181594523Y-87240238D01*
X181625000Y-87179285D01*
X181655476Y-87148809D01*
X181716428Y-87118333D01*
X181807857Y-87118333D01*
X181868809Y-87148809D01*
X181899285Y-87179285D01*
X181929761Y-87240238D01*
X181929761Y-87484047D01*
X181464700Y-86996428D02*
X181464700Y-86417380D01*
X182234523Y-86569761D02*
X181899285Y-86569761D01*
X181838333Y-86600238D01*
X181807857Y-86661190D01*
X181807857Y-86783095D01*
X181838333Y-86844047D01*
X182204047Y-86569761D02*
X182234523Y-86630714D01*
X182234523Y-86783095D01*
X182204047Y-86844047D01*
X182143095Y-86874523D01*
X182082142Y-86874523D01*
X182021190Y-86844047D01*
X181990714Y-86783095D01*
X181990714Y-86630714D01*
X181960238Y-86569761D01*
X181464700Y-86417380D02*
X181464700Y-85899285D01*
X182204047Y-86295476D02*
X182234523Y-86234523D01*
X182234523Y-86112619D01*
X182204047Y-86051666D01*
X182143095Y-86021190D01*
X182112619Y-86021190D01*
X182051666Y-86051666D01*
X182021190Y-86112619D01*
X182021190Y-86204047D01*
X181990714Y-86265000D01*
X181929761Y-86295476D01*
X181899285Y-86295476D01*
X181838333Y-86265000D01*
X181807857Y-86204047D01*
X181807857Y-86112619D01*
X181838333Y-86051666D01*
X181464700Y-85899285D02*
X181464700Y-85533571D01*
X181807857Y-85838333D02*
X181807857Y-85594523D01*
X181594523Y-85746904D02*
X182143095Y-85746904D01*
X182204047Y-85716428D01*
X182234523Y-85655476D01*
X182234523Y-85594523D01*
X181464700Y-85533571D02*
X181464700Y-84985000D01*
X182204047Y-85137380D02*
X182234523Y-85198333D01*
X182234523Y-85320238D01*
X182204047Y-85381190D01*
X182143095Y-85411666D01*
X181899285Y-85411666D01*
X181838333Y-85381190D01*
X181807857Y-85320238D01*
X181807857Y-85198333D01*
X181838333Y-85137380D01*
X181899285Y-85106904D01*
X181960238Y-85106904D01*
X182021190Y-85411666D01*
X182234523Y-84832619D02*
X181807857Y-84832619D01*
X181868809Y-84832619D02*
X181838333Y-84802142D01*
X181807857Y-84741190D01*
X181807857Y-84649761D01*
X181838333Y-84588809D01*
X181899285Y-84558333D01*
X182234523Y-84558333D01*
X181899285Y-84558333D02*
X181838333Y-84527857D01*
X181807857Y-84466904D01*
X181807857Y-84375476D01*
X181838333Y-84314523D01*
X181899285Y-84284047D01*
X182234523Y-84284047D01*
X182234523Y-83705000D02*
X181899285Y-83705000D01*
X181838333Y-83735476D01*
X181807857Y-83796428D01*
X181807857Y-83918333D01*
X181838333Y-83979285D01*
X182204047Y-83705000D02*
X182234523Y-83765952D01*
X182234523Y-83918333D01*
X182204047Y-83979285D01*
X182143095Y-84009761D01*
X182082142Y-84009761D01*
X182021190Y-83979285D01*
X181990714Y-83918333D01*
X181990714Y-83765952D01*
X181960238Y-83705000D01*
X182204047Y-83430714D02*
X182234523Y-83369761D01*
X182234523Y-83247857D01*
X182204047Y-83186904D01*
X182143095Y-83156428D01*
X182112619Y-83156428D01*
X182051666Y-83186904D01*
X182021190Y-83247857D01*
X182021190Y-83339285D01*
X181990714Y-83400238D01*
X181929761Y-83430714D01*
X181899285Y-83430714D01*
X181838333Y-83400238D01*
X181807857Y-83339285D01*
X181807857Y-83247857D01*
X181838333Y-83186904D01*
X182234523Y-82882142D02*
X181594523Y-82882142D01*
X181990714Y-82821190D02*
X182234523Y-82638333D01*
X181807857Y-82638333D02*
X182051666Y-82882142D01*
X181464700Y-82516428D02*
X181464700Y-81937380D01*
X182234523Y-82272619D02*
X182204047Y-82333571D01*
X182173571Y-82364047D01*
X182112619Y-82394523D01*
X181929761Y-82394523D01*
X181868809Y-82364047D01*
X181838333Y-82333571D01*
X181807857Y-82272619D01*
X181807857Y-82181190D01*
X181838333Y-82120238D01*
X181868809Y-82089761D01*
X181929761Y-82059285D01*
X182112619Y-82059285D01*
X182173571Y-82089761D01*
X182204047Y-82120238D01*
X182234523Y-82181190D01*
X182234523Y-82272619D01*
X181464700Y-81937380D02*
X181464700Y-81571666D01*
X181807857Y-81876428D02*
X181807857Y-81632619D01*
X182234523Y-81785000D02*
X181685952Y-81785000D01*
X181625000Y-81754523D01*
X181594523Y-81693571D01*
X181594523Y-81632619D01*
X182234523Y-81419285D02*
X181594523Y-81419285D01*
X181594523Y-81175476D01*
X181625000Y-81114523D01*
X181655476Y-81084047D01*
X181716428Y-81053571D01*
X181807857Y-81053571D01*
X181868809Y-81084047D01*
X181899285Y-81114523D01*
X181929761Y-81175476D01*
X181929761Y-81419285D01*
X182234523Y-80687857D02*
X182204047Y-80748809D01*
X182173571Y-80779285D01*
X182112619Y-80809761D01*
X181929761Y-80809761D01*
X181868809Y-80779285D01*
X181838333Y-80748809D01*
X181807857Y-80687857D01*
X181807857Y-80596428D01*
X181838333Y-80535476D01*
X181868809Y-80505000D01*
X181929761Y-80474523D01*
X182112619Y-80474523D01*
X182173571Y-80505000D01*
X182204047Y-80535476D01*
X182234523Y-80596428D01*
X182234523Y-80687857D01*
X181807857Y-80261190D02*
X182234523Y-80139285D01*
X181929761Y-80017380D01*
X182234523Y-79895476D01*
X181807857Y-79773571D01*
X182204047Y-79285952D02*
X182234523Y-79346904D01*
X182234523Y-79468809D01*
X182204047Y-79529761D01*
X182143095Y-79560238D01*
X181899285Y-79560238D01*
X181838333Y-79529761D01*
X181807857Y-79468809D01*
X181807857Y-79346904D01*
X181838333Y-79285952D01*
X181899285Y-79255476D01*
X181960238Y-79255476D01*
X182021190Y-79560238D01*
X182234523Y-78981190D02*
X181807857Y-78981190D01*
X181929761Y-78981190D02*
X181868809Y-78950714D01*
X181838333Y-78920238D01*
X181807857Y-78859285D01*
X181807857Y-78798333D01*
X181464700Y-78737380D02*
X181464700Y-78097380D01*
X182234523Y-78585000D02*
X181594523Y-78585000D01*
X181594523Y-78341190D01*
X181625000Y-78280238D01*
X181655476Y-78249761D01*
X181716428Y-78219285D01*
X181807857Y-78219285D01*
X181868809Y-78249761D01*
X181899285Y-78280238D01*
X181929761Y-78341190D01*
X181929761Y-78585000D01*
X181464700Y-78097380D02*
X181464700Y-77518333D01*
X182234523Y-77670714D02*
X181899285Y-77670714D01*
X181838333Y-77701190D01*
X181807857Y-77762142D01*
X181807857Y-77884047D01*
X181838333Y-77945000D01*
X182204047Y-77670714D02*
X182234523Y-77731666D01*
X182234523Y-77884047D01*
X182204047Y-77945000D01*
X182143095Y-77975476D01*
X182082142Y-77975476D01*
X182021190Y-77945000D01*
X181990714Y-77884047D01*
X181990714Y-77731666D01*
X181960238Y-77670714D01*
X181464700Y-77518333D02*
X181464700Y-76939285D01*
X182234523Y-77091666D02*
X181594523Y-77091666D01*
X182204047Y-77091666D02*
X182234523Y-77152619D01*
X182234523Y-77274523D01*
X182204047Y-77335476D01*
X182173571Y-77365952D01*
X182112619Y-77396428D01*
X181929761Y-77396428D01*
X181868809Y-77365952D01*
X181838333Y-77335476D01*
X181807857Y-77274523D01*
X181807857Y-77152619D01*
X181838333Y-77091666D01*
X182234523Y-76786904D02*
X181807857Y-76786904D01*
X181594523Y-76786904D02*
X181625000Y-76817380D01*
X181655476Y-76786904D01*
X181625000Y-76756428D01*
X181594523Y-76786904D01*
X181655476Y-76786904D01*
X182204047Y-76512619D02*
X182234523Y-76451666D01*
X182234523Y-76329761D01*
X182204047Y-76268809D01*
X182143095Y-76238333D01*
X182112619Y-76238333D01*
X182051666Y-76268809D01*
X182021190Y-76329761D01*
X182021190Y-76421190D01*
X181990714Y-76482142D01*
X181929761Y-76512619D01*
X181899285Y-76512619D01*
X181838333Y-76482142D01*
X181807857Y-76421190D01*
X181807857Y-76329761D01*
X181838333Y-76268809D01*
X181464700Y-76116428D02*
X181464700Y-75537380D01*
X182234523Y-75964047D02*
X181594523Y-75964047D01*
X181838333Y-75964047D02*
X181807857Y-75903095D01*
X181807857Y-75781190D01*
X181838333Y-75720238D01*
X181868809Y-75689761D01*
X181929761Y-75659285D01*
X182112619Y-75659285D01*
X182173571Y-75689761D01*
X182204047Y-75720238D01*
X182234523Y-75781190D01*
X182234523Y-75903095D01*
X182204047Y-75964047D01*
X181464700Y-75537380D02*
X181464700Y-74958333D01*
X182234523Y-75110714D02*
X181899285Y-75110714D01*
X181838333Y-75141190D01*
X181807857Y-75202142D01*
X181807857Y-75324047D01*
X181838333Y-75385000D01*
X182204047Y-75110714D02*
X182234523Y-75171666D01*
X182234523Y-75324047D01*
X182204047Y-75385000D01*
X182143095Y-75415476D01*
X182082142Y-75415476D01*
X182021190Y-75385000D01*
X181990714Y-75324047D01*
X181990714Y-75171666D01*
X181960238Y-75110714D01*
X181464700Y-74958333D02*
X181464700Y-74440238D01*
X182204047Y-74836428D02*
X182234523Y-74775476D01*
X182234523Y-74653571D01*
X182204047Y-74592619D01*
X182143095Y-74562142D01*
X182112619Y-74562142D01*
X182051666Y-74592619D01*
X182021190Y-74653571D01*
X182021190Y-74745000D01*
X181990714Y-74805952D01*
X181929761Y-74836428D01*
X181899285Y-74836428D01*
X181838333Y-74805952D01*
X181807857Y-74745000D01*
X181807857Y-74653571D01*
X181838333Y-74592619D01*
X181464700Y-74440238D02*
X181464700Y-73891666D01*
X182204047Y-74044047D02*
X182234523Y-74105000D01*
X182234523Y-74226904D01*
X182204047Y-74287857D01*
X182143095Y-74318333D01*
X181899285Y-74318333D01*
X181838333Y-74287857D01*
X181807857Y-74226904D01*
X181807857Y-74105000D01*
X181838333Y-74044047D01*
X181899285Y-74013571D01*
X181960238Y-74013571D01*
X182021190Y-74318333D01*
X181464700Y-73891666D02*
X181464700Y-73312619D01*
X182234523Y-73465000D02*
X181594523Y-73465000D01*
X182204047Y-73465000D02*
X182234523Y-73525952D01*
X182234523Y-73647857D01*
X182204047Y-73708809D01*
X182173571Y-73739285D01*
X182112619Y-73769761D01*
X181929761Y-73769761D01*
X181868809Y-73739285D01*
X181838333Y-73708809D01*
X181807857Y-73647857D01*
X181807857Y-73525952D01*
X181838333Y-73465000D01*
X182234523Y-73068809D02*
X182204047Y-73129761D01*
X182173571Y-73160238D01*
X182112619Y-73190714D01*
X181929761Y-73190714D01*
X181868809Y-73160238D01*
X181838333Y-73129761D01*
X181807857Y-73068809D01*
X181807857Y-72977380D01*
X181838333Y-72916428D01*
X181868809Y-72885952D01*
X181929761Y-72855476D01*
X182112619Y-72855476D01*
X182173571Y-72885952D01*
X182204047Y-72916428D01*
X182234523Y-72977380D01*
X182234523Y-73068809D01*
X181807857Y-72581190D02*
X182234523Y-72581190D01*
X181868809Y-72581190D02*
X181838333Y-72550714D01*
X181807857Y-72489761D01*
X181807857Y-72398333D01*
X181838333Y-72337380D01*
X181899285Y-72306904D01*
X182234523Y-72306904D01*
X181464700Y-72154523D02*
X181464700Y-71545000D01*
X181594523Y-71880238D02*
X181594523Y-71819285D01*
X181625000Y-71758333D01*
X181655476Y-71727857D01*
X181716428Y-71697380D01*
X181838333Y-71666904D01*
X181990714Y-71666904D01*
X182112619Y-71697380D01*
X182173571Y-71727857D01*
X182204047Y-71758333D01*
X182234523Y-71819285D01*
X182234523Y-71880238D01*
X182204047Y-71941190D01*
X182173571Y-71971666D01*
X182112619Y-72002142D01*
X181990714Y-72032619D01*
X181838333Y-72032619D01*
X181716428Y-72002142D01*
X181655476Y-71971666D01*
X181625000Y-71941190D01*
X181594523Y-71880238D01*
X181464700Y-71545000D02*
X181464700Y-71240238D01*
X182173571Y-71392619D02*
X182204047Y-71362142D01*
X182234523Y-71392619D01*
X182204047Y-71423095D01*
X182173571Y-71392619D01*
X182234523Y-71392619D01*
X181464700Y-71240238D02*
X181464700Y-70630714D01*
X182234523Y-70752619D02*
X182234523Y-71118333D01*
X182234523Y-70935476D02*
X181594523Y-70935476D01*
X181685952Y-70996428D01*
X181746904Y-71057380D01*
X181777380Y-71118333D01*
X181464700Y-70630714D02*
X181464700Y-70021190D01*
X181655476Y-70508809D02*
X181625000Y-70478333D01*
X181594523Y-70417380D01*
X181594523Y-70265000D01*
X181625000Y-70204047D01*
X181655476Y-70173571D01*
X181716428Y-70143095D01*
X181777380Y-70143095D01*
X181868809Y-70173571D01*
X182234523Y-70539285D01*
X182234523Y-70143095D01*
X181464700Y-70021190D02*
X181464700Y-69411666D01*
X181594523Y-69929761D02*
X181594523Y-69503095D01*
X182234523Y-69777380D01*
X182234523Y-69259285D02*
X181807857Y-69259285D01*
X181868809Y-69259285D02*
X181838333Y-69228809D01*
X181807857Y-69167857D01*
X181807857Y-69076428D01*
X181838333Y-69015476D01*
X181899285Y-68985000D01*
X182234523Y-68985000D01*
X181899285Y-68985000D02*
X181838333Y-68954523D01*
X181807857Y-68893571D01*
X181807857Y-68802142D01*
X181838333Y-68741190D01*
X181899285Y-68710714D01*
X182234523Y-68710714D01*
X182234523Y-68405952D02*
X181807857Y-68405952D01*
X181868809Y-68405952D02*
X181838333Y-68375476D01*
X181807857Y-68314523D01*
X181807857Y-68223095D01*
X181838333Y-68162142D01*
X181899285Y-68131666D01*
X182234523Y-68131666D01*
X181899285Y-68131666D02*
X181838333Y-68101190D01*
X181807857Y-68040238D01*
X181807857Y-67948809D01*
X181838333Y-67887857D01*
X181899285Y-67857380D01*
X182234523Y-67857380D01*
X181464700Y-67705000D02*
X181464700Y-67186904D01*
X182204047Y-67583095D02*
X182234523Y-67522142D01*
X182234523Y-67400238D01*
X182204047Y-67339285D01*
X182143095Y-67308809D01*
X182112619Y-67308809D01*
X182051666Y-67339285D01*
X182021190Y-67400238D01*
X182021190Y-67491666D01*
X181990714Y-67552619D01*
X181929761Y-67583095D01*
X181899285Y-67583095D01*
X181838333Y-67552619D01*
X181807857Y-67491666D01*
X181807857Y-67400238D01*
X181838333Y-67339285D01*
X181464700Y-67186904D02*
X181464700Y-66821190D01*
X181807857Y-67125952D02*
X181807857Y-66882142D01*
X181594523Y-67034523D02*
X182143095Y-67034523D01*
X182204047Y-67004047D01*
X182234523Y-66943095D01*
X182234523Y-66882142D01*
X181464700Y-66821190D02*
X181464700Y-66272619D01*
X182204047Y-66425000D02*
X182234523Y-66485952D01*
X182234523Y-66607857D01*
X182204047Y-66668809D01*
X182143095Y-66699285D01*
X181899285Y-66699285D01*
X181838333Y-66668809D01*
X181807857Y-66607857D01*
X181807857Y-66485952D01*
X181838333Y-66425000D01*
X181899285Y-66394523D01*
X181960238Y-66394523D01*
X182021190Y-66699285D01*
X181464700Y-66272619D02*
X181464700Y-65693571D01*
X181807857Y-66120238D02*
X182234523Y-66120238D01*
X181868809Y-66120238D02*
X181838333Y-66089761D01*
X181807857Y-66028809D01*
X181807857Y-65937380D01*
X181838333Y-65876428D01*
X181899285Y-65845952D01*
X182234523Y-65845952D01*
X181464700Y-65693571D02*
X181464700Y-65145000D01*
X182204047Y-65266904D02*
X182234523Y-65327857D01*
X182234523Y-65449761D01*
X182204047Y-65510714D01*
X182173571Y-65541190D01*
X182112619Y-65571666D01*
X181929761Y-65571666D01*
X181868809Y-65541190D01*
X181838333Y-65510714D01*
X181807857Y-65449761D01*
X181807857Y-65327857D01*
X181838333Y-65266904D01*
X181464700Y-65145000D02*
X181464700Y-64840238D01*
X182234523Y-64992619D02*
X181807857Y-64992619D01*
X181594523Y-64992619D02*
X181625000Y-65023095D01*
X181655476Y-64992619D01*
X181625000Y-64962142D01*
X181594523Y-64992619D01*
X181655476Y-64992619D01*
X181464700Y-64840238D02*
X181464700Y-64505000D01*
X182234523Y-64596428D02*
X182204047Y-64657380D01*
X182143095Y-64687857D01*
X181594523Y-64687857D01*
X181807857Y-64444047D02*
X181807857Y-64200238D01*
X181594523Y-64352619D02*
X182143095Y-64352619D01*
X182204047Y-64322142D01*
X182234523Y-64261190D01*
X182234523Y-64200238D01*
X182234523Y-63986904D02*
X181594523Y-63986904D01*
X182234523Y-63712619D02*
X181899285Y-63712619D01*
X181838333Y-63743095D01*
X181807857Y-63804047D01*
X181807857Y-63895476D01*
X181838333Y-63956428D01*
X181868809Y-63986904D01*
X182234523Y-63407857D02*
X181807857Y-63407857D01*
X181594523Y-63407857D02*
X181625000Y-63438333D01*
X181655476Y-63407857D01*
X181625000Y-63377380D01*
X181594523Y-63407857D01*
X181655476Y-63407857D01*
X182204047Y-62828809D02*
X182234523Y-62889761D01*
X182234523Y-63011666D01*
X182204047Y-63072619D01*
X182173571Y-63103095D01*
X182112619Y-63133571D01*
X181929761Y-63133571D01*
X181868809Y-63103095D01*
X181838333Y-63072619D01*
X181807857Y-63011666D01*
X181807857Y-62889761D01*
X181838333Y-62828809D01*
X182234523Y-62554523D02*
X181594523Y-62554523D01*
X181990714Y-62493571D02*
X182234523Y-62310714D01*
X181807857Y-62310714D02*
X182051666Y-62554523D01*
X181807857Y-62036428D02*
X182234523Y-62036428D01*
X181868809Y-62036428D02*
X181838333Y-62005952D01*
X181807857Y-61945000D01*
X181807857Y-61853571D01*
X181838333Y-61792619D01*
X181899285Y-61762142D01*
X182234523Y-61762142D01*
X182204047Y-61213571D02*
X182234523Y-61274523D01*
X182234523Y-61396428D01*
X182204047Y-61457380D01*
X182143095Y-61487857D01*
X181899285Y-61487857D01*
X181838333Y-61457380D01*
X181807857Y-61396428D01*
X181807857Y-61274523D01*
X181838333Y-61213571D01*
X181899285Y-61183095D01*
X181960238Y-61183095D01*
X182021190Y-61487857D01*
X182204047Y-60939285D02*
X182234523Y-60878333D01*
X182234523Y-60756428D01*
X182204047Y-60695476D01*
X182143095Y-60665000D01*
X182112619Y-60665000D01*
X182051666Y-60695476D01*
X182021190Y-60756428D01*
X182021190Y-60847857D01*
X181990714Y-60908809D01*
X181929761Y-60939285D01*
X181899285Y-60939285D01*
X181838333Y-60908809D01*
X181807857Y-60847857D01*
X181807857Y-60756428D01*
X181838333Y-60695476D01*
X182204047Y-60421190D02*
X182234523Y-60360238D01*
X182234523Y-60238333D01*
X182204047Y-60177380D01*
X182143095Y-60146904D01*
X182112619Y-60146904D01*
X182051666Y-60177380D01*
X182021190Y-60238333D01*
X182021190Y-60329761D01*
X181990714Y-60390714D01*
X181929761Y-60421190D01*
X181899285Y-60421190D01*
X181838333Y-60390714D01*
X181807857Y-60329761D01*
X181807857Y-60238333D01*
X181838333Y-60177380D01*
D10*
X191500000Y-104166666D02*
X191976190Y-104166666D01*
X191404761Y-104452380D02*
X191738095Y-103452380D01*
X192071428Y-104452380D01*
X192404761Y-104452380D02*
X192404761Y-103452380D01*
X192738095Y-104166666D01*
X193071428Y-103452380D01*
X193071428Y-104452380D01*
X193500000Y-104404761D02*
X193642857Y-104452380D01*
X193880952Y-104452380D01*
X193976190Y-104404761D01*
X194023809Y-104357142D01*
X194071428Y-104261904D01*
X194071428Y-104166666D01*
X194023809Y-104071428D01*
X193976190Y-104023809D01*
X193880952Y-103976190D01*
X193690476Y-103928571D01*
X193595238Y-103880952D01*
X193547619Y-103833333D01*
X193500000Y-103738095D01*
X193500000Y-103642857D01*
X193547619Y-103547619D01*
X193595238Y-103500000D01*
X193690476Y-103452380D01*
X193928571Y-103452380D01*
X194071428Y-103500000D01*
X195023809Y-104452380D02*
X194452380Y-104452380D01*
X194738095Y-104452380D02*
X194738095Y-103452380D01*
X194642857Y-103595238D01*
X194547619Y-103690476D01*
X194452380Y-103738095D01*
X195976190Y-104452380D02*
X195404761Y-104452380D01*
X195690476Y-104452380D02*
X195690476Y-103452380D01*
X195595238Y-103595238D01*
X195500000Y-103690476D01*
X195404761Y-103738095D01*
X196928571Y-104452380D02*
X196357142Y-104452380D01*
X196642857Y-104452380D02*
X196642857Y-103452380D01*
X196547619Y-103595238D01*
X196452380Y-103690476D01*
X196357142Y-103738095D01*
X197261904Y-103452380D02*
X197928571Y-103452380D01*
X197500000Y-104452380D01*
X198309523Y-104071428D02*
X199071428Y-104071428D01*
X199452380Y-103452380D02*
X200071428Y-103452380D01*
X199738095Y-103833333D01*
X199880952Y-103833333D01*
X199976190Y-103880952D01*
X200023809Y-103928571D01*
X200071428Y-104023809D01*
X200071428Y-104261904D01*
X200023809Y-104357142D01*
X199976190Y-104404761D01*
X199880952Y-104452380D01*
X199595238Y-104452380D01*
X199500000Y-104404761D01*
X199452380Y-104357142D01*
X200500000Y-104357142D02*
X200547619Y-104404761D01*
X200500000Y-104452380D01*
X200452380Y-104404761D01*
X200500000Y-104357142D01*
X200500000Y-104452380D01*
X200880952Y-103452380D02*
X201500000Y-103452380D01*
X201166666Y-103833333D01*
X201309523Y-103833333D01*
X201404761Y-103880952D01*
X201452380Y-103928571D01*
X201500000Y-104023809D01*
X201500000Y-104261904D01*
X201452380Y-104357142D01*
X201404761Y-104404761D01*
X201309523Y-104452380D01*
X201023809Y-104452380D01*
X200928571Y-104404761D01*
X200880952Y-104357142D01*
D15*
X196061904Y-109109523D02*
X196709523Y-109109523D01*
X196785714Y-109071428D01*
X196823809Y-109033333D01*
X196861904Y-108957142D01*
X196861904Y-108804761D01*
X196823809Y-108728571D01*
X196785714Y-108690476D01*
X196709523Y-108652380D01*
X196061904Y-108652380D01*
X196328571Y-107928571D02*
X196861904Y-107928571D01*
X196023809Y-108119047D02*
X196595238Y-108309523D01*
X196595238Y-107814285D01*
D10*
X128380952Y-96307142D02*
X128333333Y-96354761D01*
X128190476Y-96402380D01*
X128095238Y-96402380D01*
X127952380Y-96354761D01*
X127857142Y-96259523D01*
X127809523Y-96164285D01*
X127761904Y-95973809D01*
X127761904Y-95830952D01*
X127809523Y-95640476D01*
X127857142Y-95545238D01*
X127952380Y-95450000D01*
X128095238Y-95402380D01*
X128190476Y-95402380D01*
X128333333Y-95450000D01*
X128380952Y-95497619D01*
X128809523Y-96402380D02*
X128809523Y-95735714D01*
X128809523Y-95926190D02*
X128857142Y-95830952D01*
X128904761Y-95783333D01*
X129000000Y-95735714D01*
X129095238Y-95735714D01*
X129333333Y-95735714D02*
X129571428Y-96402380D01*
X129809523Y-95735714D02*
X129571428Y-96402380D01*
X129476190Y-96640476D01*
X129428571Y-96688095D01*
X129333333Y-96735714D01*
X130142857Y-96354761D02*
X130238095Y-96402380D01*
X130428571Y-96402380D01*
X130523809Y-96354761D01*
X130571428Y-96259523D01*
X130571428Y-96211904D01*
X130523809Y-96116666D01*
X130428571Y-96069047D01*
X130285714Y-96069047D01*
X130190476Y-96021428D01*
X130142857Y-95926190D01*
X130142857Y-95878571D01*
X130190476Y-95783333D01*
X130285714Y-95735714D01*
X130428571Y-95735714D01*
X130523809Y-95783333D01*
X130857142Y-95735714D02*
X131238095Y-95735714D01*
X131000000Y-95402380D02*
X131000000Y-96259523D01*
X131047619Y-96354761D01*
X131142857Y-96402380D01*
X131238095Y-96402380D01*
X132000000Y-96402380D02*
X132000000Y-95878571D01*
X131952380Y-95783333D01*
X131857142Y-95735714D01*
X131666666Y-95735714D01*
X131571428Y-95783333D01*
X132000000Y-96354761D02*
X131904761Y-96402380D01*
X131666666Y-96402380D01*
X131571428Y-96354761D01*
X131523809Y-96259523D01*
X131523809Y-96164285D01*
X131571428Y-96069047D01*
X131666666Y-96021428D01*
X131904761Y-96021428D01*
X132000000Y-95973809D01*
X132619047Y-96402380D02*
X132523809Y-96354761D01*
X132476190Y-96259523D01*
X132476190Y-95402380D01*
X132761904Y-96497619D02*
X133523809Y-96497619D01*
X133714285Y-95497619D02*
X133761904Y-95450000D01*
X133857142Y-95402380D01*
X134095238Y-95402380D01*
X134190476Y-95450000D01*
X134238095Y-95497619D01*
X134285714Y-95592857D01*
X134285714Y-95688095D01*
X134238095Y-95830952D01*
X133666666Y-96402380D01*
X134285714Y-96402380D01*
X135190476Y-95402380D02*
X134714285Y-95402380D01*
X134666666Y-95878571D01*
X134714285Y-95830952D01*
X134809523Y-95783333D01*
X135047619Y-95783333D01*
X135142857Y-95830952D01*
X135190476Y-95878571D01*
X135238095Y-95973809D01*
X135238095Y-96211904D01*
X135190476Y-96307142D01*
X135142857Y-96354761D01*
X135047619Y-96402380D01*
X134809523Y-96402380D01*
X134714285Y-96354761D01*
X134666666Y-96307142D01*
X135666666Y-96402380D02*
X135666666Y-95402380D01*
X136000000Y-96116666D01*
X136333333Y-95402380D01*
X136333333Y-96402380D01*
X136809523Y-96402380D02*
X136809523Y-95402380D01*
X136809523Y-95878571D02*
X137380952Y-95878571D01*
X137380952Y-96402380D02*
X137380952Y-95402380D01*
X137761904Y-95735714D02*
X138285714Y-95735714D01*
X137761904Y-96402380D01*
X138285714Y-96402380D01*
X167357142Y-110307142D02*
X167309523Y-110354761D01*
X167166666Y-110402380D01*
X167071428Y-110402380D01*
X166928571Y-110354761D01*
X166833333Y-110259523D01*
X166785714Y-110164285D01*
X166738095Y-109973809D01*
X166738095Y-109830952D01*
X166785714Y-109640476D01*
X166833333Y-109545238D01*
X166928571Y-109450000D01*
X167071428Y-109402380D01*
X167166666Y-109402380D01*
X167309523Y-109450000D01*
X167357142Y-109497619D01*
X167785714Y-110402380D02*
X167785714Y-109735714D01*
X167785714Y-109926190D02*
X167833333Y-109830952D01*
X167880952Y-109783333D01*
X167976190Y-109735714D01*
X168071428Y-109735714D01*
X168309523Y-109735714D02*
X168547619Y-110402380D01*
X168785714Y-109735714D02*
X168547619Y-110402380D01*
X168452380Y-110640476D01*
X168404761Y-110688095D01*
X168309523Y-110735714D01*
X169119047Y-110354761D02*
X169214285Y-110402380D01*
X169404761Y-110402380D01*
X169500000Y-110354761D01*
X169547619Y-110259523D01*
X169547619Y-110211904D01*
X169500000Y-110116666D01*
X169404761Y-110069047D01*
X169261904Y-110069047D01*
X169166666Y-110021428D01*
X169119047Y-109926190D01*
X169119047Y-109878571D01*
X169166666Y-109783333D01*
X169261904Y-109735714D01*
X169404761Y-109735714D01*
X169500000Y-109783333D01*
X169833333Y-109735714D02*
X170214285Y-109735714D01*
X169976190Y-109402380D02*
X169976190Y-110259523D01*
X170023809Y-110354761D01*
X170119047Y-110402380D01*
X170214285Y-110402380D01*
X170976190Y-110402380D02*
X170976190Y-109878571D01*
X170928571Y-109783333D01*
X170833333Y-109735714D01*
X170642857Y-109735714D01*
X170547619Y-109783333D01*
X170976190Y-110354761D02*
X170880952Y-110402380D01*
X170642857Y-110402380D01*
X170547619Y-110354761D01*
X170500000Y-110259523D01*
X170500000Y-110164285D01*
X170547619Y-110069047D01*
X170642857Y-110021428D01*
X170880952Y-110021428D01*
X170976190Y-109973809D01*
X171595238Y-110402380D02*
X171500000Y-110354761D01*
X171452380Y-110259523D01*
X171452380Y-109402380D01*
X171738095Y-110497619D02*
X172500000Y-110497619D01*
X172880952Y-109830952D02*
X172785714Y-109783333D01*
X172738095Y-109735714D01*
X172690476Y-109640476D01*
X172690476Y-109592857D01*
X172738095Y-109497619D01*
X172785714Y-109450000D01*
X172880952Y-109402380D01*
X173071428Y-109402380D01*
X173166666Y-109450000D01*
X173214285Y-109497619D01*
X173261904Y-109592857D01*
X173261904Y-109640476D01*
X173214285Y-109735714D01*
X173166666Y-109783333D01*
X173071428Y-109830952D01*
X172880952Y-109830952D01*
X172785714Y-109878571D01*
X172738095Y-109926190D01*
X172690476Y-110021428D01*
X172690476Y-110211904D01*
X172738095Y-110307142D01*
X172785714Y-110354761D01*
X172880952Y-110402380D01*
X173071428Y-110402380D01*
X173166666Y-110354761D01*
X173214285Y-110307142D01*
X173261904Y-110211904D01*
X173261904Y-110021428D01*
X173214285Y-109926190D01*
X173166666Y-109878571D01*
X173071428Y-109830952D01*
X173690476Y-110402380D02*
X173690476Y-109402380D01*
X174023809Y-110116666D01*
X174357142Y-109402380D01*
X174357142Y-110402380D01*
X174833333Y-110402380D02*
X174833333Y-109402380D01*
X174833333Y-109878571D02*
X175404761Y-109878571D01*
X175404761Y-110402380D02*
X175404761Y-109402380D01*
X175785714Y-109735714D02*
X176309523Y-109735714D01*
X175785714Y-110402380D01*
X176309523Y-110402380D01*
D20*
X171166666Y-107483333D02*
X171166666Y-107816666D01*
X170933333Y-107116666D02*
X171166666Y-107483333D01*
X171400000Y-107116666D01*
X171600000Y-107183333D02*
X171633333Y-107150000D01*
X171700000Y-107116666D01*
X171866666Y-107116666D01*
X171933333Y-107150000D01*
X171966666Y-107183333D01*
X172000000Y-107250000D01*
X172000000Y-107316666D01*
X171966666Y-107416666D01*
X171566666Y-107816666D01*
X172000000Y-107816666D01*
D10*
X180266666Y-120257142D02*
X180219047Y-120304761D01*
X180076190Y-120352380D01*
X179980952Y-120352380D01*
X179838095Y-120304761D01*
X179742857Y-120209523D01*
X179695238Y-120114285D01*
X179647619Y-119923809D01*
X179647619Y-119780952D01*
X179695238Y-119590476D01*
X179742857Y-119495238D01*
X179838095Y-119400000D01*
X179980952Y-119352380D01*
X180076190Y-119352380D01*
X180219047Y-119400000D01*
X180266666Y-119447619D01*
X180838095Y-120352380D02*
X180742857Y-120304761D01*
X180695238Y-120257142D01*
X180647619Y-120161904D01*
X180647619Y-119876190D01*
X180695238Y-119780952D01*
X180742857Y-119733333D01*
X180838095Y-119685714D01*
X180980952Y-119685714D01*
X181076190Y-119733333D01*
X181123809Y-119780952D01*
X181171428Y-119876190D01*
X181171428Y-120161904D01*
X181123809Y-120257142D01*
X181076190Y-120304761D01*
X180980952Y-120352380D01*
X180838095Y-120352380D01*
X181600000Y-119685714D02*
X181600000Y-120352380D01*
X181600000Y-119780952D02*
X181647619Y-119733333D01*
X181742857Y-119685714D01*
X181885714Y-119685714D01*
X181980952Y-119733333D01*
X182028571Y-119828571D01*
X182028571Y-120352380D01*
X182504761Y-119685714D02*
X182504761Y-120352380D01*
X182504761Y-119780952D02*
X182552380Y-119733333D01*
X182647619Y-119685714D01*
X182790476Y-119685714D01*
X182885714Y-119733333D01*
X182933333Y-119828571D01*
X182933333Y-120352380D01*
X183171428Y-120447619D02*
X183933333Y-120447619D01*
X184361904Y-119352380D02*
X184457142Y-119352380D01*
X184552380Y-119400000D01*
X184600000Y-119447619D01*
X184647619Y-119542857D01*
X184695238Y-119733333D01*
X184695238Y-119971428D01*
X184647619Y-120161904D01*
X184600000Y-120257142D01*
X184552380Y-120304761D01*
X184457142Y-120352380D01*
X184361904Y-120352380D01*
X184266666Y-120304761D01*
X184219047Y-120257142D01*
X184171428Y-120161904D01*
X184123809Y-119971428D01*
X184123809Y-119733333D01*
X184171428Y-119542857D01*
X184219047Y-119447619D01*
X184266666Y-119400000D01*
X184361904Y-119352380D01*
X185647619Y-120352380D02*
X185076190Y-120352380D01*
X185361904Y-120352380D02*
X185361904Y-119352380D01*
X185266666Y-119495238D01*
X185171428Y-119590476D01*
X185076190Y-119638095D01*
X185980952Y-120352380D02*
X186504761Y-119685714D01*
X185980952Y-119685714D02*
X186504761Y-120352380D01*
X187076190Y-119352380D02*
X187171428Y-119352380D01*
X187266666Y-119400000D01*
X187314285Y-119447619D01*
X187361904Y-119542857D01*
X187409523Y-119733333D01*
X187409523Y-119971428D01*
X187361904Y-120161904D01*
X187314285Y-120257142D01*
X187266666Y-120304761D01*
X187171428Y-120352380D01*
X187076190Y-120352380D01*
X186980952Y-120304761D01*
X186933333Y-120257142D01*
X186885714Y-120161904D01*
X186838095Y-119971428D01*
X186838095Y-119733333D01*
X186885714Y-119542857D01*
X186933333Y-119447619D01*
X186980952Y-119400000D01*
X187076190Y-119352380D01*
X187790476Y-119447619D02*
X187838095Y-119400000D01*
X187933333Y-119352380D01*
X188171428Y-119352380D01*
X188266666Y-119400000D01*
X188314285Y-119447619D01*
X188361904Y-119542857D01*
X188361904Y-119638095D01*
X188314285Y-119780952D01*
X187742857Y-120352380D01*
X188361904Y-120352380D01*
X188552380Y-120447619D02*
X189314285Y-120447619D01*
X189552380Y-120352380D02*
X189552380Y-119352380D01*
X189885714Y-120066666D01*
X190219047Y-119352380D01*
X190219047Y-120352380D01*
X191123809Y-120352380D02*
X191123809Y-119828571D01*
X191076190Y-119733333D01*
X190980952Y-119685714D01*
X190790476Y-119685714D01*
X190695238Y-119733333D01*
X191123809Y-120304761D02*
X191028571Y-120352380D01*
X190790476Y-120352380D01*
X190695238Y-120304761D01*
X190647619Y-120209523D01*
X190647619Y-120114285D01*
X190695238Y-120019047D01*
X190790476Y-119971428D01*
X191028571Y-119971428D01*
X191123809Y-119923809D01*
X191742857Y-120352380D02*
X191647619Y-120304761D01*
X191600000Y-120209523D01*
X191600000Y-119352380D01*
X192504761Y-120304761D02*
X192409523Y-120352380D01*
X192219047Y-120352380D01*
X192123809Y-120304761D01*
X192076190Y-120209523D01*
X192076190Y-119828571D01*
X192123809Y-119733333D01*
X192219047Y-119685714D01*
X192409523Y-119685714D01*
X192504761Y-119733333D01*
X192552380Y-119828571D01*
X192552380Y-119923809D01*
X192076190Y-120019047D01*
X185766666Y-114002380D02*
X185766666Y-114716666D01*
X185719047Y-114859523D01*
X185623809Y-114954761D01*
X185480952Y-115002380D01*
X185385714Y-115002380D01*
X186195238Y-114097619D02*
X186242857Y-114050000D01*
X186338095Y-114002380D01*
X186576190Y-114002380D01*
X186671428Y-114050000D01*
X186719047Y-114097619D01*
X186766666Y-114192857D01*
X186766666Y-114288095D01*
X186719047Y-114430952D01*
X186147619Y-115002380D01*
X186766666Y-115002380D01*
X163772380Y-98571428D02*
X163296190Y-98904761D01*
X163772380Y-99142857D02*
X162772380Y-99142857D01*
X162772380Y-98761904D01*
X162820000Y-98666666D01*
X162867619Y-98619047D01*
X162962857Y-98571428D01*
X163105714Y-98571428D01*
X163200952Y-98619047D01*
X163248571Y-98666666D01*
X163296190Y-98761904D01*
X163296190Y-99142857D01*
X163772380Y-97619047D02*
X163772380Y-98190476D01*
X163772380Y-97904761D02*
X162772380Y-97904761D01*
X162915238Y-98000000D01*
X163010476Y-98095238D01*
X163058095Y-98190476D01*
X163772380Y-97190476D02*
X162772380Y-97190476D01*
X163391428Y-97095238D02*
X163772380Y-96809523D01*
X163105714Y-96809523D02*
X163486666Y-97190476D01*
D18*
X164930952Y-98257142D02*
X164740476Y-98390476D01*
X164930952Y-98485714D02*
X164530952Y-98485714D01*
X164530952Y-98333333D01*
X164550000Y-98295238D01*
X164569047Y-98276190D01*
X164607142Y-98257142D01*
X164664285Y-98257142D01*
X164702380Y-98276190D01*
X164721428Y-98295238D01*
X164740476Y-98333333D01*
X164740476Y-98485714D01*
X164930952Y-97876190D02*
X164930952Y-98104761D01*
X164930952Y-97990476D02*
X164530952Y-97990476D01*
X164588095Y-98028571D01*
X164626190Y-98066666D01*
X164645238Y-98104761D01*
X164664285Y-97533333D02*
X164930952Y-97533333D01*
X164511904Y-97628571D02*
X164797619Y-97723809D01*
X164797619Y-97476190D01*
D10*
X178422380Y-96371428D02*
X177946190Y-96704761D01*
X178422380Y-96942857D02*
X177422380Y-96942857D01*
X177422380Y-96561904D01*
X177470000Y-96466666D01*
X177517619Y-96419047D01*
X177612857Y-96371428D01*
X177755714Y-96371428D01*
X177850952Y-96419047D01*
X177898571Y-96466666D01*
X177946190Y-96561904D01*
X177946190Y-96942857D01*
X178422380Y-95419047D02*
X178422380Y-95990476D01*
X178422380Y-95704761D02*
X177422380Y-95704761D01*
X177565238Y-95800000D01*
X177660476Y-95895238D01*
X177708095Y-95990476D01*
X178422380Y-94990476D02*
X177422380Y-94990476D01*
X178041428Y-94895238D02*
X178422380Y-94609523D01*
X177755714Y-94609523D02*
X178136666Y-94990476D01*
D18*
X179580952Y-96057142D02*
X179390476Y-96190476D01*
X179580952Y-96285714D02*
X179180952Y-96285714D01*
X179180952Y-96133333D01*
X179200000Y-96095238D01*
X179219047Y-96076190D01*
X179257142Y-96057142D01*
X179314285Y-96057142D01*
X179352380Y-96076190D01*
X179371428Y-96095238D01*
X179390476Y-96133333D01*
X179390476Y-96285714D01*
X179580952Y-95676190D02*
X179580952Y-95904761D01*
X179580952Y-95790476D02*
X179180952Y-95790476D01*
X179238095Y-95828571D01*
X179276190Y-95866666D01*
X179295238Y-95904761D01*
X179180952Y-95314285D02*
X179180952Y-95504761D01*
X179371428Y-95523809D01*
X179352380Y-95504761D01*
X179333333Y-95466666D01*
X179333333Y-95371428D01*
X179352380Y-95333333D01*
X179371428Y-95314285D01*
X179409523Y-95295238D01*
X179504761Y-95295238D01*
X179542857Y-95314285D01*
X179561904Y-95333333D01*
X179580952Y-95371428D01*
X179580952Y-95466666D01*
X179561904Y-95504761D01*
X179542857Y-95523809D01*
D10*
X182767142Y-95833333D02*
X182814761Y-95880952D01*
X182862380Y-96023809D01*
X182862380Y-96119047D01*
X182814761Y-96261904D01*
X182719523Y-96357142D01*
X182624285Y-96404761D01*
X182433809Y-96452380D01*
X182290952Y-96452380D01*
X182100476Y-96404761D01*
X182005238Y-96357142D01*
X181910000Y-96261904D01*
X181862380Y-96119047D01*
X181862380Y-96023809D01*
X181910000Y-95880952D01*
X181957619Y-95833333D01*
X182862380Y-95261904D02*
X182814761Y-95357142D01*
X182767142Y-95404761D01*
X182671904Y-95452380D01*
X182386190Y-95452380D01*
X182290952Y-95404761D01*
X182243333Y-95357142D01*
X182195714Y-95261904D01*
X182195714Y-95119047D01*
X182243333Y-95023809D01*
X182290952Y-94976190D01*
X182386190Y-94928571D01*
X182671904Y-94928571D01*
X182767142Y-94976190D01*
X182814761Y-95023809D01*
X182862380Y-95119047D01*
X182862380Y-95261904D01*
X182195714Y-94500000D02*
X182862380Y-94500000D01*
X182290952Y-94500000D02*
X182243333Y-94452380D01*
X182195714Y-94357142D01*
X182195714Y-94214285D01*
X182243333Y-94119047D01*
X182338571Y-94071428D01*
X182862380Y-94071428D01*
X182195714Y-93595238D02*
X182862380Y-93595238D01*
X182290952Y-93595238D02*
X182243333Y-93547619D01*
X182195714Y-93452380D01*
X182195714Y-93309523D01*
X182243333Y-93214285D01*
X182338571Y-93166666D01*
X182862380Y-93166666D01*
X182957619Y-92928571D02*
X182957619Y-92166666D01*
X181862380Y-91738095D02*
X181862380Y-91642857D01*
X181910000Y-91547619D01*
X181957619Y-91500000D01*
X182052857Y-91452380D01*
X182243333Y-91404761D01*
X182481428Y-91404761D01*
X182671904Y-91452380D01*
X182767142Y-91500000D01*
X182814761Y-91547619D01*
X182862380Y-91642857D01*
X182862380Y-91738095D01*
X182814761Y-91833333D01*
X182767142Y-91880952D01*
X182671904Y-91928571D01*
X182481428Y-91976190D01*
X182243333Y-91976190D01*
X182052857Y-91928571D01*
X181957619Y-91880952D01*
X181910000Y-91833333D01*
X181862380Y-91738095D01*
X182862380Y-90452380D02*
X182862380Y-91023809D01*
X182862380Y-90738095D02*
X181862380Y-90738095D01*
X182005238Y-90833333D01*
X182100476Y-90928571D01*
X182148095Y-91023809D01*
X182862380Y-90119047D02*
X182195714Y-89595238D01*
X182195714Y-90119047D02*
X182862380Y-89595238D01*
X181862380Y-89023809D02*
X181862380Y-88928571D01*
X181910000Y-88833333D01*
X181957619Y-88785714D01*
X182052857Y-88738095D01*
X182243333Y-88690476D01*
X182481428Y-88690476D01*
X182671904Y-88738095D01*
X182767142Y-88785714D01*
X182814761Y-88833333D01*
X182862380Y-88928571D01*
X182862380Y-89023809D01*
X182814761Y-89119047D01*
X182767142Y-89166666D01*
X182671904Y-89214285D01*
X182481428Y-89261904D01*
X182243333Y-89261904D01*
X182052857Y-89214285D01*
X181957619Y-89166666D01*
X181910000Y-89119047D01*
X181862380Y-89023809D01*
X181862380Y-87833333D02*
X181862380Y-88023809D01*
X181910000Y-88119047D01*
X181957619Y-88166666D01*
X182100476Y-88261904D01*
X182290952Y-88309523D01*
X182671904Y-88309523D01*
X182767142Y-88261904D01*
X182814761Y-88214285D01*
X182862380Y-88119047D01*
X182862380Y-87928571D01*
X182814761Y-87833333D01*
X182767142Y-87785714D01*
X182671904Y-87738095D01*
X182433809Y-87738095D01*
X182338571Y-87785714D01*
X182290952Y-87833333D01*
X182243333Y-87928571D01*
X182243333Y-88119047D01*
X182290952Y-88214285D01*
X182338571Y-88261904D01*
X182433809Y-88309523D01*
X182957619Y-87547619D02*
X182957619Y-86785714D01*
X182862380Y-86547619D02*
X181862380Y-86547619D01*
X182576666Y-86214285D01*
X181862380Y-85880952D01*
X182862380Y-85880952D01*
X182862380Y-84976190D02*
X182338571Y-84976190D01*
X182243333Y-85023809D01*
X182195714Y-85119047D01*
X182195714Y-85309523D01*
X182243333Y-85404761D01*
X182814761Y-84976190D02*
X182862380Y-85071428D01*
X182862380Y-85309523D01*
X182814761Y-85404761D01*
X182719523Y-85452380D01*
X182624285Y-85452380D01*
X182529047Y-85404761D01*
X182481428Y-85309523D01*
X182481428Y-85071428D01*
X182433809Y-84976190D01*
X182862380Y-84357142D02*
X182814761Y-84452380D01*
X182719523Y-84500000D01*
X181862380Y-84500000D01*
X182814761Y-83595238D02*
X182862380Y-83690476D01*
X182862380Y-83880952D01*
X182814761Y-83976190D01*
X182719523Y-84023809D01*
X182338571Y-84023809D01*
X182243333Y-83976190D01*
X182195714Y-83880952D01*
X182195714Y-83690476D01*
X182243333Y-83595238D01*
X182338571Y-83547619D01*
X182433809Y-83547619D01*
X182529047Y-84023809D01*
X173396666Y-89452380D02*
X173396666Y-90166666D01*
X173349047Y-90309523D01*
X173253809Y-90404761D01*
X173110952Y-90452380D01*
X173015714Y-90452380D01*
X173920476Y-90452380D02*
X174110952Y-90452380D01*
X174206190Y-90404761D01*
X174253809Y-90357142D01*
X174349047Y-90214285D01*
X174396666Y-90023809D01*
X174396666Y-89642857D01*
X174349047Y-89547619D01*
X174301428Y-89500000D01*
X174206190Y-89452380D01*
X174015714Y-89452380D01*
X173920476Y-89500000D01*
X173872857Y-89547619D01*
X173825238Y-89642857D01*
X173825238Y-89880952D01*
X173872857Y-89976190D01*
X173920476Y-90023809D01*
X174015714Y-90071428D01*
X174206190Y-90071428D01*
X174301428Y-90023809D01*
X174349047Y-89976190D01*
X174396666Y-89880952D01*
M02*
