%TF.GenerationSoftware,KiCad,Pcbnew,(5.1.8-0-10_14)*%
%TF.CreationDate,2021-02-08T17:53:51+01:00*%
%TF.ProjectId,ethersweep,65746865-7273-4776-9565-702e6b696361,rev?*%
%TF.SameCoordinates,Original*%
%TF.FileFunction,Legend,Top*%
%TF.FilePolarity,Positive*%
%FSLAX46Y46*%
G04 Gerber Fmt 4.6, Leading zero omitted, Abs format (unit mm)*
G04 Created by KiCad (PCBNEW (5.1.8-0-10_14)) date 2021-02-08 17:53:51*
%MOMM*%
%LPD*%
G01*
G04 APERTURE LIST*
%TA.AperFunction,Profile*%
%ADD10C,0.150000*%
%TD*%
%ADD11C,0.150000*%
%ADD12C,0.120000*%
%ADD13C,0.200000*%
%ADD14C,0.127000*%
%ADD15C,0.015000*%
G04 APERTURE END LIST*
D10*
X163500000Y-98250000D02*
G75*
G02*
X160500000Y-98250000I-1500000J0D01*
G01*
X160500000Y-91000000D02*
G75*
G02*
X163500000Y-91000000I1500000J0D01*
G01*
X163500000Y-98250000D02*
X163500000Y-91000000D01*
X160500000Y-91000000D02*
X160500000Y-98250000D01*
X160500000Y-102250000D02*
G75*
G02*
X163500000Y-102250000I1500000J0D01*
G01*
X160500000Y-102250000D02*
X160500000Y-109500000D01*
X163500000Y-109500000D02*
X163500000Y-102250000D01*
X163500000Y-109500000D02*
G75*
G02*
X160500000Y-109500000I-1500000J0D01*
G01*
X163500000Y-87250000D02*
G75*
G03*
X163500000Y-87250000I-1500000J0D01*
G01*
X163500000Y-113250000D02*
G75*
G03*
X163500000Y-113250000I-1500000J0D01*
G01*
X160500000Y-84500000D02*
X160500000Y-85000000D01*
X163500000Y-84500000D02*
X163500000Y-85000000D01*
X160500000Y-115500000D02*
X163500000Y-115500000D01*
X163500000Y-85000000D02*
X160500000Y-85000000D01*
X149500000Y-89000000D02*
G75*
G03*
X149500000Y-89000000I-1500000J0D01*
G01*
D11*
X161500000Y-94000000D02*
X161500000Y-106500000D01*
X122000000Y-94000000D02*
X161500000Y-94000000D01*
X122000000Y-106500000D02*
X122000000Y-94000000D01*
X161500000Y-106500000D02*
X122000000Y-106500000D01*
D10*
X129500000Y-90000000D02*
X129500000Y-81000000D01*
X126000000Y-81000000D02*
X129500000Y-81000000D01*
X126000000Y-81000000D02*
G75*
G03*
X122500000Y-84500000I0J-3500000D01*
G01*
X146500000Y-81000000D02*
X157000000Y-81000000D01*
X143500000Y-90000000D02*
X129500000Y-90000000D01*
X146500000Y-87000000D02*
X143500000Y-90000000D01*
X146500000Y-81000000D02*
X146500000Y-87000000D01*
X180500000Y-81000000D02*
X167000000Y-81000000D01*
X184500000Y-81000000D02*
X198000000Y-81000000D01*
X184500000Y-81000000D02*
G75*
G02*
X180500000Y-81000000I-2000000J500000D01*
G01*
X163500000Y-84500000D02*
G75*
G02*
X167000000Y-81000000I3500000J0D01*
G01*
X201500000Y-115500000D02*
G75*
G02*
X198000000Y-119000000I-3500000J0D01*
G01*
X167000000Y-119000000D02*
G75*
G02*
X163500000Y-115500000I0J3500000D01*
G01*
X167000000Y-119000000D02*
X198000000Y-119000000D01*
X198000000Y-81000000D02*
G75*
G02*
X201500000Y-84500000I0J-3500000D01*
G01*
X201500000Y-115500000D02*
X201500000Y-84500000D01*
X122500000Y-115500000D02*
X122500000Y-84500000D01*
X160500000Y-84500000D02*
G75*
G03*
X157000000Y-81000000I-3500000J0D01*
G01*
X157000000Y-119000000D02*
G75*
G03*
X160500000Y-115500000I0J3500000D01*
G01*
X122500000Y-115500000D02*
G75*
G03*
X126000000Y-119000000I3500000J0D01*
G01*
X157000000Y-119000000D02*
X126000000Y-119000000D01*
D12*
X144320000Y-113000000D02*
X145320000Y-112500000D01*
X144320000Y-112000000D02*
X144320000Y-113000000D01*
X145320000Y-112500000D02*
X144320000Y-112000000D01*
X147020000Y-117090000D02*
X145710000Y-117090000D01*
X147020000Y-117090000D02*
X147020000Y-117090000D01*
X147020000Y-121490000D02*
X147020000Y-117090000D01*
X153520000Y-121490000D02*
X147020000Y-121490000D01*
X153520000Y-108590000D02*
X153520000Y-121490000D01*
X147020000Y-108590000D02*
X153520000Y-108590000D01*
X147020000Y-112990000D02*
X147020000Y-108590000D01*
X145710000Y-112990000D02*
X147020000Y-112990000D01*
X145710000Y-122790000D02*
X145710000Y-107290000D01*
X154830000Y-122790000D02*
X145710000Y-122790000D01*
X154830000Y-107290000D02*
X154830000Y-122790000D01*
X145710000Y-107290000D02*
X154830000Y-107290000D01*
X178290000Y-92710000D02*
X169170000Y-92710000D01*
X169170000Y-92710000D02*
X169170000Y-77210000D01*
X169170000Y-77210000D02*
X178290000Y-77210000D01*
X178290000Y-77210000D02*
X178290000Y-92710000D01*
X178290000Y-87010000D02*
X176980000Y-87010000D01*
X176980000Y-87010000D02*
X176980000Y-91410000D01*
X176980000Y-91410000D02*
X170480000Y-91410000D01*
X170480000Y-91410000D02*
X170480000Y-78510000D01*
X170480000Y-78510000D02*
X176980000Y-78510000D01*
X176980000Y-78510000D02*
X176980000Y-82910000D01*
X176980000Y-82910000D02*
X176980000Y-82910000D01*
X176980000Y-82910000D02*
X178290000Y-82910000D01*
X178680000Y-87500000D02*
X179680000Y-88000000D01*
X179680000Y-88000000D02*
X179680000Y-87000000D01*
X179680000Y-87000000D02*
X178680000Y-87500000D01*
X167235000Y-93227064D02*
X167235000Y-92772936D01*
X165765000Y-93227064D02*
X165765000Y-92772936D01*
X173988748Y-93735000D02*
X174511252Y-93735000D01*
X173988748Y-92265000D02*
X174511252Y-92265000D01*
X191310000Y-97065000D02*
X187400000Y-97065000D01*
X191310000Y-98935000D02*
X191310000Y-97065000D01*
X187400000Y-98935000D02*
X191310000Y-98935000D01*
X127761252Y-94235000D02*
X127238748Y-94235000D01*
X127761252Y-92765000D02*
X127238748Y-92765000D01*
X135640000Y-94107836D02*
X135640000Y-93892164D01*
X136360000Y-94107836D02*
X136360000Y-93892164D01*
X130360000Y-94107836D02*
X130360000Y-93892164D01*
X129640000Y-94107836D02*
X129640000Y-93892164D01*
X188761252Y-101235000D02*
X188238748Y-101235000D01*
X188761252Y-99765000D02*
X188238748Y-99765000D01*
X127761252Y-95265000D02*
X127238748Y-95265000D01*
X127761252Y-96735000D02*
X127238748Y-96735000D01*
X168860000Y-107607836D02*
X168860000Y-107392164D01*
X168140000Y-107607836D02*
X168140000Y-107392164D01*
X189211252Y-107765000D02*
X188688748Y-107765000D01*
X189211252Y-109235000D02*
X188688748Y-109235000D01*
X174140000Y-107607836D02*
X174140000Y-107392164D01*
X174860000Y-107607836D02*
X174860000Y-107392164D01*
X187900000Y-106935000D02*
X191810000Y-106935000D01*
X191810000Y-106935000D02*
X191810000Y-105065000D01*
X191810000Y-105065000D02*
X187900000Y-105065000D01*
X179238748Y-104265000D02*
X179761252Y-104265000D01*
X179238748Y-105735000D02*
X179761252Y-105735000D01*
X128265000Y-107238748D02*
X128265000Y-107761252D01*
X129735000Y-107238748D02*
X129735000Y-107761252D01*
X141738748Y-93235000D02*
X142261252Y-93235000D01*
X141738748Y-91765000D02*
X142261252Y-91765000D01*
X133761252Y-109235000D02*
X133238748Y-109235000D01*
X133761252Y-107765000D02*
X133238748Y-107765000D01*
X148238748Y-103235000D02*
X148761252Y-103235000D01*
X148238748Y-101765000D02*
X148761252Y-101765000D01*
X148238748Y-99620001D02*
X148761252Y-99620001D01*
X148238748Y-101090001D02*
X148761252Y-101090001D01*
X196765000Y-90261252D02*
X196765000Y-89738748D01*
X198235000Y-90261252D02*
X198235000Y-89738748D01*
X192765000Y-83261252D02*
X192765000Y-82738748D01*
X194235000Y-83261252D02*
X194235000Y-82738748D01*
X200260000Y-104760000D02*
X200260000Y-102010000D01*
X200260000Y-96240000D02*
X200260000Y-98990000D01*
X192804437Y-96240000D02*
X200260000Y-96240000D01*
X192804437Y-104760000D02*
X200260000Y-104760000D01*
X191740000Y-103695563D02*
X191740000Y-102010000D01*
X191740000Y-97304437D02*
X191740000Y-98990000D01*
X191740000Y-97304437D02*
X192804437Y-96240000D01*
X191740000Y-103695563D02*
X192804437Y-104760000D01*
X190500000Y-97990000D02*
X191500000Y-97990000D01*
X191000000Y-97490000D02*
X191000000Y-98490000D01*
X184735000Y-92261252D02*
X184735000Y-91738748D01*
X183265000Y-92261252D02*
X183265000Y-91738748D01*
X198238748Y-95735000D02*
X198761252Y-95735000D01*
X198238748Y-94265000D02*
X198761252Y-94265000D01*
X198238748Y-92265000D02*
X198761252Y-92265000D01*
X198238748Y-93735000D02*
X198761252Y-93735000D01*
X148960000Y-84500000D02*
X148960000Y-81815000D01*
X148960000Y-81815000D02*
X147040000Y-81815000D01*
X147040000Y-81815000D02*
X147040000Y-84500000D01*
X125330000Y-95050000D02*
X122670000Y-95050000D01*
X125330000Y-102730000D02*
X125330000Y-95050000D01*
X122670000Y-102730000D02*
X122670000Y-95050000D01*
X125330000Y-102730000D02*
X122670000Y-102730000D01*
X125330000Y-104000000D02*
X125330000Y-105330000D01*
X125330000Y-105330000D02*
X124000000Y-105330000D01*
X178400000Y-83400000D02*
X183600000Y-83400000D01*
X178400000Y-88600000D02*
X183600000Y-88600000D01*
X176960000Y-83970000D02*
X178400000Y-83970000D01*
X178400000Y-83400000D02*
X178400000Y-83970000D01*
X183600000Y-83400000D02*
X183600000Y-83970000D01*
X178400000Y-88030000D02*
X178400000Y-88600000D01*
X183600000Y-88030000D02*
X183600000Y-88600000D01*
X178400000Y-85490000D02*
X178400000Y-86510000D01*
X183600000Y-85490000D02*
X183600000Y-86510000D01*
X163765000Y-93227064D02*
X163765000Y-92772936D01*
X165235000Y-93227064D02*
X165235000Y-92772936D01*
X151272936Y-87765000D02*
X151727064Y-87765000D01*
X151272936Y-89235000D02*
X151727064Y-89235000D01*
X139522500Y-107737258D02*
X139522500Y-107262742D01*
X138477500Y-107737258D02*
X138477500Y-107262742D01*
X153237258Y-101977500D02*
X152762742Y-101977500D01*
X153237258Y-103022500D02*
X152762742Y-103022500D01*
X153237258Y-101022500D02*
X152762742Y-101022500D01*
X153237258Y-99977500D02*
X152762742Y-99977500D01*
X138977500Y-93262742D02*
X138977500Y-93737258D01*
X140022500Y-93262742D02*
X140022500Y-93737258D01*
X138522500Y-93262742D02*
X138522500Y-93737258D01*
X137477500Y-93262742D02*
X137477500Y-93737258D01*
X136522500Y-107737258D02*
X136522500Y-107262742D01*
X135477500Y-107737258D02*
X135477500Y-107262742D01*
X136977500Y-107737258D02*
X136977500Y-107262742D01*
X138022500Y-107737258D02*
X138022500Y-107262742D01*
X191910000Y-84227064D02*
X191910000Y-82772936D01*
X190090000Y-84227064D02*
X190090000Y-82772936D01*
X186590000Y-84227064D02*
X186590000Y-82772936D01*
X188410000Y-84227064D02*
X188410000Y-82772936D01*
X148237258Y-87022500D02*
X147762742Y-87022500D01*
X148237258Y-85977500D02*
X147762742Y-85977500D01*
X172470000Y-119425000D02*
X172470000Y-109655000D01*
X177540000Y-119425000D02*
X177540000Y-109655000D01*
X172470000Y-119425000D02*
X177540000Y-119425000D01*
X172470000Y-109655000D02*
X177540000Y-109655000D01*
X149930000Y-86570000D02*
X149930000Y-82430000D01*
X152770000Y-82430000D02*
X153070000Y-82430000D01*
X153070000Y-82430000D02*
X153070000Y-86570000D01*
X150230000Y-86570000D02*
X149930000Y-86570000D01*
X153070000Y-86570000D02*
X152770000Y-86570000D01*
X149930000Y-82430000D02*
X150230000Y-82430000D01*
D11*
X129175000Y-103375000D02*
X129750000Y-103375000D01*
X129175000Y-97625000D02*
X129825000Y-97625000D01*
X139825000Y-97625000D02*
X139175000Y-97625000D01*
X139825000Y-103375000D02*
X139175000Y-103375000D01*
X129175000Y-103375000D02*
X129175000Y-97625000D01*
X139825000Y-103375000D02*
X139825000Y-97625000D01*
X129750000Y-103375000D02*
X129750000Y-104975000D01*
X167875000Y-103125000D02*
X168100000Y-103125000D01*
X167875000Y-95875000D02*
X168200000Y-95875000D01*
X175125000Y-95875000D02*
X174800000Y-95875000D01*
X175125000Y-103125000D02*
X174800000Y-103125000D01*
X167875000Y-103125000D02*
X167875000Y-102800000D01*
X175125000Y-103125000D02*
X175125000Y-102800000D01*
X175125000Y-95875000D02*
X175125000Y-96200000D01*
X167875000Y-95875000D02*
X167875000Y-96200000D01*
X168100000Y-103125000D02*
X168100000Y-104550000D01*
D13*
X195135000Y-87260000D02*
G75*
G03*
X195135000Y-87260000I-100000J0D01*
G01*
D14*
X195670000Y-89300000D02*
X195670000Y-93700000D01*
X185330000Y-89300000D02*
X185330000Y-93700000D01*
D12*
X194590000Y-105090000D02*
X194590000Y-106350000D01*
X194590000Y-111910000D02*
X194590000Y-110650000D01*
X198350000Y-105090000D02*
X194590000Y-105090000D01*
X200600000Y-111910000D02*
X194590000Y-111910000D01*
X131000000Y-91850000D02*
X131000000Y-95150000D01*
X131000000Y-95150000D02*
X135000000Y-95150000D01*
X169500000Y-109150000D02*
X173500000Y-109150000D01*
X169500000Y-105850000D02*
X169500000Y-109150000D01*
X178250000Y-116050000D02*
X181100000Y-118650000D01*
X181100000Y-110350000D02*
X178250000Y-112900000D01*
X193950000Y-118650000D02*
X193950000Y-110350000D01*
X181100000Y-118650000D02*
X193950000Y-118650000D01*
X178250000Y-112900000D02*
X178250000Y-116050000D01*
X193950000Y-110350000D02*
X181100000Y-110350000D01*
X164227500Y-97762742D02*
X164227500Y-98237258D01*
X165272500Y-97762742D02*
X165272500Y-98237258D01*
X179922500Y-95562742D02*
X179922500Y-96037258D01*
X178877500Y-95562742D02*
X178877500Y-96037258D01*
X166050000Y-91330000D02*
X166050000Y-90000000D01*
X167380000Y-91330000D02*
X166050000Y-91330000D01*
X168650000Y-91330000D02*
X168650000Y-88670000D01*
X168650000Y-88670000D02*
X181410000Y-88670000D01*
X168650000Y-91330000D02*
X181410000Y-91330000D01*
X181410000Y-91330000D02*
X181410000Y-88670000D01*
D11*
X149936666Y-105852380D02*
X149936666Y-106566666D01*
X149889047Y-106709523D01*
X149793809Y-106804761D01*
X149650952Y-106852380D01*
X149555714Y-106852380D01*
X150555714Y-106280952D02*
X150460476Y-106233333D01*
X150412857Y-106185714D01*
X150365238Y-106090476D01*
X150365238Y-106042857D01*
X150412857Y-105947619D01*
X150460476Y-105900000D01*
X150555714Y-105852380D01*
X150746190Y-105852380D01*
X150841428Y-105900000D01*
X150889047Y-105947619D01*
X150936666Y-106042857D01*
X150936666Y-106090476D01*
X150889047Y-106185714D01*
X150841428Y-106233333D01*
X150746190Y-106280952D01*
X150555714Y-106280952D01*
X150460476Y-106328571D01*
X150412857Y-106376190D01*
X150365238Y-106471428D01*
X150365238Y-106661904D01*
X150412857Y-106757142D01*
X150460476Y-106804761D01*
X150555714Y-106852380D01*
X150746190Y-106852380D01*
X150841428Y-106804761D01*
X150889047Y-106757142D01*
X150936666Y-106661904D01*
X150936666Y-106471428D01*
X150889047Y-106376190D01*
X150841428Y-106328571D01*
X150746190Y-106280952D01*
X173396666Y-93052380D02*
X173396666Y-93766666D01*
X173349047Y-93909523D01*
X173253809Y-94004761D01*
X173110952Y-94052380D01*
X173015714Y-94052380D01*
X174396666Y-94052380D02*
X173825238Y-94052380D01*
X174110952Y-94052380D02*
X174110952Y-93052380D01*
X174015714Y-93195238D01*
X173920476Y-93290476D01*
X173825238Y-93338095D01*
X166333333Y-95702380D02*
X166000000Y-95226190D01*
X165761904Y-95702380D02*
X165761904Y-94702380D01*
X166142857Y-94702380D01*
X166238095Y-94750000D01*
X166285714Y-94797619D01*
X166333333Y-94892857D01*
X166333333Y-95035714D01*
X166285714Y-95130952D01*
X166238095Y-95178571D01*
X166142857Y-95226190D01*
X165761904Y-95226190D01*
X166714285Y-94797619D02*
X166761904Y-94750000D01*
X166857142Y-94702380D01*
X167095238Y-94702380D01*
X167190476Y-94750000D01*
X167238095Y-94797619D01*
X167285714Y-94892857D01*
X167285714Y-94988095D01*
X167238095Y-95130952D01*
X166666666Y-95702380D01*
X167285714Y-95702380D01*
X163738095Y-112452380D02*
X163738095Y-111452380D01*
X163738095Y-111928571D02*
X164309523Y-111928571D01*
X164309523Y-112452380D02*
X164309523Y-111452380D01*
X165214285Y-111785714D02*
X165214285Y-112452380D01*
X164976190Y-111404761D02*
X164738095Y-112119047D01*
X165357142Y-112119047D01*
X197238095Y-111727381D02*
X197238095Y-110727381D01*
X197238095Y-111203572D02*
X197809523Y-111203572D01*
X197809523Y-111727381D02*
X197809523Y-110727381D01*
X198190476Y-110727381D02*
X198809523Y-110727381D01*
X198476190Y-111108334D01*
X198619047Y-111108334D01*
X198714285Y-111155953D01*
X198761904Y-111203572D01*
X198809523Y-111298810D01*
X198809523Y-111536905D01*
X198761904Y-111632143D01*
X198714285Y-111679762D01*
X198619047Y-111727381D01*
X198333333Y-111727381D01*
X198238095Y-111679762D01*
X198190476Y-111632143D01*
X197238095Y-80752380D02*
X197238095Y-79752380D01*
X197238095Y-80228571D02*
X197809523Y-80228571D01*
X197809523Y-80752380D02*
X197809523Y-79752380D01*
X198238095Y-79847619D02*
X198285714Y-79800000D01*
X198380952Y-79752380D01*
X198619047Y-79752380D01*
X198714285Y-79800000D01*
X198761904Y-79847619D01*
X198809523Y-79942857D01*
X198809523Y-80038095D01*
X198761904Y-80180952D01*
X198190476Y-80752380D01*
X198809523Y-80752380D01*
X166238095Y-80752380D02*
X166238095Y-79752380D01*
X166238095Y-80228571D02*
X166809523Y-80228571D01*
X166809523Y-80752380D02*
X166809523Y-79752380D01*
X167809523Y-80752380D02*
X167238095Y-80752380D01*
X167523809Y-80752380D02*
X167523809Y-79752380D01*
X167428571Y-79895238D01*
X167333333Y-79990476D01*
X167238095Y-80038095D01*
X174083333Y-91857142D02*
X174035714Y-91904761D01*
X173892857Y-91952380D01*
X173797619Y-91952380D01*
X173654761Y-91904761D01*
X173559523Y-91809523D01*
X173511904Y-91714285D01*
X173464285Y-91523809D01*
X173464285Y-91380952D01*
X173511904Y-91190476D01*
X173559523Y-91095238D01*
X173654761Y-91000000D01*
X173797619Y-90952380D01*
X173892857Y-90952380D01*
X174035714Y-91000000D01*
X174083333Y-91047619D01*
X175035714Y-91952380D02*
X174464285Y-91952380D01*
X174750000Y-91952380D02*
X174750000Y-90952380D01*
X174654761Y-91095238D01*
X174559523Y-91190476D01*
X174464285Y-91238095D01*
X185333333Y-98357142D02*
X185285714Y-98404761D01*
X185142857Y-98452380D01*
X185047619Y-98452380D01*
X184904761Y-98404761D01*
X184809523Y-98309523D01*
X184761904Y-98214285D01*
X184714285Y-98023809D01*
X184714285Y-97880952D01*
X184761904Y-97690476D01*
X184809523Y-97595238D01*
X184904761Y-97500000D01*
X185047619Y-97452380D01*
X185142857Y-97452380D01*
X185285714Y-97500000D01*
X185333333Y-97547619D01*
X185714285Y-97547619D02*
X185761904Y-97500000D01*
X185857142Y-97452380D01*
X186095238Y-97452380D01*
X186190476Y-97500000D01*
X186238095Y-97547619D01*
X186285714Y-97642857D01*
X186285714Y-97738095D01*
X186238095Y-97880952D01*
X185666666Y-98452380D01*
X186285714Y-98452380D01*
X127333333Y-91857142D02*
X127285714Y-91904761D01*
X127142857Y-91952380D01*
X127047619Y-91952380D01*
X126904761Y-91904761D01*
X126809523Y-91809523D01*
X126761904Y-91714285D01*
X126714285Y-91523809D01*
X126714285Y-91380952D01*
X126761904Y-91190476D01*
X126809523Y-91095238D01*
X126904761Y-91000000D01*
X127047619Y-90952380D01*
X127142857Y-90952380D01*
X127285714Y-91000000D01*
X127333333Y-91047619D01*
X127666666Y-90952380D02*
X128285714Y-90952380D01*
X127952380Y-91333333D01*
X128095238Y-91333333D01*
X128190476Y-91380952D01*
X128238095Y-91428571D01*
X128285714Y-91523809D01*
X128285714Y-91761904D01*
X128238095Y-91857142D01*
X128190476Y-91904761D01*
X128095238Y-91952380D01*
X127809523Y-91952380D01*
X127714285Y-91904761D01*
X127666666Y-91857142D01*
X136357142Y-92166666D02*
X136404761Y-92214285D01*
X136452380Y-92357142D01*
X136452380Y-92452380D01*
X136404761Y-92595238D01*
X136309523Y-92690476D01*
X136214285Y-92738095D01*
X136023809Y-92785714D01*
X135880952Y-92785714D01*
X135690476Y-92738095D01*
X135595238Y-92690476D01*
X135500000Y-92595238D01*
X135452380Y-92452380D01*
X135452380Y-92357142D01*
X135500000Y-92214285D01*
X135547619Y-92166666D01*
X135785714Y-91309523D02*
X136452380Y-91309523D01*
X135404761Y-91547619D02*
X136119047Y-91785714D01*
X136119047Y-91166666D01*
X130357142Y-92166666D02*
X130404761Y-92214285D01*
X130452380Y-92357142D01*
X130452380Y-92452380D01*
X130404761Y-92595238D01*
X130309523Y-92690476D01*
X130214285Y-92738095D01*
X130023809Y-92785714D01*
X129880952Y-92785714D01*
X129690476Y-92738095D01*
X129595238Y-92690476D01*
X129500000Y-92595238D01*
X129452380Y-92452380D01*
X129452380Y-92357142D01*
X129500000Y-92214285D01*
X129547619Y-92166666D01*
X129452380Y-91261904D02*
X129452380Y-91738095D01*
X129928571Y-91785714D01*
X129880952Y-91738095D01*
X129833333Y-91642857D01*
X129833333Y-91404761D01*
X129880952Y-91309523D01*
X129928571Y-91261904D01*
X130023809Y-91214285D01*
X130261904Y-91214285D01*
X130357142Y-91261904D01*
X130404761Y-91309523D01*
X130452380Y-91404761D01*
X130452380Y-91642857D01*
X130404761Y-91738095D01*
X130357142Y-91785714D01*
X185333333Y-100857142D02*
X185285714Y-100904761D01*
X185142857Y-100952380D01*
X185047619Y-100952380D01*
X184904761Y-100904761D01*
X184809523Y-100809523D01*
X184761904Y-100714285D01*
X184714285Y-100523809D01*
X184714285Y-100380952D01*
X184761904Y-100190476D01*
X184809523Y-100095238D01*
X184904761Y-100000000D01*
X185047619Y-99952380D01*
X185142857Y-99952380D01*
X185285714Y-100000000D01*
X185333333Y-100047619D01*
X186190476Y-99952380D02*
X186000000Y-99952380D01*
X185904761Y-100000000D01*
X185857142Y-100047619D01*
X185761904Y-100190476D01*
X185714285Y-100380952D01*
X185714285Y-100761904D01*
X185761904Y-100857142D01*
X185809523Y-100904761D01*
X185904761Y-100952380D01*
X186095238Y-100952380D01*
X186190476Y-100904761D01*
X186238095Y-100857142D01*
X186285714Y-100761904D01*
X186285714Y-100523809D01*
X186238095Y-100428571D01*
X186190476Y-100380952D01*
X186095238Y-100333333D01*
X185904761Y-100333333D01*
X185809523Y-100380952D01*
X185761904Y-100428571D01*
X185714285Y-100523809D01*
X127333333Y-98037142D02*
X127285714Y-98084761D01*
X127142857Y-98132380D01*
X127047619Y-98132380D01*
X126904761Y-98084761D01*
X126809523Y-97989523D01*
X126761904Y-97894285D01*
X126714285Y-97703809D01*
X126714285Y-97560952D01*
X126761904Y-97370476D01*
X126809523Y-97275238D01*
X126904761Y-97180000D01*
X127047619Y-97132380D01*
X127142857Y-97132380D01*
X127285714Y-97180000D01*
X127333333Y-97227619D01*
X127666666Y-97132380D02*
X128333333Y-97132380D01*
X127904761Y-98132380D01*
X167857142Y-107666666D02*
X167904761Y-107714285D01*
X167952380Y-107857142D01*
X167952380Y-107952380D01*
X167904761Y-108095238D01*
X167809523Y-108190476D01*
X167714285Y-108238095D01*
X167523809Y-108285714D01*
X167380952Y-108285714D01*
X167190476Y-108238095D01*
X167095238Y-108190476D01*
X167000000Y-108095238D01*
X166952380Y-107952380D01*
X166952380Y-107857142D01*
X167000000Y-107714285D01*
X167047619Y-107666666D01*
X167380952Y-107095238D02*
X167333333Y-107190476D01*
X167285714Y-107238095D01*
X167190476Y-107285714D01*
X167142857Y-107285714D01*
X167047619Y-107238095D01*
X167000000Y-107190476D01*
X166952380Y-107095238D01*
X166952380Y-106904761D01*
X167000000Y-106809523D01*
X167047619Y-106761904D01*
X167142857Y-106714285D01*
X167190476Y-106714285D01*
X167285714Y-106761904D01*
X167333333Y-106809523D01*
X167380952Y-106904761D01*
X167380952Y-107095238D01*
X167428571Y-107190476D01*
X167476190Y-107238095D01*
X167571428Y-107285714D01*
X167761904Y-107285714D01*
X167857142Y-107238095D01*
X167904761Y-107190476D01*
X167952380Y-107095238D01*
X167952380Y-106904761D01*
X167904761Y-106809523D01*
X167857142Y-106761904D01*
X167761904Y-106714285D01*
X167571428Y-106714285D01*
X167476190Y-106761904D01*
X167428571Y-106809523D01*
X167380952Y-106904761D01*
X185833333Y-108857142D02*
X185785714Y-108904761D01*
X185642857Y-108952380D01*
X185547619Y-108952380D01*
X185404761Y-108904761D01*
X185309523Y-108809523D01*
X185261904Y-108714285D01*
X185214285Y-108523809D01*
X185214285Y-108380952D01*
X185261904Y-108190476D01*
X185309523Y-108095238D01*
X185404761Y-108000000D01*
X185547619Y-107952380D01*
X185642857Y-107952380D01*
X185785714Y-108000000D01*
X185833333Y-108047619D01*
X186309523Y-108952380D02*
X186500000Y-108952380D01*
X186595238Y-108904761D01*
X186642857Y-108857142D01*
X186738095Y-108714285D01*
X186785714Y-108523809D01*
X186785714Y-108142857D01*
X186738095Y-108047619D01*
X186690476Y-108000000D01*
X186595238Y-107952380D01*
X186404761Y-107952380D01*
X186309523Y-108000000D01*
X186261904Y-108047619D01*
X186214285Y-108142857D01*
X186214285Y-108380952D01*
X186261904Y-108476190D01*
X186309523Y-108523809D01*
X186404761Y-108571428D01*
X186595238Y-108571428D01*
X186690476Y-108523809D01*
X186738095Y-108476190D01*
X186785714Y-108380952D01*
X175857142Y-108142857D02*
X175904761Y-108190476D01*
X175952380Y-108333333D01*
X175952380Y-108428571D01*
X175904761Y-108571428D01*
X175809523Y-108666666D01*
X175714285Y-108714285D01*
X175523809Y-108761904D01*
X175380952Y-108761904D01*
X175190476Y-108714285D01*
X175095238Y-108666666D01*
X175000000Y-108571428D01*
X174952380Y-108428571D01*
X174952380Y-108333333D01*
X175000000Y-108190476D01*
X175047619Y-108142857D01*
X175952380Y-107190476D02*
X175952380Y-107761904D01*
X175952380Y-107476190D02*
X174952380Y-107476190D01*
X175095238Y-107571428D01*
X175190476Y-107666666D01*
X175238095Y-107761904D01*
X174952380Y-106571428D02*
X174952380Y-106476190D01*
X175000000Y-106380952D01*
X175047619Y-106333333D01*
X175142857Y-106285714D01*
X175333333Y-106238095D01*
X175571428Y-106238095D01*
X175761904Y-106285714D01*
X175857142Y-106333333D01*
X175904761Y-106380952D01*
X175952380Y-106476190D01*
X175952380Y-106571428D01*
X175904761Y-106666666D01*
X175857142Y-106714285D01*
X175761904Y-106761904D01*
X175571428Y-106809523D01*
X175333333Y-106809523D01*
X175142857Y-106761904D01*
X175047619Y-106714285D01*
X175000000Y-106666666D01*
X174952380Y-106571428D01*
X185357142Y-106357142D02*
X185309523Y-106404761D01*
X185166666Y-106452380D01*
X185071428Y-106452380D01*
X184928571Y-106404761D01*
X184833333Y-106309523D01*
X184785714Y-106214285D01*
X184738095Y-106023809D01*
X184738095Y-105880952D01*
X184785714Y-105690476D01*
X184833333Y-105595238D01*
X184928571Y-105500000D01*
X185071428Y-105452380D01*
X185166666Y-105452380D01*
X185309523Y-105500000D01*
X185357142Y-105547619D01*
X186309523Y-106452380D02*
X185738095Y-106452380D01*
X186023809Y-106452380D02*
X186023809Y-105452380D01*
X185928571Y-105595238D01*
X185833333Y-105690476D01*
X185738095Y-105738095D01*
X187261904Y-106452380D02*
X186690476Y-106452380D01*
X186976190Y-106452380D02*
X186976190Y-105452380D01*
X186880952Y-105595238D01*
X186785714Y-105690476D01*
X186690476Y-105738095D01*
X178857142Y-103677142D02*
X178809523Y-103724761D01*
X178666666Y-103772380D01*
X178571428Y-103772380D01*
X178428571Y-103724761D01*
X178333333Y-103629523D01*
X178285714Y-103534285D01*
X178238095Y-103343809D01*
X178238095Y-103200952D01*
X178285714Y-103010476D01*
X178333333Y-102915238D01*
X178428571Y-102820000D01*
X178571428Y-102772380D01*
X178666666Y-102772380D01*
X178809523Y-102820000D01*
X178857142Y-102867619D01*
X179809523Y-103772380D02*
X179238095Y-103772380D01*
X179523809Y-103772380D02*
X179523809Y-102772380D01*
X179428571Y-102915238D01*
X179333333Y-103010476D01*
X179238095Y-103058095D01*
X180190476Y-102867619D02*
X180238095Y-102820000D01*
X180333333Y-102772380D01*
X180571428Y-102772380D01*
X180666666Y-102820000D01*
X180714285Y-102867619D01*
X180761904Y-102962857D01*
X180761904Y-103058095D01*
X180714285Y-103200952D01*
X180142857Y-103772380D01*
X180761904Y-103772380D01*
X131037142Y-108142857D02*
X131084761Y-108190476D01*
X131132380Y-108333333D01*
X131132380Y-108428571D01*
X131084761Y-108571428D01*
X130989523Y-108666666D01*
X130894285Y-108714285D01*
X130703809Y-108761904D01*
X130560952Y-108761904D01*
X130370476Y-108714285D01*
X130275238Y-108666666D01*
X130180000Y-108571428D01*
X130132380Y-108428571D01*
X130132380Y-108333333D01*
X130180000Y-108190476D01*
X130227619Y-108142857D01*
X131132380Y-107190476D02*
X131132380Y-107761904D01*
X131132380Y-107476190D02*
X130132380Y-107476190D01*
X130275238Y-107571428D01*
X130370476Y-107666666D01*
X130418095Y-107761904D01*
X130132380Y-106857142D02*
X130132380Y-106238095D01*
X130513333Y-106571428D01*
X130513333Y-106428571D01*
X130560952Y-106333333D01*
X130608571Y-106285714D01*
X130703809Y-106238095D01*
X130941904Y-106238095D01*
X131037142Y-106285714D01*
X131084761Y-106333333D01*
X131132380Y-106428571D01*
X131132380Y-106714285D01*
X131084761Y-106809523D01*
X131037142Y-106857142D01*
X141357142Y-91177142D02*
X141309523Y-91224761D01*
X141166666Y-91272380D01*
X141071428Y-91272380D01*
X140928571Y-91224761D01*
X140833333Y-91129523D01*
X140785714Y-91034285D01*
X140738095Y-90843809D01*
X140738095Y-90700952D01*
X140785714Y-90510476D01*
X140833333Y-90415238D01*
X140928571Y-90320000D01*
X141071428Y-90272380D01*
X141166666Y-90272380D01*
X141309523Y-90320000D01*
X141357142Y-90367619D01*
X142309523Y-91272380D02*
X141738095Y-91272380D01*
X142023809Y-91272380D02*
X142023809Y-90272380D01*
X141928571Y-90415238D01*
X141833333Y-90510476D01*
X141738095Y-90558095D01*
X143166666Y-90605714D02*
X143166666Y-91272380D01*
X142928571Y-90224761D02*
X142690476Y-90939047D01*
X143309523Y-90939047D01*
X132857142Y-110357142D02*
X132809523Y-110404761D01*
X132666666Y-110452380D01*
X132571428Y-110452380D01*
X132428571Y-110404761D01*
X132333333Y-110309523D01*
X132285714Y-110214285D01*
X132238095Y-110023809D01*
X132238095Y-109880952D01*
X132285714Y-109690476D01*
X132333333Y-109595238D01*
X132428571Y-109500000D01*
X132571428Y-109452380D01*
X132666666Y-109452380D01*
X132809523Y-109500000D01*
X132857142Y-109547619D01*
X133809523Y-110452380D02*
X133238095Y-110452380D01*
X133523809Y-110452380D02*
X133523809Y-109452380D01*
X133428571Y-109595238D01*
X133333333Y-109690476D01*
X133238095Y-109738095D01*
X134714285Y-109452380D02*
X134238095Y-109452380D01*
X134190476Y-109928571D01*
X134238095Y-109880952D01*
X134333333Y-109833333D01*
X134571428Y-109833333D01*
X134666666Y-109880952D01*
X134714285Y-109928571D01*
X134761904Y-110023809D01*
X134761904Y-110261904D01*
X134714285Y-110357142D01*
X134666666Y-110404761D01*
X134571428Y-110452380D01*
X134333333Y-110452380D01*
X134238095Y-110404761D01*
X134190476Y-110357142D01*
X147857142Y-104357142D02*
X147809523Y-104404761D01*
X147666666Y-104452380D01*
X147571428Y-104452380D01*
X147428571Y-104404761D01*
X147333333Y-104309523D01*
X147285714Y-104214285D01*
X147238095Y-104023809D01*
X147238095Y-103880952D01*
X147285714Y-103690476D01*
X147333333Y-103595238D01*
X147428571Y-103500000D01*
X147571428Y-103452380D01*
X147666666Y-103452380D01*
X147809523Y-103500000D01*
X147857142Y-103547619D01*
X148809523Y-104452380D02*
X148238095Y-104452380D01*
X148523809Y-104452380D02*
X148523809Y-103452380D01*
X148428571Y-103595238D01*
X148333333Y-103690476D01*
X148238095Y-103738095D01*
X149666666Y-103452380D02*
X149476190Y-103452380D01*
X149380952Y-103500000D01*
X149333333Y-103547619D01*
X149238095Y-103690476D01*
X149190476Y-103880952D01*
X149190476Y-104261904D01*
X149238095Y-104357142D01*
X149285714Y-104404761D01*
X149380952Y-104452380D01*
X149571428Y-104452380D01*
X149666666Y-104404761D01*
X149714285Y-104357142D01*
X149761904Y-104261904D01*
X149761904Y-104023809D01*
X149714285Y-103928571D01*
X149666666Y-103880952D01*
X149571428Y-103833333D01*
X149380952Y-103833333D01*
X149285714Y-103880952D01*
X149238095Y-103928571D01*
X149190476Y-104023809D01*
X147857142Y-99032143D02*
X147809523Y-99079762D01*
X147666666Y-99127381D01*
X147571428Y-99127381D01*
X147428571Y-99079762D01*
X147333333Y-98984524D01*
X147285714Y-98889286D01*
X147238095Y-98698810D01*
X147238095Y-98555953D01*
X147285714Y-98365477D01*
X147333333Y-98270239D01*
X147428571Y-98175001D01*
X147571428Y-98127381D01*
X147666666Y-98127381D01*
X147809523Y-98175001D01*
X147857142Y-98222620D01*
X148809523Y-99127381D02*
X148238095Y-99127381D01*
X148523809Y-99127381D02*
X148523809Y-98127381D01*
X148428571Y-98270239D01*
X148333333Y-98365477D01*
X148238095Y-98413096D01*
X149142857Y-98127381D02*
X149809523Y-98127381D01*
X149380952Y-99127381D01*
X199357142Y-90642857D02*
X199404761Y-90690476D01*
X199452380Y-90833333D01*
X199452380Y-90928571D01*
X199404761Y-91071428D01*
X199309523Y-91166666D01*
X199214285Y-91214285D01*
X199023809Y-91261904D01*
X198880952Y-91261904D01*
X198690476Y-91214285D01*
X198595238Y-91166666D01*
X198500000Y-91071428D01*
X198452380Y-90928571D01*
X198452380Y-90833333D01*
X198500000Y-90690476D01*
X198547619Y-90642857D01*
X199452380Y-89690476D02*
X199452380Y-90261904D01*
X199452380Y-89976190D02*
X198452380Y-89976190D01*
X198595238Y-90071428D01*
X198690476Y-90166666D01*
X198738095Y-90261904D01*
X198880952Y-89119047D02*
X198833333Y-89214285D01*
X198785714Y-89261904D01*
X198690476Y-89309523D01*
X198642857Y-89309523D01*
X198547619Y-89261904D01*
X198500000Y-89214285D01*
X198452380Y-89119047D01*
X198452380Y-88928571D01*
X198500000Y-88833333D01*
X198547619Y-88785714D01*
X198642857Y-88738095D01*
X198690476Y-88738095D01*
X198785714Y-88785714D01*
X198833333Y-88833333D01*
X198880952Y-88928571D01*
X198880952Y-89119047D01*
X198928571Y-89214285D01*
X198976190Y-89261904D01*
X199071428Y-89309523D01*
X199261904Y-89309523D01*
X199357142Y-89261904D01*
X199404761Y-89214285D01*
X199452380Y-89119047D01*
X199452380Y-88928571D01*
X199404761Y-88833333D01*
X199357142Y-88785714D01*
X199261904Y-88738095D01*
X199071428Y-88738095D01*
X198976190Y-88785714D01*
X198928571Y-88833333D01*
X198880952Y-88928571D01*
X192857142Y-85857142D02*
X192809523Y-85904761D01*
X192666666Y-85952380D01*
X192571428Y-85952380D01*
X192428571Y-85904761D01*
X192333333Y-85809523D01*
X192285714Y-85714285D01*
X192238095Y-85523809D01*
X192238095Y-85380952D01*
X192285714Y-85190476D01*
X192333333Y-85095238D01*
X192428571Y-85000000D01*
X192571428Y-84952380D01*
X192666666Y-84952380D01*
X192809523Y-85000000D01*
X192857142Y-85047619D01*
X193809523Y-85952380D02*
X193238095Y-85952380D01*
X193523809Y-85952380D02*
X193523809Y-84952380D01*
X193428571Y-85095238D01*
X193333333Y-85190476D01*
X193238095Y-85238095D01*
X194285714Y-85952380D02*
X194476190Y-85952380D01*
X194571428Y-85904761D01*
X194619047Y-85857142D01*
X194714285Y-85714285D01*
X194761904Y-85523809D01*
X194761904Y-85142857D01*
X194714285Y-85047619D01*
X194666666Y-85000000D01*
X194571428Y-84952380D01*
X194380952Y-84952380D01*
X194285714Y-85000000D01*
X194238095Y-85047619D01*
X194190476Y-85142857D01*
X194190476Y-85380952D01*
X194238095Y-85476190D01*
X194285714Y-85523809D01*
X194380952Y-85571428D01*
X194571428Y-85571428D01*
X194666666Y-85523809D01*
X194714285Y-85476190D01*
X194761904Y-85380952D01*
X195357142Y-97857142D02*
X195309523Y-97904761D01*
X195166666Y-97952380D01*
X195071428Y-97952380D01*
X194928571Y-97904761D01*
X194833333Y-97809523D01*
X194785714Y-97714285D01*
X194738095Y-97523809D01*
X194738095Y-97380952D01*
X194785714Y-97190476D01*
X194833333Y-97095238D01*
X194928571Y-97000000D01*
X195071428Y-96952380D01*
X195166666Y-96952380D01*
X195309523Y-97000000D01*
X195357142Y-97047619D01*
X195738095Y-97047619D02*
X195785714Y-97000000D01*
X195880952Y-96952380D01*
X196119047Y-96952380D01*
X196214285Y-97000000D01*
X196261904Y-97047619D01*
X196309523Y-97142857D01*
X196309523Y-97238095D01*
X196261904Y-97380952D01*
X195690476Y-97952380D01*
X196309523Y-97952380D01*
X196928571Y-96952380D02*
X197023809Y-96952380D01*
X197119047Y-97000000D01*
X197166666Y-97047619D01*
X197214285Y-97142857D01*
X197261904Y-97333333D01*
X197261904Y-97571428D01*
X197214285Y-97761904D01*
X197166666Y-97857142D01*
X197119047Y-97904761D01*
X197023809Y-97952380D01*
X196928571Y-97952380D01*
X196833333Y-97904761D01*
X196785714Y-97857142D01*
X196738095Y-97761904D01*
X196690476Y-97571428D01*
X196690476Y-97333333D01*
X196738095Y-97142857D01*
X196785714Y-97047619D01*
X196833333Y-97000000D01*
X196928571Y-96952380D01*
X184357142Y-95642857D02*
X184404761Y-95690476D01*
X184452380Y-95833333D01*
X184452380Y-95928571D01*
X184404761Y-96071428D01*
X184309523Y-96166666D01*
X184214285Y-96214285D01*
X184023809Y-96261904D01*
X183880952Y-96261904D01*
X183690476Y-96214285D01*
X183595238Y-96166666D01*
X183500000Y-96071428D01*
X183452380Y-95928571D01*
X183452380Y-95833333D01*
X183500000Y-95690476D01*
X183547619Y-95642857D01*
X183547619Y-95261904D02*
X183500000Y-95214285D01*
X183452380Y-95119047D01*
X183452380Y-94880952D01*
X183500000Y-94785714D01*
X183547619Y-94738095D01*
X183642857Y-94690476D01*
X183738095Y-94690476D01*
X183880952Y-94738095D01*
X184452380Y-95309523D01*
X184452380Y-94690476D01*
X184452380Y-93738095D02*
X184452380Y-94309523D01*
X184452380Y-94023809D02*
X183452380Y-94023809D01*
X183595238Y-94119047D01*
X183690476Y-94214285D01*
X183738095Y-94309523D01*
X198857142Y-96857142D02*
X198809523Y-96904761D01*
X198666666Y-96952380D01*
X198571428Y-96952380D01*
X198428571Y-96904761D01*
X198333333Y-96809523D01*
X198285714Y-96714285D01*
X198238095Y-96523809D01*
X198238095Y-96380952D01*
X198285714Y-96190476D01*
X198333333Y-96095238D01*
X198428571Y-96000000D01*
X198571428Y-95952380D01*
X198666666Y-95952380D01*
X198809523Y-96000000D01*
X198857142Y-96047619D01*
X199238095Y-96047619D02*
X199285714Y-96000000D01*
X199380952Y-95952380D01*
X199619047Y-95952380D01*
X199714285Y-96000000D01*
X199761904Y-96047619D01*
X199809523Y-96142857D01*
X199809523Y-96238095D01*
X199761904Y-96380952D01*
X199190476Y-96952380D01*
X199809523Y-96952380D01*
X200190476Y-96047619D02*
X200238095Y-96000000D01*
X200333333Y-95952380D01*
X200571428Y-95952380D01*
X200666666Y-96000000D01*
X200714285Y-96047619D01*
X200761904Y-96142857D01*
X200761904Y-96238095D01*
X200714285Y-96380952D01*
X200142857Y-96952380D01*
X200761904Y-96952380D01*
X200857142Y-93642857D02*
X200904761Y-93690476D01*
X200952380Y-93833333D01*
X200952380Y-93928571D01*
X200904761Y-94071428D01*
X200809523Y-94166666D01*
X200714285Y-94214285D01*
X200523809Y-94261904D01*
X200380952Y-94261904D01*
X200190476Y-94214285D01*
X200095238Y-94166666D01*
X200000000Y-94071428D01*
X199952380Y-93928571D01*
X199952380Y-93833333D01*
X200000000Y-93690476D01*
X200047619Y-93642857D01*
X200047619Y-93261904D02*
X200000000Y-93214285D01*
X199952380Y-93119047D01*
X199952380Y-92880952D01*
X200000000Y-92785714D01*
X200047619Y-92738095D01*
X200142857Y-92690476D01*
X200238095Y-92690476D01*
X200380952Y-92738095D01*
X200952380Y-93309523D01*
X200952380Y-92690476D01*
X199952380Y-92357142D02*
X199952380Y-91738095D01*
X200333333Y-92071428D01*
X200333333Y-91928571D01*
X200380952Y-91833333D01*
X200428571Y-91785714D01*
X200523809Y-91738095D01*
X200761904Y-91738095D01*
X200857142Y-91785714D01*
X200904761Y-91833333D01*
X200952380Y-91928571D01*
X200952380Y-92214285D01*
X200904761Y-92309523D01*
X200857142Y-92357142D01*
X149952380Y-84238095D02*
X148952380Y-84238095D01*
X148952380Y-84000000D01*
X149000000Y-83857142D01*
X149095238Y-83761904D01*
X149190476Y-83714285D01*
X149380952Y-83666666D01*
X149523809Y-83666666D01*
X149714285Y-83714285D01*
X149809523Y-83761904D01*
X149904761Y-83857142D01*
X149952380Y-84000000D01*
X149952380Y-84238095D01*
X149952380Y-82714285D02*
X149952380Y-83285714D01*
X149952380Y-83000000D02*
X148952380Y-83000000D01*
X149095238Y-83095238D01*
X149190476Y-83190476D01*
X149238095Y-83285714D01*
X123666666Y-105782380D02*
X123666666Y-106496666D01*
X123619047Y-106639523D01*
X123523809Y-106734761D01*
X123380952Y-106782380D01*
X123285714Y-106782380D01*
X124047619Y-105782380D02*
X124666666Y-105782380D01*
X124333333Y-106163333D01*
X124476190Y-106163333D01*
X124571428Y-106210952D01*
X124619047Y-106258571D01*
X124666666Y-106353809D01*
X124666666Y-106591904D01*
X124619047Y-106687142D01*
X124571428Y-106734761D01*
X124476190Y-106782380D01*
X124190476Y-106782380D01*
X124095238Y-106734761D01*
X124047619Y-106687142D01*
X180190476Y-82852380D02*
X180190476Y-81852380D01*
X180523809Y-82566666D01*
X180857142Y-81852380D01*
X180857142Y-82852380D01*
X181857142Y-82852380D02*
X181285714Y-82852380D01*
X181571428Y-82852380D02*
X181571428Y-81852380D01*
X181476190Y-81995238D01*
X181380952Y-82090476D01*
X181285714Y-82138095D01*
X164583333Y-95702380D02*
X164250000Y-95226190D01*
X164011904Y-95702380D02*
X164011904Y-94702380D01*
X164392857Y-94702380D01*
X164488095Y-94750000D01*
X164535714Y-94797619D01*
X164583333Y-94892857D01*
X164583333Y-95035714D01*
X164535714Y-95130952D01*
X164488095Y-95178571D01*
X164392857Y-95226190D01*
X164011904Y-95226190D01*
X165535714Y-95702380D02*
X164964285Y-95702380D01*
X165250000Y-95702380D02*
X165250000Y-94702380D01*
X165154761Y-94845238D01*
X165059523Y-94940476D01*
X164964285Y-94988095D01*
X153833333Y-88952380D02*
X153500000Y-88476190D01*
X153261904Y-88952380D02*
X153261904Y-87952380D01*
X153642857Y-87952380D01*
X153738095Y-88000000D01*
X153785714Y-88047619D01*
X153833333Y-88142857D01*
X153833333Y-88285714D01*
X153785714Y-88380952D01*
X153738095Y-88428571D01*
X153642857Y-88476190D01*
X153261904Y-88476190D01*
X154166666Y-87952380D02*
X154785714Y-87952380D01*
X154452380Y-88333333D01*
X154595238Y-88333333D01*
X154690476Y-88380952D01*
X154738095Y-88428571D01*
X154785714Y-88523809D01*
X154785714Y-88761904D01*
X154738095Y-88857142D01*
X154690476Y-88904761D01*
X154595238Y-88952380D01*
X154309523Y-88952380D01*
X154214285Y-88904761D01*
X154166666Y-88857142D01*
X139452380Y-111166666D02*
X138976190Y-111500000D01*
X139452380Y-111738095D02*
X138452380Y-111738095D01*
X138452380Y-111357142D01*
X138500000Y-111261904D01*
X138547619Y-111214285D01*
X138642857Y-111166666D01*
X138785714Y-111166666D01*
X138880952Y-111214285D01*
X138928571Y-111261904D01*
X138976190Y-111357142D01*
X138976190Y-111738095D01*
X138785714Y-110309523D02*
X139452380Y-110309523D01*
X138404761Y-110547619D02*
X139119047Y-110785714D01*
X139119047Y-110166666D01*
X155333333Y-102952380D02*
X155000000Y-102476190D01*
X154761904Y-102952380D02*
X154761904Y-101952380D01*
X155142857Y-101952380D01*
X155238095Y-102000000D01*
X155285714Y-102047619D01*
X155333333Y-102142857D01*
X155333333Y-102285714D01*
X155285714Y-102380952D01*
X155238095Y-102428571D01*
X155142857Y-102476190D01*
X154761904Y-102476190D01*
X156238095Y-101952380D02*
X155761904Y-101952380D01*
X155714285Y-102428571D01*
X155761904Y-102380952D01*
X155857142Y-102333333D01*
X156095238Y-102333333D01*
X156190476Y-102380952D01*
X156238095Y-102428571D01*
X156285714Y-102523809D01*
X156285714Y-102761904D01*
X156238095Y-102857142D01*
X156190476Y-102904761D01*
X156095238Y-102952380D01*
X155857142Y-102952380D01*
X155761904Y-102904761D01*
X155714285Y-102857142D01*
X155333333Y-100952380D02*
X155000000Y-100476190D01*
X154761904Y-100952380D02*
X154761904Y-99952380D01*
X155142857Y-99952380D01*
X155238095Y-100000000D01*
X155285714Y-100047619D01*
X155333333Y-100142857D01*
X155333333Y-100285714D01*
X155285714Y-100380952D01*
X155238095Y-100428571D01*
X155142857Y-100476190D01*
X154761904Y-100476190D01*
X156190476Y-99952380D02*
X156000000Y-99952380D01*
X155904761Y-100000000D01*
X155857142Y-100047619D01*
X155761904Y-100190476D01*
X155714285Y-100380952D01*
X155714285Y-100761904D01*
X155761904Y-100857142D01*
X155809523Y-100904761D01*
X155904761Y-100952380D01*
X156095238Y-100952380D01*
X156190476Y-100904761D01*
X156238095Y-100857142D01*
X156285714Y-100761904D01*
X156285714Y-100523809D01*
X156238095Y-100428571D01*
X156190476Y-100380952D01*
X156095238Y-100333333D01*
X155904761Y-100333333D01*
X155809523Y-100380952D01*
X155761904Y-100428571D01*
X155714285Y-100523809D01*
X139952380Y-91166666D02*
X139476190Y-91500000D01*
X139952380Y-91738095D02*
X138952380Y-91738095D01*
X138952380Y-91357142D01*
X139000000Y-91261904D01*
X139047619Y-91214285D01*
X139142857Y-91166666D01*
X139285714Y-91166666D01*
X139380952Y-91214285D01*
X139428571Y-91261904D01*
X139476190Y-91357142D01*
X139476190Y-91738095D01*
X138952380Y-90833333D02*
X138952380Y-90166666D01*
X139952380Y-90595238D01*
X138452380Y-91166666D02*
X137976190Y-91500000D01*
X138452380Y-91738095D02*
X137452380Y-91738095D01*
X137452380Y-91357142D01*
X137500000Y-91261904D01*
X137547619Y-91214285D01*
X137642857Y-91166666D01*
X137785714Y-91166666D01*
X137880952Y-91214285D01*
X137928571Y-91261904D01*
X137976190Y-91357142D01*
X137976190Y-91738095D01*
X137880952Y-90595238D02*
X137833333Y-90690476D01*
X137785714Y-90738095D01*
X137690476Y-90785714D01*
X137642857Y-90785714D01*
X137547619Y-90738095D01*
X137500000Y-90690476D01*
X137452380Y-90595238D01*
X137452380Y-90404761D01*
X137500000Y-90309523D01*
X137547619Y-90261904D01*
X137642857Y-90214285D01*
X137690476Y-90214285D01*
X137785714Y-90261904D01*
X137833333Y-90309523D01*
X137880952Y-90404761D01*
X137880952Y-90595238D01*
X137928571Y-90690476D01*
X137976190Y-90738095D01*
X138071428Y-90785714D01*
X138261904Y-90785714D01*
X138357142Y-90738095D01*
X138404761Y-90690476D01*
X138452380Y-90595238D01*
X138452380Y-90404761D01*
X138404761Y-90309523D01*
X138357142Y-90261904D01*
X138261904Y-90214285D01*
X138071428Y-90214285D01*
X137976190Y-90261904D01*
X137928571Y-90309523D01*
X137880952Y-90404761D01*
X135547619Y-110833333D02*
X136023809Y-110500000D01*
X135547619Y-110261904D02*
X136547619Y-110261904D01*
X136547619Y-110642857D01*
X136500000Y-110738095D01*
X136452380Y-110785714D01*
X136357142Y-110833333D01*
X136214285Y-110833333D01*
X136119047Y-110785714D01*
X136071428Y-110738095D01*
X136023809Y-110642857D01*
X136023809Y-110261904D01*
X135547619Y-111309523D02*
X135547619Y-111500000D01*
X135595238Y-111595238D01*
X135642857Y-111642857D01*
X135785714Y-111738095D01*
X135976190Y-111785714D01*
X136357142Y-111785714D01*
X136452380Y-111738095D01*
X136500000Y-111690476D01*
X136547619Y-111595238D01*
X136547619Y-111404761D01*
X136500000Y-111309523D01*
X136452380Y-111261904D01*
X136357142Y-111214285D01*
X136119047Y-111214285D01*
X136023809Y-111261904D01*
X135976190Y-111309523D01*
X135928571Y-111404761D01*
X135928571Y-111595238D01*
X135976190Y-111690476D01*
X136023809Y-111738095D01*
X136119047Y-111785714D01*
X137952380Y-111142857D02*
X137476190Y-111476190D01*
X137952380Y-111714285D02*
X136952380Y-111714285D01*
X136952380Y-111333333D01*
X137000000Y-111238095D01*
X137047619Y-111190476D01*
X137142857Y-111142857D01*
X137285714Y-111142857D01*
X137380952Y-111190476D01*
X137428571Y-111238095D01*
X137476190Y-111333333D01*
X137476190Y-111714285D01*
X137952380Y-110190476D02*
X137952380Y-110761904D01*
X137952380Y-110476190D02*
X136952380Y-110476190D01*
X137095238Y-110571428D01*
X137190476Y-110666666D01*
X137238095Y-110761904D01*
X136952380Y-109571428D02*
X136952380Y-109476190D01*
X137000000Y-109380952D01*
X137047619Y-109333333D01*
X137142857Y-109285714D01*
X137333333Y-109238095D01*
X137571428Y-109238095D01*
X137761904Y-109285714D01*
X137857142Y-109333333D01*
X137904761Y-109380952D01*
X137952380Y-109476190D01*
X137952380Y-109571428D01*
X137904761Y-109666666D01*
X137857142Y-109714285D01*
X137761904Y-109761904D01*
X137571428Y-109809523D01*
X137333333Y-109809523D01*
X137142857Y-109761904D01*
X137047619Y-109714285D01*
X137000000Y-109666666D01*
X136952380Y-109571428D01*
X190357142Y-86952380D02*
X190023809Y-86476190D01*
X189785714Y-86952380D02*
X189785714Y-85952380D01*
X190166666Y-85952380D01*
X190261904Y-86000000D01*
X190309523Y-86047619D01*
X190357142Y-86142857D01*
X190357142Y-86285714D01*
X190309523Y-86380952D01*
X190261904Y-86428571D01*
X190166666Y-86476190D01*
X189785714Y-86476190D01*
X191309523Y-86952380D02*
X190738095Y-86952380D01*
X191023809Y-86952380D02*
X191023809Y-85952380D01*
X190928571Y-86095238D01*
X190833333Y-86190476D01*
X190738095Y-86238095D01*
X192261904Y-86952380D02*
X191690476Y-86952380D01*
X191976190Y-86952380D02*
X191976190Y-85952380D01*
X191880952Y-86095238D01*
X191785714Y-86190476D01*
X191690476Y-86238095D01*
X186857142Y-86952380D02*
X186523809Y-86476190D01*
X186285714Y-86952380D02*
X186285714Y-85952380D01*
X186666666Y-85952380D01*
X186761904Y-86000000D01*
X186809523Y-86047619D01*
X186857142Y-86142857D01*
X186857142Y-86285714D01*
X186809523Y-86380952D01*
X186761904Y-86428571D01*
X186666666Y-86476190D01*
X186285714Y-86476190D01*
X187809523Y-86952380D02*
X187238095Y-86952380D01*
X187523809Y-86952380D02*
X187523809Y-85952380D01*
X187428571Y-86095238D01*
X187333333Y-86190476D01*
X187238095Y-86238095D01*
X188190476Y-86047619D02*
X188238095Y-86000000D01*
X188333333Y-85952380D01*
X188571428Y-85952380D01*
X188666666Y-86000000D01*
X188714285Y-86047619D01*
X188761904Y-86142857D01*
X188761904Y-86238095D01*
X188714285Y-86380952D01*
X188142857Y-86952380D01*
X188761904Y-86952380D01*
X147357142Y-85952380D02*
X147023809Y-85476190D01*
X146785714Y-85952380D02*
X146785714Y-84952380D01*
X147166666Y-84952380D01*
X147261904Y-85000000D01*
X147309523Y-85047619D01*
X147357142Y-85142857D01*
X147357142Y-85285714D01*
X147309523Y-85380952D01*
X147261904Y-85428571D01*
X147166666Y-85476190D01*
X146785714Y-85476190D01*
X148309523Y-85952380D02*
X147738095Y-85952380D01*
X148023809Y-85952380D02*
X148023809Y-84952380D01*
X147928571Y-85095238D01*
X147833333Y-85190476D01*
X147738095Y-85238095D01*
X148642857Y-84952380D02*
X149261904Y-84952380D01*
X148928571Y-85333333D01*
X149071428Y-85333333D01*
X149166666Y-85380952D01*
X149214285Y-85428571D01*
X149261904Y-85523809D01*
X149261904Y-85761904D01*
X149214285Y-85857142D01*
X149166666Y-85904761D01*
X149071428Y-85952380D01*
X148785714Y-85952380D01*
X148690476Y-85904761D01*
X148642857Y-85857142D01*
X173952380Y-113595238D02*
X173476190Y-113928571D01*
X173952380Y-114166666D02*
X172952380Y-114166666D01*
X172952380Y-113785714D01*
X173000000Y-113690476D01*
X173047619Y-113642857D01*
X173142857Y-113595238D01*
X173285714Y-113595238D01*
X173380952Y-113642857D01*
X173428571Y-113690476D01*
X173476190Y-113785714D01*
X173476190Y-114166666D01*
X172952380Y-113309523D02*
X173952380Y-112976190D01*
X172952380Y-112642857D01*
X173952380Y-111785714D02*
X173952380Y-112357142D01*
X173952380Y-112071428D02*
X172952380Y-112071428D01*
X173095238Y-112166666D01*
X173190476Y-112261904D01*
X173238095Y-112357142D01*
X152095238Y-83166666D02*
X152047619Y-83309523D01*
X152047619Y-83547619D01*
X152095238Y-83642857D01*
X152142857Y-83690476D01*
X152238095Y-83738095D01*
X152333333Y-83738095D01*
X152428571Y-83690476D01*
X152476190Y-83642857D01*
X152523809Y-83547619D01*
X152571428Y-83357142D01*
X152619047Y-83261904D01*
X152666666Y-83214285D01*
X152761904Y-83166666D01*
X152857142Y-83166666D01*
X152952380Y-83214285D01*
X153000000Y-83261904D01*
X153047619Y-83357142D01*
X153047619Y-83595238D01*
X153000000Y-83738095D01*
X153047619Y-84071428D02*
X152047619Y-84309523D01*
X152761904Y-84500000D01*
X152047619Y-84690476D01*
X153047619Y-84928571D01*
X152047619Y-85833333D02*
X152047619Y-85261904D01*
X152047619Y-85547619D02*
X153047619Y-85547619D01*
X152904761Y-85452380D01*
X152809523Y-85357142D01*
X152761904Y-85261904D01*
X127702380Y-101261904D02*
X128511904Y-101261904D01*
X128607142Y-101214285D01*
X128654761Y-101166666D01*
X128702380Y-101071428D01*
X128702380Y-100880952D01*
X128654761Y-100785714D01*
X128607142Y-100738095D01*
X128511904Y-100690476D01*
X127702380Y-100690476D01*
X128702380Y-99690476D02*
X128702380Y-100261904D01*
X128702380Y-99976190D02*
X127702380Y-99976190D01*
X127845238Y-100071428D01*
X127940476Y-100166666D01*
X127988095Y-100261904D01*
X175452380Y-104761904D02*
X176261904Y-104761904D01*
X176357142Y-104714285D01*
X176404761Y-104666666D01*
X176452380Y-104571428D01*
X176452380Y-104380952D01*
X176404761Y-104285714D01*
X176357142Y-104238095D01*
X176261904Y-104190476D01*
X175452380Y-104190476D01*
X175547619Y-103761904D02*
X175500000Y-103714285D01*
X175452380Y-103619047D01*
X175452380Y-103380952D01*
X175500000Y-103285714D01*
X175547619Y-103238095D01*
X175642857Y-103190476D01*
X175738095Y-103190476D01*
X175880952Y-103238095D01*
X176452380Y-103809523D01*
X176452380Y-103190476D01*
D15*
X196087380Y-91936904D02*
X196896904Y-91936904D01*
X196992142Y-91889285D01*
X197039761Y-91841666D01*
X197087380Y-91746428D01*
X197087380Y-91555952D01*
X197039761Y-91460714D01*
X196992142Y-91413095D01*
X196896904Y-91365476D01*
X196087380Y-91365476D01*
X196087380Y-90984523D02*
X196087380Y-90365476D01*
X196468333Y-90698809D01*
X196468333Y-90555952D01*
X196515952Y-90460714D01*
X196563571Y-90413095D01*
X196658809Y-90365476D01*
X196896904Y-90365476D01*
X196992142Y-90413095D01*
X197039761Y-90460714D01*
X197087380Y-90555952D01*
X197087380Y-90841666D01*
X197039761Y-90936904D01*
X196992142Y-90984523D01*
D11*
X195738095Y-112452380D02*
X195738095Y-113261904D01*
X195785714Y-113357142D01*
X195833333Y-113404761D01*
X195928571Y-113452380D01*
X196119047Y-113452380D01*
X196214285Y-113404761D01*
X196261904Y-113357142D01*
X196309523Y-113261904D01*
X196309523Y-112452380D01*
X197214285Y-112785714D02*
X197214285Y-113452380D01*
X196976190Y-112404761D02*
X196738095Y-113119047D01*
X197357142Y-113119047D01*
X132523809Y-91026190D02*
X132523809Y-91502380D01*
X132190476Y-90502380D02*
X132523809Y-91026190D01*
X132857142Y-90502380D01*
X133714285Y-91502380D02*
X133142857Y-91502380D01*
X133428571Y-91502380D02*
X133428571Y-90502380D01*
X133333333Y-90645238D01*
X133238095Y-90740476D01*
X133142857Y-90788095D01*
X169523809Y-109976190D02*
X169523809Y-110452380D01*
X169190476Y-109452380D02*
X169523809Y-109976190D01*
X169857142Y-109452380D01*
X170142857Y-109547619D02*
X170190476Y-109500000D01*
X170285714Y-109452380D01*
X170523809Y-109452380D01*
X170619047Y-109500000D01*
X170666666Y-109547619D01*
X170714285Y-109642857D01*
X170714285Y-109738095D01*
X170666666Y-109880952D01*
X170095238Y-110452380D01*
X170714285Y-110452380D01*
X185766666Y-111452380D02*
X185766666Y-112166666D01*
X185719047Y-112309523D01*
X185623809Y-112404761D01*
X185480952Y-112452380D01*
X185385714Y-112452380D01*
X186195238Y-111547619D02*
X186242857Y-111500000D01*
X186338095Y-111452380D01*
X186576190Y-111452380D01*
X186671428Y-111500000D01*
X186719047Y-111547619D01*
X186766666Y-111642857D01*
X186766666Y-111738095D01*
X186719047Y-111880952D01*
X186147619Y-112452380D01*
X186766666Y-112452380D01*
X164202380Y-98642857D02*
X163726190Y-98976190D01*
X164202380Y-99214285D02*
X163202380Y-99214285D01*
X163202380Y-98833333D01*
X163250000Y-98738095D01*
X163297619Y-98690476D01*
X163392857Y-98642857D01*
X163535714Y-98642857D01*
X163630952Y-98690476D01*
X163678571Y-98738095D01*
X163726190Y-98833333D01*
X163726190Y-99214285D01*
X164202380Y-97690476D02*
X164202380Y-98261904D01*
X164202380Y-97976190D02*
X163202380Y-97976190D01*
X163345238Y-98071428D01*
X163440476Y-98166666D01*
X163488095Y-98261904D01*
X163535714Y-96833333D02*
X164202380Y-96833333D01*
X163154761Y-97071428D02*
X163869047Y-97309523D01*
X163869047Y-96690476D01*
X181282380Y-96942857D02*
X180806190Y-97276190D01*
X181282380Y-97514285D02*
X180282380Y-97514285D01*
X180282380Y-97133333D01*
X180330000Y-97038095D01*
X180377619Y-96990476D01*
X180472857Y-96942857D01*
X180615714Y-96942857D01*
X180710952Y-96990476D01*
X180758571Y-97038095D01*
X180806190Y-97133333D01*
X180806190Y-97514285D01*
X181282380Y-95990476D02*
X181282380Y-96561904D01*
X181282380Y-96276190D02*
X180282380Y-96276190D01*
X180425238Y-96371428D01*
X180520476Y-96466666D01*
X180568095Y-96561904D01*
X180282380Y-95085714D02*
X180282380Y-95561904D01*
X180758571Y-95609523D01*
X180710952Y-95561904D01*
X180663333Y-95466666D01*
X180663333Y-95228571D01*
X180710952Y-95133333D01*
X180758571Y-95085714D01*
X180853809Y-95038095D01*
X181091904Y-95038095D01*
X181187142Y-95085714D01*
X181234761Y-95133333D01*
X181282380Y-95228571D01*
X181282380Y-95466666D01*
X181234761Y-95561904D01*
X181187142Y-95609523D01*
X164502380Y-90333333D02*
X165216666Y-90333333D01*
X165359523Y-90380952D01*
X165454761Y-90476190D01*
X165502380Y-90619047D01*
X165502380Y-90714285D01*
X165502380Y-89809523D02*
X165502380Y-89619047D01*
X165454761Y-89523809D01*
X165407142Y-89476190D01*
X165264285Y-89380952D01*
X165073809Y-89333333D01*
X164692857Y-89333333D01*
X164597619Y-89380952D01*
X164550000Y-89428571D01*
X164502380Y-89523809D01*
X164502380Y-89714285D01*
X164550000Y-89809523D01*
X164597619Y-89857142D01*
X164692857Y-89904761D01*
X164930952Y-89904761D01*
X165026190Y-89857142D01*
X165073809Y-89809523D01*
X165121428Y-89714285D01*
X165121428Y-89523809D01*
X165073809Y-89428571D01*
X165026190Y-89380952D01*
X164930952Y-89333333D01*
M02*
